<svg xmlns="http://www.w3.org/2000/svg" width="173" height="114" fill="none" viewBox="0 0 173 114"><rect width="173" height="114" fill="#51C0C0" fill-opacity=".65"/><g clip-path="url(#clip0)"><path fill="#51C0C0" d="M79.8717 19.1283L48.1283 50.8717C44.7437 54.2563 44.7437 59.7437 48.1283 63.1283L79.8717 94.8717C83.2563 98.2563 88.7437 98.2563 92.1283 94.8717L123.872 63.1283C127.256 59.7437 127.256 54.2563 123.872 50.8717L92.1283 19.1283C88.7437 15.7437 83.2563 15.7437 79.8717 19.1283Z"/><path fill="#8ED6D6" d="M81.2859 23.872L52.872 52.286C50.2685 54.8894 50.2685 59.1106 52.872 61.714L81.2859 90.128C83.8894 92.7315 88.1105 92.7315 90.714 90.128L119.128 61.714C121.731 59.1106 121.731 54.8894 119.128 52.286L90.714 23.872C88.1105 21.2685 83.8894 21.2685 81.2859 23.872Z"/><path fill="#51C0C0" d="M73.703 60.9481H73.6408C73.3924 61.3898 72.9921 61.7556 72.4399 62.0455C71.8878 62.3216 71.2597 62.4596 70.5557 62.4596C70.1554 62.4596 69.7343 62.4044 69.2926 62.294C68.8647 62.1973 68.4644 62.0317 68.0917 61.797C67.7328 61.5486 67.4291 61.2311 67.1806 60.8446C66.9459 60.4442 66.8286 59.9542 66.8286 59.3744C66.8286 58.629 67.0357 58.0355 67.4498 57.5937C67.8777 57.152 68.423 56.8138 69.0856 56.5791C69.7481 56.3445 70.4798 56.1926 71.2804 56.1236C72.0948 56.0408 72.8885 55.9994 73.6616 55.9994V55.7509C73.6616 55.1297 73.4338 54.6742 72.9783 54.3843C72.5365 54.0806 72.0051 53.9288 71.3839 53.9288C70.8594 53.9288 70.3555 54.0392 69.8724 54.2601C69.3892 54.4809 68.9889 54.7501 68.6714 55.0676L67.3877 53.5561C67.9536 53.0315 68.6024 52.6381 69.334 52.3758C70.0794 52.1136 70.8318 51.9824 71.591 51.9824C72.4744 51.9824 73.1991 52.1067 73.7651 52.3551C74.3448 52.6036 74.8004 52.928 75.1317 53.3283C75.463 53.7286 75.6907 54.1772 75.815 54.6742C75.953 55.1711 76.022 55.6681 76.022 56.165V62.2111H73.703V60.9481ZM73.6616 57.6766H73.1025C72.7022 57.6766 72.2812 57.6973 71.8394 57.7387C71.3977 57.7663 70.9905 57.8422 70.6178 57.9664C70.2451 58.0769 69.9345 58.2425 69.686 58.4634C69.4376 58.6704 69.3133 58.9603 69.3133 59.333C69.3133 59.5677 69.3616 59.7678 69.4583 59.9335C69.5687 60.0853 69.7067 60.2096 69.8724 60.3062C70.038 60.4028 70.2244 60.4719 70.4314 60.5133C70.6385 60.5547 70.8456 60.5754 71.0526 60.5754C71.9085 60.5754 72.5572 60.3476 72.999 59.8921C73.4407 59.4366 73.6616 58.8154 73.6616 58.0286V57.6766Z"/><path fill="#51C0C0" d="M85.7083 55.0262C85.5151 54.7501 85.2252 54.5223 84.8387 54.3429C84.4522 54.1496 84.0588 54.053 83.6585 54.053C83.2029 54.053 82.8026 54.1496 82.4575 54.3429C82.1124 54.5223 81.8225 54.7639 81.5879 55.0676C81.367 55.3713 81.2014 55.7164 81.0909 56.1029C80.9805 56.4756 80.9253 56.8552 80.9253 57.2417C80.9253 57.6282 80.9805 58.0147 81.0909 58.4013C81.2152 58.774 81.3946 59.1122 81.6293 59.4158C81.8639 59.7195 82.1538 59.968 82.4989 60.1613C82.8578 60.3407 83.2719 60.4304 83.7413 60.4304C84.1278 60.4304 84.5143 60.3545 84.9008 60.2027C85.2873 60.0508 85.5979 59.83 85.8326 59.5401L87.3855 61.1137C86.9714 61.5555 86.4399 61.9006 85.7912 62.149C85.1562 62.3837 84.466 62.501 83.7206 62.501C82.989 62.501 82.2919 62.3837 81.6293 62.149C80.9805 61.9144 80.4076 61.5693 79.9107 61.1137C79.4276 60.6582 79.041 60.106 78.7512 59.4573C78.4751 58.8085 78.337 58.07 78.337 57.2417C78.337 56.4411 78.4751 55.7164 78.7512 55.0676C79.041 54.4188 79.4276 53.8667 79.9107 53.4111C80.3938 52.9556 80.9529 52.6036 81.5879 52.3551C82.2366 52.1067 82.9268 51.9824 83.6585 51.9824C84.3901 51.9824 85.0941 52.1205 85.7705 52.3965C86.4606 52.6726 87.0059 53.0522 87.4062 53.5354L85.7083 55.0262Z"/><path fill="#51C0C0" d="M100.892 51.9824C101.54 51.9824 102.093 52.0998 102.548 52.3344C103.017 52.5553 103.397 52.8521 103.687 53.2248C103.991 53.5975 104.211 54.0254 104.349 54.5085C104.487 54.9917 104.557 55.4886 104.557 55.9994V62.2111H102.072V56.7034C102.072 56.4135 102.051 56.1098 102.01 55.7923C101.968 55.4748 101.879 55.1918 101.741 54.9434C101.602 54.6811 101.409 54.4671 101.161 54.3015C100.926 54.1358 100.609 54.053 100.208 54.053C99.8218 54.053 99.4905 54.1358 99.2144 54.3015C98.9383 54.4671 98.7106 54.6811 98.5311 54.9434C98.3517 55.2056 98.2205 55.5024 98.1377 55.8337C98.0549 56.1512 98.0135 56.4687 98.0135 56.7862V62.2111H95.5287V56.2064C95.5287 55.5853 95.3769 55.0745 95.0732 54.6742C94.7833 54.2601 94.3209 54.053 93.6859 54.053C93.3132 54.053 92.9888 54.1358 92.7127 54.3015C92.4367 54.4533 92.2089 54.6535 92.0295 54.902C91.8638 55.1504 91.7327 55.4403 91.636 55.7716C91.5532 56.0891 91.5118 56.4135 91.5118 56.7448V62.2111H89.0271V52.2723H91.3876V53.8667H91.429C91.5394 53.6182 91.6844 53.3835 91.8638 53.1627C92.0571 52.9418 92.2779 52.7416 92.5264 52.5622C92.7887 52.3827 93.0855 52.2447 93.4167 52.1481C93.748 52.0376 94.1138 51.9824 94.5142 51.9824C95.2872 51.9824 95.9291 52.155 96.4398 52.5001C96.9506 52.8452 97.344 53.3007 97.62 53.8667C97.9513 53.2593 98.3931 52.7969 98.9452 52.4794C99.4974 52.1481 100.146 51.9824 100.892 51.9824Z"/></g><defs><clipPath id="clip0"><rect width="88" height="88" fill="#fff" transform="translate(42 13)"/></clipPath></defs></svg>