<svg xmlns="http://www.w3.org/2000/svg" width="40" height="40" fill="none" viewBox="0 0 40 40"><path fill="#FF6F6F" d="M1.99962 22.0002H3.99966V36C3.99966 38.206 5.7937 40 7.99974 40H32.0003C34.2063 40 36.0003 38.206 36.0003 36V22.0002H38.0004C38.3959 22.0001 38.7825 21.8828 39.1113 21.663C39.4402 21.4432 39.6964 21.1309 39.8478 20.7655C39.9991 20.4001 40.0387 19.998 39.9616 19.6101C39.8845 19.2222 39.694 18.8659 39.4144 18.5862L21.414 0.586396C21.2285 0.400507 21.008 0.253033 20.7654 0.152412C20.5228 0.0517916 20.2627 0 20 0C19.7373 0 19.4772 0.0517916 19.2346 0.152412C18.992 0.253033 18.7716 0.400507 18.586 0.586396L0.585586 18.5862C0.305961 18.8659 0.115545 19.2222 0.0384078 19.6101C-0.038729 19.998 0.000877921 20.4001 0.152221 20.7655C0.303565 21.1309 0.559849 21.4432 0.888676 21.663C1.2175 21.8828 1.60411 22.0001 1.99962 22.0002ZM15.9999 36V26.0001H24.0001V36H15.9999ZM20 4.82835L32.0003 16.8282V26.0001L32.0023 36H28.0002V26.0001C28.0002 23.7942 26.2061 22.0002 24.0001 22.0002H15.9999C13.7939 22.0002 11.9998 23.7942 11.9998 26.0001V36H7.99974V16.8282L20 4.82835Z"/></svg>