<svg xmlns="http://www.w3.org/2000/svg" width="75" height="40" fill="none" viewBox="0 0 75 40"><rect width="74.345" height="39.063" y=".31" fill="#FF6F6F" rx="19.531"/><rect width="73.085" height="37.803" x=".63" y=".94" stroke="#FF6F6F" stroke-width="1.26" rx="18.901"/><path fill="#fff" d="M33.1144 25.2004C32.2147 25.2004 31.4721 25.0505 30.8866 24.7506C30.301 24.4507 29.8655 24.0579 29.5798 23.5724C29.2942 23.0725 29.1514 22.5299 29.1514 21.9443C29.1514 20.9161 29.5513 20.1021 30.351 19.5023C31.1508 18.9025 32.2932 18.6026 33.7785 18.6026H36.5633V18.4098C36.5633 17.5815 36.3348 16.9603 35.8778 16.5461C35.4351 16.132 34.8567 15.9249 34.1426 15.9249C33.5143 15.9249 32.9645 16.082 32.4932 16.3962C32.0362 16.6961 31.7577 17.1459 31.6577 17.7457H29.3871C29.4585 16.9746 29.7155 16.3176 30.1582 15.7749C30.6152 15.218 31.1865 14.7967 31.872 14.5111C32.5717 14.2112 33.3358 14.0612 34.1641 14.0612C35.6493 14.0612 36.7989 14.454 37.6129 15.2394C38.4269 16.0106 38.8339 17.0674 38.8339 18.4098V24.9434H36.8632L36.6704 23.1225C36.3705 23.7081 35.9349 24.2007 35.3637 24.6006C34.7924 25.0005 34.0427 25.2004 33.1144 25.2004ZM33.5643 23.3582C34.1783 23.3582 34.6925 23.2154 35.1066 22.9297C35.535 22.6298 35.8635 22.2371 36.092 21.7516C36.3348 21.266 36.4847 20.7305 36.5418 20.1449H34.0141C33.1144 20.1449 32.4718 20.302 32.0862 20.6162C31.7149 20.9304 31.5292 21.3231 31.5292 21.7944C31.5292 22.2799 31.7077 22.6655 32.0647 22.9512C32.4361 23.2225 32.9359 23.3582 33.5643 23.3582ZM42.7668 12.3047C42.3384 12.3047 41.9814 12.1761 41.6957 11.9191C41.4244 11.6477 41.2887 11.3121 41.2887 10.9123C41.2887 10.5124 41.4244 10.1839 41.6957 9.92687C41.9814 9.65553 42.3384 9.51986 42.7668 9.51986C43.1952 9.51986 43.5451 9.65553 43.8165 9.92687C44.1021 10.1839 44.2449 10.5124 44.2449 10.9123C44.2449 11.3121 44.1021 11.6477 43.8165 11.9191C43.5451 12.1761 43.1952 12.3047 42.7668 12.3047ZM41.6315 24.9434V14.3183H43.9021V24.9434H41.6315Z"/></svg>