<svg width="124" height="40" viewBox="0 0 124 40" fill="none" xmlns="http://www.w3.org/2000/svg">
<rect x="0.630045" y="0.630045" width="122.229" height="37.8027" rx="18.9013" stroke="url(#paint0_linear)" stroke-width="1.26009"/>
<path d="M22.2661 24.8908C21.3664 24.8908 20.6237 24.7409 20.0382 24.441C19.4527 24.1411 19.0171 23.7484 18.7315 23.2628C18.4459 22.763 18.3031 22.2203 18.3031 21.6348C18.3031 20.6065 18.7029 19.7925 19.5027 19.1927C20.3024 18.5929 21.4449 18.293 22.9301 18.293H25.7149V18.1002C25.7149 17.2719 25.4864 16.6507 25.0294 16.2366C24.5867 15.8224 24.0083 15.6153 23.2943 15.6153C22.6659 15.6153 22.1161 15.7724 21.6448 16.0866C21.1878 16.3865 20.9094 16.8364 20.8094 17.4362H18.5387C18.6101 16.665 18.8672 16.0081 19.3099 15.4654C19.7669 14.9084 20.3381 14.4871 21.0236 14.2015C21.7234 13.9016 22.4874 13.7517 23.3157 13.7517C24.8009 13.7517 25.9506 14.1444 26.7646 14.9298C27.5786 15.701 27.9856 16.7578 27.9856 18.1002V24.6338H26.0148L25.822 22.813C25.5221 23.3985 25.0866 23.8912 24.5153 24.291C23.9441 24.6909 23.1943 24.8908 22.2661 24.8908ZM22.7159 23.0486C23.33 23.0486 23.8441 22.9058 24.2583 22.6202C24.6867 22.3203 25.0152 21.9275 25.2437 21.442C25.4864 20.9564 25.6364 20.4209 25.6935 19.8354H23.1658C22.2661 19.8354 21.6234 19.9925 21.2378 20.3066C20.8665 20.6208 20.6809 21.0136 20.6809 21.4848C20.6809 21.9704 20.8594 22.356 21.2164 22.6416C21.5877 22.9129 22.0875 23.0486 22.7159 23.0486ZM30.6332 24.6338V9.21029H32.9039V24.6338H30.6332ZM35.7794 24.6338V9.21029H38.05V24.6338H35.7794ZM52.2994 24.8908C51.4711 24.8908 50.7356 24.7266 50.093 24.3982C49.4646 24.0697 48.9648 23.6056 48.5934 23.0058L48.3578 24.6338H46.3228V9.21029H48.5934V15.6582C48.9362 15.1583 49.4075 14.7156 50.0073 14.33C50.6071 13.9444 51.3782 13.7517 52.3208 13.7517C53.349 13.7517 54.2559 13.9944 55.0413 14.48C55.8268 14.9655 56.4409 15.6296 56.8836 16.4722C57.3406 17.3148 57.5691 18.2716 57.5691 19.3427C57.5691 20.4137 57.3406 21.3706 56.8836 22.2132C56.4409 23.0415 55.8268 23.6984 55.0413 24.1839C54.2559 24.6552 53.3419 24.8908 52.2994 24.8908ZM51.9138 22.9201C52.8849 22.9201 53.6846 22.5916 54.313 21.9347C54.9414 21.2635 55.2555 20.3923 55.2555 19.3213C55.2555 18.6215 55.1127 18.0003 54.8271 17.4576C54.5415 16.9149 54.1488 16.4936 53.6489 16.1937C53.1491 15.8795 52.5707 15.7224 51.9138 15.7224C50.9427 15.7224 50.1429 16.058 49.5146 16.7292C48.9005 17.4005 48.5934 18.2645 48.5934 19.3213C48.5934 20.3923 48.9005 21.2635 49.5146 21.9347C50.1429 22.5916 50.9427 22.9201 51.9138 22.9201ZM64.9948 24.8908C63.9809 24.8908 63.0669 24.6624 62.2528 24.2054C61.4531 23.7341 60.8176 23.0843 60.3463 22.256C59.8751 21.4134 59.6394 20.4352 59.6394 19.3213C59.6394 18.2073 59.8751 17.2362 60.3463 16.4079C60.8319 15.5653 61.4817 14.9156 62.2957 14.4586C63.1097 13.9873 64.0166 13.7517 65.0162 13.7517C66.0302 13.7517 66.937 13.9873 67.7368 14.4586C68.5508 14.9156 69.1934 15.5653 69.6647 16.4079C70.1503 17.2362 70.393 18.2073 70.393 19.3213C70.393 20.4352 70.1503 21.4134 69.6647 22.256C69.1934 23.0843 68.5508 23.7341 67.7368 24.2054C66.9227 24.6624 66.0088 24.8908 64.9948 24.8908ZM64.9948 22.9415C65.5375 22.9415 66.0373 22.8058 66.4943 22.5345C66.9656 22.2631 67.344 21.8633 67.6297 21.3349C67.9153 20.7922 68.0581 20.121 68.0581 19.3213C68.0581 18.5215 67.9153 17.8574 67.6297 17.329C67.3583 16.7864 66.987 16.3794 66.5157 16.108C66.0587 15.8367 65.5589 15.701 65.0162 15.701C64.4735 15.701 63.9666 15.8367 63.4953 16.108C63.0383 16.3794 62.667 16.7864 62.3814 17.329C62.0958 17.8574 61.9529 18.5215 61.9529 19.3213C61.9529 20.121 62.0958 20.7922 62.3814 21.3349C62.667 21.8633 63.0383 22.2631 63.4953 22.5345C63.9523 22.8058 64.4521 22.9415 64.9948 22.9415ZM76.4475 24.8908C75.5477 24.8908 74.8051 24.7409 74.2196 24.441C73.6341 24.1411 73.1985 23.7484 72.9129 23.2628C72.6273 22.763 72.4845 22.2203 72.4845 21.6348C72.4845 20.6065 72.8843 19.7925 73.6841 19.1927C74.4838 18.5929 75.6263 18.293 77.1115 18.293H79.8963V18.1002C79.8963 17.2719 79.6678 16.6507 79.2108 16.2366C78.7681 15.8224 78.1897 15.6153 77.4757 15.6153C76.8473 15.6153 76.2975 15.7724 75.8262 16.0866C75.3692 16.3865 75.0908 16.8364 74.9908 17.4362H72.7201C72.7915 16.665 73.0486 16.0081 73.4913 15.4654C73.9483 14.9084 74.5195 14.4871 75.205 14.2015C75.9048 13.9016 76.6688 13.7517 77.4971 13.7517C78.9823 13.7517 80.132 14.1444 80.946 14.9298C81.76 15.701 82.167 16.7578 82.167 18.1002V24.6338H80.1962L80.0034 22.813C79.7035 23.3985 79.268 23.8912 78.6967 24.291C78.1255 24.6909 77.3757 24.8908 76.4475 24.8908ZM76.8973 23.0486C77.5114 23.0486 78.0255 22.9058 78.4397 22.6202C78.8681 22.3203 79.1965 21.9275 79.425 21.442C79.6678 20.9564 79.8178 20.4209 79.8749 19.8354H77.3472C76.4475 19.8354 75.8048 19.9925 75.4192 20.3066C75.0479 20.6208 74.8623 21.0136 74.8623 21.4848C74.8623 21.9704 75.0408 22.356 75.3978 22.6416C75.7691 22.9129 76.2689 23.0486 76.8973 23.0486ZM84.8146 24.6338V14.0087H86.8496L87.0424 16.0223C87.4137 15.3226 87.9278 14.7727 88.5848 14.3729C89.256 13.9587 90.0628 13.7517 91.0054 13.7517V16.1294H90.3842C89.7558 16.1294 89.1917 16.2366 88.6919 16.4508C88.2063 16.6507 87.8136 17.0006 87.5137 17.5004C87.2281 17.986 87.0852 18.6643 87.0852 19.5355V24.6338H84.8146ZM97.5006 24.8908C96.4724 24.8908 95.5656 24.6481 94.7801 24.1625C93.9946 23.677 93.3806 23.0129 92.9378 22.1703C92.4951 21.3277 92.2738 20.3709 92.2738 19.2998C92.2738 18.2288 92.4951 17.2791 92.9378 16.4508C93.3806 15.6082 93.9946 14.9513 94.7801 14.48C95.5798 13.9944 96.4938 13.7517 97.522 13.7517C98.3646 13.7517 99.1001 13.9159 99.7285 14.2443C100.371 14.5728 100.871 15.0369 101.228 15.6367V9.21029H103.499V24.6338H101.464L101.228 22.9843C100.885 23.4842 100.414 23.9269 99.8142 24.3125C99.2144 24.6981 98.4432 24.8908 97.5006 24.8908ZM97.9076 22.9201C98.8787 22.9201 99.6713 22.5845 100.285 21.9133C100.914 21.242 101.228 20.378 101.228 19.3213C101.228 18.2502 100.914 17.3862 100.285 16.7292C99.6713 16.058 98.8787 15.7224 97.9076 15.7224C96.9365 15.7224 96.1368 16.058 95.5084 16.7292C94.8801 17.3862 94.5659 18.2502 94.5659 19.3213C94.5659 20.021 94.7087 20.6422 94.9943 21.1849C95.2799 21.7276 95.6727 22.156 96.1725 22.4702C96.6866 22.7701 97.265 22.9201 97.9076 22.9201Z" fill="url(#paint1_linear)"/>
<defs>
<linearGradient id="paint0_linear" x1="118.448" y1="0" x2="6.93049" y2="0" gradientUnits="userSpaceOnUse">
<stop stop-color="#FF6F6F"/>
<stop offset="0.15625" stop-color="#F9A857"/>
<stop offset="0.302083" stop-color="#FFD51E"/>
<stop offset="0.46875" stop-color="#80CE1C"/>
<stop offset="0.625" stop-color="#62B0FF"/>
<stop offset="0.770833" stop-color="#51C0C0"/>
<stop offset="0.890625" stop-color="#816DFF"/>
<stop offset="1" stop-color="#E981A0"/>
</linearGradient>
<linearGradient id="paint1_linear" x1="107.107" y1="36.5426" x2="15.1209" y2="36.5426" gradientUnits="userSpaceOnUse">
<stop stop-color="#FF6F6F"/>
<stop offset="0.15625" stop-color="#F9A857"/>
<stop offset="0.302083" stop-color="#FFD51E"/>
<stop offset="0.46875" stop-color="#80CE1C"/>
<stop offset="0.625" stop-color="#62B0FF"/>
<stop offset="0.770833" stop-color="#51C0C0"/>
<stop offset="0.890625" stop-color="#816DFF"/>
<stop offset="1" stop-color="#E981A0"/>
</linearGradient>
</defs>
</svg>
