<svg width="124" height="40" viewBox="0 0 124 40" fill="none" xmlns="http://www.w3.org/2000/svg">
<rect width="123.489" height="39.0628" rx="19.5314" fill="url(#paint0_linear)"/>
<path d="M22.2662 24.8909C21.3665 24.8909 20.6239 24.741 20.0383 24.4411C19.4528 24.1412 19.0173 23.7484 18.7316 23.2629C18.446 22.763 18.3032 22.2204 18.3032 21.6348C18.3032 20.6066 18.7031 19.7926 19.5028 19.1928C20.3025 18.593 21.445 18.2931 22.9302 18.2931H25.715V18.1003C25.715 17.272 25.4866 16.6508 25.0296 16.2366C24.5868 15.8225 24.0085 15.6154 23.2944 15.6154C22.6661 15.6154 22.1162 15.7725 21.645 16.0867C21.188 16.3866 20.9095 16.8364 20.8095 17.4362H18.5388C18.6102 16.665 18.8673 16.0081 19.31 15.4654C19.767 14.9085 20.3382 14.4872 21.0237 14.2016C21.7235 13.9017 22.4875 13.7517 23.3158 13.7517C24.8011 13.7517 25.9507 14.1444 26.7647 14.9299C27.5787 15.7011 27.9857 16.7579 27.9857 18.1003V24.6339H26.0149L25.8222 22.813C25.5223 23.3985 25.0867 23.8912 24.5154 24.2911C23.9442 24.691 23.1944 24.8909 22.2662 24.8909ZM22.716 23.0487C23.3301 23.0487 23.8442 22.9058 24.2584 22.6202C24.6868 22.3203 25.0153 21.9276 25.2438 21.442C25.4866 20.9565 25.6365 20.421 25.6936 19.8354H23.1659C22.2662 19.8354 21.6235 19.9925 21.2379 20.3067C20.8666 20.6209 20.681 21.0136 20.681 21.4849C20.681 21.9704 20.8595 22.356 21.2165 22.6416C21.5878 22.913 22.0877 23.0487 22.716 23.0487ZM30.6333 24.6339V9.21035H32.904V24.6339H30.6333ZM35.7795 24.6339V9.21035H38.0502V24.6339H35.7795ZM52.2995 24.8909C51.4712 24.8909 50.7357 24.7267 50.0931 24.3982C49.4647 24.0697 48.9649 23.6056 48.5936 23.0058L48.3579 24.6339H46.3229V9.21035H48.5936V15.6582C48.9363 15.1584 49.4076 14.7157 50.0074 14.3301C50.6072 13.9445 51.3784 13.7517 52.3209 13.7517C53.3491 13.7517 54.256 13.9945 55.0414 14.48C55.8269 14.9656 56.441 15.6297 56.8837 16.4722C57.3407 17.3148 57.5692 18.2717 57.5692 19.3427C57.5692 20.4138 57.3407 21.3706 56.8837 22.2132C56.441 23.0415 55.8269 23.6984 55.0414 24.184C54.256 24.6553 53.342 24.8909 52.2995 24.8909ZM51.9139 22.9201C52.885 22.9201 53.6848 22.5917 54.3131 21.9347C54.9415 21.2635 55.2557 20.3924 55.2557 19.3213C55.2557 18.6215 55.1129 18.0003 54.8272 17.4576C54.5416 16.915 54.1489 16.4937 53.649 16.1938C53.1492 15.8796 52.5708 15.7225 51.9139 15.7225C50.9428 15.7225 50.1431 16.0581 49.5147 16.7293C48.9006 17.4005 48.5936 18.2645 48.5936 19.3213C48.5936 20.3924 48.9006 21.2635 49.5147 21.9347C50.1431 22.5917 50.9428 22.9201 51.9139 22.9201ZM64.9949 24.8909C63.981 24.8909 63.067 24.6624 62.253 24.2054C61.4532 23.7341 60.8177 23.0844 60.3465 22.2561C59.8752 21.4135 59.6395 20.4352 59.6395 19.3213C59.6395 18.2074 59.8752 17.2363 60.3465 16.408C60.832 15.5654 61.4818 14.9156 62.2958 14.4586C63.1098 13.9874 64.0167 13.7517 65.0163 13.7517C66.0303 13.7517 66.9371 13.9874 67.7369 14.4586C68.5509 14.9156 69.1935 15.5654 69.6648 16.408C70.1504 17.2363 70.3931 18.2074 70.3931 19.3213C70.3931 20.4352 70.1504 21.4135 69.6648 22.2561C69.1935 23.0844 68.5509 23.7341 67.7369 24.2054C66.9229 24.6624 66.0089 24.8909 64.9949 24.8909ZM64.9949 22.9415C65.5376 22.9415 66.0374 22.8059 66.4944 22.5345C66.9657 22.2632 67.3442 21.8633 67.6298 21.3349C67.9154 20.7923 68.0582 20.121 68.0582 19.3213C68.0582 18.5216 67.9154 17.8575 67.6298 17.3291C67.3584 16.7864 66.9871 16.3794 66.5159 16.1081C66.0589 15.8367 65.559 15.7011 65.0163 15.7011C64.4737 15.7011 63.9667 15.8367 63.4954 16.1081C63.0384 16.3794 62.6671 16.7864 62.3815 17.3291C62.0959 17.8575 61.9531 18.5216 61.9531 19.3213C61.9531 20.121 62.0959 20.7923 62.3815 21.3349C62.6671 21.8633 63.0384 22.2632 63.4954 22.5345C63.9524 22.8059 64.4522 22.9415 64.9949 22.9415ZM76.4476 24.8909C75.5479 24.8909 74.8053 24.741 74.2197 24.4411C73.6342 24.1412 73.1986 23.7484 72.913 23.2629C72.6274 22.763 72.4846 22.2204 72.4846 21.6348C72.4846 20.6066 72.8845 19.7926 73.6842 19.1928C74.4839 18.593 75.6264 18.2931 77.1116 18.2931H79.8964V18.1003C79.8964 17.272 79.6679 16.6508 79.211 16.2366C78.7682 15.8225 78.1899 15.6154 77.4758 15.6154C76.8474 15.6154 76.2976 15.7725 75.8264 16.0867C75.3694 16.3866 75.0909 16.8364 74.9909 17.4362H72.7202C72.7916 16.665 73.0487 16.0081 73.4914 15.4654C73.9484 14.9085 74.5196 14.4872 75.2051 14.2016C75.9049 13.9017 76.6689 13.7517 77.4972 13.7517C78.9825 13.7517 80.1321 14.1444 80.9461 14.9299C81.7601 15.7011 82.1671 16.7579 82.1671 18.1003V24.6339H80.1963L80.0035 22.813C79.7036 23.3985 79.2681 23.8912 78.6968 24.2911C78.1256 24.691 77.3758 24.8909 76.4476 24.8909ZM76.8974 23.0487C77.5115 23.0487 78.0256 22.9058 78.4398 22.6202C78.8682 22.3203 79.1967 21.9276 79.4252 21.442C79.6679 20.9565 79.8179 20.421 79.875 19.8354H77.3473C76.4476 19.8354 75.8049 19.9925 75.4193 20.3067C75.048 20.6209 74.8624 21.0136 74.8624 21.4849C74.8624 21.9704 75.0409 22.356 75.3979 22.6416C75.7692 22.913 76.2691 23.0487 76.8974 23.0487ZM84.8147 24.6339V14.0088H86.8497L87.0425 16.0224C87.4138 15.3226 87.928 14.7728 88.5849 14.3729C89.2561 13.9588 90.063 13.7517 91.0055 13.7517V16.1295H90.3843C89.7559 16.1295 89.1918 16.2366 88.692 16.4508C88.2064 16.6508 87.8137 17.0006 87.5138 17.5005C87.2282 17.986 87.0854 18.6644 87.0854 19.5355V24.6339H84.8147ZM97.5007 24.8909C96.4725 24.8909 95.5657 24.6481 94.7802 24.1626C93.9948 23.677 93.3807 23.013 92.938 22.1704C92.4953 21.3278 92.2739 20.371 92.2739 19.2999C92.2739 18.2288 92.4953 17.2791 92.938 16.4508C93.3807 15.6082 93.9948 14.9513 94.7802 14.48C95.58 13.9945 96.4939 13.7517 97.5222 13.7517C98.3648 13.7517 99.1002 13.9159 99.7286 14.2444C100.371 14.5729 100.871 15.037 101.228 15.6368V9.21035H103.499V24.6339H101.464L101.228 22.9844C100.885 23.4842 100.414 23.9269 99.8143 24.3125C99.2145 24.6981 98.4433 24.8909 97.5007 24.8909ZM97.9078 22.9201C98.8789 22.9201 99.6715 22.5845 100.286 21.9133C100.914 21.2421 101.228 20.3781 101.228 19.3213C101.228 18.2502 100.914 17.3862 100.286 16.7293C99.6715 16.0581 98.8789 15.7225 97.9078 15.7225C96.9366 15.7225 96.1369 16.0581 95.5085 16.7293C94.8802 17.3862 94.566 18.2502 94.566 19.3213C94.566 20.0211 94.7088 20.6423 94.9944 21.185C95.2801 21.7277 95.6728 22.1561 96.1726 22.4703C96.6867 22.7702 97.2651 22.9201 97.9078 22.9201Z" fill="url(#paint1_linear)"/>
<defs>
<linearGradient id="paint0_linear" x1="61.7444" y1="0" x2="61.7444" y2="39.0628" gradientUnits="userSpaceOnUse">
<stop stop-color="#F68996"/>
<stop offset="0.0885417" stop-color="#FE7D6A"/>
<stop offset="0.192708" stop-color="#FC9061"/>
<stop offset="0.291667" stop-color="#F9A857"/>
<stop offset="0.40625" stop-color="#D3AE6F"/>
<stop offset="0.515625" stop-color="#99B693"/>
<stop offset="0.625" stop-color="#64BDB4"/>
<stop offset="0.734375" stop-color="#5AB8E1"/>
<stop offset="0.84375" stop-color="#68A4FF"/>
<stop offset="0.958333" stop-color="#7B7AFF"/>
</linearGradient>
<linearGradient id="paint1_linear" x1="107.108" y1="36.5426" x2="15.121" y2="36.5426" gradientUnits="userSpaceOnUse">
<stop stop-color="white"/>
</linearGradient>
</defs>
</svg>
