<svg xmlns="http://www.w3.org/2000/svg" width="86" height="40" fill="none" viewBox="0 0 86 40"><rect width="83.166" height="37.803" x="1.217" y="1.114" stroke="#51C0C0" stroke-width="1.26" rx="18.901"/><path fill="#51C0C0" d="M19.1932 25.3752C18.1507 25.3752 17.2153 25.1396 16.387 24.6683C15.573 24.197 14.9303 23.5473 14.4591 22.719C14.0021 21.8764 13.7736 20.9053 13.7736 19.8056C13.7736 18.706 14.0021 17.742 14.4591 16.9137C14.9303 16.0711 15.573 15.4142 16.387 14.9429C17.2153 14.4717 18.1507 14.236 19.1932 14.236C20.5071 14.236 21.6067 14.5788 22.4921 15.2643C23.3918 15.9498 23.9702 16.878 24.2273 18.0491H21.8495C21.7067 17.4635 21.3925 17.0065 20.9069 16.6781C20.4214 16.3496 19.8501 16.1854 19.1932 16.1854C18.6362 16.1854 18.1221 16.3282 17.6509 16.6138C17.1796 16.8852 16.8011 17.2922 16.5155 17.8348C16.2299 18.3632 16.0871 19.0202 16.0871 19.8056C16.0871 20.5911 16.2299 21.2551 16.5155 21.7978C16.8011 22.3262 17.1796 22.7332 17.6509 23.0189C18.1221 23.3045 18.6362 23.4473 19.1932 23.4473C19.8501 23.4473 20.4214 23.2831 20.9069 22.9546C21.3925 22.6261 21.7067 22.162 21.8495 21.5622H24.2273C23.9845 22.7047 23.4132 23.6258 22.5135 24.3256C21.6138 25.0253 20.5071 25.3752 19.1932 25.3752ZM27.9324 29.8309L30.4815 24.2399H29.8603L25.6617 14.4931H28.1251L31.3812 22.3548L34.7872 14.4931H37.1865L30.3316 29.8309H27.9324ZM45.0299 25.3752C44.2016 25.3752 43.4661 25.211 42.8235 24.8825C42.1951 24.5541 41.6953 24.0899 41.324 23.4901L41.0883 25.1182H39.0533V9.69467H41.324V16.1425C41.6667 15.6427 42.138 15.2 42.7378 14.8144C43.3376 14.4288 44.1088 14.236 45.0513 14.236C46.0796 14.236 46.9864 14.4788 47.7719 14.9644C48.5573 15.4499 49.1714 16.114 49.6141 16.9566C50.0711 17.7991 50.2996 18.756 50.2996 19.827C50.2996 20.8981 50.0711 21.855 49.6141 22.6975C49.1714 23.5258 48.5573 24.1828 47.7719 24.6683C46.9864 25.1396 46.0724 25.3752 45.0299 25.3752ZM44.6443 23.4044C45.6154 23.4044 46.4152 23.076 47.0435 22.4191C47.6719 21.7478 47.9861 20.8767 47.9861 19.8056C47.9861 19.1059 47.8433 18.4846 47.5576 17.942C47.272 17.3993 46.8793 16.978 46.3795 16.6781C45.8796 16.3639 45.3012 16.2068 44.6443 16.2068C43.6732 16.2068 42.8735 16.5424 42.2451 17.2136C41.631 17.8848 41.324 18.7488 41.324 19.8056C41.324 20.8767 41.631 21.7478 42.2451 22.4191C42.8735 23.076 43.6732 23.4044 44.6443 23.4044ZM57.7253 25.3752C56.6828 25.3752 55.7546 25.1467 54.9405 24.6897C54.1408 24.2185 53.5124 23.5687 53.0554 22.7404C52.5985 21.9121 52.37 20.9481 52.37 19.8485C52.37 18.7345 52.5913 17.7563 53.034 16.9137C53.491 16.0711 54.1194 15.4142 54.9191 14.9429C55.7331 14.4717 56.6757 14.236 57.7468 14.236C58.7893 14.236 59.6961 14.4717 60.4673 14.9429C61.2385 15.3999 61.8383 16.014 62.2667 16.7852C62.6951 17.5564 62.9093 18.4061 62.9093 19.3344C62.9093 19.4772 62.9022 19.6343 62.8879 19.8056C62.8879 19.9627 62.8808 20.1412 62.8665 20.3412H54.5978C54.6692 21.3694 55.0048 22.1549 55.6046 22.6975C56.2187 23.2259 56.9256 23.4901 57.7253 23.4901C58.368 23.4901 58.9035 23.3473 59.332 23.0617C59.7747 22.7618 60.1031 22.3619 60.3173 21.8621H62.588C62.3024 22.8618 61.7312 23.6972 60.8743 24.3684C60.0317 25.0396 58.9821 25.3752 57.7253 25.3752ZM57.7253 16.0997C56.9684 16.0997 56.2972 16.3282 55.7117 16.7852C55.1262 17.2279 54.7692 17.8991 54.6406 18.7988H60.6387C60.5958 17.9705 60.3031 17.3136 59.7604 16.828C59.2177 16.3425 58.5394 16.0997 57.7253 16.0997ZM65.2654 25.1182V14.4931H67.3004L67.4932 16.5067C67.8645 15.8069 68.3786 15.2571 69.0356 14.8573C69.7068 14.4431 70.5137 14.236 71.4562 14.236V16.6138H70.835C70.2066 16.6138 69.6425 16.7209 69.1427 16.9351C68.6571 17.1351 68.2644 17.485 67.9645 17.9848C67.6789 18.4704 67.5361 19.1487 67.5361 20.0198V25.1182H65.2654Z"/></svg>