<svg xmlns="http://www.w3.org/2000/svg" width="104" height="40" fill="none" viewBox="0 0 104 40"><rect width="102.067" height="37.803" x="1.303" y="1.114" stroke="#E981A0" stroke-width="1.26" rx="18.901"/><path fill="#E981A0" d="M24.4383 25.3752C23.4101 25.3752 22.5032 25.1324 21.7178 24.6469C20.9323 24.1613 20.3183 23.4973 19.8755 22.6547C19.4328 21.8121 19.2115 20.8553 19.2115 19.7842C19.2115 18.7131 19.4328 17.7634 19.8755 16.9351C20.3183 16.0926 20.9323 15.4356 21.7178 14.9644C22.5175 14.4788 23.4315 14.236 24.4597 14.236C25.3023 14.236 26.0378 14.4003 26.6662 14.7287C27.3088 15.0572 27.8086 15.5213 28.1657 16.1211V9.69467H30.4364V25.1182H28.4013L28.1657 23.4687C27.8229 23.9685 27.3517 24.4113 26.7519 24.7968C26.152 25.1824 25.3809 25.3752 24.4383 25.3752ZM24.8453 23.4044C25.8164 23.4044 26.609 23.0688 27.2231 22.3976C27.8515 21.7264 28.1657 20.8624 28.1657 19.8056C28.1657 18.7345 27.8515 17.8705 27.2231 17.2136C26.609 16.5424 25.8164 16.2068 24.8453 16.2068C23.8742 16.2068 23.0745 16.5424 22.4461 17.2136C21.8178 17.8705 21.5036 18.7345 21.5036 19.8056C21.5036 20.5054 21.6464 21.1266 21.932 21.6693C22.2176 22.212 22.6104 22.6404 23.1102 22.9546C23.6243 23.2545 24.2027 23.4044 24.8453 23.4044ZM38.2691 25.3752C37.2266 25.3752 36.2983 25.1467 35.4843 24.6897C34.6846 24.2185 34.0562 23.5687 33.5992 22.7404C33.1422 21.9121 32.9137 20.9481 32.9137 19.8485C32.9137 18.7345 33.1351 17.7563 33.5778 16.9137C34.0348 16.0711 34.6631 15.4142 35.4629 14.9429C36.2769 14.4717 37.2194 14.236 38.2905 14.236C39.333 14.236 40.2399 14.4717 41.0111 14.9429C41.7822 15.3999 42.382 16.014 42.8105 16.7852C43.2389 17.5564 43.4531 18.4061 43.4531 19.3344C43.4531 19.4772 43.446 19.6343 43.4317 19.8056C43.4317 19.9627 43.4245 20.1412 43.4103 20.3412H35.1416C35.213 21.3694 35.5486 22.1549 36.1484 22.6975C36.7625 23.2259 37.4694 23.4901 38.2691 23.4901C38.9117 23.4901 39.4473 23.3473 39.8757 23.0617C40.3184 22.7618 40.6469 22.3619 40.8611 21.8621H43.1318C42.8462 22.8618 42.2749 23.6972 41.4181 24.3684C40.5755 25.0396 39.5258 25.3752 38.2691 25.3752ZM38.2691 16.0997C37.5122 16.0997 36.841 16.3282 36.2555 16.7852C35.67 17.2279 35.3129 17.8991 35.1844 18.7988H41.1824C41.1396 17.9705 40.8468 17.3136 40.3041 16.828C39.7615 16.3425 39.0831 16.0997 38.2691 16.0997ZM50.0506 25.3752C48.7082 25.3752 47.6014 25.0468 46.7303 24.3898C45.8591 23.7329 45.3593 22.8618 45.2308 21.7764H47.5229C47.6371 22.262 47.9085 22.6833 48.3369 23.0403C48.7653 23.383 49.3294 23.5544 50.0292 23.5544C50.7147 23.5544 51.2145 23.4116 51.5287 23.126C51.8429 22.8403 52 22.5119 52 22.1406C52 21.5979 51.7786 21.2337 51.3359 21.0481C50.9075 20.8481 50.3077 20.6696 49.5365 20.5125C48.9367 20.384 48.3369 20.2126 47.7371 19.9984C47.1516 19.7842 46.6589 19.4843 46.259 19.0987C45.8734 18.6988 45.6806 18.1633 45.6806 17.4921C45.6806 16.5638 46.0376 15.7927 46.7517 15.1786C47.4657 14.5502 48.4654 14.236 49.7507 14.236C50.936 14.236 51.8929 14.5216 52.6212 15.0929C53.3638 15.6641 53.7994 16.471 53.9279 17.5135H51.7429C51.6715 17.0565 51.4573 16.6995 51.1003 16.4424C50.7575 16.1854 50.2934 16.0569 49.7079 16.0569C49.1366 16.0569 48.6939 16.1782 48.3797 16.421C48.0655 16.6495 47.9085 16.9494 47.9085 17.3207C47.9085 17.692 48.1227 17.9848 48.5511 18.199C48.9938 18.4132 49.5722 18.606 50.2862 18.7774C51.0003 18.9345 51.6572 19.1201 52.257 19.3344C52.8711 19.5343 53.3638 19.8342 53.7351 20.2341C54.1064 20.6339 54.2921 21.2194 54.2921 21.9906C54.3063 22.9617 53.9279 23.7686 53.1567 24.4113C52.3998 25.0539 51.3645 25.3752 50.0506 25.3752ZM58.0562 12.4795C57.6278 12.4795 57.2708 12.3509 56.9852 12.0939C56.7138 11.8225 56.5781 11.4869 56.5781 11.0871C56.5781 10.6872 56.7138 10.3587 56.9852 10.1017C57.2708 9.83034 57.6278 9.69467 58.0562 9.69467C58.4847 9.69467 58.8345 9.83034 59.1059 10.1017C59.3915 10.3587 59.5343 10.6872 59.5343 11.0871C59.5343 11.4869 59.3915 11.8225 59.1059 12.0939C58.8345 12.3509 58.4847 12.4795 58.0562 12.4795ZM56.9209 25.1182V14.4931H59.1916V25.1182H56.9209ZM66.5376 21.8621C65.9807 21.8621 65.4666 21.7978 64.9953 21.6693L64.0742 22.569C64.2313 22.669 64.4241 22.7547 64.6526 22.8261C64.881 22.8975 65.2024 22.9617 65.6165 23.0189C66.0307 23.076 66.5948 23.1331 67.3088 23.1902C68.7226 23.3188 69.7437 23.6615 70.3721 24.2185C71.0005 24.7611 71.3146 25.4895 71.3146 26.4035C71.3146 27.0318 71.1433 27.6245 70.8005 28.1814C70.4721 28.7527 69.9508 29.2097 69.2368 29.5524C68.537 29.9094 67.6373 30.088 66.5376 30.088C65.0524 30.088 63.8457 29.8023 62.9174 29.2311C62.0034 28.6741 61.5464 27.8244 61.5464 26.6819C61.5464 26.2392 61.6607 25.7965 61.8892 25.3538C62.132 24.9254 62.5104 24.5184 63.0245 24.1328C62.7246 24.0042 62.4604 23.8686 62.2319 23.7258C62.0177 23.5687 61.8249 23.4116 61.6535 23.2545V22.7404L63.4958 20.8553C62.6675 20.1412 62.2533 19.2058 62.2533 18.0491C62.2533 17.3493 62.4176 16.7138 62.746 16.1425C63.0888 15.557 63.5815 15.0929 64.2241 14.7501C64.8668 14.4074 65.6379 14.236 66.5376 14.236C67.1374 14.236 67.6944 14.3217 68.2085 14.4931H72.1715V15.9926L70.2864 16.0997C70.6292 16.6852 70.8005 17.335 70.8005 18.0491C70.8005 18.7631 70.6292 19.4058 70.2864 19.977C69.9579 20.5482 69.4724 21.0052 68.8297 21.348C68.2014 21.6907 67.4373 21.8621 66.5376 21.8621ZM66.5376 20.0841C67.1946 20.0841 67.723 19.9127 68.1228 19.57C68.537 19.213 68.7441 18.7131 68.7441 18.0705C68.7441 17.4136 68.537 16.9137 68.1228 16.571C67.723 16.2282 67.1946 16.0569 66.5376 16.0569C65.8664 16.0569 65.3238 16.2282 64.9096 16.571C64.5097 16.9137 64.3098 17.4136 64.3098 18.0705C64.3098 18.7131 64.5097 19.213 64.9096 19.57C65.3238 19.9127 65.8664 20.0841 66.5376 20.0841ZM63.6886 26.4677C63.6886 27.0818 63.9599 27.5388 64.5026 27.8387C65.0453 28.1529 65.7236 28.31 66.5376 28.31C67.3231 28.31 67.9586 28.1386 68.4442 27.7959C68.9297 27.4674 69.1725 27.0247 69.1725 26.4677C69.1725 26.0536 69.0083 25.6965 68.6798 25.3966C68.3513 25.111 67.7301 24.9325 66.8161 24.8611C66.1306 24.8183 65.5237 24.754 64.9953 24.6683C64.4955 24.9397 64.1527 25.2324 63.9671 25.5466C63.7814 25.8608 63.6886 26.1678 63.6886 26.4677ZM74.1968 25.1182V14.4931H76.2105L76.3818 16.3568C76.7103 15.6998 77.1887 15.1857 77.8171 14.8144C78.4597 14.4288 79.1952 14.236 80.0235 14.236C81.3088 14.236 82.3156 14.6359 83.0439 15.4356C83.7865 16.2354 84.1579 17.4278 84.1579 19.013V25.1182H81.9086V19.2487C81.9086 17.1922 81.066 16.164 79.3809 16.164C78.5383 16.164 77.8385 16.4639 77.2815 17.0637C76.7389 17.6635 76.4675 18.5203 76.4675 19.6343V25.1182H74.1968Z"/></svg>