<svg xmlns="http://www.w3.org/2000/svg" width="104" height="40" fill="none" viewBox="0 0 104 40"><rect width="102.067" height="37.803" x="1.303" y=".94" fill="#E981A0" stroke="#E981A0" stroke-width="1.26" rx="18.901"/><path fill="#fff" d="M24.4383 25.2004C23.4101 25.2004 22.5032 24.9576 21.7178 24.4721C20.9323 23.9865 20.3183 23.3225 19.8755 22.4799C19.4328 21.6373 19.2115 20.6805 19.2115 19.6094C19.2115 18.5383 19.4328 17.5886 19.8755 16.7603C20.3183 15.9178 20.9323 15.2608 21.7178 14.7896C22.5175 14.304 23.4315 14.0612 24.4597 14.0612C25.3023 14.0612 26.0378 14.2255 26.6662 14.5539C27.3088 14.8824 27.8086 15.3465 28.1657 15.9463V9.51986H30.4364V24.9434H28.4013L28.1657 23.2939C27.8229 23.7937 27.3517 24.2364 26.7519 24.622C26.152 25.0076 25.3809 25.2004 24.4383 25.2004ZM24.8453 23.2296C25.8164 23.2296 26.609 22.894 27.2231 22.2228C27.8515 21.5516 28.1657 20.6876 28.1657 19.6308C28.1657 18.5597 27.8515 17.6957 27.2231 17.0388C26.609 16.3676 25.8164 16.032 24.8453 16.032C23.8742 16.032 23.0745 16.3676 22.4461 17.0388C21.8178 17.6957 21.5036 18.5597 21.5036 19.6308C21.5036 20.3306 21.6464 20.9518 21.932 21.4945C22.2176 22.0372 22.6104 22.4656 23.1102 22.7798C23.6243 23.0797 24.2027 23.2296 24.8453 23.2296ZM38.2691 25.2004C37.2266 25.2004 36.2983 24.9719 35.4843 24.5149C34.6846 24.0437 34.0562 23.3939 33.5992 22.5656C33.1422 21.7373 32.9137 20.7733 32.9137 19.6737C32.9137 18.5597 33.1351 17.5815 33.5778 16.7389C34.0348 15.8963 34.6631 15.2394 35.4629 14.7681C36.2769 14.2969 37.2194 14.0612 38.2905 14.0612C39.333 14.0612 40.2399 14.2969 41.0111 14.7681C41.7822 15.2251 42.382 15.8392 42.8105 16.6104C43.2389 17.3816 43.4531 18.2313 43.4531 19.1595C43.4531 19.3024 43.446 19.4594 43.4317 19.6308C43.4317 19.7879 43.4245 19.9664 43.4103 20.1664H35.1416C35.213 21.1946 35.5486 21.98 36.1484 22.5227C36.7625 23.0511 37.4694 23.3153 38.2691 23.3153C38.9117 23.3153 39.4473 23.1725 39.8757 22.8869C40.3184 22.587 40.6469 22.1871 40.8611 21.6873H43.1318C42.8462 22.687 42.2749 23.5224 41.4181 24.1936C40.5755 24.8648 39.5258 25.2004 38.2691 25.2004ZM38.2691 15.9249C37.5122 15.9249 36.841 16.1534 36.2555 16.6104C35.67 17.0531 35.3129 17.7243 35.1844 18.624H41.1824C41.1396 17.7957 40.8468 17.1388 40.3041 16.6532C39.7615 16.1677 39.0831 15.9249 38.2691 15.9249ZM50.0506 25.2004C48.7082 25.2004 47.6014 24.872 46.7303 24.215C45.8591 23.5581 45.3593 22.687 45.2308 21.6016H47.5229C47.6371 22.0872 47.9085 22.5084 48.3369 22.8655C48.7653 23.2082 49.3294 23.3796 50.0292 23.3796C50.7147 23.3796 51.2145 23.2368 51.5287 22.9512C51.8429 22.6655 52 22.3371 52 21.9658C52 21.4231 51.7786 21.0589 51.3359 20.8733C50.9075 20.6733 50.3077 20.4948 49.5365 20.3377C48.9367 20.2092 48.3369 20.0378 47.7371 19.8236C47.1516 19.6094 46.6589 19.3095 46.259 18.9239C45.8734 18.524 45.6806 17.9885 45.6806 17.3173C45.6806 16.389 46.0376 15.6179 46.7517 15.0038C47.4657 14.3754 48.4654 14.0612 49.7507 14.0612C50.936 14.0612 51.8929 14.3468 52.6212 14.9181C53.3638 15.4893 53.7994 16.2962 53.9279 17.3387H51.7429C51.6715 16.8817 51.4573 16.5247 51.1003 16.2676C50.7575 16.0106 50.2934 15.8821 49.7079 15.8821C49.1366 15.8821 48.6939 16.0034 48.3797 16.2462C48.0655 16.4747 47.9085 16.7746 47.9085 17.1459C47.9085 17.5172 48.1227 17.81 48.5511 18.0242C48.9938 18.2384 49.5722 18.4312 50.2862 18.6026C51.0003 18.7597 51.6572 18.9453 52.257 19.1595C52.8711 19.3595 53.3638 19.6594 53.7351 20.0593C54.1064 20.4591 54.2921 21.0446 54.2921 21.8158C54.3063 22.7869 53.9279 23.5938 53.1567 24.2364C52.3998 24.8791 51.3645 25.2004 50.0506 25.2004ZM58.0562 12.3047C57.6278 12.3047 57.2708 12.1761 56.9852 11.9191C56.7138 11.6477 56.5781 11.3121 56.5781 10.9123C56.5781 10.5124 56.7138 10.1839 56.9852 9.92687C57.2708 9.65553 57.6278 9.51986 58.0562 9.51986C58.4847 9.51986 58.8345 9.65553 59.1059 9.92687C59.3915 10.1839 59.5343 10.5124 59.5343 10.9123C59.5343 11.3121 59.3915 11.6477 59.1059 11.9191C58.8345 12.1761 58.4847 12.3047 58.0562 12.3047ZM56.9209 24.9434V14.3183H59.1916V24.9434H56.9209ZM66.5376 21.6873C65.9807 21.6873 65.4666 21.623 64.9953 21.4945L64.0742 22.3942C64.2313 22.4942 64.4241 22.5799 64.6526 22.6513C64.881 22.7227 65.2024 22.7869 65.6165 22.844C66.0307 22.9012 66.5948 22.9583 67.3088 23.0154C68.7226 23.144 69.7437 23.4867 70.3721 24.0437C71.0005 24.5863 71.3146 25.3147 71.3146 26.2287C71.3146 26.857 71.1433 27.4497 70.8005 28.0066C70.4721 28.5779 69.9508 29.0349 69.2368 29.3776C68.537 29.7346 67.6373 29.9132 66.5376 29.9132C65.0524 29.9132 63.8457 29.6275 62.9174 29.0563C62.0034 28.4993 61.5464 27.6496 61.5464 26.5071C61.5464 26.0644 61.6607 25.6217 61.8892 25.179C62.132 24.7506 62.5104 24.3436 63.0245 23.958C62.7246 23.8294 62.4604 23.6938 62.2319 23.551C62.0177 23.3939 61.8249 23.2368 61.6535 23.0797V22.5656L63.4958 20.6805C62.6675 19.9664 62.2533 19.031 62.2533 17.8743C62.2533 17.1745 62.4176 16.539 62.746 15.9677C63.0888 15.3822 63.5815 14.9181 64.2241 14.5753C64.8668 14.2326 65.6379 14.0612 66.5376 14.0612C67.1374 14.0612 67.6944 14.1469 68.2085 14.3183H72.1715V15.8178L70.2864 15.9249C70.6292 16.5104 70.8005 17.1602 70.8005 17.8743C70.8005 18.5883 70.6292 19.231 70.2864 19.8022C69.9579 20.3734 69.4724 20.8304 68.8297 21.1732C68.2014 21.5159 67.4373 21.6873 66.5376 21.6873ZM66.5376 19.9093C67.1946 19.9093 67.723 19.7379 68.1228 19.3952C68.537 19.0382 68.7441 18.5383 68.7441 17.8957C68.7441 17.2388 68.537 16.7389 68.1228 16.3962C67.723 16.0534 67.1946 15.8821 66.5376 15.8821C65.8664 15.8821 65.3238 16.0534 64.9096 16.3962C64.5097 16.7389 64.3098 17.2388 64.3098 17.8957C64.3098 18.5383 64.5097 19.0382 64.9096 19.3952C65.3238 19.7379 65.8664 19.9093 66.5376 19.9093ZM63.6886 26.2929C63.6886 26.907 63.9599 27.364 64.5026 27.6639C65.0453 27.9781 65.7236 28.1352 66.5376 28.1352C67.3231 28.1352 67.9586 27.9638 68.4442 27.621C68.9297 27.2926 69.1725 26.8499 69.1725 26.2929C69.1725 25.8788 69.0083 25.5217 68.6798 25.2218C68.3513 24.9362 67.7301 24.7577 66.8161 24.6863C66.1306 24.6435 65.5237 24.5792 64.9953 24.4935C64.4955 24.7648 64.1527 25.0576 63.9671 25.3718C63.7814 25.686 63.6886 25.993 63.6886 26.2929ZM74.1968 24.9434V14.3183H76.2105L76.3818 16.182C76.7103 15.525 77.1887 15.0109 77.8171 14.6396C78.4597 14.254 79.1952 14.0612 80.0235 14.0612C81.3088 14.0612 82.3156 14.4611 83.0439 15.2608C83.7865 16.0606 84.1579 17.253 84.1579 18.8382V24.9434H81.9086V19.0739C81.9086 17.0174 81.066 15.9892 79.3809 15.9892C78.5383 15.9892 77.8385 16.2891 77.2815 16.8889C76.7389 17.4887 76.4675 18.3455 76.4675 19.4594V24.9434H74.1968Z"/></svg>