<svg xmlns="http://www.w3.org/2000/svg" width="111" height="40" fill="none" viewBox="0 0 111 40"><rect width="109.628" height="37.803" x=".63" y=".63" stroke="#62B0FF" stroke-width="1.26" rx="18.901"/><path fill="#62B0FF" d="M23.3839 21.3777C22.8269 21.3777 22.3128 21.3135 21.8415 21.1849L20.9204 22.0846C21.0775 22.1846 21.2703 22.2703 21.4988 22.3417C21.7273 22.4131 22.0486 22.4774 22.4627 22.5345C22.8769 22.5916 23.441 22.6487 24.155 22.7059C25.5688 22.8344 26.5899 23.1771 27.2183 23.7341C27.8467 24.2768 28.1609 25.0051 28.1609 25.9191C28.1609 26.5474 27.9895 27.1401 27.6467 27.6971C27.3183 28.2683 26.797 28.7253 26.083 29.068C25.3832 29.4251 24.4835 29.6036 23.3839 29.6036C21.8986 29.6036 20.6919 29.318 19.7636 28.7467C18.8496 28.1898 18.3926 27.34 18.3926 26.1976C18.3926 25.7548 18.5069 25.3121 18.7354 24.8694C18.9782 24.441 19.3566 24.034 19.8707 23.6484C19.5708 23.5199 19.3066 23.3842 19.0781 23.2414C18.8639 23.0843 18.6711 22.9272 18.4997 22.7701V22.256L20.342 20.3709C19.5137 19.6569 19.0995 18.7214 19.0995 17.5647C19.0995 16.8649 19.2638 16.2294 19.5922 15.6582C19.935 15.0726 20.4277 14.6085 21.0703 14.2658C21.713 13.923 22.4841 13.7517 23.3839 13.7517C23.9837 13.7517 24.5406 13.8373 25.0547 14.0087H29.0177V15.5082L27.1326 15.6153C27.4754 16.2008 27.6467 16.8506 27.6467 17.5647C27.6467 18.2787 27.4754 18.9214 27.1326 19.4926C26.8042 20.0639 26.3186 20.5209 25.676 20.8636C25.0476 21.2063 24.2836 21.3777 23.3839 21.3777ZM23.3839 19.5997C24.0408 19.5997 24.5692 19.4284 24.969 19.0856C25.3832 18.7286 25.5903 18.2288 25.5903 17.5861C25.5903 16.9292 25.3832 16.4293 24.969 16.0866C24.5692 15.7439 24.0408 15.5725 23.3839 15.5725C22.7126 15.5725 22.17 15.7439 21.7558 16.0866C21.3559 16.4293 21.156 16.9292 21.156 17.5861C21.156 18.2288 21.3559 18.7286 21.7558 19.0856C22.17 19.4284 22.7126 19.5997 23.3839 19.5997ZM20.5348 25.9833C20.5348 26.5974 20.8061 27.0544 21.3488 27.3543C21.8915 27.6685 22.5698 27.8256 23.3839 27.8256C24.1693 27.8256 24.8048 27.6542 25.2904 27.3115C25.7759 26.983 26.0187 26.5403 26.0187 25.9833C26.0187 25.5692 25.8545 25.2122 25.526 24.9123C25.1975 24.6266 24.5763 24.4481 23.6623 24.3767C22.9768 24.3339 22.3699 24.2696 21.8415 24.1839C21.3417 24.4553 20.9989 24.748 20.8133 25.0622C20.6276 25.3764 20.5348 25.6834 20.5348 25.9833ZM35.5945 24.8908C34.5519 24.8908 33.6237 24.6624 32.8097 24.2054C32.0099 23.7341 31.3816 23.0843 30.9246 22.256C30.4676 21.4277 30.2391 20.4637 30.2391 19.3641C30.2391 18.2502 30.4604 17.2719 30.9031 16.4293C31.3601 15.5868 31.9885 14.9298 32.7882 14.4586C33.6023 13.9873 34.5448 13.7517 35.6159 13.7517C36.6584 13.7517 37.5652 13.9873 38.3364 14.4586C39.1076 14.9156 39.7074 15.5296 40.1358 16.3008C40.5642 17.072 40.7785 17.9217 40.7785 18.85C40.7785 18.9928 40.7713 19.1499 40.757 19.3213C40.757 19.4783 40.7499 19.6569 40.7356 19.8568H32.4669C32.5383 20.885 32.8739 21.6705 33.4737 22.2132C34.0878 22.7416 34.7947 23.0058 35.5945 23.0058C36.2371 23.0058 36.7726 22.8629 37.2011 22.5773C37.6438 22.2774 37.9722 21.8776 38.1865 21.3777H40.4571C40.1715 22.3774 39.6003 23.2128 38.7434 23.884C37.9008 24.5552 36.8512 24.8908 35.5945 24.8908ZM35.5945 15.6153C34.8376 15.6153 34.1664 15.8438 33.5808 16.3008C32.9953 16.7435 32.6383 17.4147 32.5098 18.3144H38.5078C38.4649 17.4861 38.1722 16.8292 37.6295 16.3437C37.0868 15.8581 36.4085 15.6153 35.5945 15.6153ZM43.1345 24.6338V14.0087H45.1481L45.3195 15.8724C45.648 15.2155 46.1264 14.7013 46.7547 14.33C47.3974 13.9444 48.1329 13.7517 48.9612 13.7517C50.2464 13.7517 51.2533 14.1515 51.9816 14.9513C52.7242 15.751 53.0955 16.9435 53.0955 18.5287V24.6338H50.8462V18.7643C50.8462 16.7078 50.0037 15.6796 48.3185 15.6796C47.4759 15.6796 46.7762 15.9795 46.2192 16.5793C45.6765 17.1791 45.4052 18.036 45.4052 19.1499V24.6338H43.1345ZM60.7396 24.8908C59.6971 24.8908 58.7689 24.6624 57.9548 24.2054C57.1551 23.7341 56.5267 23.0843 56.0697 22.256C55.6128 21.4277 55.3843 20.4637 55.3843 19.3641C55.3843 18.2502 55.6056 17.2719 56.0483 16.4293C56.5053 15.5868 57.1337 14.9298 57.9334 14.4586C58.7474 13.9873 59.69 13.7517 60.7611 13.7517C61.8036 13.7517 62.7104 13.9873 63.4816 14.4586C64.2528 14.9156 64.8526 15.5296 65.281 16.3008C65.7094 17.072 65.9237 17.9217 65.9237 18.85C65.9237 18.9928 65.9165 19.1499 65.9022 19.3213C65.9022 19.4783 65.8951 19.6569 65.8808 19.8568H57.6121C57.6835 20.885 58.0191 21.6705 58.6189 22.2132C59.233 22.7416 59.9399 23.0058 60.7396 23.0058C61.3823 23.0058 61.9178 22.8629 62.3463 22.5773C62.789 22.2774 63.1174 21.8776 63.3316 21.3777H65.6023C65.3167 22.3774 64.7455 23.2128 63.8886 23.884C63.046 24.5552 61.9964 24.8908 60.7396 24.8908ZM60.7396 15.6153C59.9827 15.6153 59.3115 15.8438 58.726 16.3008C58.1405 16.7435 57.7835 17.4147 57.6549 18.3144H63.653C63.6101 17.4861 63.3174 16.8292 62.7747 16.3437C62.232 15.8581 61.5537 15.6153 60.7396 15.6153ZM68.2797 24.6338V14.0087H70.3147L70.5075 16.0223C70.8788 15.3226 71.3929 14.7727 72.0499 14.3729C72.7211 13.9587 73.528 13.7517 74.4705 13.7517V16.1294H73.8493C73.2209 16.1294 72.6568 16.2366 72.157 16.4508C71.6714 16.6507 71.2787 17.0006 70.9788 17.5004C70.6932 17.986 70.5504 18.6643 70.5504 19.5355V24.6338H68.2797ZM80.0162 24.8908C79.1165 24.8908 78.3739 24.7409 77.7883 24.441C77.2028 24.1411 76.7672 23.7484 76.4816 23.2628C76.196 22.763 76.0532 22.2203 76.0532 21.6348C76.0532 20.6065 76.4531 19.7925 77.2528 19.1927C78.0525 18.5929 79.195 18.293 80.6802 18.293H83.465V18.1002C83.465 17.2719 83.2365 16.6507 82.7795 16.2366C82.3368 15.8224 81.7585 15.6153 81.0444 15.6153C80.416 15.6153 79.8662 15.7724 79.3949 16.0866C78.938 16.3865 78.6595 16.8364 78.5595 17.4362H76.2888C76.3602 16.665 76.6173 16.0081 77.06 15.4654C77.517 14.9084 78.0882 14.4871 78.7737 14.2015C79.4735 13.9016 80.2375 13.7517 81.0658 13.7517C82.5511 13.7517 83.7007 14.1444 84.5147 14.9298C85.3287 15.701 85.7357 16.7578 85.7357 18.1002V24.6338H83.7649L83.5721 22.813C83.2722 23.3985 82.8367 23.8912 82.2654 24.291C81.6942 24.6909 80.9444 24.8908 80.0162 24.8908ZM80.466 23.0486C81.0801 23.0486 81.5942 22.9058 82.0084 22.6202C82.4368 22.3203 82.7653 21.9275 82.9938 21.442C83.2365 20.9564 83.3865 20.4209 83.4436 19.8354H80.9159C80.0162 19.8354 79.3735 19.9925 78.9879 20.3066C78.6166 20.6208 78.431 21.0136 78.431 21.4848C78.431 21.9704 78.6095 22.356 78.9665 22.6416C79.3378 22.9129 79.8377 23.0486 80.466 23.0486ZM88.3833 24.6338V9.21029H90.654V24.6338H88.3833Z"/></svg>