<svg xmlns="http://www.w3.org/2000/svg" width="68" height="40" fill="none" viewBox="0 0 68 40"><rect width="66.785" height="39.063" x=".476" y=".31" fill="#F9A857" rx="19.531"/><rect width="65.525" height="37.803" x="1.106" y=".94" stroke="#F9A857" stroke-width="1.26" rx="18.901"/><path fill="#fff" d="M10.6349 24.9434V9.51986H12.9056V16.032C13.2626 15.4179 13.7553 14.9395 14.3837 14.5968C15.0263 14.2397 15.7333 14.0612 16.5044 14.0612C17.7754 14.0612 18.7751 14.4611 19.5034 15.2608C20.2318 16.0606 20.5959 17.253 20.5959 18.8382V24.9434H18.3467V19.0739C18.3467 17.0174 17.5255 15.9892 15.8832 15.9892C15.0263 15.9892 14.3123 16.2891 13.7411 16.8889C13.1841 17.4887 12.9056 18.3455 12.9056 19.4594V24.9434H10.6349ZM26.8691 25.2004C25.9694 25.2004 25.2268 25.0505 24.6413 24.7506C24.0557 24.4507 23.6202 24.0579 23.3345 23.5724C23.0489 23.0725 22.9061 22.5299 22.9061 21.9443C22.9061 20.9161 23.306 20.1021 24.1057 19.5023C24.9055 18.9025 26.0479 18.6026 27.5332 18.6026H30.318V18.4098C30.318 17.5815 30.0895 16.9603 29.6325 16.5461C29.1898 16.132 28.6114 15.9249 27.8973 15.9249C27.269 15.9249 26.7191 16.082 26.2479 16.3962C25.7909 16.6961 25.5124 17.1459 25.4124 17.7457H23.1418C23.2132 16.9746 23.4702 16.3176 23.9129 15.7749C24.3699 15.218 24.9412 14.7967 25.6266 14.5111C26.3264 14.2112 27.0905 14.0612 27.9188 14.0612C29.404 14.0612 30.5536 14.454 31.3676 15.2394C32.1816 16.0106 32.5886 17.0674 32.5886 18.4098V24.9434H30.6179L30.4251 23.1225C30.1252 23.7081 29.6896 24.2007 29.1184 24.6006C28.5471 25.0005 27.7974 25.2004 26.8691 25.2004ZM27.319 23.3582C27.933 23.3582 28.4472 23.2154 28.8613 22.9297C29.2897 22.6298 29.6182 22.2371 29.8467 21.7516C30.0895 21.266 30.2394 20.7305 30.2965 20.1449H27.7688C26.8691 20.1449 26.2265 20.302 25.8409 20.6162C25.4696 20.9304 25.2839 21.3231 25.2839 21.7944C25.2839 22.2799 25.4624 22.6655 25.8194 22.9512C26.1908 23.2225 26.6906 23.3582 27.319 23.3582ZM40.2703 25.2004C39.2278 25.2004 38.2923 24.9648 37.464 24.4935C36.65 24.0222 36.0074 23.3724 35.5361 22.5441C35.0791 21.7016 34.8506 20.7305 34.8506 19.6308C34.8506 18.5312 35.0791 17.5672 35.5361 16.7389C36.0074 15.8963 36.65 15.2394 37.464 14.7681C38.2923 14.2969 39.2278 14.0612 40.2703 14.0612C41.5841 14.0612 42.6838 14.404 43.5692 15.0895C44.4689 15.7749 45.0473 16.7032 45.3043 17.8743H42.9265C42.7837 17.2887 42.4695 16.8317 41.984 16.5033C41.4984 16.1748 40.9272 16.0106 40.2703 16.0106C39.7133 16.0106 39.1992 16.1534 38.7279 16.439C38.2566 16.7104 37.8782 17.1174 37.5926 17.66C37.307 18.1884 37.1641 18.8454 37.1641 19.6308C37.1641 20.4163 37.307 21.0803 37.5926 21.623C37.8782 22.1514 38.2566 22.5584 38.7279 22.844C39.1992 23.1297 39.7133 23.2725 40.2703 23.2725C40.9272 23.2725 41.4984 23.1082 41.984 22.7798C42.4695 22.4513 42.7837 21.9872 42.9265 21.3874H45.3043C45.0615 22.5299 44.4903 23.451 43.5906 24.1508C42.6909 24.8505 41.5841 25.2004 40.2703 25.2004ZM47.767 24.9434V9.51986H50.0376V18.7097L54.1077 14.3183H56.8283L52.3083 19.1381L57.4923 24.9434H54.6219L50.0376 19.5023V24.9434H47.767Z"/></svg>