<svg width="227" height="227" viewBox="0 0 227 227" fill="none" xmlns="http://www.w3.org/2000/svg">
<path d="M14.0934 127.228C6.30983 119.445 6.30983 106.825 14.0934 99.0414L99.0416 14.0932C106.825 6.30958 119.445 6.30959 127.228 14.0932L212.177 99.0414C219.96 106.825 219.96 119.445 212.177 127.228L127.228 212.176C119.445 219.96 106.825 219.96 99.0416 212.176L14.0934 127.228Z" fill="#E981A0"/>
<path d="M66.2766 130.042C63.6984 130.042 61.3965 129.43 59.3707 128.205C57.345 126.981 55.7428 125.307 54.5642 123.183C53.3856 121.058 52.7963 118.646 52.7963 115.946C52.7963 113.245 53.3856 110.851 54.5642 108.763C55.7428 106.638 57.345 104.982 59.3707 103.794C61.3965 102.57 63.6984 101.958 66.2766 101.958C68.3392 101.958 70.1439 102.336 71.6908 103.092C73.2377 103.848 74.49 104.91 75.4476 106.278V90.5078H82.5193V129.394H76.2211L75.4476 125.559C74.5637 126.747 73.3851 127.791 71.9118 128.692C70.4754 129.592 68.597 130.042 66.2766 130.042ZM67.7683 123.993C70.0518 123.993 71.9118 123.255 73.3482 121.778C74.8215 120.266 75.5581 118.34 75.5581 116C75.5581 113.659 74.8215 111.751 73.3482 110.275C71.9118 108.763 70.0518 108.006 67.7683 108.006C65.5216 108.006 63.6616 108.745 62.1883 110.221C60.7151 111.697 59.9784 113.605 59.9784 115.946C59.9784 118.286 60.7151 120.212 62.1883 121.724C63.6616 123.237 65.5216 123.993 67.7683 123.993Z" fill="white"/>
<path d="M101.046 130.042C98.6151 130.042 96.4789 129.664 94.6374 128.908C92.7958 128.115 91.3225 127.035 90.2176 125.667C89.1126 124.299 88.4497 122.715 88.2287 120.914H95.3556C95.5766 121.959 96.1659 122.859 97.1235 123.615C98.1179 124.335 99.3886 124.695 100.936 124.695C102.482 124.695 103.606 124.389 104.306 123.777C105.042 123.165 105.411 122.463 105.411 121.67C105.411 120.518 104.895 119.744 103.864 119.348C102.832 118.916 101.396 118.502 99.5543 118.106C98.3757 117.854 97.1787 117.548 95.9633 117.188C94.7478 116.828 93.6245 116.378 92.5932 115.838C91.5988 115.262 90.7885 114.541 90.1623 113.677C89.5362 112.777 89.2231 111.679 89.2231 110.383C89.2231 108.006 90.1808 106.008 92.096 104.388C94.0481 102.768 96.7736 101.958 100.273 101.958C103.514 101.958 106.092 102.696 108.007 104.172C109.959 105.648 111.119 107.682 111.488 110.275H104.803C104.398 108.294 102.869 107.304 100.217 107.304C98.8914 107.304 97.8601 107.556 97.1235 108.06C96.4237 108.565 96.0738 109.195 96.0738 109.951C96.0738 110.743 96.6078 111.373 97.6759 111.841C98.7441 112.309 100.162 112.741 101.93 113.137C103.845 113.569 105.595 114.055 107.178 114.595C108.799 115.099 110.088 115.874 111.046 116.918C112.003 117.926 112.482 119.384 112.482 121.292C112.519 122.949 112.077 124.443 111.156 125.775C110.235 127.107 108.91 128.151 107.178 128.908C105.447 129.664 103.403 130.042 101.046 130.042Z" fill="white"/>
<path d="M130.349 121.4C129.023 121.4 127.789 121.256 126.647 120.968L124.603 122.967C125.229 123.291 126.076 123.561 127.144 123.777C128.212 123.993 129.943 124.209 132.337 124.425C135.984 124.749 138.636 125.595 140.293 126.963C141.95 128.331 142.779 130.222 142.779 132.634C142.779 134.218 142.337 135.713 141.453 137.117C140.569 138.557 139.206 139.709 137.365 140.573C135.523 141.473 133.166 141.923 130.293 141.923C126.389 141.923 123.24 141.203 120.846 139.763C118.452 138.359 117.255 136.235 117.255 133.39C117.255 130.978 118.452 128.89 120.846 127.125C120.109 126.801 119.465 126.459 118.912 126.099C118.397 125.739 117.936 125.361 117.531 124.965V123.723L122.338 118.754C120.201 116.918 119.133 114.559 119.133 111.679C119.133 109.879 119.575 108.24 120.459 106.764C121.38 105.288 122.669 104.118 124.327 103.254C125.984 102.39 127.991 101.958 130.349 101.958C131.895 101.958 133.332 102.174 134.658 102.606H145.044V106.818L140.348 107.142C141.085 108.51 141.453 110.023 141.453 111.679C141.453 113.479 141.011 115.117 140.127 116.594C139.243 118.07 137.954 119.24 136.26 120.104C134.603 120.968 132.632 121.4 130.349 121.4ZM130.349 116.108C131.785 116.108 132.964 115.73 133.884 114.973C134.842 114.217 135.321 113.137 135.321 111.733C135.321 110.329 134.842 109.249 133.884 108.492C132.964 107.736 131.785 107.358 130.349 107.358C128.838 107.358 127.623 107.736 126.702 108.492C125.781 109.249 125.321 110.329 125.321 111.733C125.321 113.137 125.781 114.217 126.702 114.973C127.623 115.73 128.838 116.108 130.349 116.108ZM123.719 132.688C123.719 134.02 124.345 135.01 125.597 135.659C126.886 136.343 128.452 136.685 130.293 136.685C132.061 136.685 133.498 136.325 134.603 135.605C135.708 134.92 136.26 133.984 136.26 132.796C136.26 131.824 135.892 131.014 135.155 130.366C134.455 129.718 133.037 129.322 130.901 129.178C129.391 129.07 127.991 128.908 126.702 128.692C125.634 129.268 124.861 129.898 124.382 130.582C123.94 131.266 123.719 131.968 123.719 132.688Z" fill="white"/>
<path d="M150.201 129.394V102.606H156.444L156.996 107.142C157.843 105.558 159.059 104.298 160.642 103.362C162.263 102.426 164.16 101.958 166.333 101.958C169.721 101.958 172.355 103.002 174.233 105.09C176.112 107.178 177.051 110.239 177.051 114.271V129.394H169.979V114.919C169.979 112.615 169.5 110.851 168.543 109.627C167.585 108.402 166.094 107.79 164.068 107.79C162.079 107.79 160.44 108.474 159.151 109.843C157.899 111.211 157.272 113.119 157.272 115.568V129.394H150.201Z" fill="white"/>
</svg>
