<svg xmlns="http://www.w3.org/2000/svg" width="61" height="17" fill="none" viewBox="0 0 61 17"><path fill="#333" d="M7.48608 0C9.68992 0 11.3264 0.562163 12.3959 1.68668C13.4653 2.81101 14 4.51992 14 6.81341V14.9627C14 15.5637 13.8271 16.037 13.4815 16.3821C13.1359 16.7272 12.6605 16.8998 12.0555 16.8998C11.4939 16.8998 11.0348 16.7216 10.6782 16.3654C10.3218 16.0092 10.1436 15.5415 10.1436 14.9627V14.2279C9.77619 15.0962 9.19836 15.7753 8.4097 16.2652C7.62123 16.7551 6.70839 17 5.67135 17C4.61275 17 3.6512 16.7774 2.78706 16.3321C1.92292 15.8868 1.24229 15.2744 0.745337 14.495C0.248386 13.7157 0 12.8474 0 11.8899C0 10.6876 0.297089 9.7413 0.891274 9.05114C1.48528 8.3608 2.45222 7.85976 3.79174 7.54802C5.13126 7.23647 6.97834 7.08051 9.33333 7.08051H10.1436V6.31237C10.1436 5.22138 9.91674 4.42527 9.46292 3.92441C9.00928 3.42337 8.27473 3.17294 7.25926 3.17294C6.63272 3.17294 5.9954 3.26741 5.3473 3.45671C4.69902 3.64602 3.93212 3.91867 3.04623 4.27505C2.48458 4.56456 2.07407 4.70922 1.8149 4.70922C1.42597 4.70922 1.10731 4.56456 0.858743 4.27505C0.610357 3.98554 0.486165 3.60712 0.486165 3.13942C0.486165 2.761 0.578009 2.43259 0.761512 2.15419C0.945196 1.87579 1.25307 1.61425 1.68514 1.36938C2.44144 0.946323 3.34332 0.612363 4.39114 0.367307C5.43914 0.122436 6.47061 0 7.48608 0ZM6.48157 13.9941C7.56174 13.9941 8.44206 13.6211 9.12269 12.8752C9.80333 12.1293 10.1436 11.1663 10.1436 9.98617V9.2849H9.56015C8.11261 9.2849 6.98913 9.35158 6.18987 9.48532C5.39044 9.61886 4.818 9.85262 4.4722 10.1866C4.12658 10.5206 3.95368 10.9771 3.95368 11.556C3.95368 12.2685 4.19685 12.8529 4.68284 13.3093C5.16901 13.7659 5.76858 13.9941 6.48157 13.9941Z"/><path fill="#333" d="M25.9075 17C24.3302 17 22.9422 16.6549 21.743 15.9646C20.5441 15.2744 19.6204 14.2948 18.9723 13.0256C18.3241 11.7564 18 10.2757 18 8.58345C18 6.89121 18.3404 5.39382 19.0209 4.0913C19.7015 2.78878 20.6575 1.78115 21.889 1.06876C23.1205 0.356191 24.5355 0 26.1344 0C26.9769 0 27.8249 0.122436 28.6782 0.367307C29.5318 0.612363 30.2825 0.946323 30.9306 1.36938C31.622 1.8369 31.9677 2.42703 31.9677 3.13942C31.9677 3.62934 31.8542 4.02444 31.6274 4.32506C31.4006 4.62568 31.1035 4.77609 30.7361 4.77609C30.4985 4.77609 30.2502 4.72034 29.9908 4.60902C29.7316 4.4977 29.4723 4.36415 29.2131 4.20818C28.7377 3.91867 28.2841 3.69047 27.8518 3.52358C27.4198 3.35651 26.9228 3.27297 26.3612 3.27297C25.0217 3.27297 23.99 3.724 23.2662 4.62569C22.5425 5.52756 22.1807 6.82452 22.1807 8.51676C22.1807 10.1866 22.5425 11.4724 23.2662 12.3743C23.99 13.276 25.0217 13.7268 26.3612 13.7268C26.9013 13.7268 27.382 13.6435 27.8033 13.4764C28.2246 13.3093 28.6946 13.0811 29.2131 12.7918C29.5372 12.5914 29.8179 12.441 30.0557 12.3408C30.2933 12.2406 30.5309 12.1906 30.7687 12.1906C31.1143 12.1906 31.406 12.3463 31.6436 12.6581C31.8812 12.9698 32 13.3595 32 13.8271C32 14.2057 31.9191 14.5341 31.757 14.8123C31.5951 15.0907 31.3303 15.3411 30.963 15.5637C30.2933 16.0092 29.5154 16.3599 28.6297 16.6158C27.7438 16.872 26.8366 17 25.9075 17Z"/><path fill="#333" d="M55.2493 0C57.1081 0 58.5311 0.530908 59.5186 1.59273C60.5061 2.65456 61 4.37022 61 6.73971V14.9883C61 15.6365 60.7967 16.1338 60.39 16.4802C59.9833 16.8269 59.4548 17 58.8042 17C58.1768 17 57.66 16.8269 57.2533 16.4802C56.8466 16.1338 56.6435 15.6365 56.6435 14.9883V6.73971C56.6435 5.51015 56.4167 4.63279 55.9637 4.10746C55.5106 3.58212 54.8194 3.31955 53.8901 3.31955C52.7516 3.31955 51.8453 3.69389 51.1715 4.44274C50.4977 5.1916 50.1608 6.21437 50.1608 7.51088V14.9883C50.1608 15.6365 49.9576 16.1338 49.5509 16.4802C49.1443 16.8269 48.6274 17 48 17C47.3726 17 46.8499 16.8269 46.4317 16.4802C46.0134 16.1338 45.8042 15.6365 45.8042 14.9883V6.73971C45.8042 5.51015 45.5777 4.63279 45.1246 4.10746C44.6716 3.58212 43.9804 3.31955 43.051 3.31955C41.9124 3.31955 41.012 3.69389 40.3498 4.44274C39.6876 5.1916 39.3565 6.21437 39.3565 7.51088V14.9883C39.3565 15.6365 39.1476 16.1338 38.7293 16.4802C38.311 16.8269 37.7882 17 37.161 17C36.5335 17 36.0165 16.8269 35.61 16.4802C35.2033 16.1338 35 15.6365 35 14.9883V2.01189C35 1.38595 35.2091 0.905243 35.6274 0.569959C36.0457 0.234675 36.5683 0.0669425 37.1958 0.0669425C37.7998 0.0669425 38.2936 0.229097 38.6769 0.553223C39.0604 0.87735 39.2522 1.34113 39.2522 1.94475V2.7494C39.7864 1.85531 40.501 1.17358 41.3955 0.704037C42.2901 0.234677 43.3182 0 44.4798 0C47.0357 0 48.7436 1.02817 49.6031 3.08487C50.1144 2.14596 50.8696 1.39711 51.8687 0.838302C52.8678 0.27931 53.9946 0 55.2493 0Z"/></svg>