<svg xmlns="http://www.w3.org/2000/svg" width="269" height="596" fill="none" viewBox="0 0 269 596"><path fill="#62B0FF" fill-opacity=".2" d="M94 594.16L38 573.68V562.16L94 541.68V552.56L81.04 557.04V578.88L94 583.44V594.16ZM73.04 576.08V559.84L49.76 568L73.04 576.08ZM94.96 512.309C94.96 517.963 93.76 522.816 91.36 526.869C88.9067 530.923 85.52 534.043 81.2 536.229C76.8267 538.416 71.7867 539.509 66.08 539.509C60.3733 539.509 55.3333 538.416 50.96 536.229C46.5867 534.043 43.1733 530.923 40.72 526.869C38.2667 522.816 37.04 517.963 37.04 512.309C37.04 505.589 38.72 500.096 42.08 495.829C45.3867 491.509 50.0533 488.816 56.08 487.749V499.029C53.04 499.723 50.6667 501.216 48.96 503.509C47.2 505.749 46.32 508.736 46.32 512.469C46.32 517.643 48.08 521.696 51.6 524.629C55.12 527.563 59.9467 529.029 66.08 529.029C72.2133 529.029 77.04 527.563 80.56 524.629C84.0267 521.696 85.76 517.643 85.76 512.469C85.76 508.736 84.96 505.749 83.36 503.509C81.7067 501.216 79.44 499.723 76.56 499.029V487.749C82.32 488.816 86.8267 491.509 90.08 495.829C93.3333 500.096 94.96 505.589 94.96 512.309ZM94 478.685H38V466.525L73.52 448.685L38 431.085L38 418.925H94V429.165H55.36L86 444.765V452.845L55.36 468.445H94V478.685ZM110.96 358.997C110.96 364.917 109.813 370.091 107.52 374.517C105.28 378.944 102.08 382.384 97.92 384.837C93.8133 387.291 88.9333 388.517 83.28 388.517C77.36 388.517 71.8667 387.477 66.8 385.397C61.7333 383.317 57.3333 380.411 53.6 376.677C49.8133 372.891 46.88 368.464 44.8 363.397C42.72 358.331 41.68 352.784 41.68 346.757C41.68 340.571 42.8533 335.237 45.2 330.757C47.4933 326.224 50.72 322.731 54.88 320.277C59.04 317.824 63.84 316.597 69.28 316.597C72.48 316.597 75.6 317.024 78.64 317.877C81.6267 318.677 84.32 319.877 86.72 321.477C89.0667 323.024 90.9333 324.971 92.32 327.317C93.7067 329.611 94.4 332.251 94.4 335.237C94.4 338.011 93.7867 340.224 92.56 341.877C91.3333 343.531 89.6533 344.571 87.52 344.997C89.7067 346.544 91.44 348.544 92.72 350.997C93.9467 353.397 94.56 355.984 94.56 358.757C94.56 362.811 93.36 365.957 90.96 368.197C88.5067 370.437 85.2 371.557 81.04 371.557C78.16 371.557 75.3867 371.104 72.72 370.197C70 369.291 67.6 368.011 65.52 366.357C63.3867 364.651 61.7067 362.651 60.48 360.357C59.2533 358.011 58.64 355.451 58.64 352.677C58.64 347.717 60.5333 344.464 64.32 342.917L59.36 342.037V333.637L80.8 337.397C82.88 337.717 84.56 337.664 85.84 337.237C87.0667 336.757 87.68 335.611 87.68 333.797C87.68 332.251 87.1467 330.917 86.08 329.797C84.96 328.624 83.52 327.664 81.76 326.917C79.9467 326.117 78 325.531 75.92 325.157C73.7867 324.731 71.7067 324.517 69.68 324.517C63.1733 324.517 58.0533 326.571 54.32 330.677C50.5333 334.784 48.64 340.491 48.64 347.797C48.64 352.544 49.52 356.917 51.28 360.917C52.9867 364.864 55.3867 368.331 58.48 371.317C61.5733 374.251 65.1733 376.544 69.28 378.197C73.3333 379.797 77.7067 380.597 82.4 380.597C89.2267 380.597 94.5067 378.571 98.24 374.517C102.027 370.464 103.92 364.864 103.92 357.717C103.92 355.317 103.68 352.944 103.2 350.597C102.72 348.197 102.027 346.011 101.12 344.037L107.76 342.357C109.893 347.371 110.96 352.917 110.96 358.997ZM87.04 355.557C87.04 353.637 86.5067 351.877 85.44 350.277C84.3733 348.677 82.9333 347.371 81.12 346.357C79.2533 345.344 77.1733 344.784 74.88 344.677C72.4267 344.517 70.3467 345.051 68.64 346.277C66.9333 347.451 66.08 349.317 66.08 351.877C66.08 354.011 66.72 355.877 68 357.477C69.28 359.077 70.9333 360.331 72.96 361.237C74.9333 362.144 77.0667 362.597 79.36 362.597C81.6533 362.597 83.52 362.011 84.96 360.837C86.3467 359.611 87.04 357.851 87.04 355.557ZM94.96 264.585C94.96 268.692 94.16 272.398 92.56 275.705C90.9067 279.012 88.4267 281.652 85.12 283.625C81.8133 285.545 77.6267 286.505 72.56 286.505H38V276.265H72.64C77.0133 276.265 80.2667 275.225 82.4 273.145C84.5333 271.012 85.6 268.078 85.6 264.345C85.6 260.665 84.5333 257.758 82.4 255.625C80.2667 253.492 77.0133 252.425 72.64 252.425H38V242.185H72.56C77.6267 242.185 81.8133 243.198 85.12 245.225C88.4267 247.252 90.9067 249.972 92.56 253.385C94.16 256.745 94.96 260.478 94.96 264.585ZM94.96 206.372C94.96 212.025 93.76 216.879 91.36 220.932C88.9067 224.985 85.52 228.105 81.2 230.292C76.8267 232.479 71.7867 233.572 66.08 233.572C60.3733 233.572 55.3333 232.479 50.96 230.292C46.5867 228.105 43.1733 224.985 40.72 220.932C38.2667 216.879 37.04 212.025 37.04 206.372C37.04 199.652 38.72 194.159 42.08 189.892C45.3867 185.572 50.0533 182.879 56.08 181.812L56.08 193.092C53.04 193.785 50.6667 195.279 48.96 197.572C47.2 199.812 46.32 202.799 46.32 206.532C46.32 211.705 48.08 215.759 51.6 218.692C55.12 221.625 59.9467 223.092 66.08 223.092C72.2133 223.092 77.04 221.625 80.56 218.692C84.0267 215.759 85.76 211.705 85.76 206.532C85.76 202.799 84.96 199.812 83.36 197.572C81.7067 195.279 79.44 193.785 76.56 193.092V181.812C82.32 182.879 86.8267 185.572 90.08 189.892C93.3333 194.159 94.96 199.652 94.96 206.372ZM94.96 153.627C94.96 157.734 94.2667 161.361 92.88 164.507C91.44 167.654 89.4133 170.134 86.8 171.947C84.1333 173.761 80.9067 174.694 77.12 174.747V163.947C79.7333 163.841 81.9467 162.907 83.76 161.147C85.52 159.334 86.4 156.854 86.4 153.707C86.4 150.987 85.76 148.827 84.48 147.227C83.1467 145.627 81.3867 144.827 79.2 144.827C76.9067 144.827 75.12 145.547 73.84 146.987C72.56 148.374 71.52 150.241 70.72 152.587C69.92 154.934 69.0667 157.441 68.16 160.107C66.6667 164.427 64.7467 167.734 62.4 170.027C60.0533 172.267 56.9333 173.387 53.04 173.387C49.7333 173.441 46.9067 172.667 44.56 171.067C42.16 169.414 40.32 167.174 39.04 164.347C37.7067 161.521 37.04 158.267 37.04 154.587C37.04 150.854 37.7067 147.574 39.04 144.747C40.3733 141.867 42.24 139.627 44.64 138.027C47.04 136.374 49.8933 135.494 53.2 135.387V146.347C51.2267 146.401 49.4933 147.174 48 148.667C46.4533 150.107 45.68 152.134 45.68 154.747C45.6267 156.987 46.1867 158.881 47.36 160.427C48.48 161.921 50.1333 162.667 52.32 162.667C54.1867 162.667 55.68 162.081 56.8 160.907C57.8667 159.734 58.7733 158.134 59.52 156.107C60.2667 154.081 61.0667 151.761 61.92 149.147C62.88 146.374 64 143.841 65.28 141.547C66.56 139.254 68.2667 137.414 70.4 136.027C72.48 134.641 75.1733 133.947 78.48 133.947C81.4133 133.947 84.1333 134.694 86.64 136.187C89.1467 137.681 91.1733 139.894 92.72 142.827C94.2133 145.761 94.96 149.361 94.96 153.627ZM94 125.013H38V105.893C38 99.3331 39.1733 93.9465 41.52 89.7331C43.8133 85.4665 47.0667 82.3198 51.28 80.2931C55.44 78.2131 60.3467 77.1731 66 77.1731C71.6533 77.1731 76.5867 78.2131 80.8 80.2931C84.96 82.3198 88.2133 85.4665 90.56 89.7331C92.8533 93.9465 94 99.3331 94 105.893V125.013ZM85.2 114.773V106.373C85.2 101.68 84.4533 97.9731 82.96 95.2531C81.4133 92.5331 79.2267 90.5865 76.4 89.4131C73.52 88.2398 70.0533 87.6531 66 87.6531C62 87.6531 58.56 88.2398 55.68 89.4131C52.8 90.5865 50.5867 92.5331 49.04 95.2531C47.4933 97.9731 46.72 101.68 46.72 106.373V114.773H85.2Z"/><path fill="#62B0FF" fill-opacity=".4" d="M176 594.16L120 573.68V562.16L176 541.68V552.56L163.04 557.04V578.88L176 583.44V594.16ZM155.04 576.08V559.84L131.76 568L155.04 576.08ZM176.96 512.309C176.96 517.963 175.76 522.816 173.36 526.869C170.907 530.923 167.52 534.043 163.2 536.229C158.827 538.416 153.787 539.509 148.08 539.509C142.373 539.509 137.333 538.416 132.96 536.229C128.587 534.043 125.173 530.923 122.72 526.869C120.267 522.816 119.04 517.963 119.04 512.309C119.04 505.589 120.72 500.096 124.08 495.829C127.387 491.509 132.053 488.816 138.08 487.749V499.029C135.04 499.723 132.667 501.216 130.96 503.509C129.2 505.749 128.32 508.736 128.32 512.469C128.32 517.643 130.08 521.696 133.6 524.629C137.12 527.563 141.947 529.029 148.08 529.029C154.213 529.029 159.04 527.563 162.56 524.629C166.027 521.696 167.76 517.643 167.76 512.469C167.76 508.736 166.96 505.749 165.36 503.509C163.707 501.216 161.44 499.723 158.56 499.029V487.749C164.32 488.816 168.827 491.509 172.08 495.829C175.333 500.096 176.96 505.589 176.96 512.309ZM176 478.685H120V466.525L155.52 448.685L120 431.085L120 418.925H176V429.165H137.36L168 444.765V452.845L137.36 468.445H176V478.685ZM192.96 358.997C192.96 364.917 191.813 370.091 189.52 374.517C187.28 378.944 184.08 382.384 179.92 384.837C175.813 387.291 170.933 388.517 165.28 388.517C159.36 388.517 153.867 387.477 148.8 385.397C143.733 383.317 139.333 380.411 135.6 376.677C131.813 372.891 128.88 368.464 126.8 363.397C124.72 358.331 123.68 352.784 123.68 346.757C123.68 340.571 124.853 335.237 127.2 330.757C129.493 326.224 132.72 322.731 136.88 320.277C141.04 317.824 145.84 316.597 151.28 316.597C154.48 316.597 157.6 317.024 160.64 317.877C163.627 318.677 166.32 319.877 168.72 321.477C171.067 323.024 172.933 324.971 174.32 327.317C175.707 329.611 176.4 332.251 176.4 335.237C176.4 338.011 175.787 340.224 174.56 341.877C173.333 343.531 171.653 344.571 169.52 344.997C171.707 346.544 173.44 348.544 174.72 350.997C175.947 353.397 176.56 355.984 176.56 358.757C176.56 362.811 175.36 365.957 172.96 368.197C170.507 370.437 167.2 371.557 163.04 371.557C160.16 371.557 157.387 371.104 154.72 370.197C152 369.291 149.6 368.011 147.52 366.357C145.387 364.651 143.707 362.651 142.48 360.357C141.253 358.011 140.64 355.451 140.64 352.677C140.64 347.717 142.533 344.464 146.32 342.917L141.36 342.037V333.637L162.8 337.397C164.88 337.717 166.56 337.664 167.84 337.237C169.067 336.757 169.68 335.611 169.68 333.797C169.68 332.251 169.147 330.917 168.08 329.797C166.96 328.624 165.52 327.664 163.76 326.917C161.947 326.117 160 325.531 157.92 325.157C155.787 324.731 153.707 324.517 151.68 324.517C145.173 324.517 140.053 326.571 136.32 330.677C132.533 334.784 130.64 340.491 130.64 347.797C130.64 352.544 131.52 356.917 133.28 360.917C134.987 364.864 137.387 368.331 140.48 371.317C143.573 374.251 147.173 376.544 151.28 378.197C155.333 379.797 159.707 380.597 164.4 380.597C171.227 380.597 176.507 378.571 180.24 374.517C184.027 370.464 185.92 364.864 185.92 357.717C185.92 355.317 185.68 352.944 185.2 350.597C184.72 348.197 184.027 346.011 183.12 344.037L189.76 342.357C191.893 347.371 192.96 352.917 192.96 358.997ZM169.04 355.557C169.04 353.637 168.507 351.877 167.44 350.277C166.373 348.677 164.933 347.371 163.12 346.357C161.253 345.344 159.173 344.784 156.88 344.677C154.427 344.517 152.347 345.051 150.64 346.277C148.933 347.451 148.08 349.317 148.08 351.877C148.08 354.011 148.72 355.877 150 357.477C151.28 359.077 152.933 360.331 154.96 361.237C156.933 362.144 159.067 362.597 161.36 362.597C163.653 362.597 165.52 362.011 166.96 360.837C168.347 359.611 169.04 357.851 169.04 355.557ZM176.96 264.585C176.96 268.692 176.16 272.398 174.56 275.705C172.907 279.012 170.427 281.652 167.12 283.625C163.813 285.545 159.627 286.505 154.56 286.505H120V276.265H154.64C159.013 276.265 162.267 275.225 164.4 273.145C166.533 271.012 167.6 268.078 167.6 264.345C167.6 260.665 166.533 257.758 164.4 255.625C162.267 253.492 159.013 252.425 154.64 252.425H120V242.185H154.56C159.627 242.185 163.813 243.198 167.12 245.225C170.427 247.252 172.907 249.972 174.56 253.385C176.16 256.745 176.96 260.478 176.96 264.585ZM176.96 206.372C176.96 212.025 175.76 216.879 173.36 220.932C170.907 224.985 167.52 228.105 163.2 230.292C158.827 232.479 153.787 233.572 148.08 233.572C142.373 233.572 137.333 232.479 132.96 230.292C128.587 228.105 125.173 224.985 122.72 220.932C120.267 216.879 119.04 212.025 119.04 206.372C119.04 199.652 120.72 194.159 124.08 189.892C127.387 185.572 132.053 182.879 138.08 181.812V193.092C135.04 193.785 132.667 195.279 130.96 197.572C129.2 199.812 128.32 202.799 128.32 206.532C128.32 211.705 130.08 215.759 133.6 218.692C137.12 221.625 141.947 223.092 148.08 223.092C154.213 223.092 159.04 221.625 162.56 218.692C166.027 215.759 167.76 211.705 167.76 206.532C167.76 202.799 166.96 199.812 165.36 197.572C163.707 195.279 161.44 193.785 158.56 193.092V181.812C164.32 182.879 168.827 185.572 172.08 189.892C175.333 194.159 176.96 199.652 176.96 206.372ZM176.96 153.627C176.96 157.734 176.267 161.361 174.88 164.507C173.44 167.654 171.413 170.134 168.8 171.947C166.133 173.761 162.907 174.694 159.12 174.747V163.947C161.733 163.841 163.947 162.907 165.76 161.147C167.52 159.334 168.4 156.854 168.4 153.707C168.4 150.987 167.76 148.827 166.48 147.227C165.147 145.627 163.387 144.827 161.2 144.827C158.907 144.827 157.12 145.547 155.84 146.987C154.56 148.374 153.52 150.241 152.72 152.587C151.92 154.934 151.067 157.441 150.16 160.107C148.667 164.427 146.747 167.734 144.4 170.027C142.053 172.267 138.933 173.387 135.04 173.387C131.733 173.441 128.907 172.667 126.56 171.067C124.16 169.414 122.32 167.174 121.04 164.347C119.707 161.521 119.04 158.267 119.04 154.587C119.04 150.854 119.707 147.574 121.04 144.747C122.373 141.867 124.24 139.627 126.64 138.027C129.04 136.374 131.893 135.494 135.2 135.387V146.347C133.227 146.401 131.493 147.174 130 148.667C128.453 150.107 127.68 152.134 127.68 154.747C127.627 156.987 128.187 158.881 129.36 160.427C130.48 161.921 132.133 162.667 134.32 162.667C136.187 162.667 137.68 162.081 138.8 160.907C139.867 159.734 140.773 158.134 141.52 156.107C142.267 154.081 143.067 151.761 143.92 149.147C144.88 146.374 146 143.841 147.28 141.547C148.56 139.254 150.267 137.414 152.4 136.027C154.48 134.641 157.173 133.947 160.48 133.947C163.413 133.947 166.133 134.694 168.64 136.187C171.147 137.681 173.173 139.894 174.72 142.827C176.213 145.761 176.96 149.361 176.96 153.627ZM176 125.013H120V105.893C120 99.3331 121.173 93.9465 123.52 89.7331C125.813 85.4665 129.067 82.3198 133.28 80.2931C137.44 78.2131 142.347 77.1731 148 77.1731C153.653 77.1731 158.587 78.2131 162.8 80.2931C166.96 82.3198 170.213 85.4665 172.56 89.7331C174.853 93.9465 176 99.3331 176 105.893V125.013ZM167.2 114.773V106.373C167.2 101.68 166.453 97.9731 164.96 95.2531C163.413 92.5331 161.227 90.5865 158.4 89.4131C155.52 88.2398 152.053 87.6531 148 87.6531C144 87.6531 140.56 88.2398 137.68 89.4131C134.8 90.5865 132.587 92.5331 131.04 95.2531C129.493 97.9731 128.72 101.68 128.72 106.373V114.773H167.2Z"/><path fill="#62B0FF" fill-opacity=".6" d="M259 594.16L203 573.68V562.16L259 541.68V552.56L246.04 557.04V578.88L259 583.44V594.16ZM238.04 576.08V559.84L214.76 568L238.04 576.08ZM259.96 512.309C259.96 517.963 258.76 522.816 256.36 526.869C253.907 530.923 250.52 534.043 246.2 536.229C241.827 538.416 236.787 539.509 231.08 539.509C225.373 539.509 220.333 538.416 215.96 536.229C211.587 534.043 208.173 530.923 205.72 526.869C203.267 522.816 202.04 517.963 202.04 512.309C202.04 505.589 203.72 500.096 207.08 495.829C210.387 491.509 215.053 488.816 221.08 487.749V499.029C218.04 499.723 215.667 501.216 213.96 503.509C212.2 505.749 211.32 508.736 211.32 512.469C211.32 517.643 213.08 521.696 216.6 524.629C220.12 527.563 224.947 529.029 231.08 529.029C237.213 529.029 242.04 527.563 245.56 524.629C249.027 521.696 250.76 517.643 250.76 512.469C250.76 508.736 249.96 505.749 248.36 503.509C246.707 501.216 244.44 499.723 241.56 499.029V487.749C247.32 488.816 251.827 491.509 255.08 495.829C258.333 500.096 259.96 505.589 259.96 512.309ZM259 478.685H203V466.525L238.52 448.685L203 431.085V418.925H259V429.165H220.36L251 444.765V452.845L220.36 468.445H259V478.685ZM275.96 358.997C275.96 364.917 274.813 370.091 272.52 374.517C270.28 378.944 267.08 382.384 262.92 384.837C258.813 387.291 253.933 388.517 248.28 388.517C242.36 388.517 236.867 387.477 231.8 385.397C226.733 383.317 222.333 380.411 218.6 376.677C214.813 372.891 211.88 368.464 209.8 363.397C207.72 358.331 206.68 352.784 206.68 346.757C206.68 340.571 207.853 335.237 210.2 330.757C212.493 326.224 215.72 322.731 219.88 320.277C224.04 317.824 228.84 316.597 234.28 316.597C237.48 316.597 240.6 317.024 243.64 317.877C246.627 318.677 249.32 319.877 251.72 321.477C254.067 323.024 255.933 324.971 257.32 327.317C258.707 329.611 259.4 332.251 259.4 335.237C259.4 338.011 258.787 340.224 257.56 341.877C256.333 343.531 254.653 344.571 252.52 344.997C254.707 346.544 256.44 348.544 257.72 350.997C258.947 353.397 259.56 355.984 259.56 358.757C259.56 362.811 258.36 365.957 255.96 368.197C253.507 370.437 250.2 371.557 246.04 371.557C243.16 371.557 240.387 371.104 237.72 370.197C235 369.291 232.6 368.011 230.52 366.357C228.387 364.651 226.707 362.651 225.48 360.357C224.253 358.011 223.64 355.451 223.64 352.677C223.64 347.717 225.533 344.464 229.32 342.917L224.36 342.037V333.637L245.8 337.397C247.88 337.717 249.56 337.664 250.84 337.237C252.067 336.757 252.68 335.611 252.68 333.797C252.68 332.251 252.147 330.917 251.08 329.797C249.96 328.624 248.52 327.664 246.76 326.917C244.947 326.117 243 325.531 240.92 325.157C238.787 324.731 236.707 324.517 234.68 324.517C228.173 324.517 223.053 326.571 219.32 330.677C215.533 334.784 213.64 340.491 213.64 347.797C213.64 352.544 214.52 356.917 216.28 360.917C217.987 364.864 220.387 368.331 223.48 371.317C226.573 374.251 230.173 376.544 234.28 378.197C238.333 379.797 242.707 380.597 247.4 380.597C254.227 380.597 259.507 378.571 263.24 374.517C267.027 370.464 268.92 364.864 268.92 357.717C268.92 355.317 268.68 352.944 268.2 350.597C267.72 348.197 267.027 346.011 266.12 344.037L272.76 342.357C274.893 347.371 275.96 352.917 275.96 358.997ZM252.04 355.557C252.04 353.637 251.507 351.877 250.44 350.277C249.373 348.677 247.933 347.371 246.12 346.357C244.253 345.344 242.173 344.784 239.88 344.677C237.427 344.517 235.347 345.051 233.64 346.277C231.933 347.451 231.08 349.317 231.08 351.877C231.08 354.011 231.72 355.877 233 357.477C234.28 359.077 235.933 360.331 237.96 361.237C239.933 362.144 242.067 362.597 244.36 362.597C246.653 362.597 248.52 362.011 249.96 360.837C251.347 359.611 252.04 357.851 252.04 355.557ZM259.96 264.585C259.96 268.692 259.16 272.398 257.56 275.705C255.907 279.012 253.427 281.652 250.12 283.625C246.813 285.545 242.627 286.505 237.56 286.505H203V276.265H237.64C242.013 276.265 245.267 275.225 247.4 273.145C249.533 271.012 250.6 268.078 250.6 264.345C250.6 260.665 249.533 257.758 247.4 255.625C245.267 253.492 242.013 252.425 237.64 252.425H203V242.185H237.56C242.627 242.185 246.813 243.198 250.12 245.225C253.427 247.252 255.907 249.972 257.56 253.385C259.16 256.745 259.96 260.478 259.96 264.585ZM259.96 206.372C259.96 212.025 258.76 216.879 256.36 220.932C253.907 224.985 250.52 228.105 246.2 230.292C241.827 232.479 236.787 233.572 231.08 233.572C225.373 233.572 220.333 232.479 215.96 230.292C211.587 228.105 208.173 224.985 205.72 220.932C203.267 216.879 202.04 212.025 202.04 206.372C202.04 199.652 203.72 194.159 207.08 189.892C210.387 185.572 215.053 182.879 221.08 181.812V193.092C218.04 193.785 215.667 195.279 213.96 197.572C212.2 199.812 211.32 202.799 211.32 206.532C211.32 211.705 213.08 215.759 216.6 218.692C220.12 221.625 224.947 223.092 231.08 223.092C237.213 223.092 242.04 221.625 245.56 218.692C249.027 215.759 250.76 211.705 250.76 206.532C250.76 202.799 249.96 199.812 248.36 197.572C246.707 195.279 244.44 193.785 241.56 193.092V181.812C247.32 182.879 251.827 185.572 255.08 189.892C258.333 194.159 259.96 199.652 259.96 206.372ZM259.96 153.627C259.96 157.734 259.267 161.361 257.88 164.507C256.44 167.654 254.413 170.134 251.8 171.947C249.133 173.761 245.907 174.694 242.12 174.747V163.947C244.733 163.841 246.947 162.907 248.76 161.147C250.52 159.334 251.4 156.854 251.4 153.707C251.4 150.987 250.76 148.827 249.48 147.227C248.147 145.627 246.387 144.827 244.2 144.827C241.907 144.827 240.12 145.547 238.84 146.987C237.56 148.374 236.52 150.241 235.72 152.587C234.92 154.934 234.067 157.441 233.16 160.107C231.667 164.427 229.747 167.734 227.4 170.027C225.053 172.267 221.933 173.387 218.04 173.387C214.733 173.441 211.907 172.667 209.56 171.067C207.16 169.414 205.32 167.174 204.04 164.347C202.707 161.521 202.04 158.267 202.04 154.587C202.04 150.854 202.707 147.574 204.04 144.747C205.373 141.867 207.24 139.627 209.64 138.027C212.04 136.374 214.893 135.494 218.2 135.387V146.347C216.227 146.401 214.493 147.174 213 148.667C211.453 150.107 210.68 152.134 210.68 154.747C210.627 156.987 211.187 158.881 212.36 160.427C213.48 161.921 215.133 162.667 217.32 162.667C219.187 162.667 220.68 162.081 221.8 160.907C222.867 159.734 223.773 158.134 224.52 156.107C225.267 154.081 226.067 151.761 226.92 149.147C227.88 146.374 229 143.841 230.28 141.547C231.56 139.254 233.267 137.414 235.4 136.027C237.48 134.641 240.173 133.947 243.48 133.947C246.413 133.947 249.133 134.694 251.64 136.187C254.147 137.681 256.173 139.894 257.72 142.827C259.213 145.761 259.96 149.361 259.96 153.627ZM259 125.013H203V105.893C203 99.3331 204.173 93.9465 206.52 89.7331C208.813 85.4665 212.067 82.3198 216.28 80.2931C220.44 78.2131 225.347 77.1731 231 77.1731C236.653 77.1731 241.587 78.2131 245.8 80.2931C249.96 82.3198 253.213 85.4665 255.56 89.7331C257.853 93.9465 259 99.3331 259 105.893V125.013ZM250.2 114.773V106.373C250.2 101.68 249.453 97.9731 247.96 95.2531C246.413 92.5331 244.227 90.5865 241.4 89.4131C238.52 88.2398 235.053 87.6531 231 87.6531C227 87.6531 223.56 88.2398 220.68 89.4131C217.8 90.5865 215.587 92.5331 214.04 95.2531C212.493 97.9731 211.72 101.68 211.72 106.373V114.773H250.2Z"/></svg>