<svg xmlns="http://www.w3.org/2000/svg" width="40" height="44" fill="none" viewBox="0 0 40 44"><path fill="#fff" d="M35.1854 0C37.782 0 39.8763 2.04865 40 4.45946V43.2432L35.0561 39.1477L32.3413 36.7369L29.379 34.218L30.6164 38.191H4.69089C2.10167 38.191 0 36.2721 0 33.7297V4.46847C0 2.05766 2.10536 0.00540541 4.70012 0.00540541H35.1724L35.1854 0ZM23.8866 10.2396H23.8312L23.4581 10.6C27.2866 11.6811 29.1389 13.3694 29.1389 13.3694C26.6716 12.1658 24.448 11.564 22.2245 11.3207C20.6178 11.0775 19.011 11.2054 17.6536 11.3207H17.2843C16.4163 11.3207 14.5695 11.6811 12.0947 12.645C11.2323 13.0108 10.7373 13.2505 10.7373 13.2505C10.7373 13.2505 12.5878 11.445 16.6656 10.4811L16.4163 10.2378C16.4163 10.2378 13.3284 10.1225 9.99492 12.5261C9.99492 12.5261 6.66143 18.191 6.66143 25.1748C6.66143 25.1748 8.50824 28.3099 13.574 28.4288C13.574 28.4288 14.3128 27.4685 15.0607 26.6234C12.2166 25.7802 11.1085 24.0937 11.1085 24.0937C11.1085 24.0937 11.356 24.2126 11.7272 24.4541H11.838C11.8934 24.4541 11.9193 24.4811 11.9488 24.5081V24.5189C11.9784 24.5477 12.0042 24.573 12.0597 24.573C12.6691 24.818 13.2785 25.0595 13.7772 25.2937C14.8436 25.7391 15.959 26.0631 17.1014 26.2595C18.819 26.5027 20.7877 26.6198 23.0297 26.2595C24.1378 26.0162 25.2459 25.7784 26.3539 25.2955C27.0742 24.9351 27.9607 24.5748 28.9339 23.9676C28.9339 23.9676 27.8258 25.6541 24.8617 26.4973C25.4712 27.3369 26.3299 28.2991 26.3299 28.2991C31.3976 28.191 33.3663 25.0559 33.4771 25.1892C33.4771 18.2162 30.1251 12.5405 30.1251 12.5405C27.1056 10.3532 24.28 10.2703 23.7813 10.2703L23.8848 10.2342L23.8866 10.2396ZM24.1969 18.191C25.4952 18.191 26.5423 19.2721 26.5423 20.5964C26.5423 21.9297 25.4896 23.0108 24.1969 23.0108C22.9041 23.0108 21.8514 21.9297 21.8514 20.6072C21.8551 19.2739 22.9096 18.1964 24.1969 18.1964V18.191ZM15.8068 18.191C17.0996 18.191 18.1449 19.2721 18.1449 20.5964C18.1449 21.9297 17.0922 23.0108 15.7994 23.0108C14.5067 23.0108 13.454 21.9297 13.454 20.6072C13.454 19.2739 14.5067 18.1964 15.7994 18.1964L15.8068 18.191Z"/></svg>