<svg xmlns="http://www.w3.org/2000/svg" width="40" height="40" fill="none" viewBox="0 0 40 40"><g clip-path="url(#clip0)"><path fill="#fff" d="M35.7143 -0.142822H4.28571C3.14907 -0.142822 2.05898 0.308707 1.25526 1.11243C0.451529 1.91616 0 3.00625 0 4.14289L0 35.5715C0 36.7081 0.451529 37.7982 1.25526 38.6019C2.05898 39.4057 3.14907 39.8572 4.28571 39.8572H16.5402V26.2581H10.9152V19.8572H16.5402V14.9786C16.5402 9.4295 19.8438 6.36432 24.9036 6.36432C27.3268 6.36432 29.8607 6.79646 29.8607 6.79646V12.2429H27.0688C24.3179 12.2429 23.4598 13.95 23.4598 15.7009V19.8572H29.6009L28.6188 26.2581H23.4598V39.8572H35.7143C36.8509 39.8572 37.941 39.4057 38.7447 38.6019C39.5485 37.7982 40 36.7081 40 35.5715V4.14289C40 3.00625 39.5485 1.91616 38.7447 1.11243C37.941 0.308707 36.8509 -0.142822 35.7143 -0.142822Z"/></g><defs><clipPath id="clip0"><rect width="40" height="40" fill="#fff" rx="10"/></clipPath></defs></svg>