<svg xmlns="http://www.w3.org/2000/svg" width="40" height="40" fill="none" viewBox="0 0 40 40"><path fill="#fff" d="M0 0V40H40V0H0ZM33.2321 9.47322L31.0893 11.5268C30.9018 11.6696 30.8125 11.9018 30.8482 12.125V27.2411C30.8125 27.4732 30.9018 27.7054 31.0893 27.8393L33.1875 29.8929V30.3482H22.6518V29.9107L24.8214 27.8036C25.0357 27.5893 25.0357 27.5268 25.0357 27.2054V14.9821L19 30.3036H18.1875L11.1607 14.9821V25.25C11.0982 25.6786 11.25 26.1161 11.5536 26.4286L14.375 29.8482V30.3036H6.35714V29.8482L9.17857 26.4286C9.48214 26.1161 9.61607 25.6786 9.54464 25.25V13.375C9.58036 13.0446 9.45536 12.7232 9.20536 12.5L6.69643 9.47322V9.01786H14.4911L20.5089 22.2321L25.8036 9.02679H33.2321V9.47322Z"/></svg>