<svg xmlns="http://www.w3.org/2000/svg" width="56" height="56" fill="none" viewBox="0 0 56 56"><path fill="#fff" d="M23.35 21.2625L35.25 28.025L23.35 34.7875V21.2625ZM56 6V50C56 53.3125 53.3125 56 50 56H6C2.6875 56 0 53.3125 0 50V6C0 2.6875 2.6875 0 6 0H50C53.3125 0 56 2.6875 56 6ZM50.75 28.0375C50.75 28.0375 50.75 20.5875 49.8 17.0125C49.275 15.0375 47.7375 13.4875 45.775 12.9625C42.2375 12 28 12 28 12C28 12 13.7625 12 10.225 12.9625C8.2625 13.4875 6.725 15.0375 6.2 17.0125C5.25 20.575 5.25 28.0375 5.25 28.0375C5.25 28.0375 5.25 35.4875 6.2 39.0625C6.725 41.0375 8.2625 42.525 10.225 43.05C13.7625 44 28 44 28 44C28 44 42.2375 44 45.775 43.0375C47.7375 42.5125 49.275 41.025 49.8 39.05C50.75 35.4875 50.75 28.0375 50.75 28.0375Z"/></svg>