<svg xmlns="http://www.w3.org/2000/svg" width="50" height="50" fill="none" viewBox="0 0 50 50"><path fill="#ADE7E7" stroke="#51C0C0" d="M3.46784 27.7607C1.94313 26.236 1.94313 23.764 3.46784 22.2393L22.2393 3.46784C23.764 1.94313 26.236 1.94313 27.7607 3.46784L46.5322 22.2393C48.0569 23.764 48.0569 26.236 46.5322 27.7607L27.7607 46.5322C26.236 48.0569 23.764 48.0569 22.2393 46.5322L3.46784 27.7607Z"/><path fill="#fff" stroke="#51C0C0" d="M12.2759 27.3517L12.2758 27.3517L12.2791 27.3573C12.5995 27.9083 13.0374 28.3432 13.5878 28.6535C14.1444 28.9673 14.776 29.1168 15.4677 29.1168C16.3334 29.1168 17.0966 28.8845 17.726 28.3951C18.3506 27.9095 18.7499 27.2616 18.9201 26.4743L19.0511 25.8687H18.4314H16.7849H16.403L16.3025 26.2371C16.2512 26.4254 16.1579 26.5503 16.0214 26.6404L16.0214 26.6404L16.0149 26.6448C15.8734 26.7415 15.6945 26.7994 15.4555 26.7994C15.1667 26.7994 14.9321 26.6984 14.7233 26.4747C14.5322 26.27 14.4066 25.9586 14.4066 25.4742C14.4066 24.9899 14.5322 24.6785 14.7233 24.4738C14.9321 24.2501 15.1667 24.1491 15.4555 24.1491C15.6893 24.1491 15.8648 24.2082 16.0055 24.3092L16.0134 24.3148L16.0214 24.3201C16.1617 24.4128 16.2535 24.5366 16.3034 24.7148L16.4058 25.0798H16.7849H18.4314H19.0466L18.9208 24.4776C18.7521 23.6692 18.354 23.0111 17.7203 22.5369C17.0914 22.0582 16.3303 21.8317 15.4677 21.8317C14.776 21.8317 14.1444 21.9812 13.5878 22.295C13.0374 22.6053 12.5995 23.0401 12.2791 23.5912L12.279 23.5912L12.2759 23.5968C11.9603 24.156 11.8088 24.7864 11.8088 25.4742C11.8088 26.1621 11.9603 26.7925 12.2759 27.3517ZM20.1187 30.9224L19.7938 31.6309H20.5732H22.2319H22.557L22.6889 31.3337L26.5307 22.6796L26.5943 22.5364V28.4718V28.9718H27.0943H28.4847H28.8915L28.9609 28.6376C29.0568 28.701 29.1574 28.7588 29.2628 28.811C29.6855 29.0204 30.1625 29.1168 30.68 29.1168C31.3304 29.1168 31.9284 28.9639 32.4601 28.6477L32.4601 28.6477L32.4658 28.6443C32.9878 28.3245 33.4014 27.8901 33.7025 27.3492L33.7043 27.346C34.0092 26.7888 34.1559 26.1647 34.1559 25.4863C34.1559 24.8079 34.0092 24.1838 33.7043 23.6267L33.2657 23.8667L33.7043 23.6267C33.4037 23.0774 32.9899 22.6374 32.4658 22.3163C31.9333 21.9901 31.3332 21.8317 30.68 21.8317C30.1054 21.8317 29.5874 21.9444 29.1605 22.2088L29.1605 22.2088L29.1557 22.2118C29.1556 22.2119 29.1555 22.2119 29.1554 22.212V19.7693V19.2693H28.6554H27.0943H26.5943V19.7693V21.9767H26.0737H24.415H24.0825L23.9539 22.2834L22.6563 25.3785L21.4152 22.2903L21.2892 21.9767H20.9513H19.256H18.5032L18.7951 22.6706L21.149 28.2668L21.2388 28.4803L20.1187 30.9224ZM34.5505 28.4718V28.9718H35.0505H36.6116H37.1116V28.4718V25.7402C37.1116 25.3284 37.1782 25.069 37.2633 24.9161C37.363 24.7519 37.4885 24.6482 37.6472 24.5863C37.8479 24.5079 38.0895 24.4634 38.3801 24.4634H38.8192H39.3192V23.9634V22.3317V21.8317H38.8192C38.2289 21.8317 37.6892 21.9671 37.218 22.2548C37.1213 22.3132 37.0289 22.3762 36.9408 22.4436L36.9367 22.4122L36.88 21.9767H36.4409H35.0505H34.5505V22.4767V28.4718ZM31.2263 26.4168C31.002 26.6445 30.7231 26.7631 30.3507 26.7631C29.9701 26.7631 29.6892 26.6444 29.4674 26.4212C29.2511 26.1882 29.1311 25.8861 29.1311 25.4742C29.1311 25.0597 29.2526 24.7632 29.4672 24.5395C29.6907 24.307 29.9715 24.1854 30.3507 24.1854C30.7193 24.1854 30.9969 24.3052 31.2221 24.5395C31.4471 24.7737 31.5704 25.0755 31.5704 25.4863C31.5704 25.8974 31.4472 26.1923 31.2263 26.4168Z"/></svg>