<svg width="96" height="96" viewBox="0 0 96 96" fill="none" xmlns="http://www.w3.org/2000/svg">
<path d="M5.27233 41.3135C1.57945 45.0063 1.57945 50.9937 5.27233 54.6865L41.3135 90.7277C45.0063 94.4205 50.9937 94.4205 54.6865 90.7277L90.7277 54.6865C94.4206 50.9937 94.4206 45.0063 90.7277 41.3135L54.6865 5.27233C50.9937 1.57946 45.0063 1.57946 41.3135 5.27233L5.27233 41.3135Z" fill="#FFD4E1" stroke="#FF94B4" stroke-width="2"/>
<mask id="path-2-outside-1_3253_641" maskUnits="userSpaceOnUse" x="21" y="36" width="54" height="27" fill="black">
<rect fill="white" x="21" y="36" width="54" height="27"/>
<path d="M28.7416 55.2612C27.7258 55.2612 26.8188 55.0145 26.0207 54.5211C25.2225 54.0277 24.5913 53.3529 24.1269 52.4967C23.6625 51.6406 23.4303 50.6683 23.4303 49.5799C23.4303 48.4915 23.6625 47.5265 24.1269 46.6848C24.5913 45.8287 25.2225 45.1611 26.0207 44.6822C26.8188 44.1888 27.7258 43.9421 28.7416 43.9421C29.5542 43.9421 30.2653 44.0945 30.8748 44.3993C31.4843 44.704 31.9777 45.1321 32.355 45.6835V39.3274H35.1412V55H32.6597L32.355 53.4545C32.0067 53.9334 31.5423 54.3542 30.9619 54.717C30.3959 55.0798 29.6558 55.2612 28.7416 55.2612ZM29.3293 52.8233C30.229 52.8233 30.9619 52.5258 31.5278 51.9308C32.1083 51.3213 32.3985 50.5449 32.3985 49.6017C32.3985 48.6584 32.1083 47.8893 31.5278 47.2943C30.9619 46.6848 30.229 46.3801 29.3293 46.3801C28.4441 46.3801 27.7113 46.6776 27.1308 47.2726C26.5503 47.8675 26.2601 48.6367 26.2601 49.5799C26.2601 50.5232 26.5503 51.2995 27.1308 51.909C27.7113 52.5185 28.4441 52.8233 29.3293 52.8233ZM42.4408 55.2612C41.483 55.2612 40.6414 55.1088 39.9158 54.8041C39.1902 54.4848 38.6097 54.0495 38.1744 53.498C37.739 52.9466 37.4778 52.3081 37.3908 51.5825H40.1988C40.2858 52.0033 40.518 52.3661 40.8953 52.6709C41.2871 52.9611 41.7878 53.1062 42.3973 53.1062C43.0068 53.1062 43.4494 52.9829 43.7251 52.7362C44.0153 52.4895 44.1604 52.2065 44.1604 51.8873C44.1604 51.4229 43.9573 51.1109 43.5509 50.9513C43.1446 50.7771 42.5787 50.6102 41.8531 50.4506C41.3887 50.349 40.9171 50.2257 40.4382 50.0806C39.9593 49.9354 39.5167 49.754 39.1104 49.5364C38.7186 49.3042 38.3993 49.014 38.1526 48.6657C37.9059 48.3029 37.7826 47.8603 37.7826 47.3379C37.7826 46.3801 38.1599 45.5747 38.9145 44.9217C39.6836 44.2687 40.7575 43.9421 42.1361 43.9421C43.4131 43.9421 44.4289 44.2396 45.1835 44.8346C45.9526 45.4296 46.4097 46.2495 46.5548 47.2943H43.921C43.7614 46.4962 43.1591 46.0971 42.1143 46.0971C41.5919 46.0971 41.1855 46.1987 40.8953 46.4019C40.6196 46.605 40.4817 46.859 40.4817 47.1637C40.4817 47.483 40.6921 47.7369 41.113 47.9256C41.5338 48.1142 42.0925 48.2884 42.7891 48.448C43.5437 48.6221 44.233 48.818 44.857 49.0357C45.4955 49.2389 46.0034 49.5509 46.3807 49.9717C46.758 50.378 46.9467 50.9658 46.9467 51.7349C46.9612 52.4024 46.787 53.0047 46.4242 53.5416C46.0615 54.0785 45.539 54.4993 44.857 54.8041C44.1749 55.1088 43.3695 55.2612 42.4408 55.2612ZM53.986 51.7784C53.4636 51.7784 52.9775 51.7204 52.5276 51.6043L51.7222 52.4097C51.9689 52.5403 52.3027 52.6491 52.7235 52.7362C53.1444 52.8233 53.8264 52.9103 54.7697 52.9974C56.2063 53.128 57.2512 53.469 57.9042 54.0205C58.5572 54.5719 58.8837 55.3338 58.8837 56.306C58.8837 56.9446 58.7096 57.5468 58.3613 58.1127C58.013 58.6932 57.4761 59.1576 56.7505 59.5059C56.0249 59.8687 55.0962 60.05 53.9643 60.05C52.426 60.05 51.1853 59.7598 50.242 59.1793C49.2988 58.6134 48.8272 57.7572 48.8272 56.6108C48.8272 55.6385 49.2988 54.7968 50.242 54.0858C49.9518 53.9552 49.6979 53.8173 49.4802 53.6722C49.277 53.5271 49.0956 53.3747 48.936 53.2151V52.7144L50.8298 50.7118C49.9881 49.9717 49.5673 49.0212 49.5673 47.8603C49.5673 47.1347 49.7414 46.4744 50.0897 45.8794C50.4525 45.2845 50.9604 44.8128 51.6134 44.4646C52.2664 44.1163 53.0573 43.9421 53.986 43.9421C54.5955 43.9421 55.1615 44.0292 55.6839 44.2033H59.7762V45.9012L57.926 46.0318C58.2162 46.5833 58.3613 47.1927 58.3613 47.8603C58.3613 48.5859 58.1872 49.2461 57.8389 49.8411C57.4906 50.4361 56.9827 50.9077 56.3152 51.256C55.6621 51.6043 54.8858 51.7784 53.986 51.7784ZM53.986 49.6452C54.552 49.6452 55.0164 49.4928 55.3792 49.1881C55.7565 48.8833 55.9451 48.448 55.9451 47.882C55.9451 47.3161 55.7565 46.8807 55.3792 46.576C55.0164 46.2713 54.552 46.1189 53.986 46.1189C53.3911 46.1189 52.9122 46.2713 52.5494 46.576C52.1866 46.8807 52.0052 47.3161 52.0052 47.882C52.0052 48.448 52.1866 48.8833 52.5494 49.1881C52.9122 49.4928 53.3911 49.6452 53.986 49.6452ZM51.374 56.3278C51.374 56.8647 51.6207 57.2638 52.114 57.525C52.622 57.8007 53.2387 57.9386 53.9643 57.9386C54.6608 57.9386 55.2268 57.7935 55.6621 57.5033C56.0975 57.2275 56.3152 56.8502 56.3152 56.3713C56.3152 55.9795 56.17 55.653 55.8798 55.3918C55.6041 55.1306 55.0454 54.971 54.2037 54.9129C53.6087 54.8694 53.0573 54.8041 52.5494 54.717C52.1286 54.9492 51.8238 55.2032 51.6352 55.4789C51.461 55.7546 51.374 56.0376 51.374 56.3278ZM61.8079 55V44.2033H64.2676L64.4853 46.0318C64.819 45.3933 65.2979 44.8854 65.9219 44.5081C66.5604 44.1308 67.3078 43.9421 68.164 43.9421C69.499 43.9421 70.5366 44.363 71.2767 45.2047C72.0168 46.0463 72.3868 47.2798 72.3868 48.9051V55H69.6006V49.1663C69.6006 48.2376 69.412 47.5265 69.0347 47.0331C68.6574 46.5397 68.0696 46.293 67.2715 46.293C66.4879 46.293 65.8421 46.5687 65.3342 47.1202C64.8408 47.6716 64.5941 48.4407 64.5941 49.4275V55H61.8079Z"/>
</mask>
<path d="M28.7416 55.2612C27.7258 55.2612 26.8188 55.0145 26.0207 54.5211C25.2225 54.0277 24.5913 53.3529 24.1269 52.4967C23.6625 51.6406 23.4303 50.6683 23.4303 49.5799C23.4303 48.4915 23.6625 47.5265 24.1269 46.6848C24.5913 45.8287 25.2225 45.1611 26.0207 44.6822C26.8188 44.1888 27.7258 43.9421 28.7416 43.9421C29.5542 43.9421 30.2653 44.0945 30.8748 44.3993C31.4843 44.704 31.9777 45.1321 32.355 45.6835V39.3274H35.1412V55H32.6597L32.355 53.4545C32.0067 53.9334 31.5423 54.3542 30.9619 54.717C30.3959 55.0798 29.6558 55.2612 28.7416 55.2612ZM29.3293 52.8233C30.229 52.8233 30.9619 52.5258 31.5278 51.9308C32.1083 51.3213 32.3985 50.5449 32.3985 49.6017C32.3985 48.6584 32.1083 47.8893 31.5278 47.2943C30.9619 46.6848 30.229 46.3801 29.3293 46.3801C28.4441 46.3801 27.7113 46.6776 27.1308 47.2726C26.5503 47.8675 26.2601 48.6367 26.2601 49.5799C26.2601 50.5232 26.5503 51.2995 27.1308 51.909C27.7113 52.5185 28.4441 52.8233 29.3293 52.8233ZM42.4408 55.2612C41.483 55.2612 40.6414 55.1088 39.9158 54.8041C39.1902 54.4848 38.6097 54.0495 38.1744 53.498C37.739 52.9466 37.4778 52.3081 37.3908 51.5825H40.1988C40.2858 52.0033 40.518 52.3661 40.8953 52.6709C41.2871 52.9611 41.7878 53.1062 42.3973 53.1062C43.0068 53.1062 43.4494 52.9829 43.7251 52.7362C44.0153 52.4895 44.1604 52.2065 44.1604 51.8873C44.1604 51.4229 43.9573 51.1109 43.5509 50.9513C43.1446 50.7771 42.5787 50.6102 41.8531 50.4506C41.3887 50.349 40.9171 50.2257 40.4382 50.0806C39.9593 49.9354 39.5167 49.754 39.1104 49.5364C38.7186 49.3042 38.3993 49.014 38.1526 48.6657C37.9059 48.3029 37.7826 47.8603 37.7826 47.3379C37.7826 46.3801 38.1599 45.5747 38.9145 44.9217C39.6836 44.2687 40.7575 43.9421 42.1361 43.9421C43.4131 43.9421 44.4289 44.2396 45.1835 44.8346C45.9526 45.4296 46.4097 46.2495 46.5548 47.2943H43.921C43.7614 46.4962 43.1591 46.0971 42.1143 46.0971C41.5919 46.0971 41.1855 46.1987 40.8953 46.4019C40.6196 46.605 40.4817 46.859 40.4817 47.1637C40.4817 47.483 40.6921 47.7369 41.113 47.9256C41.5338 48.1142 42.0925 48.2884 42.7891 48.448C43.5437 48.6221 44.233 48.818 44.857 49.0357C45.4955 49.2389 46.0034 49.5509 46.3807 49.9717C46.758 50.378 46.9467 50.9658 46.9467 51.7349C46.9612 52.4024 46.787 53.0047 46.4242 53.5416C46.0615 54.0785 45.539 54.4993 44.857 54.8041C44.1749 55.1088 43.3695 55.2612 42.4408 55.2612ZM53.986 51.7784C53.4636 51.7784 52.9775 51.7204 52.5276 51.6043L51.7222 52.4097C51.9689 52.5403 52.3027 52.6491 52.7235 52.7362C53.1444 52.8233 53.8264 52.9103 54.7697 52.9974C56.2063 53.128 57.2512 53.469 57.9042 54.0205C58.5572 54.5719 58.8837 55.3338 58.8837 56.306C58.8837 56.9446 58.7096 57.5468 58.3613 58.1127C58.013 58.6932 57.4761 59.1576 56.7505 59.5059C56.0249 59.8687 55.0962 60.05 53.9643 60.05C52.426 60.05 51.1853 59.7598 50.242 59.1793C49.2988 58.6134 48.8272 57.7572 48.8272 56.6108C48.8272 55.6385 49.2988 54.7968 50.242 54.0858C49.9518 53.9552 49.6979 53.8173 49.4802 53.6722C49.277 53.5271 49.0956 53.3747 48.936 53.2151V52.7144L50.8298 50.7118C49.9881 49.9717 49.5673 49.0212 49.5673 47.8603C49.5673 47.1347 49.7414 46.4744 50.0897 45.8794C50.4525 45.2845 50.9604 44.8128 51.6134 44.4646C52.2664 44.1163 53.0573 43.9421 53.986 43.9421C54.5955 43.9421 55.1615 44.0292 55.6839 44.2033H59.7762V45.9012L57.926 46.0318C58.2162 46.5833 58.3613 47.1927 58.3613 47.8603C58.3613 48.5859 58.1872 49.2461 57.8389 49.8411C57.4906 50.4361 56.9827 50.9077 56.3152 51.256C55.6621 51.6043 54.8858 51.7784 53.986 51.7784ZM53.986 49.6452C54.552 49.6452 55.0164 49.4928 55.3792 49.1881C55.7565 48.8833 55.9451 48.448 55.9451 47.882C55.9451 47.3161 55.7565 46.8807 55.3792 46.576C55.0164 46.2713 54.552 46.1189 53.986 46.1189C53.3911 46.1189 52.9122 46.2713 52.5494 46.576C52.1866 46.8807 52.0052 47.3161 52.0052 47.882C52.0052 48.448 52.1866 48.8833 52.5494 49.1881C52.9122 49.4928 53.3911 49.6452 53.986 49.6452ZM51.374 56.3278C51.374 56.8647 51.6207 57.2638 52.114 57.525C52.622 57.8007 53.2387 57.9386 53.9643 57.9386C54.6608 57.9386 55.2268 57.7935 55.6621 57.5033C56.0975 57.2275 56.3152 56.8502 56.3152 56.3713C56.3152 55.9795 56.17 55.653 55.8798 55.3918C55.6041 55.1306 55.0454 54.971 54.2037 54.9129C53.6087 54.8694 53.0573 54.8041 52.5494 54.717C52.1286 54.9492 51.8238 55.2032 51.6352 55.4789C51.461 55.7546 51.374 56.0376 51.374 56.3278ZM61.8079 55V44.2033H64.2676L64.4853 46.0318C64.819 45.3933 65.2979 44.8854 65.9219 44.5081C66.5604 44.1308 67.3078 43.9421 68.164 43.9421C69.499 43.9421 70.5366 44.363 71.2767 45.2047C72.0168 46.0463 72.3868 47.2798 72.3868 48.9051V55H69.6006V49.1663C69.6006 48.2376 69.412 47.5265 69.0347 47.0331C68.6574 46.5397 68.0696 46.293 67.2715 46.293C66.4879 46.293 65.8421 46.5687 65.3342 47.1202C64.8408 47.6716 64.5941 48.4407 64.5941 49.4275V55H61.8079Z" fill="white"/>
<path d="M26.0207 54.5211L27.2924 52.4639L27.2924 52.4639L26.0207 54.5211ZM24.1269 52.4967L22.0009 53.6498L22.0009 53.6498L24.1269 52.4967ZM24.1269 46.6848L26.2446 47.8532L26.2488 47.8456L26.2529 47.8379L24.1269 46.6848ZM26.0207 44.6822L27.265 46.7562L27.2788 46.7479L27.2924 46.7395L26.0207 44.6822ZM30.8748 44.3993L31.9564 42.236L31.9564 42.236L30.8748 44.3993ZM32.355 45.6835L30.3589 47.0493L34.7736 53.5015V45.6835H32.355ZM32.355 39.3274V36.9088H29.9364V39.3274H32.355ZM35.1412 39.3274H37.5598V36.9088H35.1412V39.3274ZM35.1412 55V57.4186H37.5598V55H35.1412ZM32.6597 55L30.2868 55.4679L30.6715 57.4186H32.6597V55ZM32.355 53.4545L34.7279 52.9866L33.6565 47.5529L30.399 52.032L32.355 53.4545ZM30.9619 54.717L29.68 52.6661L29.6683 52.6734L29.6566 52.6809L30.9619 54.717ZM31.5278 51.9308L29.7764 50.2628L29.7754 50.2639L31.5278 51.9308ZM31.5278 47.2943L29.7555 48.9401L29.7758 48.9619L29.7966 48.9833L31.5278 47.2943ZM27.1308 47.2726L28.862 48.9615L28.862 48.9615L27.1308 47.2726ZM27.1308 51.909L28.8822 50.241L28.8822 50.241L27.1308 51.909ZM28.7416 52.8426C28.1365 52.8426 27.6769 52.7016 27.2924 52.4639L24.7489 56.5784C25.9607 57.3275 27.315 57.6798 28.7416 57.6798V52.8426ZM27.2924 52.4639C26.867 52.2008 26.5242 51.8438 26.2529 51.3436L22.0009 53.6498C22.6583 54.862 23.5781 55.8546 24.7489 56.5784L27.2924 52.4639ZM26.2529 51.3436C26.0023 50.8815 25.8489 50.3137 25.8489 49.5799H21.0117C21.0117 51.0229 21.3228 52.3996 22.0009 53.6498L26.2529 51.3436ZM25.8489 49.5799C25.8489 48.8453 26.0025 48.292 26.2446 47.8532L22.0092 45.5165C21.3226 46.761 21.0117 48.1377 21.0117 49.5799H25.8489ZM26.2529 47.8379C26.521 47.3436 26.8554 47.0019 27.265 46.7562L24.7763 42.6083C23.5896 43.3203 22.6615 44.3137 22.0009 45.5317L26.2529 47.8379ZM27.2924 46.7395C27.6769 46.5018 28.1365 46.3607 28.7416 46.3607V41.5235C27.315 41.5235 25.9607 41.8759 24.7489 42.625L27.2924 46.7395ZM28.7416 46.3607C29.2505 46.3607 29.5783 46.4551 29.7932 46.5625L31.9564 42.236C30.9524 41.734 29.858 41.5235 28.7416 41.5235V46.3607ZM29.7932 46.5625C30.0427 46.6873 30.2185 46.844 30.3589 47.0493L34.3511 44.3178C33.7369 43.4202 32.9259 42.7207 31.9564 42.236L29.7932 46.5625ZM34.7736 45.6835V39.3274H29.9364V45.6835H34.7736ZM32.355 41.746H35.1412V36.9088H32.355V41.746ZM32.7226 39.3274V55H37.5598V39.3274H32.7226ZM35.1412 52.5814H32.6597V57.4186H35.1412V52.5814ZM35.0327 54.5321L34.7279 52.9866L29.9821 53.9224L30.2868 55.4679L35.0327 54.5321ZM30.399 52.032C30.2592 52.2241 30.0381 52.4423 29.68 52.6661L32.2437 56.768C33.0466 56.2662 33.7542 55.6427 34.311 54.8771L30.399 52.032ZM29.6566 52.6809C29.5969 52.7191 29.3546 52.8426 28.7416 52.8426V57.6798C29.9571 57.6798 31.1949 57.4405 32.2671 56.7532L29.6566 52.6809ZM29.3293 55.2419C30.8212 55.2419 32.2115 54.7213 33.2802 53.5977L29.7754 50.2639C29.7123 50.3302 29.6369 50.4047 29.3293 50.4047V55.2419ZM33.2792 53.5988C34.341 52.484 34.8171 51.0847 34.8171 49.6017H29.9799C29.9799 50.0052 29.8756 50.1586 29.7764 50.2628L33.2792 53.5988ZM34.8171 49.6017C34.8171 48.1196 34.3407 46.7141 33.259 45.6054L29.7966 48.9833C29.8759 49.0645 29.9799 49.1973 29.9799 49.6017H34.8171ZM33.3002 45.6486C32.2364 44.503 30.8402 43.9615 29.3293 43.9615V48.7987C29.6179 48.7987 29.6873 48.8667 29.7555 48.9401L33.3002 45.6486ZM29.3293 43.9615C27.8394 43.9615 26.4671 44.4894 25.3996 45.5836L28.862 48.9615C28.9554 48.8658 29.0488 48.7987 29.3293 48.7987V43.9615ZM25.3996 45.5836C24.3179 46.6923 23.8415 48.0978 23.8415 49.5799H28.6787C28.6787 49.1755 28.7827 49.0428 28.862 48.9615L25.3996 45.5836ZM23.8415 49.5799C23.8415 51.0629 24.3177 52.4622 25.3794 53.577L28.8822 50.241C28.783 50.1369 28.6787 49.9834 28.6787 49.5799H23.8415ZM25.3794 53.577C26.4422 54.6929 27.8206 55.2419 29.3293 55.2419V50.4047C29.0676 50.4047 28.9804 50.3441 28.8822 50.241L25.3794 53.577ZM39.9158 54.8041L38.9417 57.0179L38.9604 57.0261L38.9792 57.034L39.9158 54.8041ZM38.1744 53.498L36.2761 54.9967L36.2761 54.9967L38.1744 53.498ZM37.3908 51.5825V49.1639H34.6646L34.9894 51.8707L37.3908 51.5825ZM40.1988 51.5825L42.5672 51.0925L42.1682 49.1639H40.1988V51.5825ZM40.8953 52.6709L39.3756 54.5524L39.415 54.5842L39.4557 54.6144L40.8953 52.6709ZM43.7251 52.7362L42.1587 50.8934L42.1353 50.9133L42.1124 50.9337L43.7251 52.7362ZM43.5509 50.9513L42.5982 53.1743L42.6322 53.1889L42.6666 53.2024L43.5509 50.9513ZM41.8531 50.4506L42.3727 48.0885L42.3699 48.0879L41.8531 50.4506ZM40.4382 50.0806L39.7368 52.3952L39.7368 52.3952L40.4382 50.0806ZM39.1104 49.5364L37.8774 51.6171L37.9223 51.6437L37.9683 51.6683L39.1104 49.5364ZM38.1526 48.6657L36.1526 50.0257L36.1656 50.0448L36.179 50.0637L38.1526 48.6657ZM38.9145 44.9217L37.3491 43.078L37.3404 43.0854L37.3318 43.0928L38.9145 44.9217ZM45.1835 44.8346L43.686 46.7339L43.6948 46.7408L43.7036 46.7476L45.1835 44.8346ZM46.5548 47.2943V49.7129H49.3326L48.9505 46.9616L46.5548 47.2943ZM43.921 47.2943L41.5493 47.7687L41.9382 49.7129H43.921V47.2943ZM40.8953 46.4019L39.5083 44.4205L39.4843 44.4373L39.4606 44.4547L40.8953 46.4019ZM42.7891 48.448L43.3329 46.0913L43.3293 46.0905L42.7891 48.448ZM44.857 49.0357L44.0604 51.3194L44.0919 51.3304L44.1237 51.3405L44.857 49.0357ZM46.3807 49.9717L44.5799 51.5862L44.594 51.602L44.6084 51.6175L46.3807 49.9717ZM46.9467 51.7349H44.5281V51.7612L44.5286 51.7874L46.9467 51.7349ZM46.4242 53.5416L44.4202 52.1875L44.4202 52.1875L46.4242 53.5416ZM44.857 54.8041L43.8703 52.5959L43.8703 52.5959L44.857 54.8041ZM42.4408 52.8426C41.7366 52.8426 41.2245 52.7305 40.8523 52.5742L38.9792 57.034C40.0582 57.4872 41.2294 57.6798 42.4408 57.6798V52.8426ZM40.8898 52.5903C40.4791 52.4096 40.2331 52.2025 40.0727 51.9994L36.2761 54.9967C36.9864 55.8965 37.9012 56.5601 38.9417 57.0179L40.8898 52.5903ZM40.0727 51.9994C39.9247 51.8119 39.8284 51.5964 39.7921 51.2943L34.9894 51.8707C35.1273 53.0198 35.5534 54.0814 36.2761 54.9967L40.0727 51.9994ZM37.3908 54.0011H40.1988V49.1639H37.3908V54.0011ZM37.8303 52.0725C38.0453 53.1117 38.6222 53.9439 39.3756 54.5524L42.415 50.7894C42.4036 50.7801 42.4347 50.803 42.4753 50.8665C42.518 50.9332 42.5508 51.013 42.5672 51.0925L37.8303 52.0725ZM39.4557 54.6144C40.3585 55.2831 41.4007 55.5248 42.3973 55.5248V50.6876C42.2829 50.6876 42.2362 50.6739 42.238 50.6744C42.2393 50.6748 42.251 50.6783 42.27 50.6876C42.2892 50.697 42.3116 50.7101 42.3349 50.7274L39.4557 54.6144ZM42.3973 55.5248C43.2415 55.5248 44.4085 55.3701 45.3378 54.5386L42.1124 50.9337C42.3097 50.7572 42.4856 50.6982 42.537 50.6839C42.5831 50.6711 42.5494 50.6876 42.3973 50.6876V55.5248ZM45.2915 54.579C46.0073 53.9705 46.579 53.0543 46.579 51.8873H41.7418C41.7418 51.6646 41.7962 51.4367 41.8995 51.2353C41.9974 51.0444 42.1088 50.9358 42.1587 50.8934L45.2915 54.579ZM46.579 51.8873C46.579 51.3023 46.4488 50.6209 46.0348 49.9852C45.6136 49.3383 45.0237 48.9313 44.4353 48.7001L42.6666 53.2024C42.4845 53.1309 42.1994 52.9597 41.9813 52.6247C41.7705 52.3011 41.7418 52.0078 41.7418 51.8873H46.579ZM44.5037 48.7282C43.8954 48.4675 43.1613 48.262 42.3727 48.0885L41.3334 52.8127C41.9961 52.9585 42.3939 53.0867 42.5982 53.1743L44.5037 48.7282ZM42.3699 48.0879C41.9708 48.0006 41.5608 47.8935 41.1396 47.7659L39.7368 52.3952C40.2734 52.5578 40.8066 52.6975 41.3362 52.8133L42.3699 48.0879ZM41.1396 47.7659C40.8004 47.6631 40.5069 47.5407 40.2525 47.4044L37.9683 51.6683C38.5265 51.9674 39.1182 52.2078 39.7368 52.3952L41.1396 47.7659ZM40.3434 47.4557C40.2237 47.3847 40.1638 47.3206 40.1263 47.2677L36.179 50.0637C36.6349 50.7073 37.2134 51.2236 37.8774 51.6171L40.3434 47.4557ZM40.1526 47.3057C40.1672 47.3271 40.1792 47.3487 40.1884 47.3688C40.1976 47.3888 40.2026 47.404 40.2049 47.4123C40.2096 47.429 40.2012 47.4091 40.2012 47.3379H35.364C35.364 48.251 35.5845 49.1903 36.1526 50.0257L40.1526 47.3057ZM40.2012 47.3379C40.2012 47.1151 40.248 46.9662 40.4972 46.7505L37.3318 43.0928C36.0717 44.1832 35.364 45.6451 35.364 47.3379H40.2012ZM40.4799 46.7654C40.6747 46.6 41.1208 46.3607 42.1361 46.3607V41.5235C40.3941 41.5235 38.6925 41.9373 37.3491 43.078L40.4799 46.7654ZM42.1361 46.3607C43.0485 46.3607 43.4799 46.5714 43.686 46.7339L46.681 42.9353C45.3779 41.9079 43.7776 41.5235 42.1361 41.5235V46.3607ZM43.7036 46.7476C43.9279 46.9211 44.093 47.15 44.1592 47.627L48.9505 46.9616C48.7265 45.3489 47.9773 43.938 46.6634 42.9216L43.7036 46.7476ZM46.5548 44.8757H43.921V49.7129H46.5548V44.8757ZM46.2926 46.82C46.104 45.8769 45.5933 44.9818 44.6856 44.3803C43.8483 43.8255 42.9103 43.6785 42.1143 43.6785V48.5157C42.3632 48.5157 42.2486 48.5683 42.0136 48.4125C41.8869 48.3286 41.7679 48.2106 41.6778 48.069C41.5909 47.9325 41.5595 47.8193 41.5493 47.7687L46.2926 46.82ZM42.1143 43.6785C41.3192 43.6785 40.3562 43.8269 39.5083 44.4205L42.2823 48.3833C42.1454 48.4791 42.0368 48.5116 42.0043 48.5197C41.9753 48.527 42.0044 48.5157 42.1143 48.5157V43.6785ZM39.4606 44.4547C38.6544 45.0488 38.0631 45.9872 38.0631 47.1637H42.9003C42.9003 47.3916 42.8447 47.6519 42.7107 47.8986C42.5818 48.136 42.4255 48.2786 42.33 48.349L39.4606 44.4547ZM38.0631 47.1637C38.0631 48.8446 39.2804 49.7546 40.1236 50.1326L42.1023 45.7186C42.1035 45.7191 42.2959 45.8019 42.5019 46.0505C42.7433 46.3418 42.9003 46.74 42.9003 47.1637H38.0631ZM40.1236 50.1326C40.7448 50.411 41.4722 50.6275 42.2488 50.8055L43.3293 46.0905C42.7129 45.9492 42.3228 45.8174 42.1023 45.7186L40.1236 50.1326ZM42.2452 50.8047C42.9284 50.9623 43.5319 51.135 44.0604 51.3194L45.6536 46.7521C44.9341 46.5011 44.159 46.282 43.3329 46.0913L42.2452 50.8047ZM44.1237 51.3405C44.4279 51.4373 44.5399 51.5416 44.5799 51.5862L48.1815 48.3572C47.4669 47.5601 46.5631 47.0405 45.5903 46.731L44.1237 51.3405ZM44.6084 51.6175C44.572 51.5783 44.545 51.5397 44.5265 51.5071C44.5084 51.4753 44.5022 51.4561 44.5023 51.4565C44.5038 51.461 44.5281 51.5422 44.5281 51.7349H49.3653C49.3653 50.5933 49.0834 49.3279 48.153 48.326L44.6084 51.6175ZM44.5286 51.7874C44.5326 51.9708 44.4938 52.0786 44.4202 52.1875L48.4283 54.8957C49.0802 53.9307 49.3897 52.8341 49.3647 51.6823L44.5286 51.7874ZM44.4202 52.1875C44.3469 52.296 44.2045 52.4466 43.8703 52.5959L45.8436 57.0123C46.8736 56.5521 47.776 55.861 48.4283 54.8957L44.4202 52.1875ZM43.8703 52.5959C43.5646 52.7325 43.1099 52.8426 42.4408 52.8426V57.6798C43.6292 57.6798 44.7853 57.4852 45.8436 57.0123L43.8703 52.5959ZM52.5276 51.6043L53.132 49.2624L51.7943 48.9172L50.8174 49.8941L52.5276 51.6043ZM51.7222 52.4097L50.012 50.6995L47.6965 53.015L50.5906 54.5472L51.7222 52.4097ZM52.7235 52.7362L52.2335 55.1046L52.2335 55.1046L52.7235 52.7362ZM54.7697 52.9974L54.5474 55.4058L54.5507 55.4061L54.7697 52.9974ZM57.9042 54.0205L56.3437 55.8684L57.9042 54.0205ZM58.3613 58.1127L56.3015 56.8452L56.2944 56.8567L56.2874 56.8684L58.3613 58.1127ZM56.7505 59.5059L55.7039 57.3254L55.6863 57.3339L55.6689 57.3426L56.7505 59.5059ZM50.242 59.1793L51.5096 57.1195L51.4981 57.1124L51.4864 57.1054L50.242 59.1793ZM50.242 54.0858L51.698 56.0171L54.9611 53.5571L51.2346 51.8802L50.242 54.0858ZM49.4802 53.6722L48.0744 55.6403L48.1061 55.663L48.1386 55.6846L49.4802 53.6722ZM48.936 53.2151H46.5174V54.2169L47.2258 54.9253L48.936 53.2151ZM48.936 52.7144L47.1787 51.0526L46.5174 51.7519V52.7144H48.936ZM50.8298 50.7118L52.5871 52.3736L54.3101 50.5515L52.4269 48.8955L50.8298 50.7118ZM50.0897 45.8794L48.0247 44.6203L48.0134 44.6389L48.0024 44.6576L50.0897 45.8794ZM51.6134 44.4646L50.4752 42.3305L50.4752 42.3305L51.6134 44.4646ZM55.6839 44.2033L54.9191 46.4978L55.2914 46.622H55.6839V44.2033ZM59.7762 44.2033H62.1948V41.7847H59.7762V44.2033ZM59.7762 45.9012L59.9465 48.3138L62.1948 48.1551V45.9012H59.7762ZM57.926 46.0318L57.7557 43.6192L54.0603 43.8801L55.7857 47.1583L57.926 46.0318ZM56.3152 51.256L55.1964 49.1117L55.1867 49.1168L55.177 49.1219L56.3152 51.256ZM55.3792 49.1881L53.8595 47.3066L53.8414 47.3212L53.8235 47.3362L55.3792 49.1881ZM55.3792 46.576L53.8235 48.4279L53.8414 48.4429L53.8595 48.4575L55.3792 46.576ZM52.5494 46.576L50.9938 44.7241L50.9938 44.7241L52.5494 46.576ZM52.5494 49.1881L54.105 47.3362L54.105 47.3362L52.5494 49.1881ZM52.114 57.525L53.2679 55.3994L53.2568 55.3934L53.2457 55.3875L52.114 57.525ZM55.6621 57.5033L54.3681 55.46L54.3441 55.4751L54.3205 55.4909L55.6621 57.5033ZM55.8798 55.3918L54.2164 57.1476L54.2389 57.1689L54.2619 57.1895L55.8798 55.3918ZM54.2037 54.9129L54.0272 57.3251L54.0373 57.3258L54.2037 54.9129ZM52.5494 54.717L52.9581 52.3332L52.1229 52.19L51.381 52.5993L52.5494 54.717ZM51.6352 55.4789L49.6391 54.1131L49.614 54.1498L49.5903 54.1874L51.6352 55.4789ZM53.986 49.3598C53.6426 49.3598 53.3617 49.3217 53.132 49.2624L51.9233 53.9462C52.5933 54.1191 53.2846 54.197 53.986 54.197V49.3598ZM50.8174 49.8941L50.012 50.6995L53.4324 54.1199L54.2378 53.3145L50.8174 49.8941ZM50.5906 54.5472C51.117 54.8259 51.6957 54.9934 52.2335 55.1046L53.2136 50.3677C53.0723 50.3385 52.9727 50.3111 52.9074 50.2898C52.8402 50.2679 52.8283 50.2586 52.8539 50.2721L50.5906 54.5472ZM52.2335 55.1046C52.7969 55.2212 53.5946 55.3178 54.5474 55.4058L54.992 50.589C54.0582 50.5028 53.4919 50.4253 53.2136 50.3677L52.2335 55.1046ZM54.5507 55.4061C55.7985 55.5195 56.2509 55.79 56.3437 55.8684L59.4646 52.1726C58.2514 51.1481 56.6141 50.7365 54.9886 50.5887L54.5507 55.4061ZM56.3437 55.8684C56.392 55.9091 56.4055 55.9341 56.4158 55.9582C56.4297 55.9906 56.4651 56.0915 56.4651 56.306H61.3023C61.3023 54.7311 60.7404 53.2499 59.4646 52.1726L56.3437 55.8684ZM56.4651 56.306C56.4651 56.4782 56.4252 56.6441 56.3015 56.8452L60.4211 59.3803C60.994 58.4495 61.3023 57.4109 61.3023 56.306H56.4651ZM56.2874 56.8684C56.2255 56.9715 56.0848 57.1426 55.7039 57.3254L57.7971 61.6863C58.8674 61.1726 59.8006 60.4149 60.4352 59.3571L56.2874 56.8684ZM55.6689 57.3426C55.385 57.4845 54.8603 57.6314 53.9643 57.6314V62.4687C55.332 62.4687 56.6649 62.2528 57.8321 61.6691L55.6689 57.3426ZM53.9643 57.6314C52.7068 57.6314 51.951 57.3911 51.5096 57.1195L48.9745 61.2392C50.4196 62.1285 52.1453 62.4687 53.9643 62.4687V57.6314ZM51.4864 57.1054C51.3342 57.0141 51.3041 56.9545 51.2993 56.9458C51.292 56.9324 51.2458 56.8467 51.2458 56.6108H46.4086C46.4086 58.563 47.2892 60.2282 48.9977 61.2533L51.4864 57.1054ZM51.2458 56.6108C51.2458 56.5633 51.2152 56.381 51.698 56.0171L48.7861 52.1545C47.3824 53.2127 46.4086 54.7137 46.4086 56.6108H51.2458ZM51.2346 51.8802C51.0408 51.793 50.9079 51.7172 50.8218 51.6598L48.1386 55.6846C48.4878 55.9174 48.8628 56.1173 49.2495 56.2913L51.2346 51.8802ZM50.886 51.7041C50.78 51.6284 50.7024 51.561 50.6462 51.5049L47.2258 54.9253C47.4889 55.1884 47.7741 55.4258 48.0744 55.6403L50.886 51.7041ZM51.3546 53.2151V52.7144H46.5174V53.2151H51.3546ZM50.6933 54.3762L52.5871 52.3736L49.0725 49.05L47.1787 51.0526L50.6933 54.3762ZM52.4269 48.8955C52.1284 48.633 51.9859 48.3542 51.9859 47.8603H47.1487C47.1487 49.6882 47.8478 51.3104 49.2327 52.5281L52.4269 48.8955ZM51.9859 47.8603C51.9859 47.5407 52.0572 47.3059 52.177 47.1013L48.0024 44.6576C47.4256 45.643 47.1487 46.7287 47.1487 47.8603H51.9859ZM52.1547 47.1386C52.2782 46.936 52.4555 46.7565 52.7516 46.5986L50.4752 42.3305C49.4652 42.8692 48.6267 43.633 48.0247 44.6203L52.1547 47.1386ZM52.7516 46.5986C52.9761 46.4789 53.3551 46.3607 53.986 46.3607V41.5235C52.7595 41.5235 51.5567 41.7537 50.4752 42.3305L52.7516 46.5986ZM53.986 46.3607C54.3631 46.3607 54.6681 46.4142 54.9191 46.4978L56.4487 41.9089C55.6549 41.6442 54.8279 41.5235 53.986 41.5235V46.3607ZM55.6839 46.622H59.7762V41.7847H55.6839V46.622ZM57.3576 44.2033V45.9012H62.1948V44.2033H57.3576ZM59.6059 43.4886L57.7557 43.6192L58.0963 48.4444L59.9465 48.3138L59.6059 43.4886ZM55.7857 47.1583C55.8802 47.3378 55.9427 47.5565 55.9427 47.8603H60.7799C60.7799 46.8289 60.5522 45.8287 60.0662 44.9054L55.7857 47.1583ZM55.9427 47.8603C55.9427 48.1798 55.8714 48.4147 55.7516 48.6193L59.9262 51.0629C60.503 50.0776 60.7799 48.9919 60.7799 47.8603H55.9427ZM55.7516 48.6193C55.654 48.786 55.4993 48.9537 55.1964 49.1117L57.4339 53.4003C58.4661 52.8618 59.3272 52.0862 59.9262 51.0629L55.7516 48.6193ZM55.177 49.1219C54.9421 49.2472 54.5736 49.3598 53.986 49.3598V54.197C55.198 54.197 56.3821 53.9614 57.4533 53.3901L55.177 49.1219ZM53.986 52.0638C55.0054 52.0638 56.0552 51.7789 56.9348 51.04L53.8235 47.3362C53.8522 47.312 53.8843 47.2899 53.9182 47.2712C53.9519 47.2526 53.9818 47.2404 54.0047 47.2329C54.0509 47.2177 54.0525 47.2266 53.986 47.2266V52.0638ZM56.8989 51.0696C57.943 50.2263 58.3637 49.0423 58.3637 47.882H53.5265C53.5265 47.8969 53.5244 47.8099 53.5844 47.6714C53.6491 47.5222 53.7511 47.3941 53.8595 47.3066L56.8989 51.0696ZM58.3637 47.882C58.3637 46.7218 57.943 45.5378 56.8989 44.6945L53.8595 48.4575C53.7511 48.37 53.6491 48.2419 53.5844 48.0927C53.5244 47.9542 53.5265 47.8672 53.5265 47.882H58.3637ZM56.9348 44.7241C56.0552 43.9852 55.0054 43.7003 53.986 43.7003V48.5375C54.0525 48.5375 54.0509 48.5464 54.0047 48.5312C53.9818 48.5237 53.9519 48.5115 53.9182 48.4929C53.8843 48.4742 53.8522 48.4521 53.8235 48.4279L56.9348 44.7241ZM53.986 43.7003C52.9717 43.7003 51.8946 43.9674 50.9938 44.7241L54.105 48.4279C54.0701 48.4573 54.0334 48.4819 53.9976 48.5014C53.962 48.5207 53.9328 48.5319 53.914 48.5379C53.8773 48.5496 53.8929 48.5375 53.986 48.5375V43.7003ZM50.9938 44.7241C49.9765 45.5786 49.5866 46.7549 49.5866 47.882H54.4238C54.4238 47.8559 54.4279 47.9315 54.3738 48.0613C54.3151 48.2023 54.2183 48.3328 54.105 48.4279L50.9938 44.7241ZM49.5866 47.882C49.5866 49.0092 49.9765 50.1855 50.9938 51.04L54.105 47.3362C54.2183 47.4313 54.3151 47.5618 54.3738 47.7028C54.4279 47.8325 54.4238 47.9082 54.4238 47.882H49.5866ZM50.9938 51.04C51.8946 51.7967 52.9717 52.0638 53.986 52.0638V47.2266C53.8929 47.2266 53.8773 47.2145 53.914 47.2262C53.9328 47.2322 53.962 47.2434 53.9976 47.2627C54.0334 47.2822 54.0701 47.3068 54.105 47.3362L50.9938 51.04ZM48.9553 56.3278C48.9553 56.9792 49.1096 57.6672 49.5017 58.3016C49.8907 58.9309 50.4282 59.3692 50.9824 59.6626L53.2457 55.3875C53.3065 55.4197 53.4739 55.5278 53.6162 55.7581C53.7617 55.9934 53.7926 56.2133 53.7926 56.3278H48.9553ZM50.9601 59.6506C51.9016 60.1617 52.9367 60.3572 53.9643 60.3572V55.52C53.5407 55.52 53.3423 55.4398 53.2679 55.3994L50.9601 59.6506ZM53.9643 60.3572C54.9832 60.3572 56.0591 60.1454 57.0037 59.5157L54.3205 55.4909C54.3944 55.4416 54.3385 55.52 53.9643 55.52V60.3572ZM56.9562 59.5465C58.0279 58.8678 58.7338 57.7519 58.7338 56.3713H53.8966C53.8966 56.2298 53.9331 56.0195 54.0569 55.8049C54.1765 55.5977 54.3155 55.4932 54.3681 55.46L56.9562 59.5465ZM58.7338 56.3713C58.7338 55.2966 58.2996 54.3158 57.4978 53.5941L54.2619 57.1895C54.1782 57.1142 54.0739 56.9898 53.9962 56.8149C53.9185 56.6401 53.8966 56.4809 53.8966 56.3713H58.7338ZM57.5432 53.636C57.0125 53.1333 56.3912 52.8857 55.9184 52.7506C55.4218 52.6087 54.8911 52.536 54.3701 52.5001L54.0373 57.3258C54.1916 57.3364 54.3147 57.3505 54.4104 57.3654C54.5072 57.3805 54.5643 57.3945 54.5896 57.4017C54.6165 57.4094 54.5907 57.4046 54.5308 57.3745C54.4714 57.3445 54.3522 57.2763 54.2164 57.1476L57.5432 53.636ZM54.3802 52.5008C53.8512 52.4621 53.3782 52.4052 52.9581 52.3332L52.1407 57.1009C52.7364 57.203 53.3663 57.2767 54.0272 57.3251L54.3802 52.5008ZM51.381 52.5993C50.7644 52.9395 50.1138 53.4192 49.6391 54.1131L53.6313 56.8446C53.5788 56.9213 53.5414 56.9498 53.5536 56.9397C53.5661 56.9292 53.6148 56.8915 53.7178 56.8347L51.381 52.5993ZM49.5903 54.1874C49.2031 54.8004 48.9553 55.5255 48.9553 56.3278H53.7926C53.7926 56.4287 53.7768 56.5249 53.7509 56.6092C53.7256 56.6916 53.6957 56.7456 53.6801 56.7704L49.5903 54.1874ZM61.8079 55H59.3893V57.4186H61.8079V55ZM61.8079 44.2033V41.7847H59.3893V44.2033H61.8079ZM64.2676 44.2033L66.6692 43.9174L66.4153 41.7847H64.2676V44.2033ZM64.4853 46.0318L62.0836 46.3177L63.0076 54.0795L66.6287 47.1522L64.4853 46.0318ZM65.9219 44.5081L64.6915 42.4259L64.681 42.4321L64.6705 42.4384L65.9219 44.5081ZM71.2767 45.2047L69.4604 46.8017L69.4604 46.8017L71.2767 45.2047ZM72.3868 55V57.4186H74.8055V55H72.3868ZM69.6006 55H67.182V57.4186H69.6006V55ZM69.0347 47.0331L70.9559 45.5639L70.9559 45.5639L69.0347 47.0331ZM65.3342 47.1202L63.5552 45.4816L63.5434 45.4945L63.5318 45.5075L65.3342 47.1202ZM64.5941 55V57.4186H67.0127V55H64.5941ZM64.2265 55V44.2033H59.3893V55H64.2265ZM61.8079 46.622H64.2676V41.7847H61.8079V46.622ZM61.8659 44.4893L62.0836 46.3177L66.8869 45.7459L66.6692 43.9174L61.8659 44.4893ZM66.6287 47.1522C66.7549 46.9107 66.9231 46.7291 67.1734 46.5778L64.6705 42.4384C63.6728 43.0417 62.8831 43.8759 62.3418 44.9114L66.6287 47.1522ZM67.1523 46.5903C67.3638 46.4654 67.6728 46.3607 68.164 46.3607V41.5235C66.9428 41.5235 65.757 41.7962 64.6915 42.4259L67.1523 46.5903ZM68.164 46.3607C68.9493 46.3607 69.2676 46.5825 69.4604 46.8017L73.093 43.6076C71.8056 42.1434 70.0488 41.5235 68.164 41.5235V46.3607ZM69.4604 46.8017C69.6694 47.0395 69.9682 47.6076 69.9682 48.9051H74.8055C74.8055 46.952 74.3642 45.0532 73.093 43.6076L69.4604 46.8017ZM69.9682 48.9051V55H74.8055V48.9051H69.9682ZM72.3868 52.5814H69.6006V57.4186H72.3868V52.5814ZM72.0192 55V49.1663H67.182V55H72.0192ZM72.0192 49.1663C72.0192 47.9574 71.7807 46.6425 70.9559 45.5639L67.1134 48.5023C67.0765 48.4541 67.0939 48.453 67.1214 48.5567C67.1502 48.6651 67.182 48.8593 67.182 49.1663H72.0192ZM70.9559 45.5639C69.9949 44.3073 68.5879 43.8744 67.2715 43.8744V48.7116C67.4274 48.7116 67.4419 48.7363 67.3748 48.7082C67.3398 48.6935 67.292 48.6681 67.2404 48.6285C67.1884 48.5887 67.1456 48.5444 67.1134 48.5023L70.9559 45.5639ZM67.2715 43.8744C65.8465 43.8744 64.5439 44.4082 63.5552 45.4816L67.1132 48.7587C67.1347 48.7354 67.1474 48.7259 67.1503 48.7239C67.1527 48.7221 67.1517 48.7231 67.1492 48.7242C67.1469 48.7251 67.1516 48.7227 67.1677 48.7195C67.1844 48.7163 67.2177 48.7116 67.2715 48.7116V43.8744ZM63.5318 45.5075C62.525 46.6327 62.1755 48.0474 62.1755 49.4275H67.0127C67.0127 49.1314 67.0502 48.949 67.0822 48.8493C67.1114 48.7581 67.1363 48.7332 67.1366 48.7329L63.5318 45.5075ZM62.1755 49.4275V55H67.0127V49.4275H62.1755ZM64.5941 52.5814H61.8079V57.4186H64.5941V52.5814Z" fill="#FF94B4" mask="url(#path-2-outside-1_3253_641)"/>
</svg>
