<svg width="96" height="96" viewBox="0 0 96 96" fill="none" xmlns="http://www.w3.org/2000/svg">
<path d="M41.3135 5.27233L5.27233 41.3135C1.57945 45.0063 1.57945 50.9937 5.27233 54.6865L41.3135 90.7277C45.0063 94.4205 50.9937 94.4205 54.6865 90.7277L90.7277 54.6865C94.4206 50.9937 94.4206 45.0063 90.7277 41.3135L54.6865 5.27233C50.9937 1.57946 45.0063 1.57946 41.3135 5.27233Z" fill="#FFD4E1" stroke="#FF94B4" stroke-width="2"/>
<mask id="path-2-outside-1_1719_24" maskUnits="userSpaceOnUse" x="25" y="39.375" width="45" height="22" fill="black">
<rect fill="white" x="25" y="39.375" width="45" height="22"/>
<path d="M31.5748 54.591C30.7348 54.591 29.9848 54.387 29.3248 53.979C28.6648 53.571 28.1428 53.013 27.7588 52.305C27.3748 51.597 27.1828 50.793 27.1828 49.893C27.1828 48.993 27.3748 48.195 27.7588 47.499C28.1428 46.791 28.6648 46.239 29.3248 45.843C29.9848 45.435 30.7348 45.231 31.5748 45.231C32.2468 45.231 32.8348 45.357 33.3388 45.609C33.8428 45.861 34.2508 46.215 34.5628 46.671V41.415H36.8668V54.375H34.8148L34.5628 53.097C34.2748 53.493 33.8908 53.841 33.4108 54.141C32.9428 54.441 32.3308 54.591 31.5748 54.591ZM32.0608 52.575C32.8048 52.575 33.4108 52.329 33.8788 51.837C34.3588 51.333 34.5988 50.691 34.5988 49.911C34.5988 49.131 34.3588 48.495 33.8788 48.003C33.4108 47.499 32.8048 47.247 32.0608 47.247C31.3288 47.247 30.7228 47.493 30.2428 47.985C29.7628 48.477 29.5228 49.113 29.5228 49.893C29.5228 50.673 29.7628 51.315 30.2428 51.819C30.7228 52.323 31.3288 52.575 32.0608 52.575ZM42.903 54.591C42.111 54.591 41.415 54.465 40.815 54.213C40.215 53.949 39.735 53.589 39.375 53.133C39.015 52.677 38.799 52.149 38.727 51.549H41.049C41.121 51.897 41.313 52.197 41.625 52.449C41.949 52.689 42.363 52.809 42.867 52.809C43.371 52.809 43.737 52.707 43.965 52.503C44.205 52.299 44.325 52.065 44.325 51.801C44.325 51.417 44.157 51.159 43.821 51.027C43.485 50.883 43.017 50.745 42.417 50.613C42.033 50.529 41.643 50.427 41.247 50.307C40.851 50.187 40.485 50.037 40.149 49.857C39.825 49.665 39.561 49.425 39.357 49.137C39.153 48.837 39.051 48.471 39.051 48.039C39.051 47.247 39.363 46.581 39.987 46.041C40.623 45.501 41.511 45.231 42.651 45.231C43.707 45.231 44.547 45.477 45.171 45.969C45.807 46.461 46.185 47.139 46.305 48.003H44.127C43.995 47.343 43.497 47.013 42.633 47.013C42.201 47.013 41.865 47.097 41.625 47.265C41.397 47.433 41.283 47.643 41.283 47.895C41.283 48.159 41.457 48.369 41.805 48.525C42.153 48.681 42.615 48.825 43.191 48.957C43.815 49.101 44.385 49.263 44.901 49.443C45.429 49.611 45.849 49.869 46.161 50.217C46.473 50.553 46.629 51.039 46.629 51.675C46.641 52.227 46.497 52.725 46.197 53.169C45.897 53.613 45.465 53.961 44.901 54.213C44.337 54.465 43.671 54.591 42.903 54.591ZM52.45 51.711C52.018 51.711 51.616 51.663 51.244 51.567L50.578 52.233C50.782 52.341 51.058 52.431 51.406 52.503C51.754 52.575 52.318 52.647 53.098 52.719C54.286 52.827 55.15 53.109 55.69 53.565C56.23 54.021 56.5 54.651 56.5 55.455C56.5 55.983 56.356 56.481 56.068 56.949C55.78 57.429 55.336 57.813 54.736 58.101C54.136 58.401 53.368 58.551 52.432 58.551C51.16 58.551 50.134 58.311 49.354 57.831C48.574 57.363 48.184 56.655 48.184 55.707C48.184 54.903 48.574 54.207 49.354 53.619C49.114 53.511 48.904 53.397 48.724 53.277C48.556 53.157 48.406 53.031 48.274 52.899V52.485L49.84 50.829C49.144 50.217 48.796 49.431 48.796 48.471C48.796 47.871 48.94 47.325 49.228 46.833C49.528 46.341 49.948 45.951 50.488 45.663C51.028 45.375 51.682 45.231 52.45 45.231C52.954 45.231 53.422 45.303 53.854 45.447H57.238V46.851L55.708 46.959C55.948 47.415 56.068 47.919 56.068 48.471C56.068 49.071 55.924 49.617 55.636 50.109C55.348 50.601 54.928 50.991 54.376 51.279C53.836 51.567 53.194 51.711 52.45 51.711ZM52.45 49.947C52.918 49.947 53.302 49.821 53.602 49.569C53.914 49.317 54.07 48.957 54.07 48.489C54.07 48.021 53.914 47.661 53.602 47.409C53.302 47.157 52.918 47.031 52.45 47.031C51.958 47.031 51.562 47.157 51.262 47.409C50.962 47.661 50.812 48.021 50.812 48.489C50.812 48.957 50.962 49.317 51.262 49.569C51.562 49.821 51.958 49.947 52.45 49.947ZM50.29 55.473C50.29 55.917 50.494 56.247 50.902 56.463C51.322 56.691 51.832 56.805 52.432 56.805C53.008 56.805 53.476 56.685 53.836 56.445C54.196 56.217 54.376 55.905 54.376 55.509C54.376 55.185 54.256 54.915 54.016 54.699C53.788 54.483 53.326 54.351 52.63 54.303C52.138 54.267 51.682 54.213 51.262 54.141C50.914 54.333 50.662 54.543 50.506 54.771C50.362 54.999 50.29 55.233 50.29 55.473ZM58.918 54.375V45.447H60.952L61.132 46.959C61.408 46.431 61.804 46.011 62.32 45.699C62.848 45.387 63.466 45.231 64.174 45.231C65.278 45.231 66.136 45.579 66.748 46.275C67.36 46.971 67.666 47.991 67.666 49.335V54.375H65.362V49.551C65.362 48.783 65.206 48.195 64.894 47.787C64.582 47.379 64.096 47.175 63.436 47.175C62.788 47.175 62.254 47.403 61.834 47.859C61.426 48.315 61.222 48.951 61.222 49.767V54.375H58.918Z"/>
</mask>
<path d="M31.5748 54.591C30.7348 54.591 29.9848 54.387 29.3248 53.979C28.6648 53.571 28.1428 53.013 27.7588 52.305C27.3748 51.597 27.1828 50.793 27.1828 49.893C27.1828 48.993 27.3748 48.195 27.7588 47.499C28.1428 46.791 28.6648 46.239 29.3248 45.843C29.9848 45.435 30.7348 45.231 31.5748 45.231C32.2468 45.231 32.8348 45.357 33.3388 45.609C33.8428 45.861 34.2508 46.215 34.5628 46.671V41.415H36.8668V54.375H34.8148L34.5628 53.097C34.2748 53.493 33.8908 53.841 33.4108 54.141C32.9428 54.441 32.3308 54.591 31.5748 54.591ZM32.0608 52.575C32.8048 52.575 33.4108 52.329 33.8788 51.837C34.3588 51.333 34.5988 50.691 34.5988 49.911C34.5988 49.131 34.3588 48.495 33.8788 48.003C33.4108 47.499 32.8048 47.247 32.0608 47.247C31.3288 47.247 30.7228 47.493 30.2428 47.985C29.7628 48.477 29.5228 49.113 29.5228 49.893C29.5228 50.673 29.7628 51.315 30.2428 51.819C30.7228 52.323 31.3288 52.575 32.0608 52.575ZM42.903 54.591C42.111 54.591 41.415 54.465 40.815 54.213C40.215 53.949 39.735 53.589 39.375 53.133C39.015 52.677 38.799 52.149 38.727 51.549H41.049C41.121 51.897 41.313 52.197 41.625 52.449C41.949 52.689 42.363 52.809 42.867 52.809C43.371 52.809 43.737 52.707 43.965 52.503C44.205 52.299 44.325 52.065 44.325 51.801C44.325 51.417 44.157 51.159 43.821 51.027C43.485 50.883 43.017 50.745 42.417 50.613C42.033 50.529 41.643 50.427 41.247 50.307C40.851 50.187 40.485 50.037 40.149 49.857C39.825 49.665 39.561 49.425 39.357 49.137C39.153 48.837 39.051 48.471 39.051 48.039C39.051 47.247 39.363 46.581 39.987 46.041C40.623 45.501 41.511 45.231 42.651 45.231C43.707 45.231 44.547 45.477 45.171 45.969C45.807 46.461 46.185 47.139 46.305 48.003H44.127C43.995 47.343 43.497 47.013 42.633 47.013C42.201 47.013 41.865 47.097 41.625 47.265C41.397 47.433 41.283 47.643 41.283 47.895C41.283 48.159 41.457 48.369 41.805 48.525C42.153 48.681 42.615 48.825 43.191 48.957C43.815 49.101 44.385 49.263 44.901 49.443C45.429 49.611 45.849 49.869 46.161 50.217C46.473 50.553 46.629 51.039 46.629 51.675C46.641 52.227 46.497 52.725 46.197 53.169C45.897 53.613 45.465 53.961 44.901 54.213C44.337 54.465 43.671 54.591 42.903 54.591ZM52.45 51.711C52.018 51.711 51.616 51.663 51.244 51.567L50.578 52.233C50.782 52.341 51.058 52.431 51.406 52.503C51.754 52.575 52.318 52.647 53.098 52.719C54.286 52.827 55.15 53.109 55.69 53.565C56.23 54.021 56.5 54.651 56.5 55.455C56.5 55.983 56.356 56.481 56.068 56.949C55.78 57.429 55.336 57.813 54.736 58.101C54.136 58.401 53.368 58.551 52.432 58.551C51.16 58.551 50.134 58.311 49.354 57.831C48.574 57.363 48.184 56.655 48.184 55.707C48.184 54.903 48.574 54.207 49.354 53.619C49.114 53.511 48.904 53.397 48.724 53.277C48.556 53.157 48.406 53.031 48.274 52.899V52.485L49.84 50.829C49.144 50.217 48.796 49.431 48.796 48.471C48.796 47.871 48.94 47.325 49.228 46.833C49.528 46.341 49.948 45.951 50.488 45.663C51.028 45.375 51.682 45.231 52.45 45.231C52.954 45.231 53.422 45.303 53.854 45.447H57.238V46.851L55.708 46.959C55.948 47.415 56.068 47.919 56.068 48.471C56.068 49.071 55.924 49.617 55.636 50.109C55.348 50.601 54.928 50.991 54.376 51.279C53.836 51.567 53.194 51.711 52.45 51.711ZM52.45 49.947C52.918 49.947 53.302 49.821 53.602 49.569C53.914 49.317 54.07 48.957 54.07 48.489C54.07 48.021 53.914 47.661 53.602 47.409C53.302 47.157 52.918 47.031 52.45 47.031C51.958 47.031 51.562 47.157 51.262 47.409C50.962 47.661 50.812 48.021 50.812 48.489C50.812 48.957 50.962 49.317 51.262 49.569C51.562 49.821 51.958 49.947 52.45 49.947ZM50.29 55.473C50.29 55.917 50.494 56.247 50.902 56.463C51.322 56.691 51.832 56.805 52.432 56.805C53.008 56.805 53.476 56.685 53.836 56.445C54.196 56.217 54.376 55.905 54.376 55.509C54.376 55.185 54.256 54.915 54.016 54.699C53.788 54.483 53.326 54.351 52.63 54.303C52.138 54.267 51.682 54.213 51.262 54.141C50.914 54.333 50.662 54.543 50.506 54.771C50.362 54.999 50.29 55.233 50.29 55.473ZM58.918 54.375V45.447H60.952L61.132 46.959C61.408 46.431 61.804 46.011 62.32 45.699C62.848 45.387 63.466 45.231 64.174 45.231C65.278 45.231 66.136 45.579 66.748 46.275C67.36 46.971 67.666 47.991 67.666 49.335V54.375H65.362V49.551C65.362 48.783 65.206 48.195 64.894 47.787C64.582 47.379 64.096 47.175 63.436 47.175C62.788 47.175 62.254 47.403 61.834 47.859C61.426 48.315 61.222 48.951 61.222 49.767V54.375H58.918Z" fill="white"/>
<path d="M29.3248 53.979L30.3764 52.2778L30.3764 52.2778L29.3248 53.979ZM27.7588 52.305L26.0007 53.2585L26.0007 53.2585L27.7588 52.305ZM27.7588 47.499L29.5099 48.4652L29.5134 48.4589L29.5168 48.4525L27.7588 47.499ZM29.3248 45.843L30.3538 47.558L30.3651 47.5512L30.3764 47.5442L29.3248 45.843ZM33.3388 45.609L34.2332 43.8201L34.2332 43.8201L33.3388 45.609ZM34.5628 46.671L32.9122 47.8004L36.5628 53.1359V46.671H34.5628ZM34.5628 41.415V39.415H32.5628V41.415H34.5628ZM36.8668 41.415H38.8668V39.415H36.8668V41.415ZM36.8668 54.375V56.375H38.8668V54.375H36.8668ZM34.8148 54.375L32.8526 54.7619L33.1706 56.375H34.8148V54.375ZM34.5628 53.097L36.525 52.7101L35.639 48.2168L32.9453 51.9207L34.5628 53.097ZM33.4108 54.141L32.3508 52.445L32.3411 52.4511L32.3314 52.4572L33.4108 54.141ZM33.8788 51.837L32.4305 50.4577L32.4297 50.4586L33.8788 51.837ZM33.8788 48.003L32.4132 49.3639L32.43 49.382L32.4472 49.3996L33.8788 48.003ZM30.2428 47.985L31.6743 49.3816L31.6743 49.3816L30.2428 47.985ZM30.2428 51.819L31.6911 50.4397L31.6911 50.4397L30.2428 51.819ZM31.5748 52.591C31.0744 52.591 30.6944 52.4744 30.3764 52.2778L28.2731 55.6802C29.2752 56.2996 30.3951 56.591 31.5748 56.591V52.591ZM30.3764 52.2778C30.0246 52.0603 29.7412 51.7651 29.5168 51.3515L26.0007 53.2585C26.5444 54.2609 27.305 55.0817 28.2731 55.6802L30.3764 52.2778ZM29.5168 51.3515C29.3096 50.9693 29.1828 50.4997 29.1828 49.893H25.1828C25.1828 51.0863 25.44 52.2247 26.0007 53.2585L29.5168 51.3515ZM29.1828 49.893C29.1828 49.2856 29.3098 48.828 29.5099 48.4652L26.0076 46.5328C25.4398 47.562 25.1828 48.7004 25.1828 49.893H29.1828ZM29.5168 48.4525C29.7386 48.0437 30.0151 47.7612 30.3538 47.558L28.2958 44.128C27.3145 44.7168 26.547 45.5383 26.0007 46.5455L29.5168 48.4525ZM30.3764 47.5442C30.6944 47.3476 31.0744 47.231 31.5748 47.231V43.231C30.3951 43.231 29.2752 43.5224 28.2731 44.1418L30.3764 47.5442ZM31.5748 47.231C31.9956 47.231 32.2666 47.309 32.4444 47.3979L34.2332 43.8201C33.4029 43.405 32.498 43.231 31.5748 43.231V47.231ZM32.4444 47.3979C32.6507 47.501 32.796 47.6306 32.9122 47.8004L36.2134 45.5416C35.7055 44.7994 35.0349 44.221 34.2332 43.8201L32.4444 47.3979ZM36.5628 46.671V41.415H32.5628V46.671H36.5628ZM34.5628 43.415H36.8668V39.415H34.5628V43.415ZM34.8668 41.415V54.375H38.8668V41.415H34.8668ZM36.8668 52.375H34.8148V56.375H36.8668V52.375ZM36.777 53.9881L36.525 52.7101L32.6006 53.4839L32.8526 54.7619L36.777 53.9881ZM32.9453 51.9207C32.8297 52.0796 32.6469 52.2599 32.3508 52.445L34.4708 55.837C35.1347 55.4221 35.7198 54.9064 36.1803 54.2733L32.9453 51.9207ZM32.3314 52.4572C32.2821 52.4889 32.0817 52.591 31.5748 52.591V56.591C32.5799 56.591 33.6035 56.3931 34.4901 55.8248L32.3314 52.4572ZM32.0608 54.575C33.2945 54.575 34.4441 54.1445 35.3279 53.2154L32.4297 50.4586C32.3775 50.5135 32.3151 50.575 32.0608 50.575V54.575ZM35.3271 53.2163C36.205 52.2944 36.5988 51.1373 36.5988 49.911H32.5988C32.5988 50.2447 32.5125 50.3716 32.4305 50.4577L35.3271 53.2163ZM36.5988 49.911C36.5988 48.6854 36.2048 47.5232 35.3103 46.6064L32.4472 49.3996C32.5128 49.4668 32.5988 49.5766 32.5988 49.911H36.5988ZM35.3444 46.6421C34.4647 45.6948 33.3101 45.247 32.0608 45.247V49.247C32.2994 49.247 32.3568 49.3032 32.4132 49.3639L35.3444 46.6421ZM32.0608 45.247C30.8287 45.247 29.694 45.6835 28.8112 46.5884L31.6743 49.3816C31.7516 49.3025 31.8288 49.247 32.0608 49.247V45.247ZM28.8112 46.5884C27.9168 47.5052 27.5228 48.6674 27.5228 49.893H31.5228C31.5228 49.5586 31.6088 49.4488 31.6743 49.3816L28.8112 46.5884ZM27.5228 49.893C27.5228 51.1193 27.9165 52.2764 28.7945 53.1983L31.6911 50.4397C31.609 50.3536 31.5228 50.2267 31.5228 49.893H27.5228ZM28.7945 53.1983C29.6733 54.1211 30.8132 54.575 32.0608 54.575V50.575C31.8444 50.575 31.7722 50.5249 31.6911 50.4397L28.7945 53.1983ZM40.815 54.213L40.0095 56.0436L40.0249 56.0504L40.0405 56.057L40.815 54.213ZM39.375 53.133L37.8052 54.3723L37.8052 54.3723L39.375 53.133ZM38.727 51.549V49.549H36.4726L36.7412 51.7873L38.727 51.549ZM41.049 51.549L43.0075 51.1438L42.6775 49.549H41.049V51.549ZM41.625 52.449L40.3683 54.0049L40.4009 54.0312L40.4345 54.0561L41.625 52.449ZM43.965 52.503L42.6697 50.9791L42.6503 50.9956L42.6314 51.0125L43.965 52.503ZM43.821 51.027L43.0331 52.8653L43.0612 52.8773L43.0897 52.8885L43.821 51.027ZM42.417 50.613L42.8467 48.6597L42.8444 48.6592L42.417 50.613ZM41.247 50.307L40.667 52.221L40.667 52.221L41.247 50.307ZM40.149 49.857L39.1294 51.5776L39.1665 51.5996L39.2045 51.62L40.149 49.857ZM39.357 49.137L37.7031 50.2616L37.7139 50.2774L37.7249 50.293L39.357 49.137ZM39.987 46.041L38.6925 44.5164L38.6853 44.5225L38.6782 44.5287L39.987 46.041ZM45.171 45.969L43.9327 47.5395L43.9399 47.5453L43.9472 47.5509L45.171 45.969ZM46.305 48.003V50.003H48.6019L48.286 47.7279L46.305 48.003ZM44.127 48.003L42.1658 48.3952L42.4874 50.003H44.127V48.003ZM41.625 47.265L40.478 45.6265L40.4581 45.6405L40.4386 45.6549L41.625 47.265ZM43.191 48.957L43.6407 47.0082L43.6377 47.0075L43.191 48.957ZM44.901 49.443L44.2422 51.3314L44.2683 51.3405L44.2946 51.3489L44.901 49.443ZM46.161 50.217L44.6718 51.5521L44.6835 51.5651L44.6954 51.5779L46.161 50.217ZM46.629 51.675H44.629V51.6967L44.6294 51.7185L46.629 51.675ZM46.197 53.169L44.5398 52.0493L44.5398 52.0493L46.197 53.169ZM44.901 54.213L44.0851 52.387L44.0851 52.387L44.901 54.213ZM42.903 52.591C42.3207 52.591 41.8972 52.4983 41.5894 52.369L40.0405 56.057C40.9327 56.4317 41.9013 56.591 42.903 56.591V52.591ZM41.6204 52.3824C41.2808 52.2329 41.0774 52.0617 40.9447 51.8937L37.8052 54.3723C38.3926 55.1163 39.1491 55.6651 40.0095 56.0436L41.6204 52.3824ZM40.9447 51.8937C40.8223 51.7387 40.7427 51.5605 40.7127 51.3107L36.7412 51.7873C36.8552 52.7375 37.2076 53.6153 37.8052 54.3723L40.9447 51.8937ZM38.727 53.549H41.049V49.549H38.727V53.549ZM39.0904 51.9542C39.2682 52.8136 39.7453 53.5017 40.3683 54.0049L42.8816 50.8931C42.8722 50.8855 42.8979 50.9044 42.9315 50.9569C42.9668 51.0121 42.9939 51.0781 43.0075 51.1438L39.0904 51.9542ZM40.4345 54.0561C41.1811 54.6091 42.0429 54.809 42.867 54.809V50.809C42.7724 50.809 42.7338 50.7976 42.7353 50.7981C42.7363 50.7984 42.746 50.8013 42.7617 50.809C42.7776 50.8167 42.7962 50.8276 42.8154 50.8419L40.4345 54.0561ZM42.867 54.809C43.5651 54.809 44.5301 54.6811 45.2986 53.9935L42.6314 51.0125C42.7945 50.8665 42.94 50.8178 42.9826 50.8059C43.0206 50.7953 42.9928 50.809 42.867 50.809V54.809ZM45.2603 54.0269C45.8522 53.5237 46.325 52.766 46.325 51.801H42.325C42.325 51.6169 42.3699 51.4284 42.4553 51.2619C42.5363 51.104 42.6284 51.0142 42.6697 50.9791L45.2603 54.0269ZM46.325 51.801C46.325 51.3173 46.2172 50.7538 45.875 50.2282C45.5266 49.6932 45.0388 49.3566 44.5523 49.1655L43.0897 52.8885C42.9391 52.8294 42.7033 52.6878 42.523 52.4108C42.3487 52.1432 42.325 51.9007 42.325 51.801H46.325ZM44.6088 49.1887C44.1058 48.9731 43.4987 48.8032 42.8467 48.6597L41.9872 52.5663C42.5352 52.6868 42.8642 52.7929 43.0331 52.8653L44.6088 49.1887ZM42.8444 48.6592C42.5143 48.587 42.1753 48.4985 41.827 48.393L40.667 52.221C41.1107 52.3555 41.5516 52.471 41.9896 52.5668L42.8444 48.6592ZM41.827 48.393C41.5465 48.308 41.3038 48.2068 41.0934 48.094L39.2045 51.62C39.6661 51.8672 40.1554 52.066 40.667 52.221L41.827 48.393ZM41.1686 48.1364C41.0696 48.0778 41.02 48.0248 40.989 47.981L37.7249 50.293C38.1019 50.8252 38.5803 51.2522 39.1294 51.5776L41.1686 48.1364ZM41.0108 48.0124C41.0229 48.0301 41.0328 48.048 41.0404 48.0646C41.048 48.0811 41.0521 48.0937 41.0541 48.1006C41.0579 48.1144 41.051 48.0979 41.051 48.039H37.051C37.051 48.7941 37.2334 49.5708 37.7031 50.2616L41.0108 48.0124ZM41.051 48.039C41.051 47.8548 41.0897 47.7316 41.2957 47.5533L38.6782 44.5287C37.6362 45.4304 37.051 46.6392 37.051 48.039H41.051ZM41.2814 47.5656C41.4425 47.4288 41.8114 47.231 42.651 47.231V43.231C41.2105 43.231 39.8034 43.5732 38.6925 44.5164L41.2814 47.5656ZM42.651 47.231C43.4055 47.231 43.7623 47.4052 43.9327 47.5395L46.4093 44.3985C45.3317 43.5488 44.0084 43.231 42.651 43.231V47.231ZM43.9472 47.5509C44.1327 47.6944 44.2692 47.8837 44.324 48.2781L48.286 47.7279C48.1007 46.3943 47.4812 45.2276 46.3947 44.3871L43.9472 47.5509ZM46.305 46.003H44.127V50.003H46.305V46.003ZM46.0881 47.6108C45.9322 46.8309 45.5098 46.0907 44.7592 45.5933C44.0669 45.1345 43.2912 45.013 42.633 45.013V49.013C42.8388 49.013 42.744 49.0565 42.5497 48.9277C42.445 48.8583 42.3465 48.7607 42.272 48.6436C42.2002 48.5308 42.1742 48.4371 42.1658 48.3952L46.0881 47.6108ZM42.633 45.013C41.9755 45.013 41.1792 45.1357 40.478 45.6265L42.7719 48.9035C42.6587 48.9827 42.5689 49.0096 42.542 49.0163C42.518 49.0223 42.5421 49.013 42.633 49.013V45.013ZM40.4386 45.6549C39.7719 46.1461 39.283 46.9221 39.283 47.895H43.283C43.283 48.0835 43.2369 48.2987 43.1262 48.5027C43.0196 48.699 42.8903 48.8169 42.8114 48.8751L40.4386 45.6549ZM39.283 47.895C39.283 49.285 40.2896 50.0374 40.9869 50.35L42.6231 46.7C42.624 46.7004 42.7832 46.7689 42.9535 46.9745C43.1531 47.2154 43.283 47.5446 43.283 47.895H39.283ZM40.9869 50.35C41.5005 50.5803 42.102 50.7593 42.7442 50.9065L43.6377 47.0075C43.1279 46.8907 42.8054 46.7817 42.6231 46.7L40.9869 50.35ZM42.7412 50.9058C43.3062 51.0362 43.8052 51.1789 44.2422 51.3314L45.5597 47.5546C44.9647 47.3471 44.3237 47.1658 43.6407 47.0082L42.7412 50.9058ZM44.2946 51.3489C44.5461 51.4289 44.6387 51.5152 44.6718 51.5521L47.6501 48.8819C47.0592 48.2228 46.3118 47.7931 45.5074 47.5371L44.2946 51.3489ZM44.6954 51.5779C44.6653 51.5455 44.643 51.5136 44.6277 51.4867C44.6127 51.4604 44.6076 51.4445 44.6077 51.4448C44.6089 51.4485 44.629 51.5157 44.629 51.675H48.629C48.629 50.731 48.3959 49.6846 47.6266 48.8561L44.6954 51.5779ZM44.6294 51.7185C44.6327 51.8701 44.6007 51.9592 44.5398 52.0493L47.8541 54.2887C48.3933 53.4908 48.6492 52.5839 48.6285 51.6315L44.6294 51.7185ZM44.5398 52.0493C44.4792 52.139 44.3614 52.2635 44.0851 52.387L45.7168 56.039C46.5686 55.6585 47.3148 55.087 47.8541 54.2887L44.5398 52.0493ZM44.0851 52.387C43.8322 52.5 43.4563 52.591 42.903 52.591V56.591C43.8857 56.591 44.8417 56.43 45.7168 56.039L44.0851 52.387ZM51.244 51.567L51.7438 49.6304L50.6376 49.345L49.8298 50.1528L51.244 51.567ZM50.578 52.233L49.1638 50.8188L47.249 52.7336L49.6422 54.0006L50.578 52.233ZM51.406 52.503L51.0008 54.4615L51.0008 54.4615L51.406 52.503ZM53.098 52.719L52.9142 54.7105L52.9169 54.7108L53.098 52.719ZM55.69 53.565L54.3996 55.0931L55.69 53.565ZM56.068 56.949L54.3647 55.9008L54.3588 55.9104L54.353 55.92L56.068 56.949ZM54.736 58.101L53.8705 56.298L53.856 56.3049L53.8416 56.3121L54.736 58.101ZM49.354 57.831L50.4022 56.1277L50.3926 56.1218L50.383 56.116L49.354 57.831ZM49.354 53.619L50.5579 55.216L53.2563 53.1819L50.1747 51.7952L49.354 53.619ZM48.724 53.277L47.5615 54.9045L47.5878 54.9232L47.6146 54.9411L48.724 53.277ZM48.274 52.899H46.274V53.7274L46.8598 54.3132L48.274 52.899ZM48.274 52.485L46.8209 51.1108L46.274 51.6891V52.485H48.274ZM49.84 50.829L51.2932 52.2032L52.718 50.6964L51.1607 49.3271L49.84 50.829ZM49.228 46.833L47.5204 45.7918L47.5111 45.8071L47.502 45.8226L49.228 46.833ZM50.488 45.663L49.5468 43.8983L49.5468 43.8983L50.488 45.663ZM53.854 45.447L53.2215 47.3444L53.5294 47.447H53.854V45.447ZM57.238 45.447H59.238V43.447H57.238V45.447ZM57.238 46.851L57.3788 48.846L59.238 48.7148V46.851H57.238ZM55.708 46.959L55.5672 44.964L52.5114 45.1797L53.9382 47.8905L55.708 46.959ZM54.376 51.279L53.4509 49.5058L53.4428 49.51L53.4348 49.5143L54.376 51.279ZM53.602 49.569L52.3453 48.0131L52.3304 48.0252L52.3156 48.0376L53.602 49.569ZM53.602 47.409L52.3156 48.9404L52.3304 48.9528L52.3453 48.9649L53.602 47.409ZM51.262 47.409L49.9756 45.8776L49.9756 45.8776L51.262 47.409ZM51.262 49.569L52.5484 48.0376L52.5484 48.0376L51.262 49.569ZM50.902 56.463L51.8562 54.7053L51.847 54.7003L51.8378 54.6954L50.902 56.463ZM53.836 56.445L52.7659 54.7554L52.7461 54.7679L52.7266 54.7809L53.836 56.445ZM54.016 54.699L52.6405 56.1509L52.6591 56.1685L52.6781 56.1856L54.016 54.699ZM52.63 54.303L52.484 56.2977L52.4924 56.2983L52.63 54.303ZM51.262 54.141L51.5999 52.1698L50.9093 52.0514L50.2958 52.3898L51.262 54.141ZM50.506 54.771L48.8554 53.6416L48.8346 53.672L48.815 53.703L50.506 54.771ZM52.45 49.711C52.166 49.711 51.9337 49.6795 51.7438 49.6304L50.7442 53.5036C51.2983 53.6465 51.87 53.711 52.45 53.711V49.711ZM49.8298 50.1528L49.1638 50.8188L51.9922 53.6472L52.6582 52.9812L49.8298 50.1528ZM49.6422 54.0006C50.0775 54.231 50.556 54.3695 51.0008 54.4615L51.8112 50.5445C51.6944 50.5203 51.612 50.4976 51.558 50.48C51.5025 50.4619 51.4927 50.4542 51.5138 50.4654L49.6422 54.0006ZM51.0008 54.4615C51.4666 54.5579 52.1263 54.6378 52.9142 54.7105L53.2818 50.7275C52.5097 50.6562 52.0414 50.5921 51.8112 50.5445L51.0008 54.4615ZM52.9169 54.7108C53.9488 54.8046 54.3229 55.0282 54.3996 55.0931L56.9804 52.0369C55.9771 51.1898 54.6232 50.8494 53.2791 50.7272L52.9169 54.7108ZM54.3996 55.0931C54.4396 55.1268 54.4507 55.1474 54.4592 55.1673C54.4707 55.1941 54.5 55.2776 54.5 55.455H58.5C58.5 54.1527 58.0353 52.9278 56.9804 52.0369L54.3996 55.0931ZM54.5 55.455C54.5 55.5974 54.467 55.7345 54.3647 55.9008L57.7713 57.9972C58.245 57.2275 58.5 56.3686 58.5 55.455H54.5ZM54.353 55.92C54.3018 56.0053 54.1855 56.1468 53.8705 56.298L55.6015 59.904C56.4865 59.4792 57.2582 58.8527 57.783 57.978L54.353 55.92ZM53.8416 56.3121C53.6068 56.4295 53.173 56.551 52.432 56.551V60.551C53.563 60.551 54.6652 60.3725 55.6304 59.8899L53.8416 56.3121ZM52.432 56.551C51.3922 56.551 50.7672 56.3523 50.4022 56.1277L48.3058 59.5343C49.5008 60.2697 50.9278 60.551 52.432 60.551V56.551ZM50.383 56.116C50.2572 56.0405 50.2323 55.9912 50.2283 55.984C50.2222 55.973 50.184 55.9021 50.184 55.707H46.184C46.184 57.3213 46.9122 58.6983 48.325 59.546L50.383 56.116ZM50.184 55.707C50.184 55.6678 50.1587 55.517 50.5579 55.216L48.1501 52.022C46.9893 52.897 46.184 54.1382 46.184 55.707H50.184ZM50.1747 51.7952C50.0145 51.7231 49.9046 51.6604 49.8334 51.6129L47.6146 54.9411C47.9034 55.1336 48.2135 55.2989 48.5333 55.4428L50.1747 51.7952ZM49.8865 51.6495C49.7988 51.5869 49.7346 51.5312 49.6882 51.4848L46.8598 54.3132C47.0774 54.5308 47.3132 54.7271 47.5615 54.9045L49.8865 51.6495ZM50.274 52.899V52.485H46.274V52.899H50.274ZM49.7271 53.8592L51.2932 52.2032L48.3869 49.4548L46.8209 51.1108L49.7271 53.8592ZM51.1607 49.3271C50.9138 49.11 50.796 48.8795 50.796 48.471H46.796C46.796 49.9825 47.3742 51.324 48.5193 52.3309L51.1607 49.3271ZM50.796 48.471C50.796 48.2067 50.855 48.0126 50.954 47.8434L47.502 45.8226C47.025 46.6374 46.796 47.5353 46.796 48.471H50.796ZM50.9356 47.8742C51.0378 47.7067 51.1844 47.5583 51.4292 47.4277L49.5468 43.8983C48.7116 44.3437 48.0182 44.9753 47.5204 45.7918L50.9356 47.8742ZM51.4292 47.4277C51.6149 47.3287 51.9282 47.231 52.45 47.231V43.231C51.4358 43.231 50.4411 43.4213 49.5468 43.8983L51.4292 47.4277ZM52.45 47.231C52.7618 47.231 53.014 47.2752 53.2215 47.3444L54.4865 43.5496C53.83 43.3308 53.1462 43.231 52.45 43.231V47.231ZM53.854 47.447H57.238V43.447H53.854V47.447ZM55.238 45.447V46.851H59.238V45.447H55.238ZM57.0972 44.856L55.5672 44.964L55.8488 48.954L57.3788 48.846L57.0972 44.856ZM53.9382 47.8905C54.0163 48.039 54.068 48.2198 54.068 48.471H58.068C58.068 47.6182 57.8797 46.791 57.4778 46.0275L53.9382 47.8905ZM54.068 48.471C54.068 48.7353 54.009 48.9294 53.91 49.0986L57.362 51.1194C57.839 50.3046 58.068 49.4067 58.068 48.471H54.068ZM53.91 49.0986C53.8293 49.2365 53.7014 49.3751 53.4509 49.5058L55.3011 53.0522C56.1546 52.6069 56.8667 51.9655 57.362 51.1194L53.91 49.0986ZM53.4348 49.5143C53.2406 49.6179 52.9358 49.711 52.45 49.711V53.711C53.4522 53.711 54.4314 53.5161 55.3172 53.0437L53.4348 49.5143ZM52.45 51.947C53.2929 51.947 54.1611 51.7114 54.8884 51.1004L52.3156 48.0376C52.3394 48.0176 52.3659 47.9994 52.3939 47.9839C52.4217 47.9685 52.4465 47.9584 52.4655 47.9522C52.5036 47.9397 52.505 47.947 52.45 47.947V51.947ZM54.8587 51.1249C55.7221 50.4275 56.07 49.4484 56.07 48.489H52.07C52.07 48.5013 52.0682 48.4293 52.1179 48.3148C52.1713 48.1914 52.2557 48.0855 52.3453 48.0131L54.8587 51.1249ZM56.07 48.489C56.07 47.5296 55.7221 46.5505 54.8587 45.8531L52.3453 48.9649C52.2557 48.8925 52.1713 48.7866 52.1179 48.6632C52.0682 48.5487 52.07 48.4767 52.07 48.489H56.07ZM54.8884 45.8776C54.1611 45.2666 53.2929 45.031 52.45 45.031V49.031C52.505 49.031 52.5036 49.0383 52.4655 49.0258C52.4465 49.0196 52.4217 49.0095 52.3939 48.9941C52.3659 48.9786 52.3394 48.9604 52.3156 48.9404L54.8884 45.8776ZM52.45 45.031C51.6112 45.031 50.7205 45.2519 49.9756 45.8776L52.5484 48.9404C52.5195 48.9647 52.4892 48.985 52.4595 49.0011C52.4301 49.0171 52.406 49.0264 52.3904 49.0314C52.3601 49.041 52.373 49.031 52.45 49.031V45.031ZM49.9756 45.8776C49.1344 46.5842 48.812 47.557 48.812 48.489H52.812C52.812 48.4674 52.8154 48.5299 52.7707 48.6372C52.7221 48.7538 52.642 48.8617 52.5484 48.9404L49.9756 45.8776ZM48.812 48.489C48.812 49.421 49.1344 50.3938 49.9756 51.1004L52.5484 48.0376C52.642 48.1163 52.7221 48.2242 52.7707 48.3408C52.8154 48.4481 52.812 48.5106 52.812 48.489H48.812ZM49.9756 51.1004C50.7205 51.7261 51.6112 51.947 52.45 51.947V47.947C52.373 47.947 52.3601 47.937 52.3904 47.9466C52.406 47.9516 52.4301 47.9609 52.4595 47.9768C52.4892 47.993 52.5195 48.0133 52.5484 48.0376L49.9756 51.1004ZM48.29 55.473C48.29 56.0117 48.4175 56.5806 48.7418 57.1051C49.0635 57.6255 49.508 57.988 49.9662 58.2306L51.8378 54.6954C51.888 54.722 52.0265 54.8115 52.1442 55.0019C52.2645 55.1964 52.29 55.3783 52.29 55.473H48.29ZM49.9478 58.2207C50.7263 58.6433 51.5823 58.805 52.432 58.805V54.805C52.0817 54.805 51.9177 54.7387 51.8562 54.7053L49.9478 58.2207ZM52.432 58.805C53.2746 58.805 54.1643 58.6298 54.9454 58.1091L52.7266 54.7809C52.7877 54.7402 52.7414 54.805 52.432 54.805V58.805ZM54.9061 58.1346C55.7923 57.5734 56.376 56.6506 56.376 55.509H52.376C52.376 55.392 52.4062 55.2181 52.5086 55.0406C52.6075 54.8693 52.7225 54.7829 52.7659 54.7554L54.9061 58.1346ZM56.376 55.509C56.376 54.6203 56.017 53.8092 55.3539 53.2124L52.6781 56.1856C52.6089 56.1233 52.5227 56.0205 52.4584 55.8758C52.3942 55.7313 52.376 55.5996 52.376 55.509H56.376ZM55.3915 53.2471C54.9527 52.8314 54.4389 52.6266 54.0479 52.515C53.6372 52.3976 53.1984 52.3375 52.7676 52.3077L52.4924 56.2983C52.6199 56.3071 52.7218 56.3187 52.8009 56.331C52.8809 56.3435 52.9281 56.3551 52.9491 56.361C52.9713 56.3674 52.95 56.3634 52.9005 56.3385C52.8514 56.3137 52.7528 56.2573 52.6405 56.1509L55.3915 53.2471ZM52.776 52.3083C52.3385 52.2763 51.9474 52.2293 51.5999 52.1698L50.9241 56.1122C51.4166 56.1967 51.9375 56.2577 52.484 56.2977L52.776 52.3083ZM50.2958 52.3898C49.786 52.6712 49.248 53.0678 48.8554 53.6416L52.1566 55.9004C52.1132 55.9638 52.0823 55.9873 52.0924 55.9789C52.1028 55.9703 52.143 55.9391 52.2282 55.8922L50.2958 52.3898ZM48.815 53.703C48.4948 54.21 48.29 54.8096 48.29 55.473H52.29C52.29 55.5564 52.277 55.636 52.2556 55.7057C52.2346 55.7738 52.2099 55.8185 52.197 55.839L48.815 53.703ZM58.918 54.375H56.918V56.375H58.918V54.375ZM58.918 45.447V43.447H56.918V45.447H58.918ZM60.952 45.447L62.938 45.2106L62.7281 43.447H60.952V45.447ZM61.132 46.959L59.1461 47.1954L59.9102 53.6138L62.9045 47.8855L61.132 46.959ZM62.32 45.699L61.3026 43.9771L61.2939 43.9823L61.2852 43.9875L62.32 45.699ZM66.748 46.275L65.2461 47.5957L65.2461 47.5957L66.748 46.275ZM67.666 54.375V56.375H69.666V54.375H67.666ZM65.362 54.375H63.362V56.375H65.362V54.375ZM64.894 47.787L66.4828 46.5721L66.4828 46.5721L64.894 47.787ZM61.834 47.859L60.363 46.504L60.3532 46.5147L60.3436 46.5254L61.834 47.859ZM61.222 54.375V56.375H63.222V54.375H61.222ZM60.918 54.375V45.447H56.918V54.375H60.918ZM58.918 47.447H60.952V43.447H58.918V47.447ZM58.9661 45.6834L59.1461 47.1954L63.118 46.7226L62.938 45.2106L58.9661 45.6834ZM62.9045 47.8855C63.0089 47.6858 63.1479 47.5356 63.3549 47.4105L61.2852 43.9875C60.4602 44.4864 59.8072 45.1762 59.3596 46.0325L62.9045 47.8855ZM63.3375 47.4209C63.5124 47.3175 63.7679 47.231 64.174 47.231V43.231C63.1642 43.231 62.1837 43.4565 61.3026 43.9771L63.3375 47.4209ZM64.174 47.231C64.8235 47.231 65.0867 47.4144 65.2461 47.5957L68.25 44.9543C67.1854 43.7436 65.7326 43.231 64.174 43.231V47.231ZM65.2461 47.5957C65.419 47.7922 65.666 48.2621 65.666 49.335H69.666C69.666 47.7199 69.3011 46.1498 68.25 44.9543L65.2461 47.5957ZM65.666 49.335V54.375H69.666V49.335H65.666ZM67.666 52.375H65.362V56.375H67.666V52.375ZM67.362 54.375V49.551H63.362V54.375H67.362ZM67.362 49.551C67.362 48.5513 67.1648 47.464 66.4828 46.5721L63.3053 49.0019C63.2748 48.962 63.2892 48.9612 63.3119 49.0469C63.3357 49.1365 63.362 49.2971 63.362 49.551H67.362ZM66.4828 46.5721C65.6881 45.533 64.5246 45.175 63.436 45.175V49.175C63.565 49.175 63.5769 49.1954 63.5215 49.1721C63.4925 49.16 63.453 49.139 63.4103 49.1063C63.3674 49.0733 63.332 49.0367 63.3053 49.0019L66.4828 46.5721ZM63.436 45.175C62.2576 45.175 61.1806 45.6164 60.363 46.504L63.3051 49.214C63.3229 49.1947 63.3334 49.1868 63.3358 49.1851C63.3378 49.1837 63.3369 49.1845 63.3349 49.1854C63.333 49.1862 63.3369 49.1841 63.3502 49.1815C63.364 49.1789 63.3916 49.175 63.436 49.175V45.175ZM60.3436 46.5254C59.5111 47.4559 59.222 48.6257 59.222 49.767H63.222C63.222 49.5221 63.253 49.3713 63.2795 49.2889C63.3037 49.2134 63.3243 49.1929 63.3245 49.1926L60.3436 46.5254ZM59.222 49.767V54.375H63.222V49.767H59.222ZM61.222 52.375H58.918V56.375H61.222V52.375Z" fill="#FF94B4" mask="url(#path-2-outside-1_1719_24)"/>
</svg>
