<svg xmlns="http://www.w3.org/2000/svg" width="50" height="50" fill="none" viewBox="0 0 50 50"><path fill="#DCD7FF" stroke="#816DFF" d="M3.46784 27.7607C1.94313 26.236 1.94313 23.764 3.46784 22.2393L22.2393 3.46784C23.764 1.94313 26.236 1.94313 27.7607 3.46784L46.5322 22.2393C48.0569 23.764 48.0569 26.236 46.5322 27.7607L27.7607 46.5322C26.236 48.0569 23.764 48.0569 22.2393 46.5322L3.46784 27.7607Z"/><path fill="#fff" stroke="#816DFF" d="M14.7137 20.1284L14.3773 19.7584C14.0836 20.0254 13.9424 20.3777 13.9424 20.7696C13.9424 21.1614 14.0831 21.5125 14.3684 21.7849L14.3684 21.785L14.3766 21.7925C14.562 21.9618 14.776 22.073 15.0085 22.1317H14.6397H14.1397V22.6317V28.7484V29.2484H14.6397H16.2182H16.7182V28.7484V22.6317V22.1317H16.2182H15.8476C16.0788 22.0729 16.2912 21.961 16.4731 21.7887C16.7664 21.5189 16.9155 21.167 16.9155 20.7696C16.9155 20.3739 16.7672 20.0225 16.4687 19.7587C16.182 19.4894 15.8206 19.3694 15.4289 19.3694C15.0331 19.3694 14.6694 19.4918 14.3766 19.7591L14.7137 20.1284ZM14.7137 20.1284C14.9028 19.9557 15.1412 19.8694 15.4289 19.8694C15.7167 19.8694 15.951 19.9557 16.1319 20.1284V21.4232C15.951 21.5959 15.7167 21.6822 15.4289 21.6822C15.1412 21.6822 14.9028 21.5959 14.7137 21.4232C14.5328 21.2506 14.4424 21.0327 14.4424 20.7696C14.4424 20.5065 14.5328 20.2928 14.7137 20.1284ZM17.3658 28.7484V29.2484H17.8658H19.4442H19.9442V28.7484V25.5914C19.9442 25.1158 20.0617 24.8142 20.2338 24.6203C20.4217 24.4176 20.6511 24.3156 20.9611 24.3156C21.3061 24.3156 21.4697 24.4169 21.5628 24.5386C21.684 24.6972 21.7806 24.9752 21.7806 25.4434V28.7484V29.2484H22.2806H23.8591H24.3591V28.7484V25.2954C24.3591 24.3069 24.1347 23.4705 23.6056 22.8688C23.0732 22.2633 22.3367 21.9838 21.4667 21.9838C20.9062 21.9838 20.3921 22.108 19.9421 22.3739L19.9421 22.3739L19.9378 22.3765C19.8721 22.4162 19.8086 22.4582 19.7474 22.5023L19.7033 22.1317H19.2593H17.8658H17.3658V22.6317V28.7484ZM26.4914 28.9206L26.6116 29.2484H26.9608H28.8722H29.2207L29.3413 28.9215L31.3131 23.5772V23.9513V24.4513H31.8131H32.3613V26.615C32.3613 27.4726 32.5668 28.216 33.1265 28.6686C33.625 29.0716 34.2604 29.2484 34.9824 29.2484H36.0553H36.5553V28.7484V27.4042V26.9042H36.0553H35.2907C35.1606 26.9042 35.0685 26.8928 35.0069 26.878C34.9903 26.874 34.9772 26.8701 34.9671 26.8666C34.9664 26.8645 34.9657 26.8622 34.965 26.8597C34.9523 26.8175 34.9398 26.7436 34.9398 26.6273V24.4513H36.0923H36.5923V23.9513V22.6317V22.1317H36.0923H34.9398V20.9916V20.4916H34.4398H33.0463H32.5995L32.5494 20.9356L32.4145 22.1317H31.8464H31.8131H31.3131H31.129H29.4765H29.117L29.0025 22.4725L27.9226 25.6864L26.8428 22.4725L26.7283 22.1317H26.3688H24.7163H24.0003L24.2469 22.804L26.4914 28.9206Z"/></svg>