<svg xmlns="http://www.w3.org/2000/svg" width="173" height="114" fill="none" viewBox="0 0 173 114"><rect width="173" height="114" fill="#E981A0" fill-opacity=".65"/><g clip-path="url(#clip0)"><path fill="#E981A0" d="M79.8717 19.1283L48.1283 50.8717C44.7437 54.2563 44.7437 59.7437 48.1283 63.1283L79.8717 94.8717C83.2563 98.2563 88.7437 98.2563 92.1283 94.8717L123.872 63.1283C127.256 59.7437 127.256 54.2563 123.872 50.8717L92.1283 19.1283C88.7437 15.7437 83.2563 15.7437 79.8717 19.1283Z"/><path fill="#F1ADC1" d="M81.2859 23.872L52.872 52.286C50.2685 54.8894 50.2685 59.1106 52.872 61.714L81.2859 90.128C83.8894 92.7315 88.1105 92.7315 90.714 90.128L119.128 61.714C121.731 59.1106 121.731 54.8894 119.128 52.286L90.714 23.872C88.1105 21.2685 83.8894 21.2685 81.2859 23.872Z"/><path fill="#E981A0" d="M73.7032 60.9481H73.6411C73.3926 61.3898 72.9923 61.7556 72.4402 62.0455C71.888 62.3216 71.2599 62.4596 70.5559 62.4596C70.1556 62.4596 69.7346 62.4044 69.2929 62.294C68.8649 62.1973 68.4646 62.0317 68.0919 61.797C67.733 61.5486 67.4293 61.2311 67.1809 60.8446C66.9462 60.4442 66.8289 59.9542 66.8289 59.3744C66.8289 58.629 67.0359 58.0355 67.45 57.5937C67.878 57.152 68.4232 56.8138 69.0858 56.5791C69.7484 56.3445 70.48 56.1926 71.2806 56.1236C72.0951 56.0408 72.8888 55.9994 73.6618 55.9994V55.7509C73.6618 55.1297 73.434 54.6742 72.9785 54.3843C72.5368 54.0806 72.0053 53.9288 71.3842 53.9288C70.8596 53.9288 70.3558 54.0392 69.8726 54.2601C69.3895 54.4809 68.9892 54.7501 68.6717 55.0676L67.3879 53.5561C67.9539 53.0315 68.6027 52.6381 69.3343 52.3758C70.0797 52.1136 70.832 51.9824 71.5912 51.9824C72.4747 51.9824 73.1994 52.1067 73.7653 52.3551C74.3451 52.6036 74.8006 52.928 75.1319 53.3283C75.4632 53.7286 75.691 54.1772 75.8152 54.6742C75.9532 55.1711 76.0223 55.6681 76.0223 56.165V62.2111H73.7032V60.9481ZM73.6618 57.6766H73.1027C72.7024 57.6766 72.2814 57.6973 71.8397 57.7387C71.398 57.7663 70.9907 57.8422 70.618 57.9664C70.2453 58.0769 69.9347 58.2425 69.6863 58.4634C69.4378 58.6704 69.3136 58.9603 69.3136 59.333C69.3136 59.5677 69.3619 59.7678 69.4585 59.9335C69.5689 60.0853 69.707 60.2096 69.8726 60.3062C70.0383 60.4028 70.2246 60.4719 70.4317 60.5133C70.6387 60.5547 70.8458 60.5754 71.0529 60.5754C71.9087 60.5754 72.5575 60.3476 72.9992 59.8921C73.4409 59.4366 73.6618 58.8154 73.6618 58.0286V57.6766Z"/><path fill="#E981A0" d="M85.7086 55.0262C85.5153 54.7501 85.2254 54.5223 84.8389 54.3429C84.4524 54.1496 84.059 54.053 83.6587 54.053C83.2032 54.053 82.8029 54.1496 82.4578 54.3429C82.1127 54.5223 81.8228 54.7639 81.5881 55.0676C81.3672 55.3713 81.2016 55.7164 81.0912 56.1029C80.9807 56.4756 80.9255 56.8552 80.9255 57.2417C80.9255 57.6282 80.9807 58.0147 81.0912 58.4013C81.2154 58.774 81.3949 59.1122 81.6295 59.4158C81.8642 59.7195 82.1541 59.968 82.4992 60.1613C82.8581 60.3407 83.2722 60.4304 83.7415 60.4304C84.128 60.4304 84.5145 60.3545 84.9011 60.2027C85.2876 60.0508 85.5981 59.83 85.8328 59.5401L87.3858 61.1137C86.9716 61.5555 86.4402 61.9006 85.7914 62.149C85.1564 62.3837 84.4662 62.501 83.7208 62.501C82.9892 62.501 82.2921 62.3837 81.6295 62.149C80.9807 61.9144 80.4079 61.5693 79.9109 61.1137C79.4278 60.6582 79.0413 60.106 78.7514 59.4573C78.4753 58.8085 78.3373 58.07 78.3373 57.2417C78.3373 56.4411 78.4753 55.7164 78.7514 55.0676C79.0413 54.4188 79.4278 53.8667 79.9109 53.4111C80.3941 52.9556 80.9531 52.6036 81.5881 52.3551C82.2369 52.1067 82.9271 51.9824 83.6587 51.9824C84.3903 51.9824 85.0943 52.1205 85.7707 52.3965C86.4609 52.6726 87.0061 53.0522 87.4065 53.5354L85.7086 55.0262Z"/><path fill="#E981A0" d="M100.892 51.9824C101.541 51.9824 102.093 52.0998 102.548 52.3344C103.018 52.5553 103.397 52.8521 103.687 53.2248C103.991 53.5975 104.212 54.0254 104.35 54.5085C104.488 54.9917 104.557 55.4886 104.557 55.9994V62.2111H102.072V56.7034C102.072 56.4135 102.051 56.1098 102.01 55.7923C101.969 55.4748 101.879 55.1918 101.741 54.9434C101.603 54.6811 101.409 54.4671 101.161 54.3015C100.926 54.1358 100.609 54.053 100.209 54.053C99.822 54.053 99.4907 54.1358 99.2146 54.3015C98.9386 54.4671 98.7108 54.6811 98.5313 54.9434C98.3519 55.2056 98.2208 55.5024 98.1379 55.8337C98.0551 56.1512 98.0137 56.4687 98.0137 56.7862V62.2111H95.529V56.2064C95.529 55.5853 95.3771 55.0745 95.0735 54.6742C94.7836 54.2601 94.3211 54.053 93.6862 54.053C93.3135 54.053 92.9891 54.1358 92.713 54.3015C92.4369 54.4533 92.2091 54.6535 92.0297 54.902C91.864 55.1504 91.7329 55.4403 91.6363 55.7716C91.5535 56.0891 91.512 56.4135 91.512 56.7448V62.2111H89.0273V52.2723H91.3878V53.8667H91.4292C91.5397 53.6182 91.6846 53.3835 91.864 53.1627C92.0573 52.9418 92.2782 52.7416 92.5266 52.5622C92.7889 52.3827 93.0857 52.2447 93.417 52.1481C93.7483 52.0376 94.1141 51.9824 94.5144 51.9824C95.2874 51.9824 95.9293 52.155 96.4401 52.5001C96.9508 52.8452 97.3442 53.3007 97.6203 53.8667C97.9516 53.2593 98.3933 52.7969 98.9455 52.4794C99.4976 52.1481 100.146 51.9824 100.892 51.9824Z"/></g><defs><clipPath id="clip0"><rect width="88" height="88" fill="#fff" transform="translate(42 13)"/></clipPath></defs></svg>