<svg xmlns="http://www.w3.org/2000/svg" width="41" height="40" fill="none" viewBox="0 0 41 40"><path fill="#51C0C0" d="M20.5 0L12.7715 4.87603H6.15V9.00826L1.9885 11.6736C0.7995 12.3967 0 13.6983 0 15.2066V35.8678C0 36.9637 0.431963 38.0148 1.20086 38.7897C1.96976 39.5646 3.01261 40 4.1 40H36.9C39.1755 40 41 38.1612 41 35.8678V15.2066C41 13.6983 40.2005 12.3967 39.0115 11.6736L34.85 9.00826V4.87603H28.2285L20.5 0ZM10.25 9.00826H30.75V19.0909L20.5 25.5372L10.25 19.0909V9.00826ZM12.3 11.0744V14.1736H28.7V11.0744H12.3ZM6.15 13.9256V16.5083L4.1 15.2066L6.15 13.9256ZM34.85 13.9256L36.9 15.2066L34.85 16.5083V13.9256ZM12.3 16.2397V19.3388H28.7V16.2397H12.3Z"/></svg>