<svg xmlns="http://www.w3.org/2000/svg" width="200" height="200" fill="none" viewBox="0 0 200 200"><g clip-path="url(#clip0_1_19)"><path fill="#51C0C0" d="M125.232 174.554H110.096C126.034 147.256 141.5 82 144.248 73.9278C144.248 73.9278 136.291 75.4926 132.34 79.0733C128.285 82.7485 123.848 92.0153 123.848 92.0153C123.848 92.0153 123.752 88.5618 123.848 86.3531C123.973 83.4958 124.577 80.691 124.577 80.691C124.577 80.691 120.034 85.8036 118.748 89.5888C117.64 92.8535 117.291 99.2955 117.291 99.2955C113.602 89.2962 115.204 82.2142 121.173 75.4675C127.202 68.6518 142.81 70.848 142.81 70.848C142.81 70.848 139.018 66.9527 136.234 65.3221C133.163 63.5235 126.763 60.4688 126.763 60.4688L135.505 62.0864C135.505 62.0864 130.054 56.9832 126.034 54.6797C122.526 52.6704 116.562 50.7625 116.562 50.7625L127.491 52.3797C127.491 52.3797 124.98 49.3305 122.391 47.5268C119.802 45.7227 112.92 41.8646 112.92 41.8646C112.92 41.8646 133.852 44.2696 139.877 54.6797C143.076 60.2071 146.299 68.5382 146.299 68.5382C146.299 68.5382 147.541 63.6712 147.891 60.4688C148.337 56.3921 147.891 49.9533 147.891 49.9533L150.487 56.4243C150.487 56.4243 151.651 50.0152 150.487 45.9088C149.322 41.8024 146.299 36.2021 146.299 36.2021C146.299 36.2021 157.756 43.5238 157.466 52.3797C157.268 58.4348 150.077 69.3083 150.077 69.3083C157.235 61.9591 171.448 52.7612 181.895 56.4243C190.099 59.3012 193.551 64.6183 193.062 73.9278C193.062 73.9278 190.782 70.3423 188.874 68.5382C186.966 66.7341 183.291 64.6888 183.291 64.6888L184.687 69.3083C184.687 69.3083 180.394 65.7831 177.762 64.6888C175.13 63.5944 165.376 63.7045 165.376 63.7045L171.934 66.9402C171.934 66.9402 165.997 65.9982 162.352 66.9402C159.14 67.7701 154.675 70.848 154.675 70.848C154.675 70.848 170.745 74.3457 177.762 83.1664C184.882 92.116 187.234 109.002 187.234 109.002C187.234 109.002 185.356 104.785 183.291 101.644C180.202 96.9462 175.613 90.0957 175.613 90.0957V101.644C175.613 101.644 174.57 96.7829 172.662 93.1751C170.754 89.5673 167.936 85.5443 167.936 85.5443V95.4848C167.936 95.4848 165.497 87.3284 162.352 83.1664C158.643 78.2571 155.503 76.4518 150.487 75.4675C150.487 75.4675 155.348 84.0739 157.466 90.0957C160.421 98.4957 163.351 107.858 162.352 117.042C161.553 124.394 154.675 129.224 154.675 129.224C154.675 129.224 156.251 123.894 156.634 120.122C157.016 116.35 156.634 109.002 156.634 109.002L152.263 117.091C152.263 117.091 152.774 111.451 152.991 107.385C153.207 103.318 152.991 95.4848 152.991 95.4848L148.62 103.954C148.62 103.954 150.248 94.3489 149.348 87.1623C148.847 83.1617 147.162 78.2641 147.162 78.2641C147.162 78.2641 139.877 123.06 125.232 174.554Z"/><path fill="#51C0C0" d="M91.1024 124.266C87.5858 108.414 77.1609 75.1396 77.1609 75.1396C77.1609 75.1396 75.908 86.7942 75.6439 92.6834C75.4201 97.6657 77.5175 107.842 77.5175 107.842L72.5885 101.803L78.279 129.485C78.279 129.485 67.7063 116.644 65.5589 108.016C62.0044 93.7325 66.1397 82.8938 72.85 65.4988C72.85 65.4988 68.9493 67.7035 66.9156 69.6735C62.4288 74.0207 55.0117 86.92 55.0117 86.92L57.3597 73.2279C57.3597 73.2279 53.8451 76.3344 49.1117 82.199C44.3784 88.0636 39.9984 96.2145 39.9984 96.2145L45.1372 79.2921C45.1372 79.2921 36.2883 87.4184 33.4978 90.6491C28.529 96.4008 21.8411 106.454 21.8411 106.454C21.8411 106.454 24.8173 91.0687 29.6639 82.5732C33.9046 75.1403 43.4933 67.1408 43.4933 67.1408L33.4604 69.1296C33.4604 69.1296 41.2141 63.0408 49.1978 59.9592C54.5446 57.895 64.5476 57.3984 64.5476 57.3984C64.5476 57.3984 51.2814 52.156 42.8206 53.6725C38.4113 54.4628 30.1208 58.1714 30.1208 58.1714L34.2537 51.4617C34.2537 51.4617 28.9666 52.3988 26.2699 54.5435C23.5728 56.6882 17.6682 61.2283 17.6682 61.2283L21.4473 52.233C21.4473 52.233 17.2317 54.5652 13.0928 57.4766C8.95431 60.3882 3.51988 65.4788 3.51988 65.4788C6.81913 53.9434 17.5583 44.333 29.2184 41.6962C36.2606 40.1038 40.6748 40.929 47.6949 42.6393C59.4474 45.5024 73.9622 59.0128 73.9622 59.0128C73.9622 59.0128 70.6984 49.0881 66.8956 43.7063C58.0057 31.126 46.2758 26.2742 31.072 30.8868C31.072 30.8868 35.4458 26.6812 38.8261 24.7981C42.2059 22.9153 48.3816 21.244 48.3816 21.244L39.2138 18.1883C49.9293 16.0267 62.5834 15.8525 70.1086 24.9698C74.5228 30.3182 77.4224 38.8352 77.4224 38.8352L79.1524 28.7463C79.1524 28.7463 81.3363 35.3241 81.2737 42.4627C81.2135 49.3223 79.0145 64.3302 79.0145 64.3302C79.0145 64.3302 84.1529 55.5687 89.3293 52.0043C94.9186 48.1555 105.897 46.6853 105.897 46.6853L100.811 50.264C100.811 50.264 108.377 51.268 112.875 53.8167C118.019 56.731 123.704 64.5754 123.704 64.5754C123.704 64.5754 112.448 58.4653 103.92 58.2156C93.9068 57.9224 83.3601 65.0754 83.3601 65.0754C83.3601 65.0754 91.1311 67.139 99.2759 72.2557C105.101 75.9152 111.325 82.0471 114.08 85.9219C120.687 95.2148 117.721 112.51 117.721 112.51C117.721 112.51 115.583 106.428 114.134 102.993C112.685 99.5577 110.3 94.9176 110.3 94.9176L108.464 101.279C108.464 101.279 107.169 97.2777 105.955 94.1724C104.741 91.0672 98.3935 81.7481 98.3935 81.7481L98.3591 90.6442C98.3591 90.6442 94.7905 83.9727 92.5997 80.7546C89.1152 75.6364 82.3715 70.8408 82.3715 70.8408C82.3715 70.8408 93.4967 103.64 98.6093 119.618C104.42 137.779 110.299 174.499 110.299 174.499L95.9797 174.499C95.9797 174.499 95.2009 142.738 91.1024 124.266Z"/></g><defs><clipPath id="clip0_1_19"><rect width="200" height="200" fill="#51C0C0"/></clipPath></defs></svg>