<svg xmlns="http://www.w3.org/2000/svg" width="60" height="60" fill="none" viewBox="0 0 60 60"><path fill="#51C0C0" d="M3.73715 33.7371C1.67318 31.6732 1.67318 28.3268 3.73715 26.2628L26.2629 3.73712C28.3268 1.67315 31.6732 1.67315 33.7372 3.73712L56.2629 26.2628C58.3268 28.3268 58.3268 31.6732 56.2629 33.7371L33.7372 56.2628C31.6732 58.3268 28.3268 58.3268 26.2629 56.2628L3.73715 33.7371Z"/><path fill="#fff" d="M18.5611 34.3402C17.8196 34.3402 17.1659 34.1806 16.6 33.8615C16.034 33.5424 15.5852 33.0977 15.2535 32.5272C14.9315 31.9567 14.7705 31.304 14.7705 30.5691C14.7705 29.8342 14.9315 29.1815 15.2535 28.611C15.5852 28.0405 16.034 27.5957 16.6 27.2767C17.1659 26.9576 17.8196 26.798 18.5611 26.798C19.488 26.798 20.2686 27.0398 20.9028 27.5232C21.537 27.997 21.942 28.6546 22.1176 29.4958H20.1418C20.0442 29.1477 19.8491 28.8769 19.5563 28.6836C19.2734 28.4805 18.9368 28.379 18.5465 28.379C18.0294 28.379 17.5903 28.5724 17.2293 28.9591C16.8683 29.3459 16.6878 29.8826 16.6878 30.5691C16.6878 31.2556 16.8683 31.7923 17.2293 32.1791C17.5903 32.5658 18.0294 32.7592 18.5465 32.7592C18.9368 32.7592 19.2734 32.6625 19.5563 32.4691C19.8491 32.2758 20.0442 32.0002 20.1418 31.6424H22.1176C21.942 32.4546 21.537 33.1073 20.9028 33.6005C20.2686 34.0936 19.488 34.3402 18.5611 34.3402Z"/><path fill="#fff" d="M24.6877 37.357L26.3708 33.6875H25.9318L23.1071 26.9721H25.1414L27.1758 32.034L29.2979 26.9721H31.2884L26.6782 37.357H24.6877Z"/><path fill="#fff" d="M36.8159 34.3402C36.2696 34.3402 35.7915 34.2386 35.3817 34.0356C34.9719 33.8325 34.6401 33.5473 34.3864 33.1798L34.1815 34.1661H32.5131V23.7231H34.3864V28.0019C34.6206 27.6828 34.928 27.4024 35.3085 27.1606C35.6988 26.9189 36.2013 26.798 36.8159 26.798C37.4989 26.798 38.1088 26.9624 38.6454 27.2912C39.182 27.6199 39.6065 28.0696 39.9187 28.64C40.2309 29.2105 40.387 29.8584 40.387 30.5836C40.387 31.3088 40.2309 31.9567 39.9187 32.5272C39.6065 33.088 39.182 33.5328 38.6454 33.8615C38.1088 34.1806 37.4989 34.3402 36.8159 34.3402ZM36.4208 32.7157C37.016 32.7157 37.5087 32.5175 37.899 32.121C38.2893 31.7246 38.4844 31.2121 38.4844 30.5836C38.4844 29.9551 38.2893 29.4378 37.899 29.0317C37.5087 28.6255 37.016 28.4225 36.4208 28.4225C35.8158 28.4225 35.3182 28.6255 34.928 29.0317C34.5474 29.4281 34.3572 29.9406 34.3572 30.5691C34.3572 31.1976 34.5474 31.7149 34.928 32.121C35.3182 32.5175 35.8158 32.7157 36.4208 32.7157Z"/><path fill="#fff" d="M42.0605 34.1661V26.9721H43.729L43.9046 28.321C44.168 27.8568 44.5242 27.4894 44.973 27.2186C45.4316 26.9382 45.9682 26.798 46.5829 26.798V28.7561H46.056C45.6462 28.7561 45.2804 28.8189 44.9584 28.9446C44.6364 29.0703 44.3827 29.2879 44.1973 29.5973C44.0217 29.9067 43.9339 30.337 43.9339 30.8882V34.1661H42.0605Z"/></svg>