<svg xmlns="http://www.w3.org/2000/svg" width="60" height="60" fill="none" viewBox="0 0 60 60"><path fill="#E981A0" d="M3.73715 33.7371C1.67318 31.6732 1.67318 28.3268 3.73715 26.2628L26.2629 3.73712C28.3268 1.67315 31.6732 1.67315 33.7371 3.73712L56.2629 26.2628C58.3268 28.3268 58.3268 31.6732 56.2629 33.7371L33.7371 56.2628C31.6732 58.3268 28.3268 58.3268 26.2629 56.2628L3.73715 33.7371Z"/><path fill="#fff" d="M17.5746 34.4832C16.8909 34.4832 16.2805 34.3209 15.7433 33.9963C15.2062 33.6717 14.7813 33.2277 14.4688 32.6644C14.1563 32.1011 14 31.4614 14 30.7453C14 30.0293 14.1563 29.3944 14.4688 28.8406C14.7813 28.2773 15.2062 27.8381 15.7433 27.523C16.2805 27.1984 16.8909 27.0361 17.5746 27.0361C18.1215 27.0361 18.6001 27.1364 19.0103 27.3369C19.4204 27.5374 19.7525 27.819 20.0064 28.1818V24H21.8816V34.3113H20.2115L20.0064 33.2945C19.772 33.6096 19.4595 33.8865 19.0689 34.1252C18.688 34.3639 18.1899 34.4832 17.5746 34.4832ZM17.9701 32.8792C18.5756 32.8792 19.0689 32.6835 19.4497 32.292C19.8404 31.891 20.0357 31.3802 20.0357 30.7597C20.0357 30.1391 19.8404 29.633 19.4497 29.2416C19.0689 28.8406 18.5756 28.6401 17.9701 28.6401C17.3744 28.6401 16.8811 28.8358 16.4905 29.2273C16.0998 29.6187 15.9045 30.1247 15.9045 30.7453C15.9045 31.3659 16.0998 31.8767 16.4905 32.2777C16.8811 32.6787 17.3744 32.8792 17.9701 32.8792Z"/><path fill="#fff" d="M26.7944 34.4832C26.1498 34.4832 25.5833 34.383 25.095 34.1825C24.6067 33.9724 24.216 33.686 23.923 33.3232C23.63 32.9604 23.4542 32.5403 23.3956 32.0629H25.2854C25.344 32.3398 25.5003 32.5785 25.7542 32.779C26.0179 32.9699 26.3549 33.0654 26.7651 33.0654C27.1753 33.0654 27.4731 32.9842 27.6587 32.8219C27.854 32.6596 27.9517 32.4734 27.9517 32.2634C27.9517 31.9579 27.815 31.7526 27.5415 31.6476C27.268 31.533 26.8871 31.4232 26.3988 31.3182C26.0863 31.2514 25.7689 31.1702 25.4466 31.0747C25.1243 30.9793 24.8264 30.8599 24.5529 30.7167C24.2892 30.5639 24.0744 30.373 23.9083 30.1438C23.7423 29.9052 23.6593 29.614 23.6593 29.2702C23.6593 28.6401 23.9132 28.1102 24.4211 27.6806C24.9387 27.2509 25.6614 27.0361 26.5893 27.0361C27.4487 27.0361 28.1324 27.2318 28.6403 27.6233C29.1579 28.0147 29.4655 28.5542 29.5632 29.2416H27.7906C27.6831 28.7165 27.2778 28.4539 26.5746 28.4539C26.223 28.4539 25.9496 28.5208 25.7542 28.6544C25.5687 28.7881 25.4759 28.9552 25.4759 29.1557C25.4759 29.3657 25.6175 29.5328 25.9007 29.6569C26.184 29.781 26.56 29.8956 27.0288 30.0006C27.5366 30.1152 28.0005 30.2441 28.4205 30.3873C28.8502 30.521 29.1921 30.7262 29.446 31.0031C29.6999 31.2705 29.8269 31.6571 29.8269 32.1631C29.8367 32.6023 29.7195 32.9986 29.4753 33.3518C29.2311 33.7051 28.8795 33.982 28.4205 34.1825C27.9615 34.383 27.4194 34.4832 26.7944 34.4832Z"/><path fill="#fff" d="M34.5645 32.1918C34.2129 32.1918 33.8857 32.1536 33.583 32.0772L33.0409 32.6071C33.207 32.693 33.4316 32.7646 33.7148 32.8219C33.9981 32.8792 34.4571 32.9365 35.0919 32.9938C36.0588 33.0797 36.762 33.3041 37.2015 33.6669C37.641 34.0297 37.8607 34.5309 37.8607 35.1706C37.8607 35.5907 37.7435 35.9869 37.5091 36.3593C37.2747 36.7412 36.9134 37.0467 36.425 37.2759C35.9367 37.5145 35.3117 37.6339 34.5499 37.6339C33.5146 37.6339 32.6796 37.4429 32.0447 37.061C31.4099 36.6887 31.0925 36.1254 31.0925 35.3711C31.0925 34.7314 31.4099 34.1777 32.0447 33.7099C31.8494 33.6239 31.6785 33.5332 31.532 33.4377C31.3953 33.3423 31.2732 33.242 31.1657 33.137V32.8076L32.4403 31.49C31.8738 31.0031 31.5906 30.3778 31.5906 29.614C31.5906 29.1366 31.7078 28.7022 31.9422 28.3107C32.1864 27.9193 32.5282 27.609 32.9677 27.3798C33.4072 27.1507 33.9395 27.0361 34.5645 27.0361C34.9747 27.0361 35.3556 27.0934 35.7072 27.208H38.4614V28.325L37.2161 28.411C37.4115 28.7738 37.5091 29.1748 37.5091 29.614C37.5091 30.0913 37.3919 30.5257 37.1575 30.9172C36.9231 31.3086 36.5813 31.6189 36.132 31.8481C35.6926 32.0772 35.17 32.1918 34.5645 32.1918ZM34.5645 30.7883C34.9454 30.7883 35.2579 30.6881 35.5021 30.4876C35.756 30.2871 35.883 30.0006 35.883 29.6283C35.883 29.2559 35.756 28.9695 35.5021 28.769C35.2579 28.5685 34.9454 28.4682 34.5645 28.4682C34.1641 28.4682 33.8418 28.5685 33.5976 28.769C33.3535 28.9695 33.2314 29.2559 33.2314 29.6283C33.2314 30.0006 33.3535 30.2871 33.5976 30.4876C33.8418 30.6881 34.1641 30.7883 34.5645 30.7883ZM32.8065 35.1849C32.8065 35.5382 32.9726 35.8008 33.3046 35.9726C33.6465 36.154 34.0615 36.2447 34.5499 36.2447C35.0187 36.2447 35.3996 36.1492 35.6926 35.9583C35.9856 35.7769 36.132 35.5287 36.132 35.2136C36.132 34.9558 36.0344 34.741 35.8391 34.5691C35.6535 34.3973 35.2775 34.2922 34.711 34.2541C34.3106 34.2254 33.9395 34.1825 33.5976 34.1252C33.3144 34.2779 33.1093 34.445 32.9823 34.6264C32.8651 34.8078 32.8065 34.994 32.8065 35.1849Z"/><path fill="#fff" d="M39.8287 34.3113V27.208H41.4842L41.6307 28.411C41.8553 27.9909 42.1776 27.6567 42.5976 27.4085C43.0273 27.1602 43.5303 27.0361 44.1065 27.0361C45.005 27.0361 45.7033 27.313 46.2014 27.8668C46.6995 28.4205 46.9486 29.2321 46.9486 30.3014V34.3113H45.0734V30.4732C45.0734 29.8622 44.9464 29.3944 44.6925 29.0697C44.4386 28.7451 44.043 28.5828 43.5059 28.5828C42.9785 28.5828 42.5438 28.7642 42.202 29.127C41.87 29.4898 41.7039 29.9959 41.7039 30.6451V34.3113H39.8287Z"/></svg>