<svg xmlns="http://www.w3.org/2000/svg" width="60" height="60" fill="none" viewBox="0 0 60 60"><path fill="#F9A857" d="M3.73715 33.7371C1.67318 31.6732 1.67318 28.3268 3.73715 26.2628L26.2629 3.73712C28.3268 1.67315 31.6732 1.67315 33.7372 3.73712L56.2629 26.2628C58.3268 28.3268 58.3268 31.6732 56.2629 33.7371L33.7372 56.2628C31.6732 58.3268 28.3268 58.3268 26.2629 56.2628L3.73715 33.7371Z"/><path fill="#fff" d="M13.8012 34.4981V23.8433H15.6954V28.2828C15.942 27.8783 16.2725 27.5626 16.6869 27.3357C17.1111 27.0989 17.5945 26.9805 18.1371 26.9805C19.0448 26.9805 19.7452 27.2666 20.2385 27.8388C20.7416 28.411 20.9932 29.2496 20.9932 30.3545V34.4981H19.1138V30.5321C19.1138 29.9007 18.9856 29.4173 18.7291 29.0819C18.4824 28.7464 18.0878 28.5787 17.5452 28.5787C17.0124 28.5787 16.5685 28.7662 16.2133 29.1411C15.868 29.516 15.6954 30.0388 15.6954 30.7097V34.4981H13.8012Z"/><path fill="#fff" d="M25.335 34.6756C24.7036 34.6756 24.1857 34.577 23.7812 34.3797C23.3767 34.1725 23.0758 33.9012 22.8785 33.5658C22.6812 33.2303 22.5825 32.8604 22.5825 32.4559C22.5825 31.7752 22.8489 31.2227 23.3816 30.7985C23.9144 30.3743 24.7135 30.1621 25.779 30.1621H27.6436V29.9846C27.6436 29.4814 27.5005 29.1115 27.2144 28.8747C26.9283 28.6379 26.5731 28.5195 26.1489 28.5195C25.7642 28.5195 25.4287 28.6133 25.1426 28.8007C24.8565 28.9783 24.679 29.2447 24.6099 29.5998H22.7601C22.8094 29.0671 22.987 28.6034 23.2928 28.2088C23.6085 27.8141 24.013 27.5132 24.5063 27.3061C24.9996 27.089 25.5521 26.9805 26.1637 26.9805C27.2095 26.9805 28.0332 27.2419 28.635 27.7648C29.2368 28.2877 29.5377 29.0276 29.5377 29.9846V34.4981H27.9247L27.7471 33.3142C27.5301 33.7088 27.2243 34.0344 26.8296 34.2909C26.4449 34.5474 25.9467 34.6756 25.335 34.6756ZM25.7642 33.1958C26.3068 33.1958 26.7261 33.0182 27.022 32.6631C27.3279 32.3079 27.5202 31.8689 27.5992 31.346H25.9861C25.483 31.346 25.1229 31.4397 24.9059 31.6272C24.6888 31.8048 24.5803 32.0267 24.5803 32.2931C24.5803 32.5792 24.6888 32.8012 24.9059 32.959C25.1229 33.1169 25.409 33.1958 25.7642 33.1958Z"/><path fill="#fff" d="M34.9413 34.6756C34.1916 34.6756 33.5306 34.5129 32.9584 34.1873C32.3862 33.8617 31.9323 33.4079 31.5969 32.8259C31.2714 32.2438 31.1086 31.5779 31.1086 30.8281C31.1086 30.0783 31.2714 29.4124 31.5969 28.8303C31.9323 28.2482 32.3862 27.7944 32.9584 27.4688C33.5306 27.1433 34.1916 26.9805 34.9413 26.9805C35.8786 26.9805 36.6678 27.2271 37.3091 27.7204C37.9503 28.2038 38.3598 28.8747 38.5373 29.733H36.5396C36.4409 29.3778 36.2436 29.1016 35.9476 28.9043C35.6615 28.6971 35.3212 28.5935 34.9265 28.5935C34.4037 28.5935 33.9597 28.7908 33.5947 29.1855C33.2297 29.5801 33.0472 30.1276 33.0472 30.8281C33.0472 31.5285 33.2297 32.0761 33.5947 32.4707C33.9597 32.8653 34.4037 33.0626 34.9265 33.0626C35.3212 33.0626 35.6615 32.964 35.9476 32.7667C36.2436 32.5693 36.4409 32.2882 36.5396 31.9232H38.5373C38.3598 32.7519 37.9503 33.4178 37.3091 33.9209C36.6678 34.4241 35.8786 34.6756 34.9413 34.6756Z"/><path fill="#fff" d="M40.2186 34.4981V23.8433H42.1128V30.1326L44.7173 27.1581H46.9666L43.9625 30.5025L47.455 34.4981H45.0872L42.1128 30.8133V34.4981H40.2186Z"/></svg>