<svg xmlns="http://www.w3.org/2000/svg" width="75" height="40" fill="none" viewBox="0 0 75 40"><rect width="73.085" height="37.803" x=".63" y="1.114" stroke="#FF6F6F" stroke-width="1.26" rx="18.901"/><path fill="#FF6F6F" d="M33.1142 25.3752C32.2145 25.3752 31.4718 25.2253 30.8863 24.9254C30.3008 24.6255 29.8652 24.2327 29.5796 23.7472C29.294 23.2474 29.1512 22.7047 29.1512 22.1192C29.1512 21.0909 29.551 20.2769 30.3508 19.6771C31.1505 19.0773 32.293 18.7774 33.7782 18.7774H36.563V18.5846C36.563 17.7563 36.3345 17.1351 35.8775 16.7209C35.4348 16.3068 34.8564 16.0997 34.1424 16.0997C33.514 16.0997 32.9642 16.2568 32.4929 16.571C32.0359 16.8709 31.7575 17.3207 31.6575 17.9205H29.3868C29.4582 17.1494 29.7153 16.4924 30.158 15.9498C30.615 15.3928 31.1862 14.9715 31.8717 14.6859C32.5715 14.386 33.3355 14.236 34.1638 14.236C35.649 14.236 36.7987 14.6288 37.6127 15.4142C38.4267 16.1854 38.8337 17.2422 38.8337 18.5846V25.1182H36.8629L36.6701 23.2973C36.3702 23.8829 35.9347 24.3756 35.3634 24.7754C34.7922 25.1753 34.0424 25.3752 33.1142 25.3752ZM33.564 23.533C34.1781 23.533 34.6922 23.3902 35.1064 23.1045C35.5348 22.8046 35.8633 22.4119 36.0917 21.9264C36.3345 21.4408 36.4845 20.9053 36.5416 20.3197H34.0139C33.1142 20.3197 32.4715 20.4768 32.0859 20.791C31.7146 21.1052 31.529 21.4979 31.529 21.9692C31.529 22.4548 31.7075 22.8403 32.0645 23.126C32.4358 23.3973 32.9356 23.533 33.564 23.533ZM42.7666 12.4795C42.3381 12.4795 41.9811 12.3509 41.6955 12.0939C41.4241 11.8225 41.2885 11.4869 41.2885 11.0871C41.2885 10.6872 41.4241 10.3587 41.6955 10.1017C41.9811 9.83034 42.3381 9.69467 42.7666 9.69467C43.195 9.69467 43.5449 9.83034 43.8162 10.1017C44.1018 10.3587 44.2446 10.6872 44.2446 11.0871C44.2446 11.4869 44.1018 11.8225 43.8162 12.0939C43.5449 12.3509 43.195 12.4795 42.7666 12.4795ZM41.6312 25.1182V14.4931H43.9019V25.1182H41.6312Z"/></svg>