<svg xmlns="http://www.w3.org/2000/svg" width="86" height="40" fill="none" viewBox="0 0 86 40"><rect width="84.426" height="39.063" x=".587" y=".31" fill="#51C0C0" rx="19.531"/><rect width="83.166" height="37.803" x="1.217" y=".94" stroke="#51C0C0" stroke-width="1.26" rx="18.901"/><path fill="#fff" d="M19.1932 25.2004C18.1507 25.2004 17.2153 24.9648 16.387 24.4935C15.573 24.0222 14.9303 23.3724 14.4591 22.5441C14.0021 21.7016 13.7736 20.7305 13.7736 19.6308C13.7736 18.5312 14.0021 17.5672 14.4591 16.7389C14.9303 15.8963 15.573 15.2394 16.387 14.7681C17.2153 14.2969 18.1507 14.0612 19.1932 14.0612C20.5071 14.0612 21.6067 14.404 22.4921 15.0895C23.3918 15.7749 23.9702 16.7032 24.2273 17.8743H21.8495C21.7067 17.2887 21.3925 16.8317 20.9069 16.5033C20.4214 16.1748 19.8501 16.0106 19.1932 16.0106C18.6362 16.0106 18.1221 16.1534 17.6509 16.439C17.1796 16.7104 16.8011 17.1174 16.5155 17.66C16.2299 18.1884 16.0871 18.8454 16.0871 19.6308C16.0871 20.4163 16.2299 21.0803 16.5155 21.623C16.8011 22.1514 17.1796 22.5584 17.6509 22.844C18.1221 23.1297 18.6362 23.2725 19.1932 23.2725C19.8501 23.2725 20.4214 23.1082 20.9069 22.7798C21.3925 22.4513 21.7067 21.9872 21.8495 21.3874H24.2273C23.9845 22.5299 23.4132 23.451 22.5135 24.1508C21.6138 24.8505 20.5071 25.2004 19.1932 25.2004ZM27.9324 29.6561L30.4815 24.0651H29.8603L25.6617 14.3183H28.1251L31.3812 22.18L34.7872 14.3183H37.1865L30.3316 29.6561H27.9324ZM45.0299 25.2004C44.2016 25.2004 43.4661 25.0362 42.8235 24.7077C42.1951 24.3793 41.6953 23.9151 41.324 23.3153L41.0883 24.9434H39.0533V9.51986H41.324V15.9677C41.6667 15.4679 42.138 15.0252 42.7378 14.6396C43.3376 14.254 44.1088 14.0612 45.0513 14.0612C46.0796 14.0612 46.9864 14.304 47.7719 14.7896C48.5573 15.2751 49.1714 15.9392 49.6141 16.7818C50.0711 17.6243 50.2996 18.5812 50.2996 19.6522C50.2996 20.7233 50.0711 21.6801 49.6141 22.5227C49.1714 23.351 48.5573 24.008 47.7719 24.4935C46.9864 24.9648 46.0724 25.2004 45.0299 25.2004ZM44.6443 23.2296C45.6154 23.2296 46.4152 22.9012 47.0435 22.2442C47.6719 21.573 47.9861 20.7019 47.9861 19.6308C47.9861 18.9311 47.8433 18.3098 47.5576 17.7671C47.272 17.2245 46.8793 16.8032 46.3795 16.5033C45.8796 16.1891 45.3012 16.032 44.6443 16.032C43.6732 16.032 42.8735 16.3676 42.2451 17.0388C41.631 17.71 41.324 18.574 41.324 19.6308C41.324 20.7019 41.631 21.573 42.2451 22.2442C42.8735 22.9012 43.6732 23.2296 44.6443 23.2296ZM57.7253 25.2004C56.6828 25.2004 55.7546 24.9719 54.9405 24.5149C54.1408 24.0437 53.5124 23.3939 53.0554 22.5656C52.5985 21.7373 52.37 20.7733 52.37 19.6737C52.37 18.5597 52.5913 17.5815 53.034 16.7389C53.491 15.8963 54.1194 15.2394 54.9191 14.7681C55.7331 14.2969 56.6757 14.0612 57.7468 14.0612C58.7893 14.0612 59.6961 14.2969 60.4673 14.7681C61.2385 15.2251 61.8383 15.8392 62.2667 16.6104C62.6951 17.3816 62.9093 18.2313 62.9093 19.1595C62.9093 19.3024 62.9022 19.4594 62.8879 19.6308C62.8879 19.7879 62.8808 19.9664 62.8665 20.1664H54.5978C54.6692 21.1946 55.0048 21.98 55.6046 22.5227C56.2187 23.0511 56.9256 23.3153 57.7253 23.3153C58.368 23.3153 58.9035 23.1725 59.332 22.8869C59.7747 22.587 60.1031 22.1871 60.3173 21.6873H62.588C62.3024 22.687 61.7312 23.5224 60.8743 24.1936C60.0317 24.8648 58.9821 25.2004 57.7253 25.2004ZM57.7253 15.9249C56.9684 15.9249 56.2972 16.1534 55.7117 16.6104C55.1262 17.0531 54.7692 17.7243 54.6406 18.624H60.6387C60.5958 17.7957 60.3031 17.1388 59.7604 16.6532C59.2177 16.1677 58.5394 15.9249 57.7253 15.9249ZM65.2654 24.9434V14.3183H67.3004L67.4932 16.3319C67.8645 15.6321 68.3786 15.0823 69.0356 14.6824C69.7068 14.2683 70.5137 14.0612 71.4562 14.0612V16.439H70.835C70.2066 16.439 69.6425 16.5461 69.1427 16.7603C68.6571 16.9603 68.2644 17.3102 67.9645 17.81C67.6789 18.2955 67.5361 18.9739 67.5361 19.845V24.9434H65.2654Z"/></svg>