<svg xmlns="http://www.w3.org/2000/svg" width="68" height="40" fill="none" viewBox="0 0 68 40"><rect width="65.525" height="37.803" x="1.106" y="1.114" stroke="#F9A857" stroke-width="1.26" rx="18.901"/><path fill="#F9A857" d="M10.6349 25.1182V9.69467H12.9056V16.2068C13.2626 15.5927 13.7553 15.1143 14.3837 14.7716C15.0263 14.4145 15.7333 14.236 16.5044 14.236C17.7754 14.236 18.7751 14.6359 19.5034 15.4356C20.2318 16.2354 20.5959 17.4278 20.5959 19.013V25.1182H18.3467V19.2487C18.3467 17.1922 17.5255 16.164 15.8832 16.164C15.0263 16.164 14.3123 16.4639 13.7411 17.0637C13.1841 17.6635 12.9056 18.5203 12.9056 19.6343V25.1182H10.6349ZM26.8691 25.3752C25.9694 25.3752 25.2268 25.2253 24.6413 24.9254C24.0557 24.6255 23.6202 24.2327 23.3345 23.7472C23.0489 23.2474 22.9061 22.7047 22.9061 22.1192C22.9061 21.0909 23.306 20.2769 24.1057 19.6771C24.9055 19.0773 26.0479 18.7774 27.5332 18.7774H30.318V18.5846C30.318 17.7563 30.0895 17.1351 29.6325 16.7209C29.1898 16.3068 28.6114 16.0997 27.8973 16.0997C27.269 16.0997 26.7191 16.2568 26.2479 16.571C25.7909 16.8709 25.5124 17.3207 25.4124 17.9205H23.1418C23.2132 17.1494 23.4702 16.4924 23.9129 15.9498C24.3699 15.3928 24.9412 14.9715 25.6266 14.6859C26.3264 14.386 27.0905 14.236 27.9188 14.236C29.404 14.236 30.5536 14.6288 31.3676 15.4142C32.1816 16.1854 32.5886 17.2422 32.5886 18.5846V25.1182H30.6179L30.4251 23.2973C30.1252 23.8829 29.6896 24.3756 29.1184 24.7754C28.5471 25.1753 27.7974 25.3752 26.8691 25.3752ZM27.319 23.533C27.933 23.533 28.4472 23.3902 28.8613 23.1045C29.2897 22.8046 29.6182 22.4119 29.8467 21.9264C30.0895 21.4408 30.2394 20.9053 30.2965 20.3197H27.7688C26.8691 20.3197 26.2265 20.4768 25.8409 20.791C25.4696 21.1052 25.2839 21.4979 25.2839 21.9692C25.2839 22.4548 25.4624 22.8403 25.8194 23.126C26.1908 23.3973 26.6906 23.533 27.319 23.533ZM40.2703 25.3752C39.2278 25.3752 38.2923 25.1396 37.464 24.6683C36.65 24.197 36.0074 23.5473 35.5361 22.719C35.0791 21.8764 34.8506 20.9053 34.8506 19.8056C34.8506 18.706 35.0791 17.742 35.5361 16.9137C36.0074 16.0711 36.65 15.4142 37.464 14.9429C38.2923 14.4717 39.2278 14.236 40.2703 14.236C41.5841 14.236 42.6838 14.5788 43.5692 15.2643C44.4689 15.9498 45.0473 16.878 45.3043 18.0491H42.9265C42.7837 17.4635 42.4695 17.0065 41.984 16.6781C41.4984 16.3496 40.9272 16.1854 40.2703 16.1854C39.7133 16.1854 39.1992 16.3282 38.7279 16.6138C38.2566 16.8852 37.8782 17.2922 37.5926 17.8348C37.307 18.3632 37.1641 19.0202 37.1641 19.8056C37.1641 20.5911 37.307 21.2551 37.5926 21.7978C37.8782 22.3262 38.2566 22.7332 38.7279 23.0189C39.1992 23.3045 39.7133 23.4473 40.2703 23.4473C40.9272 23.4473 41.4984 23.2831 41.984 22.9546C42.4695 22.6261 42.7837 22.162 42.9265 21.5622H45.3043C45.0615 22.7047 44.4903 23.6258 43.5906 24.3256C42.6909 25.0253 41.5841 25.3752 40.2703 25.3752ZM47.767 25.1182V9.69467H50.0376V18.8845L54.1077 14.4931H56.8283L52.3083 19.3129L57.4923 25.1182H54.6219L50.0376 19.6771V25.1182H47.767Z"/></svg>