<svg xmlns="http://www.w3.org/2000/svg" width="125" height="40" fill="none" viewBox="0 0 125 40"><rect width="122.229" height="37.803" x="1.352" y="1.114" stroke="#816DFF" stroke-width="1.26" rx="18.901"/><path fill="#816DFF" d="M21.2605 12.4795C20.832 12.4795 20.475 12.3509 20.1894 12.0939C19.918 11.8225 19.7824 11.4869 19.7824 11.0871C19.7824 10.6872 19.918 10.3587 20.1894 10.1017C20.475 9.83034 20.832 9.69467 21.2605 9.69467C21.6889 9.69467 22.0388 9.83034 22.3101 10.1017C22.5957 10.3587 22.7385 10.6872 22.7385 11.0871C22.7385 11.4869 22.5957 11.8225 22.3101 12.0939C22.0388 12.3509 21.6889 12.4795 21.2605 12.4795ZM20.1251 25.1182V14.4931H22.3958V25.1182H20.1251ZM25.3933 25.1182V14.4931H27.4069L27.5783 16.3568C27.9068 15.6998 28.3852 15.1857 29.0135 14.8144C29.6562 14.4288 30.3917 14.236 31.22 14.236C32.5052 14.236 33.5121 14.6359 34.2404 15.4356C34.983 16.2354 35.3543 17.4278 35.3543 19.013V25.1182H33.105V19.2487C33.105 17.1922 32.2625 16.164 30.5773 16.164C29.7347 16.164 29.035 16.4639 28.478 17.0637C27.9353 17.6635 27.664 18.5203 27.664 19.6343V25.1182H25.3933ZM38.0287 25.1182V14.4931H40.0423L40.2136 16.3568C40.5421 15.6998 41.0205 15.1857 41.6489 14.8144C42.2915 14.4288 43.027 14.236 43.8553 14.236C45.1406 14.236 46.1474 14.6359 46.8757 15.4356C47.6184 16.2354 47.9897 17.4278 47.9897 19.013V25.1182H45.7404V19.2487C45.7404 17.1922 44.8978 16.164 43.2127 16.164C42.3701 16.164 41.6703 16.4639 41.1134 17.0637C40.5707 17.6635 40.2993 18.5203 40.2993 19.6343V25.1182H38.0287ZM55.6338 25.3752C54.6198 25.3752 53.7059 25.1467 52.8918 24.6897C52.0921 24.2185 51.4566 23.5687 50.9853 22.7404C50.5141 21.8978 50.2784 20.9195 50.2784 19.8056C50.2784 18.6917 50.5141 17.7206 50.9853 16.8923C51.4709 16.0497 52.1207 15.3999 52.9347 14.9429C53.7487 14.4717 54.6555 14.236 55.6552 14.236C56.6692 14.236 57.576 14.4717 58.3758 14.9429C59.1898 15.3999 59.8324 16.0497 60.3037 16.8923C60.7892 17.7206 61.032 18.6917 61.032 19.8056C61.032 20.9195 60.7892 21.8978 60.3037 22.7404C59.8324 23.5687 59.1898 24.2185 58.3758 24.6897C57.5617 25.1467 56.6477 25.3752 55.6338 25.3752ZM55.6338 23.4259C56.1765 23.4259 56.6763 23.2902 57.1333 23.0189C57.6046 22.7475 57.983 22.3476 58.2686 21.8192C58.5543 21.2766 58.6971 20.6054 58.6971 19.8056C58.6971 19.0059 58.5543 18.3418 58.2686 17.8134C57.9973 17.2707 57.626 16.8637 57.1547 16.5924C56.6977 16.3211 56.1979 16.1854 55.6552 16.1854C55.1125 16.1854 54.6056 16.3211 54.1343 16.5924C53.6773 16.8637 53.306 17.2707 53.0204 17.8134C52.7347 18.3418 52.5919 19.0059 52.5919 19.8056C52.5919 20.6054 52.7347 21.2766 53.0204 21.8192C53.306 22.3476 53.6773 22.7475 54.1343 23.0189C54.5913 23.2902 55.0911 23.4259 55.6338 23.4259ZM65.9213 25.1182L61.9369 14.4931H64.3147L67.2709 22.9546L70.227 14.4931H72.5834L68.6204 25.1182H65.9213ZM77.4416 25.3752C76.5419 25.3752 75.7993 25.2253 75.2137 24.9254C74.6282 24.6255 74.1926 24.2327 73.907 23.7472C73.6214 23.2474 73.4786 22.7047 73.4786 22.1192C73.4786 21.0909 73.8785 20.2769 74.6782 19.6771C75.4779 19.0773 76.6204 18.7774 78.1056 18.7774H80.8904V18.5846C80.8904 17.7563 80.6619 17.1351 80.205 16.7209C79.7622 16.3068 79.1839 16.0997 78.4698 16.0997C77.8414 16.0997 77.2916 16.2568 76.8204 16.571C76.3634 16.8709 76.0849 17.3207 75.9849 17.9205H73.7142C73.7856 17.1494 74.0427 16.4924 74.4854 15.9498C74.9424 15.3928 75.5136 14.9715 76.1991 14.6859C76.8989 14.386 77.6629 14.236 78.4912 14.236C79.9765 14.236 81.1261 14.6288 81.9401 15.4142C82.7541 16.1854 83.1611 17.2422 83.1611 18.5846V25.1182H81.1903L80.9976 23.2973C80.6977 23.8829 80.2621 24.3756 79.6908 24.7754C79.1196 25.1753 78.3698 25.3752 77.4416 25.3752ZM77.8914 23.533C78.5055 23.533 79.0196 23.3902 79.4338 23.1045C79.8622 22.8046 80.1907 22.4119 80.4192 21.9264C80.6619 21.4408 80.8119 20.9053 80.869 20.3197H78.3413C77.4416 20.3197 76.7989 20.4768 76.4133 20.791C76.042 21.1052 75.8564 21.4979 75.8564 21.9692C75.8564 22.4548 76.0349 22.8403 76.3919 23.126C76.7632 23.3973 77.2631 23.533 77.8914 23.533ZM90.0552 25.1182C89.0127 25.1182 88.1844 24.8682 87.5703 24.3684C86.9562 23.8543 86.6492 22.9474 86.6492 21.6479V16.3996H84.8283V14.4931H86.6492L86.9276 11.794H88.9198V14.4931H91.9188V16.3996H88.9198V21.6479C88.9198 22.2334 89.0412 22.6404 89.284 22.8689C89.5411 23.0831 89.9766 23.1902 90.5907 23.1902H91.8117V25.1182H90.0552ZM98.958 25.3752C97.9155 25.3752 96.9872 25.1467 96.1732 24.6897C95.3735 24.2185 94.7451 23.5687 94.2881 22.7404C93.8311 21.9121 93.6026 20.9481 93.6026 19.8485C93.6026 18.7345 93.824 17.7563 94.2667 16.9137C94.7237 16.0711 95.352 15.4142 96.1518 14.9429C96.9658 14.4717 97.9083 14.236 98.9794 14.236C100.022 14.236 100.929 14.4717 101.7 14.9429C102.471 15.3999 103.071 16.014 103.499 16.7852C103.928 17.5564 104.142 18.4061 104.142 19.3344C104.142 19.4772 104.135 19.6343 104.121 19.8056C104.121 19.9627 104.113 20.1412 104.099 20.3412H95.8304C95.9019 21.3694 96.2375 22.1549 96.8373 22.6975C97.4513 23.2259 98.1583 23.4901 98.958 23.4901C99.6006 23.4901 100.136 23.3473 100.565 23.0617C101.007 22.7618 101.336 22.3619 101.55 21.8621H103.821C103.535 22.8618 102.964 23.6972 102.107 24.3684C101.264 25.0396 100.215 25.3752 98.958 25.3752ZM98.958 16.0997C98.2011 16.0997 97.5299 16.3282 96.9444 16.7852C96.3588 17.2279 96.0018 17.8991 95.8733 18.7988H101.871C101.828 17.9705 101.536 17.3136 100.993 16.828C100.45 16.3425 99.772 16.0997 98.958 16.0997Z"/></svg>