<svg xmlns="http://www.w3.org/2000/svg" width="125" height="40" fill="none" viewBox="0 0 125 40"><rect width="123.489" height="39.063" x=".722" y=".31" fill="#816DFF" rx="19.531"/><rect width="122.229" height="37.803" x="1.352" y=".94" stroke="#816DFF" stroke-width="1.26" rx="18.901"/><path fill="#fff" d="M21.2605 12.3047C20.832 12.3047 20.475 12.1761 20.1894 11.9191C19.918 11.6477 19.7824 11.3121 19.7824 10.9123C19.7824 10.5124 19.918 10.1839 20.1894 9.92687C20.475 9.65553 20.832 9.51986 21.2605 9.51986C21.6889 9.51986 22.0388 9.65553 22.3101 9.92687C22.5957 10.1839 22.7385 10.5124 22.7385 10.9123C22.7385 11.3121 22.5957 11.6477 22.3101 11.9191C22.0388 12.1761 21.6889 12.3047 21.2605 12.3047ZM20.1251 24.9434V14.3183H22.3958V24.9434H20.1251ZM25.3933 24.9434V14.3183H27.4069L27.5783 16.182C27.9068 15.525 28.3852 15.0109 29.0135 14.6396C29.6562 14.254 30.3917 14.0612 31.22 14.0612C32.5052 14.0612 33.5121 14.4611 34.2404 15.2608C34.983 16.0606 35.3543 17.253 35.3543 18.8382V24.9434H33.105V19.0739C33.105 17.0174 32.2625 15.9892 30.5773 15.9892C29.7347 15.9892 29.035 16.2891 28.478 16.8889C27.9353 17.4887 27.664 18.3455 27.664 19.4594V24.9434H25.3933ZM38.0287 24.9434V14.3183H40.0423L40.2136 16.182C40.5421 15.525 41.0205 15.0109 41.6489 14.6396C42.2915 14.254 43.027 14.0612 43.8553 14.0612C45.1406 14.0612 46.1474 14.4611 46.8757 15.2608C47.6184 16.0606 47.9897 17.253 47.9897 18.8382V24.9434H45.7404V19.0739C45.7404 17.0174 44.8978 15.9892 43.2127 15.9892C42.3701 15.9892 41.6703 16.2891 41.1134 16.8889C40.5707 17.4887 40.2993 18.3455 40.2993 19.4594V24.9434H38.0287ZM55.6338 25.2004C54.6198 25.2004 53.7059 24.9719 52.8918 24.5149C52.0921 24.0437 51.4566 23.3939 50.9853 22.5656C50.5141 21.723 50.2784 20.7447 50.2784 19.6308C50.2784 18.5169 50.5141 17.5458 50.9853 16.7175C51.4709 15.8749 52.1207 15.2251 52.9347 14.7681C53.7487 14.2969 54.6555 14.0612 55.6552 14.0612C56.6692 14.0612 57.576 14.2969 58.3758 14.7681C59.1898 15.2251 59.8324 15.8749 60.3037 16.7175C60.7892 17.5458 61.032 18.5169 61.032 19.6308C61.032 20.7447 60.7892 21.723 60.3037 22.5656C59.8324 23.3939 59.1898 24.0437 58.3758 24.5149C57.5617 24.9719 56.6477 25.2004 55.6338 25.2004ZM55.6338 23.2511C56.1765 23.2511 56.6763 23.1154 57.1333 22.844C57.6046 22.5727 57.983 22.1728 58.2686 21.6444C58.5543 21.1018 58.6971 20.4306 58.6971 19.6308C58.6971 18.8311 58.5543 18.167 58.2686 17.6386C57.9973 17.0959 57.626 16.6889 57.1547 16.4176C56.6977 16.1463 56.1979 16.0106 55.6552 16.0106C55.1125 16.0106 54.6056 16.1463 54.1343 16.4176C53.6773 16.6889 53.306 17.0959 53.0204 17.6386C52.7347 18.167 52.5919 18.8311 52.5919 19.6308C52.5919 20.4306 52.7347 21.1018 53.0204 21.6444C53.306 22.1728 53.6773 22.5727 54.1343 22.844C54.5913 23.1154 55.0911 23.2511 55.6338 23.2511ZM65.9213 24.9434L61.9369 14.3183H64.3147L67.2709 22.7798L70.227 14.3183H72.5834L68.6204 24.9434H65.9213ZM77.4416 25.2004C76.5419 25.2004 75.7993 25.0505 75.2137 24.7506C74.6282 24.4507 74.1926 24.0579 73.907 23.5724C73.6214 23.0725 73.4786 22.5299 73.4786 21.9443C73.4786 20.9161 73.8785 20.1021 74.6782 19.5023C75.4779 18.9025 76.6204 18.6026 78.1056 18.6026H80.8904V18.4098C80.8904 17.5815 80.6619 16.9603 80.205 16.5461C79.7622 16.132 79.1839 15.9249 78.4698 15.9249C77.8414 15.9249 77.2916 16.082 76.8204 16.3962C76.3634 16.6961 76.0849 17.1459 75.9849 17.7457H73.7142C73.7856 16.9746 74.0427 16.3176 74.4854 15.7749C74.9424 15.218 75.5136 14.7967 76.1991 14.5111C76.8989 14.2112 77.6629 14.0612 78.4912 14.0612C79.9765 14.0612 81.1261 14.454 81.9401 15.2394C82.7541 16.0106 83.1611 17.0674 83.1611 18.4098V24.9434H81.1903L80.9976 23.1225C80.6977 23.7081 80.2621 24.2007 79.6908 24.6006C79.1196 25.0005 78.3698 25.2004 77.4416 25.2004ZM77.8914 23.3582C78.5055 23.3582 79.0196 23.2154 79.4338 22.9297C79.8622 22.6298 80.1907 22.2371 80.4192 21.7516C80.6619 21.266 80.8119 20.7305 80.869 20.1449H78.3413C77.4416 20.1449 76.7989 20.302 76.4133 20.6162C76.042 20.9304 75.8564 21.3231 75.8564 21.7944C75.8564 22.2799 76.0349 22.6655 76.3919 22.9512C76.7632 23.2225 77.2631 23.3582 77.8914 23.3582ZM90.0552 24.9434C89.0127 24.9434 88.1844 24.6934 87.5703 24.1936C86.9562 23.6795 86.6492 22.7726 86.6492 21.4731V16.2248H84.8283V14.3183H86.6492L86.9276 11.6192H88.9198V14.3183H91.9188V16.2248H88.9198V21.4731C88.9198 22.0586 89.0412 22.4656 89.284 22.6941C89.5411 22.9083 89.9766 23.0154 90.5907 23.0154H91.8117V24.9434H90.0552ZM98.958 25.2004C97.9155 25.2004 96.9872 24.9719 96.1732 24.5149C95.3735 24.0437 94.7451 23.3939 94.2881 22.5656C93.8311 21.7373 93.6026 20.7733 93.6026 19.6737C93.6026 18.5597 93.824 17.5815 94.2667 16.7389C94.7237 15.8963 95.352 15.2394 96.1518 14.7681C96.9658 14.2969 97.9083 14.0612 98.9794 14.0612C100.022 14.0612 100.929 14.2969 101.7 14.7681C102.471 15.2251 103.071 15.8392 103.499 16.6104C103.928 17.3816 104.142 18.2313 104.142 19.1595C104.142 19.3024 104.135 19.4594 104.121 19.6308C104.121 19.7879 104.113 19.9664 104.099 20.1664H95.8304C95.9019 21.1946 96.2375 21.98 96.8373 22.5227C97.4513 23.0511 98.1583 23.3153 98.958 23.3153C99.6006 23.3153 100.136 23.1725 100.565 22.8869C101.007 22.587 101.336 22.1871 101.55 21.6873H103.821C103.535 22.687 102.964 23.5224 102.107 24.1936C101.264 24.8648 100.215 25.2004 98.958 25.2004ZM98.958 15.9249C98.2011 15.9249 97.5299 16.1534 96.9444 16.6104C96.3588 17.0531 96.0018 17.7243 95.8733 18.624H101.871C101.828 17.7957 101.536 17.1388 100.993 16.6532C100.45 16.1677 99.772 15.9249 98.958 15.9249Z"/></svg>