<svg width="1008" height="1007" viewBox="0 0 1008 1007" fill="none" xmlns="http://www.w3.org/2000/svg">
<path d="M427.274 102.869L102.225 427.918C60.5652 469.578 60.5652 537.121 102.225 578.781L427.274 903.83C468.933 945.489 536.477 945.49 578.136 903.83L903.185 578.781C944.845 537.121 944.845 469.578 903.185 427.918L578.136 102.869C536.477 61.2097 468.933 61.2097 427.274 102.869Z" fill="#469B68" stroke="#469B68" stroke-width="60.8215"/>
<path d="M254.294 567V473.377H275.812L278.077 490.931C281.475 484.891 286.068 480.109 291.856 476.586C297.771 472.936 304.692 471.112 312.62 471.112V496.594H305.824C300.539 496.594 295.82 497.412 291.668 499.048C287.515 500.684 284.243 503.515 281.852 507.542C279.587 511.569 278.455 517.168 278.455 524.341V567H254.294ZM372.964 569.265C363.526 569.265 355.158 567.252 347.859 563.225C340.561 559.198 334.835 553.535 330.683 546.237C326.53 538.938 324.454 530.507 324.454 520.943C324.454 511.254 326.467 502.634 330.494 495.084C334.646 487.534 340.309 481.682 347.482 477.53C354.78 473.251 363.337 471.112 373.153 471.112C382.339 471.112 390.455 473.125 397.502 477.152C404.549 481.179 410.023 486.716 413.924 493.763C417.951 500.684 419.964 508.423 419.964 516.98C419.964 518.364 419.901 519.811 419.776 521.321C419.776 522.831 419.713 524.404 419.587 526.04H348.426C348.929 533.338 351.446 539.064 355.976 543.217C360.632 547.369 366.232 549.446 372.775 549.446C377.683 549.446 381.773 548.376 385.044 546.237C388.442 543.972 390.959 541.077 392.595 537.554H417.133C415.371 543.468 412.414 548.879 408.261 553.787C404.235 558.569 399.201 562.344 393.161 565.112C387.247 567.881 380.514 569.265 372.964 569.265ZM373.153 490.742C367.238 490.742 362.016 492.441 357.486 495.839C352.956 499.111 350.062 504.144 348.803 510.939H395.426C395.048 504.773 392.783 499.866 388.631 496.216C384.478 492.567 379.319 490.742 373.153 490.742ZM472.562 569.265C464.509 569.265 457.902 568.007 452.743 565.49C447.584 562.847 443.746 559.387 441.229 555.108C438.712 550.83 437.454 546.111 437.454 540.952C437.454 532.269 440.851 525.222 447.647 519.811C454.442 514.4 464.635 511.694 478.225 511.694H502.008V509.429C502.008 503.012 500.184 498.293 496.534 495.273C492.885 492.253 488.355 490.742 482.944 490.742C478.036 490.742 473.758 491.938 470.109 494.329C466.459 496.594 464.194 499.992 463.313 504.522H439.719C440.348 497.726 442.613 491.812 446.514 486.779C450.541 481.745 455.7 477.907 461.992 475.264C468.284 472.496 475.331 471.112 483.133 471.112C496.472 471.112 506.979 474.447 514.655 481.116C522.331 487.785 526.169 497.223 526.169 509.429V567H505.595L503.33 551.899C500.561 556.933 496.66 561.086 491.627 564.357C486.719 567.629 480.364 569.265 472.562 569.265ZM478.036 550.389C484.957 550.389 490.305 548.124 494.081 543.594C497.982 539.064 500.435 533.464 501.442 526.795H480.868C474.45 526.795 469.857 527.99 467.088 530.381C464.32 532.646 462.936 535.478 462.936 538.875C462.936 542.525 464.32 545.356 467.088 547.369C469.857 549.383 473.506 550.389 478.036 550.389ZM595.093 569.265C585.53 569.265 577.098 567.189 569.8 563.036C562.501 558.883 556.713 553.095 552.434 545.671C548.282 538.246 546.205 529.752 546.205 520.188C546.205 510.625 548.282 502.131 552.434 494.706C556.713 487.282 562.501 481.493 569.8 477.341C577.098 473.188 585.53 471.112 595.093 471.112C607.048 471.112 617.115 474.258 625.294 480.55C633.474 486.716 638.696 495.273 640.961 506.22H615.479C614.221 501.69 611.704 498.167 607.929 495.65C604.279 493.008 599.938 491.686 594.904 491.686C588.235 491.686 582.572 494.203 577.916 499.236C573.26 504.27 570.932 511.254 570.932 520.188C570.932 529.123 573.26 536.107 577.916 541.14C582.572 546.174 588.235 548.691 594.904 548.691C599.938 548.691 604.279 547.432 607.929 544.916C611.704 542.399 614.221 538.812 615.479 534.156H640.961C638.696 544.727 633.474 553.221 625.294 559.639C617.115 566.056 607.048 569.265 595.093 569.265ZM662.405 567V431.095H686.566V487.722C689.712 482.563 693.928 478.536 699.213 475.642C704.624 472.622 710.79 471.112 717.711 471.112C729.288 471.112 738.223 474.761 744.514 482.06C750.932 489.358 754.141 500.054 754.141 514.148V567H730.169V516.413C730.169 508.36 728.533 502.194 725.261 497.915C722.115 493.637 717.082 491.497 710.161 491.497C703.366 491.497 697.703 493.888 693.173 498.67C688.768 503.452 686.566 510.121 686.566 518.678V567H662.405Z" fill="white"/>
</svg>
