<svg width="60" height="60" viewBox="0 0 1007 1007" fill="none" xmlns="http://www.w3.org/2000/svg">
<path d="M427.084 103.668L102.179 428.573C60.5381 470.214 60.5381 537.727 102.179 579.369L427.084 904.274C468.725 945.915 536.239 945.915 577.88 904.274L902.785 579.369C944.426 537.727 944.426 470.214 902.785 428.573L577.88 103.668C536.239 62.0266 468.725 62.0266 427.084 103.668Z" fill="#52BFBF" stroke="#52BFBF" stroke-width="60.7945"/>
<path d="M348.775 569.415C339.216 569.415 330.789 567.34 323.493 563.189C316.198 559.038 310.412 553.252 306.135 545.831C301.985 538.41 299.909 529.92 299.909 520.361C299.909 510.801 301.985 502.311 306.135 494.89C310.412 487.469 316.198 481.683 323.493 477.532C330.789 473.381 339.216 471.306 348.775 471.306C360.725 471.306 370.787 474.45 378.963 480.739C387.139 486.903 392.359 495.456 394.623 506.399H369.152C367.894 501.871 365.379 498.349 361.605 495.833C357.957 493.192 353.618 491.871 348.587 491.871C341.92 491.871 336.26 494.387 331.606 499.418C326.952 504.449 324.625 511.43 324.625 520.361C324.625 529.291 326.952 536.272 331.606 541.303C336.26 546.334 341.92 548.85 348.587 548.85C353.618 548.85 357.957 547.592 361.605 545.077C365.379 542.561 367.894 538.976 369.152 534.322H394.623C392.359 544.888 387.139 553.378 378.963 559.793C370.787 566.208 360.725 569.415 348.775 569.415ZM427.755 608.659L449.453 560.925H443.793L407.379 473.57H433.604L459.83 539.416L487.187 473.57H512.847L453.415 608.659H427.755ZM584.105 569.415C577.061 569.415 570.898 568.095 565.615 565.453C560.332 562.812 556.055 559.101 552.785 554.322L550.144 567.151H528.635V431.307H552.785V486.965C555.804 482.815 559.766 479.167 564.671 476.022C569.703 472.878 576.18 471.306 584.105 471.306C592.909 471.306 600.771 473.444 607.689 477.721C614.607 481.997 620.078 487.846 624.103 495.267C628.128 502.688 630.141 511.116 630.141 520.549C630.141 529.983 628.128 538.41 624.103 545.831C620.078 553.127 614.607 558.913 607.689 563.189C600.771 567.34 592.909 569.415 584.105 569.415ZM579.011 548.284C586.683 548.284 593.035 545.706 598.066 540.549C603.098 535.391 605.613 528.725 605.613 520.549C605.613 512.373 603.098 505.644 598.066 500.361C593.035 495.078 586.683 492.437 579.011 492.437C571.212 492.437 564.797 495.078 559.766 500.361C554.86 505.518 552.408 512.185 552.408 520.361C552.408 528.536 554.86 535.266 559.766 540.549C564.797 545.706 571.212 548.284 579.011 548.284ZM651.714 567.151V473.57H673.223L675.487 491.116C678.883 485.079 683.474 480.299 689.26 476.777C695.172 473.129 702.09 471.306 710.014 471.306V496.776H703.222C697.939 496.776 693.222 497.594 689.072 499.229C684.921 500.864 681.65 503.694 679.261 507.719C676.997 511.744 675.864 517.342 675.864 524.511V567.151H651.714Z" fill="white"/>
</svg>
