<svg width="60" height="60" viewBox="0 0 1007 1007" fill="none" xmlns="http://www.w3.org/2000/svg">
<path d="M427.274 102.869L102.225 427.918C60.5652 469.578 60.5652 537.121 102.225 578.781L427.274 903.83C468.933 945.489 536.477 945.49 578.136 903.83L903.185 578.781C944.845 537.121 944.845 469.578 903.185 427.918L578.136 102.869C536.477 61.2097 468.933 61.2097 427.274 102.869Z" fill="#816DFF" stroke="#816DFF" stroke-width="60.8215"/>
<path d="M353.77 458.843C349.366 458.843 345.716 457.521 342.822 454.879C340.054 452.236 338.669 448.902 338.669 444.875C338.669 440.848 340.054 437.576 342.822 435.059C345.716 432.417 349.366 431.095 353.77 431.095C358.174 431.095 361.761 432.417 364.529 435.059C367.423 437.576 368.87 440.848 368.87 444.875C368.87 448.902 367.423 452.236 364.529 454.879C361.761 457.521 358.174 458.843 353.77 458.843ZM341.689 567V473.377H365.85V567H341.689ZM391.068 567V473.377H412.398L414.285 489.232C417.18 483.696 421.332 479.291 426.743 476.019C432.28 472.748 438.761 471.112 446.185 471.112C457.762 471.112 466.76 474.761 473.177 482.06C479.595 489.358 482.804 500.054 482.804 514.148V567H458.643V516.413C458.643 508.36 457.007 502.194 453.735 497.915C450.464 493.637 445.367 491.497 438.446 491.497C431.651 491.497 426.051 493.888 421.647 498.67C417.368 503.452 415.229 510.121 415.229 518.678V567H391.068ZM530.279 567L495.925 473.377H521.219L545.002 544.16L568.785 473.377H594.079L559.536 567H530.279ZM653.061 567C643.245 567 635.38 564.609 629.466 559.827C623.552 555.045 620.595 546.551 620.595 534.345V493.574H604.55V473.377H620.595L623.426 448.272H644.755V473.377H670.049V493.574H644.755V534.534C644.755 539.064 645.699 542.21 647.587 543.972C649.6 545.608 652.998 546.426 657.779 546.426H669.482V567H653.061Z" fill="white"/>
</svg>
