<svg xmlns="http://www.w3.org/2000/svg" width="60" height="60" fill="none" viewBox="0 0 60 60"><path fill="#816DFF" d="M3.73715 33.7371C1.67318 31.6732 1.67318 28.3268 3.73715 26.2628L26.2629 3.73712C28.3268 1.67315 31.6732 1.67315 33.7371 3.73712L56.2629 26.2628C58.3268 28.3268 58.3268 31.6732 56.2629 33.7371L33.7371 56.2628C31.6732 58.3268 28.3268 58.3268 26.2629 56.2628L3.73715 33.7371Z"/><path fill="#fff" d="M18.5147 26.0186C18.1694 26.0186 17.8833 25.915 17.6564 25.7078C17.4394 25.5007 17.3308 25.2392 17.3308 24.9235C17.3308 24.6078 17.4394 24.3513 17.6564 24.154C17.8833 23.9468 18.1694 23.8433 18.5147 23.8433C18.86 23.8433 19.1412 23.9468 19.3582 24.154C19.5851 24.3513 19.6986 24.6078 19.6986 24.9235C19.6986 25.2392 19.5851 25.5007 19.3582 25.7078C19.1412 25.915 18.86 26.0186 18.5147 26.0186ZM17.5676 34.4981V27.1581H19.4618V34.4981H17.5676Z"/><path fill="#fff" d="M21.4389 34.4981V27.1581H23.1111L23.2591 28.4011C23.486 27.9671 23.8116 27.6218 24.2358 27.3653C24.6699 27.1088 25.1779 26.9805 25.76 26.9805C26.6676 26.9805 27.373 27.2666 27.8762 27.8388C28.3793 28.411 28.6309 29.2496 28.6309 30.3545V34.4981H26.7367V30.5321C26.7367 29.9007 26.6084 29.4173 26.3519 29.0819C26.0954 28.7464 25.6959 28.5787 25.1533 28.5787C24.6205 28.5787 24.1815 28.7662 23.8362 29.1411C23.5008 29.516 23.3331 30.0388 23.3331 30.7097V34.4981H21.4389Z"/><path fill="#fff" d="M32.3529 34.4981L29.6596 27.1581H31.6426L33.5072 32.7075L35.3718 27.1581H37.3547L34.6466 34.4981H32.3529Z"/><path fill="#fff" d="M41.9789 34.4981C41.2094 34.4981 40.5928 34.3106 40.1291 33.9357C39.6654 33.5608 39.4336 32.8949 39.4336 31.938V28.7415H38.1757V27.1581H39.4336L39.6555 25.1899H41.3277V27.1581H43.3107V28.7415H41.3277V31.9527C41.3277 32.3079 41.4017 32.5545 41.5497 32.6927C41.7076 32.8209 41.9739 32.885 42.3488 32.885H43.2663V34.4981H41.9789Z"/></svg>