<svg xmlns="http://www.w3.org/2000/svg" width="50" height="50" fill="none" viewBox="0 0 50 50"><path fill="#FFC5C5" stroke="#FF6F6F" d="M3.46784 27.7607C1.94313 26.236 1.94313 23.764 3.46784 22.2393L22.2393 3.46784C23.764 1.94313 26.236 1.94313 27.7607 3.46784L46.5322 22.2393C48.0569 23.764 48.0569 26.236 46.5322 27.7607L27.7607 46.5322C26.236 48.0569 23.764 48.0569 22.2393 46.5322L3.46784 27.7607Z"/><path fill="#fff" stroke="#FF6F6F" d="M28.0632 19.6284L27.7269 19.2584C27.4332 19.5254 27.2919 19.8777 27.2919 20.2696C27.2919 20.6614 27.4327 21.0125 27.718 21.2849L27.7179 21.285L27.7261 21.2925C27.9116 21.4618 28.1255 21.573 28.3581 21.6317H27.9893H27.4893V22.1317V28.2484V28.7484H27.9893H29.5677H30.0677V28.2484V22.1317V21.6317H29.5677H29.1972C29.4284 21.5729 29.6407 21.461 29.8226 21.2887C30.116 21.0189 30.2651 20.667 30.2651 20.2696C30.2651 19.8739 30.1168 19.5225 29.8182 19.2587C29.5316 18.9894 29.1701 18.8694 28.7785 18.8694C28.3826 18.8694 28.0189 18.9918 27.7261 19.2591L28.0632 19.6284ZM28.0632 19.6284C28.2523 19.4557 28.4908 19.3694 28.7785 19.3694C29.0662 19.3694 29.3005 19.4557 29.4814 19.6284V20.9232C29.3005 21.0959 29.0662 21.1822 28.7785 21.1822C28.4908 21.1822 28.2523 21.0959 28.0632 20.9232C27.8824 20.7506 27.7919 20.5327 27.7919 20.2696C27.7919 20.0065 27.8824 19.7928 28.0632 19.6284ZM21.3962 28.5948L21.3962 28.5949L21.4049 28.5991C21.8321 28.8075 22.3455 28.8964 22.919 28.8964C23.495 28.8964 24.0144 28.7759 24.4394 28.4934C24.4918 28.4593 24.5428 28.4238 24.5923 28.3871L24.6465 28.7484H25.0771H26.4213H26.9213V28.2484V24.4872C26.9213 23.5767 26.6296 22.8096 25.997 22.2599C25.3793 21.7232 24.5633 21.4838 23.6096 21.4838C23.0414 21.4838 22.5124 21.5845 22.0309 21.7957C21.5492 21.9987 21.1442 22.2981 20.8267 22.695L20.8267 22.6949L20.822 22.701C20.5046 23.1105 20.3246 23.5888 20.2754 24.1204L20.2248 24.6665H20.7732H21.1266C21.0761 24.7006 21.0271 24.7365 20.9797 24.7743C20.4167 25.2226 20.1252 25.827 20.1252 26.5466C20.1252 26.9691 20.2295 27.3655 20.4409 27.725C20.6611 28.0993 20.9891 28.3862 21.3962 28.5948ZM24.1304 26.1217C24.0779 26.2213 24.0162 26.3114 23.9459 26.393L23.9459 26.3929L23.9407 26.3991C23.806 26.5608 23.609 26.6632 23.2766 26.6632C23.0524 26.6632 22.927 26.6135 22.8554 26.5615C22.8136 26.5311 22.7901 26.5018 22.7901 26.4109C22.7901 26.3478 22.8061 26.3018 22.878 26.243L22.8781 26.2431L22.8882 26.2344C22.9311 26.1973 23.0803 26.1217 23.4616 26.1217H24.1304ZM24.1664 23.9474C24.2118 23.9851 24.2583 24.0421 24.292 24.1351H23.2889C23.1341 24.1351 22.9832 24.1401 22.8365 24.1505C22.8762 24.046 22.9384 23.9775 23.0224 23.9254L23.0224 23.9255L23.0327 23.9188C23.1798 23.8225 23.3614 23.7663 23.5972 23.7663C23.8519 23.7663 24.0302 23.8348 24.1664 23.9474Z"/></svg>