<svg xmlns="http://www.w3.org/2000/svg" width="50" height="50" fill="none" viewBox="0 0 50 50"><path fill="#FFD2E0" stroke="#E981A0" d="M3.46784 27.7607C1.94313 26.236 1.94313 23.764 3.46784 22.2393L22.2393 3.46784C23.764 1.94313 26.236 1.94313 27.7607 3.46784L46.5322 22.2393C48.0569 23.764 48.0569 26.236 46.5322 27.7607L27.7607 46.5322C26.236 48.0569 23.764 48.0569 22.2393 46.5322L3.46784 27.7607Z"/><mask id="path-2-outside-1" width="30" height="14" x="10.667" y="19" fill="#000" maskUnits="userSpaceOnUse"><rect width="30" height="14" x="10.667" y="19" fill="#fff"/><path d="M14.6456 28.736C14.0758 28.736 13.5672 28.6007 13.1195 28.3302C12.6719 28.0597 12.3179 27.6898 12.0574 27.2203C11.797 26.7509 11.6667 26.2178 11.6667 25.6211C11.6667 25.0244 11.797 24.4953 12.0574 24.0338C12.3179 23.5644 12.6719 23.1984 13.1195 22.9359C13.5672 22.6654 14.0758 22.5301 14.6456 22.5301C15.1013 22.5301 15.5001 22.6136 15.842 22.7807C16.1838 22.9478 16.4605 23.1825 16.6721 23.4849V20H18.2348V28.5928H16.843L16.6721 27.7454C16.4768 28.008 16.2163 28.2387 15.8908 28.4376C15.5734 28.6365 15.1583 28.736 14.6456 28.736ZM14.9752 27.3993C15.4798 27.3993 15.8908 27.2362 16.2082 26.91C16.5338 26.5759 16.6965 26.1502 16.6965 25.633C16.6965 25.1159 16.5338 24.6942 16.2082 24.368C15.8908 24.0338 15.4798 23.8668 14.9752 23.8668C14.4787 23.8668 14.0677 24.0299 13.7421 24.3561C13.4166 24.6823 13.2538 25.104 13.2538 25.6211C13.2538 26.1383 13.4166 26.5639 13.7421 26.8981C14.0677 27.2323 14.4787 27.3993 14.9752 27.3993Z"/><path d="M22.3287 28.736C21.7916 28.736 21.3195 28.6525 20.9126 28.4854C20.5056 28.3103 20.1801 28.0717 19.9359 27.7693C19.6917 27.467 19.5452 27.1169 19.4964 26.7191H21.0713C21.1201 26.9498 21.2503 27.1487 21.4619 27.3158C21.6817 27.4749 21.9625 27.5545 22.3043 27.5545C22.6461 27.5545 22.8944 27.4869 23.049 27.3516C23.2118 27.2164 23.2932 27.0612 23.2932 26.8862C23.2932 26.6316 23.1792 26.4605 22.9513 26.373C22.7235 26.2775 22.406 26.186 21.9991 26.0985C21.7387 26.0428 21.4741 25.9752 21.2056 25.8956C20.937 25.816 20.6887 25.7166 20.4609 25.5972C20.2411 25.4699 20.0621 25.3108 19.9237 25.1199C19.7853 24.921 19.7162 24.6783 19.7162 24.3919C19.7162 23.8668 19.9278 23.4252 20.351 23.0671C20.7823 22.7091 21.3846 22.5301 22.1578 22.5301C22.874 22.5301 23.4437 22.6932 23.867 23.0194C24.2983 23.3456 24.5547 23.7951 24.6361 24.368H23.1589C23.0694 23.9304 22.7316 23.7116 22.1456 23.7116C21.8526 23.7116 21.6247 23.7673 21.4619 23.8787C21.3073 23.9901 21.23 24.1293 21.23 24.2964C21.23 24.4714 21.348 24.6107 21.584 24.7141C21.82 24.8175 22.1334 24.913 22.5241 25.0005C22.9473 25.096 23.3339 25.2034 23.6838 25.3228C24.0419 25.4341 24.3268 25.6052 24.5384 25.8359C24.75 26.0587 24.8558 26.3809 24.8558 26.8026C24.864 27.1686 24.7663 27.4988 24.5628 27.7932C24.3594 28.0876 24.0664 28.3183 23.6838 28.4854C23.3013 28.6525 22.8496 28.736 22.3287 28.736Z"/><path d="M28.8038 26.8265C28.5108 26.8265 28.2382 26.7947 27.9859 26.731L27.5342 27.1726C27.6725 27.2442 27.8597 27.3039 28.0958 27.3516C28.3318 27.3993 28.7143 27.4471 29.2433 27.4948C30.0491 27.5664 30.6351 27.7534 31.0013 28.0557C31.3676 28.3581 31.5507 28.7758 31.5507 29.3089C31.5507 29.6589 31.453 29.9891 31.2577 30.2994C31.0624 30.6177 30.7612 30.8723 30.3543 31.0632C29.9473 31.2621 29.4265 31.3616 28.7916 31.3616C27.9289 31.3616 27.2331 31.2024 26.704 30.8842C26.175 30.5739 25.9105 30.1045 25.9105 29.4759C25.9105 28.9429 26.175 28.4814 26.704 28.0915C26.5413 28.0199 26.3988 27.9444 26.2767 27.8648C26.1628 27.7852 26.0611 27.7017 25.9715 27.6142V27.3397L27.0337 26.2417C26.5616 25.8359 26.3256 25.3148 26.3256 24.6783C26.3256 24.2805 26.4232 23.9185 26.6186 23.5923C26.822 23.2661 27.1069 23.0075 27.4731 22.8165C27.8394 22.6256 28.283 22.5301 28.8038 22.5301C29.1457 22.5301 29.4631 22.5778 29.7561 22.6733H32.0512V23.6042L31.0135 23.6758C31.1763 23.9781 31.2577 24.3123 31.2577 24.6783C31.2577 25.0761 31.16 25.4381 30.9647 25.7643C30.7694 26.0905 30.4845 26.3491 30.1101 26.5401C29.7439 26.731 29.3085 26.8265 28.8038 26.8265ZM28.8038 25.6569C29.1213 25.6569 29.3817 25.5734 29.5852 25.4063C29.7968 25.2392 29.9026 25.0005 29.9026 24.6902C29.9026 24.3799 29.7968 24.1412 29.5852 23.9742C29.3817 23.8071 29.1213 23.7235 28.8038 23.7235C28.4702 23.7235 28.2016 23.8071 27.9981 23.9742C27.7946 24.1412 27.6929 24.3799 27.6929 24.6902C27.6929 25.0005 27.7946 25.2392 27.9981 25.4063C28.2016 25.5734 28.4702 25.6569 28.8038 25.6569ZM27.3389 29.3208C27.3389 29.6152 27.4772 29.834 27.7539 29.9772C28.0388 30.1284 28.3847 30.2039 28.7916 30.2039C29.1823 30.2039 29.4997 30.1244 29.7439 29.9652C29.988 29.8141 30.1101 29.6072 30.1101 29.3447C30.1101 29.1298 30.0287 28.9508 29.866 28.8076C29.7113 28.6644 29.398 28.5769 28.9259 28.5451C28.5922 28.5212 28.283 28.4854 27.9981 28.4376C27.7621 28.5649 27.5912 28.7042 27.4854 28.8553C27.3877 29.0065 27.3389 29.1617 27.3389 29.3208Z"/><path d="M33.1907 28.5928V22.6733H34.5702L34.6923 23.6758C34.8795 23.3257 35.1481 23.0473 35.498 22.8404C35.8562 22.6335 36.2753 22.5301 36.7555 22.5301C37.5043 22.5301 38.0862 22.7608 38.5013 23.2223C38.9163 23.6838 39.1239 24.36 39.1239 25.2511V28.5928H37.5612V25.3944C37.5612 24.8852 37.4554 24.4953 37.2438 24.2248C37.0322 23.9543 36.7026 23.819 36.255 23.819C35.8155 23.819 35.4533 23.9702 35.1684 24.2725C34.8917 24.5749 34.7533 24.9965 34.7533 25.5376V28.5928H33.1907Z"/></mask><path fill="#fff" d="M14.6456 28.736C14.0758 28.736 13.5672 28.6007 13.1195 28.3302C12.6719 28.0597 12.3179 27.6898 12.0574 27.2203C11.797 26.7509 11.6667 26.2178 11.6667 25.6211C11.6667 25.0244 11.797 24.4953 12.0574 24.0338C12.3179 23.5644 12.6719 23.1984 13.1195 22.9359C13.5672 22.6654 14.0758 22.5301 14.6456 22.5301C15.1013 22.5301 15.5001 22.6136 15.842 22.7807C16.1838 22.9478 16.4605 23.1825 16.6721 23.4849V20H18.2348V28.5928H16.843L16.6721 27.7454C16.4768 28.008 16.2163 28.2387 15.8908 28.4376C15.5734 28.6365 15.1583 28.736 14.6456 28.736ZM14.9752 27.3993C15.4798 27.3993 15.8908 27.2362 16.2082 26.91C16.5338 26.5759 16.6965 26.1502 16.6965 25.633C16.6965 25.1159 16.5338 24.6942 16.2082 24.368C15.8908 24.0338 15.4798 23.8668 14.9752 23.8668C14.4787 23.8668 14.0677 24.0299 13.7421 24.3561C13.4166 24.6823 13.2538 25.104 13.2538 25.6211C13.2538 26.1383 13.4166 26.5639 13.7421 26.8981C14.0677 27.2323 14.4787 27.3993 14.9752 27.3993Z"/><path fill="#fff" d="M22.3287 28.736C21.7916 28.736 21.3195 28.6525 20.9126 28.4854C20.5056 28.3103 20.1801 28.0717 19.9359 27.7693C19.6917 27.467 19.5452 27.1169 19.4964 26.7191H21.0713C21.1201 26.9498 21.2503 27.1487 21.4619 27.3158C21.6817 27.4749 21.9625 27.5545 22.3043 27.5545C22.6461 27.5545 22.8944 27.4869 23.049 27.3516C23.2118 27.2164 23.2932 27.0612 23.2932 26.8862C23.2932 26.6316 23.1792 26.4605 22.9513 26.373C22.7235 26.2775 22.406 26.186 21.9991 26.0985C21.7387 26.0428 21.4741 25.9752 21.2056 25.8956C20.937 25.816 20.6887 25.7166 20.4609 25.5972C20.2411 25.4699 20.0621 25.3108 19.9237 25.1199C19.7853 24.921 19.7162 24.6783 19.7162 24.3919C19.7162 23.8668 19.9278 23.4252 20.351 23.0671C20.7823 22.7091 21.3846 22.5301 22.1578 22.5301C22.874 22.5301 23.4437 22.6932 23.867 23.0194C24.2983 23.3456 24.5547 23.7951 24.6361 24.368H23.1589C23.0694 23.9304 22.7316 23.7116 22.1456 23.7116C21.8526 23.7116 21.6247 23.7673 21.4619 23.8787C21.3073 23.9901 21.23 24.1293 21.23 24.2964C21.23 24.4714 21.348 24.6107 21.584 24.7141C21.82 24.8175 22.1334 24.913 22.5241 25.0005C22.9473 25.096 23.3339 25.2034 23.6838 25.3228C24.0419 25.4341 24.3268 25.6052 24.5384 25.8359C24.75 26.0587 24.8558 26.3809 24.8558 26.8026C24.864 27.1686 24.7663 27.4988 24.5628 27.7932C24.3594 28.0876 24.0664 28.3183 23.6838 28.4854C23.3013 28.6525 22.8496 28.736 22.3287 28.736Z"/><path fill="#fff" d="M28.8038 26.8265C28.5108 26.8265 28.2382 26.7947 27.9859 26.731L27.5342 27.1726C27.6725 27.2442 27.8597 27.3039 28.0958 27.3516C28.3318 27.3993 28.7143 27.4471 29.2433 27.4948C30.0491 27.5664 30.6351 27.7534 31.0013 28.0557C31.3676 28.3581 31.5507 28.7758 31.5507 29.3089C31.5507 29.6589 31.453 29.9891 31.2577 30.2994C31.0624 30.6177 30.7612 30.8723 30.3543 31.0632C29.9473 31.2621 29.4265 31.3616 28.7916 31.3616C27.9289 31.3616 27.2331 31.2024 26.704 30.8842C26.175 30.5739 25.9105 30.1045 25.9105 29.4759C25.9105 28.9429 26.175 28.4814 26.704 28.0915C26.5413 28.0199 26.3988 27.9444 26.2767 27.8648C26.1628 27.7852 26.0611 27.7017 25.9715 27.6142V27.3397L27.0337 26.2417C26.5616 25.8359 26.3256 25.3148 26.3256 24.6783C26.3256 24.2805 26.4232 23.9185 26.6186 23.5923C26.822 23.2661 27.1069 23.0075 27.4731 22.8165C27.8394 22.6256 28.283 22.5301 28.8038 22.5301C29.1457 22.5301 29.4631 22.5778 29.7561 22.6733H32.0512V23.6042L31.0135 23.6758C31.1763 23.9781 31.2577 24.3123 31.2577 24.6783C31.2577 25.0761 31.16 25.4381 30.9647 25.7643C30.7694 26.0905 30.4845 26.3491 30.1101 26.5401C29.7439 26.731 29.3085 26.8265 28.8038 26.8265ZM28.8038 25.6569C29.1213 25.6569 29.3817 25.5734 29.5852 25.4063C29.7968 25.2392 29.9026 25.0005 29.9026 24.6902C29.9026 24.3799 29.7968 24.1412 29.5852 23.9742C29.3817 23.8071 29.1213 23.7235 28.8038 23.7235C28.4702 23.7235 28.2016 23.8071 27.9981 23.9742C27.7946 24.1412 27.6929 24.3799 27.6929 24.6902C27.6929 25.0005 27.7946 25.2392 27.9981 25.4063C28.2016 25.5734 28.4702 25.6569 28.8038 25.6569ZM27.3389 29.3208C27.3389 29.6152 27.4772 29.834 27.7539 29.9772C28.0388 30.1284 28.3847 30.2039 28.7916 30.2039C29.1823 30.2039 29.4997 30.1244 29.7439 29.9652C29.988 29.8141 30.1101 29.6072 30.1101 29.3447C30.1101 29.1298 30.0287 28.9508 29.866 28.8076C29.7113 28.6644 29.398 28.5769 28.9259 28.5451C28.5922 28.5212 28.283 28.4854 27.9981 28.4376C27.7621 28.5649 27.5912 28.7042 27.4854 28.8553C27.3877 29.0065 27.3389 29.1617 27.3389 29.3208Z"/><path fill="#fff" d="M33.1907 28.5928V22.6733H34.5702L34.6923 23.6758C34.8795 23.3257 35.1481 23.0473 35.498 22.8404C35.8562 22.6335 36.2753 22.5301 36.7555 22.5301C37.5043 22.5301 38.0862 22.7608 38.5013 23.2223C38.9163 23.6838 39.1239 24.36 39.1239 25.2511V28.5928H37.5612V25.3944C37.5612 24.8852 37.4554 24.4953 37.2438 24.2248C37.0322 23.9543 36.7026 23.819 36.255 23.819C35.8155 23.819 35.4533 23.9702 35.1684 24.2725C34.8917 24.5749 34.7533 24.9965 34.7533 25.5376V28.5928H33.1907Z"/><path stroke="#E981A0" stroke-width="2" d="M14.6456 28.736C14.0758 28.736 13.5672 28.6007 13.1195 28.3302C12.6719 28.0597 12.3179 27.6898 12.0574 27.2203C11.797 26.7509 11.6667 26.2178 11.6667 25.6211C11.6667 25.0244 11.797 24.4953 12.0574 24.0338C12.3179 23.5644 12.6719 23.1984 13.1195 22.9359C13.5672 22.6654 14.0758 22.5301 14.6456 22.5301C15.1013 22.5301 15.5001 22.6136 15.842 22.7807C16.1838 22.9478 16.4605 23.1825 16.6721 23.4849V20H18.2348V28.5928H16.843L16.6721 27.7454C16.4768 28.008 16.2163 28.2387 15.8908 28.4376C15.5734 28.6365 15.1583 28.736 14.6456 28.736ZM14.9752 27.3993C15.4798 27.3993 15.8908 27.2362 16.2082 26.91C16.5338 26.5759 16.6965 26.1502 16.6965 25.633C16.6965 25.1159 16.5338 24.6942 16.2082 24.368C15.8908 24.0338 15.4798 23.8668 14.9752 23.8668C14.4787 23.8668 14.0677 24.0299 13.7421 24.3561C13.4166 24.6823 13.2538 25.104 13.2538 25.6211C13.2538 26.1383 13.4166 26.5639 13.7421 26.8981C14.0677 27.2323 14.4787 27.3993 14.9752 27.3993Z" mask="url(#path-2-outside-1)"/><path stroke="#E981A0" stroke-width="2" d="M22.3287 28.736C21.7916 28.736 21.3195 28.6525 20.9126 28.4854C20.5056 28.3103 20.1801 28.0717 19.9359 27.7693C19.6917 27.467 19.5452 27.1169 19.4964 26.7191H21.0713C21.1201 26.9498 21.2503 27.1487 21.4619 27.3158C21.6817 27.4749 21.9625 27.5545 22.3043 27.5545C22.6461 27.5545 22.8944 27.4869 23.049 27.3516C23.2118 27.2164 23.2932 27.0612 23.2932 26.8862C23.2932 26.6316 23.1792 26.4605 22.9513 26.373C22.7235 26.2775 22.406 26.186 21.9991 26.0985C21.7387 26.0428 21.4741 25.9752 21.2056 25.8956C20.937 25.816 20.6887 25.7166 20.4609 25.5972C20.2411 25.4699 20.0621 25.3108 19.9237 25.1199C19.7853 24.921 19.7162 24.6783 19.7162 24.3919C19.7162 23.8668 19.9278 23.4252 20.351 23.0671C20.7823 22.7091 21.3846 22.5301 22.1578 22.5301C22.874 22.5301 23.4437 22.6932 23.867 23.0194C24.2983 23.3456 24.5547 23.7951 24.6361 24.368H23.1589C23.0694 23.9304 22.7316 23.7116 22.1456 23.7116C21.8526 23.7116 21.6247 23.7673 21.4619 23.8787C21.3073 23.9901 21.23 24.1293 21.23 24.2964C21.23 24.4714 21.348 24.6107 21.584 24.7141C21.82 24.8175 22.1334 24.913 22.5241 25.0005C22.9473 25.096 23.3339 25.2034 23.6838 25.3228C24.0419 25.4341 24.3268 25.6052 24.5384 25.8359C24.75 26.0587 24.8558 26.3809 24.8558 26.8026C24.864 27.1686 24.7663 27.4988 24.5628 27.7932C24.3594 28.0876 24.0664 28.3183 23.6838 28.4854C23.3013 28.6525 22.8496 28.736 22.3287 28.736Z" mask="url(#path-2-outside-1)"/><path stroke="#E981A0" stroke-width="2" d="M28.8038 26.8265C28.5108 26.8265 28.2382 26.7947 27.9859 26.731L27.5342 27.1726C27.6725 27.2442 27.8597 27.3039 28.0958 27.3516C28.3318 27.3993 28.7143 27.4471 29.2433 27.4948C30.0491 27.5664 30.6351 27.7534 31.0013 28.0557C31.3676 28.3581 31.5507 28.7758 31.5507 29.3089C31.5507 29.6589 31.453 29.9891 31.2577 30.2994C31.0624 30.6177 30.7612 30.8723 30.3543 31.0632C29.9473 31.2621 29.4265 31.3616 28.7916 31.3616C27.9289 31.3616 27.2331 31.2024 26.704 30.8842C26.175 30.5739 25.9105 30.1045 25.9105 29.4759C25.9105 28.9429 26.175 28.4814 26.704 28.0915C26.5413 28.0199 26.3988 27.9444 26.2767 27.8648C26.1628 27.7852 26.0611 27.7017 25.9715 27.6142V27.3397L27.0337 26.2417C26.5616 25.8359 26.3256 25.3148 26.3256 24.6783C26.3256 24.2805 26.4232 23.9185 26.6186 23.5923C26.822 23.2661 27.1069 23.0075 27.4731 22.8165C27.8394 22.6256 28.283 22.5301 28.8038 22.5301C29.1457 22.5301 29.4631 22.5778 29.7561 22.6733H32.0512V23.6042L31.0135 23.6758C31.1763 23.9781 31.2577 24.3123 31.2577 24.6783C31.2577 25.0761 31.16 25.4381 30.9647 25.7643C30.7694 26.0905 30.4845 26.3491 30.1101 26.5401C29.7439 26.731 29.3085 26.8265 28.8038 26.8265ZM28.8038 25.6569C29.1213 25.6569 29.3817 25.5734 29.5852 25.4063C29.7968 25.2392 29.9026 25.0005 29.9026 24.6902C29.9026 24.3799 29.7968 24.1412 29.5852 23.9742C29.3817 23.8071 29.1213 23.7235 28.8038 23.7235C28.4702 23.7235 28.2016 23.8071 27.9981 23.9742C27.7946 24.1412 27.6929 24.3799 27.6929 24.6902C27.6929 25.0005 27.7946 25.2392 27.9981 25.4063C28.2016 25.5734 28.4702 25.6569 28.8038 25.6569ZM27.3389 29.3208C27.3389 29.6152 27.4772 29.834 27.7539 29.9772C28.0388 30.1284 28.3847 30.2039 28.7916 30.2039C29.1823 30.2039 29.4997 30.1244 29.7439 29.9652C29.988 29.8141 30.1101 29.6072 30.1101 29.3447C30.1101 29.1298 30.0287 28.9508 29.866 28.8076C29.7113 28.6644 29.398 28.5769 28.9259 28.5451C28.5922 28.5212 28.283 28.4854 27.9981 28.4376C27.7621 28.5649 27.5912 28.7042 27.4854 28.8553C27.3877 29.0065 27.3389 29.1617 27.3389 29.3208Z" mask="url(#path-2-outside-1)"/><path stroke="#E981A0" stroke-width="2" d="M33.1907 28.5928V22.6733H34.5702L34.6923 23.6758C34.8795 23.3257 35.1481 23.0473 35.498 22.8404C35.8562 22.6335 36.2753 22.5301 36.7555 22.5301C37.5043 22.5301 38.0862 22.7608 38.5013 23.2223C38.9163 23.6838 39.1239 24.36 39.1239 25.2511V28.5928H37.5612V25.3944C37.5612 24.8852 37.4554 24.4953 37.2438 24.2248C37.0322 23.9543 36.7026 23.819 36.255 23.819C35.8155 23.819 35.4533 23.9702 35.1684 24.2725C34.8917 24.5749 34.7533 24.9965 34.7533 25.5376V28.5928H33.1907Z" mask="url(#path-2-outside-1)"/></svg>