<svg xmlns="http://www.w3.org/2000/svg" width="50" height="50" fill="none" viewBox="0 0 50 50"><path fill="#FEEEDD" stroke="#F9A857" d="M3.11429 28.1143C1.39431 26.3943 1.39432 23.6057 3.11429 21.8857L21.8857 3.11429C23.6057 1.39431 26.3943 1.39431 28.1143 3.11429L46.8857 21.8857C48.6057 23.6057 48.6057 26.3943 46.8857 28.1143L28.1143 46.8857C26.3943 48.6057 23.6057 48.6057 21.8857 46.8857L3.11429 28.1143Z"/><path fill="#fff" stroke="#F9A857" d="M11.0012 28.7484V29.2484H11.5012H13.0797H13.5797V28.7484V25.5914C13.5797 25.1192 13.6994 24.8196 13.8768 24.6255C14.0745 24.418 14.3109 24.3156 14.6212 24.3156C14.9673 24.3156 15.1211 24.4171 15.2049 24.5311L15.2049 24.5311L15.2106 24.5386C15.3318 24.6972 15.4284 24.9752 15.4284 25.4434V28.7484V29.2484H15.9284H17.4946H17.9946V28.7484V25.2954C17.9946 24.3079 17.7706 23.4722 17.2427 22.8707C16.7176 22.2628 15.9833 21.9838 15.1145 21.9838C14.5879 21.9838 14.1 22.0992 13.664 22.3421C13.6355 22.3578 13.6074 22.3738 13.5797 22.3903V19.8694V19.3694H13.0797H11.5012H11.0012V19.8694V28.7484ZM19.5899 29.0948L19.5899 29.0948L19.5987 29.0991C20.0258 29.3075 20.5393 29.3964 21.1127 29.3964C21.6888 29.3964 22.2082 29.2758 22.6332 28.9934C22.6856 28.9593 22.7365 28.9238 22.786 28.887L22.8402 29.2484H23.2708H24.615H25.115V28.7484V24.9871C25.115 24.0767 24.8234 23.3096 24.1907 22.7599C23.573 22.2232 22.757 21.9838 21.8033 21.9838C21.2351 21.9838 20.7061 22.0845 20.2246 22.2957C19.7429 22.4987 19.3379 22.7981 19.0205 23.195L19.0204 23.1949L19.0157 23.201C18.6984 23.6105 18.5183 24.0888 18.4691 24.6204L18.4185 25.1665H18.967H19.3204C19.2699 25.2006 19.2209 25.2365 19.1734 25.2743C18.6104 25.7226 18.319 26.3269 18.319 27.0466C18.319 27.4691 18.4232 27.8655 18.6347 28.225C18.8548 28.5993 19.1828 28.8862 19.5899 29.0948ZM22.3241 26.6217C22.2716 26.7213 22.2099 26.8114 22.1397 26.893L22.1396 26.8929L22.1345 26.8991C21.9997 27.0608 21.8028 27.1632 21.4704 27.1632C21.2462 27.1632 21.1207 27.1135 21.0492 27.0615L20.7897 27.4183L21.0492 27.0615C21.0074 27.0311 20.9838 27.0018 20.9838 26.9109C20.9838 26.8478 20.9999 26.8018 21.0717 26.743L21.0718 26.7431L21.0819 26.7344C21.1248 26.6973 21.2741 26.6217 21.6553 26.6217H22.3241ZM22.3601 24.4474C22.4056 24.4851 22.452 24.5421 22.4858 24.6351H21.4827C21.3279 24.6351 21.1769 24.6401 21.0302 24.6505C21.0699 24.546 21.1322 24.4775 21.2161 24.4254L21.2162 24.4255L21.2264 24.4188C21.3735 24.3225 21.5551 24.2663 21.791 24.2663C22.0456 24.2663 22.224 24.3348 22.3601 24.4474ZM25.8946 27.599L25.8946 27.599L25.8978 27.6045C26.2208 28.165 26.6624 28.6078 27.2183 28.924C27.7804 29.2438 28.4187 29.3964 29.118 29.3964C29.9934 29.3964 30.7644 29.1593 31.3997 28.6608C32.03 28.1663 32.4321 27.5074 32.6036 26.7074L32.7332 26.1026H32.1147H30.4498H30.067L29.9672 26.4722C29.9144 26.6675 29.8184 26.7967 29.6792 26.8895L29.6792 26.8895L29.6727 26.8939C29.5287 26.9932 29.3473 27.0522 29.1057 27.0522C28.8137 27.0522 28.5754 26.9492 28.3628 26.7194C28.1675 26.5082 28.0395 26.1872 28.0395 25.6901C28.0395 25.193 28.1675 24.8719 28.3628 24.6607C28.5754 24.4309 28.8137 24.3279 29.1057 24.3279C29.3421 24.3279 29.5201 24.3882 29.6633 24.4919L29.6712 24.4976L29.6792 24.5029C29.8222 24.5983 29.9167 24.7263 29.9681 24.9113L30.0698 25.2775H30.4498H32.1147H32.7287L32.6043 24.6762C32.4343 23.8546 32.0334 23.1853 31.394 22.7025C30.7592 22.2149 29.9902 21.9838 29.118 21.9838C28.4187 21.9838 27.7804 22.1363 27.2183 22.4561C26.6624 22.7724 26.2208 23.2151 25.8978 23.7756L25.8977 23.7756L25.8946 23.7812C25.5766 24.3497 25.424 24.9906 25.424 25.6901C25.424 26.3895 25.5766 27.0304 25.8946 27.599ZM33.0157 28.7484V29.2484H33.5157H35.0942H35.5942V28.7484V27.0932L37.1838 29.0625L37.3339 29.2484H37.5729H39.546H40.6471L39.9225 28.4193L37.3037 25.4233L39.511 22.9659L40.2603 22.1317H39.1391H37.2646H37.0378L36.8884 22.3024L35.5942 23.7805V19.8694V19.3694H35.0942H33.5157H33.0157V19.8694V28.7484Z"/></svg>