<svg width="661" height="661" viewBox="0 0 661 661" fill="none" xmlns="http://www.w3.org/2000/svg">
<path d="M210.066 284.315C222.339 284.315 231.453 287.353 237.409 293.43C243.365 299.506 246.343 308.74 246.343 321.134V365.17C246.343 368.418 245.38 370.976 243.455 372.841C241.53 374.705 238.883 375.638 235.513 375.638C232.386 375.638 229.829 374.675 227.843 372.75C225.859 370.826 224.866 368.298 224.866 365.17V361.2C222.82 365.892 219.602 369.561 215.21 372.209C210.819 374.856 205.735 376.18 199.96 376.18C194.064 376.18 188.709 374.977 183.897 372.57C179.084 370.164 175.294 366.855 172.526 362.643C169.759 358.432 168.375 353.74 168.375 348.566C168.375 342.069 170.03 336.955 173.339 333.226C176.647 329.495 182.032 326.788 189.492 325.103C196.952 323.42 207.238 322.577 220.353 322.577H224.866V318.426C224.866 312.531 223.602 308.229 221.075 305.522C218.549 302.815 214.458 301.461 208.803 301.461C205.314 301.461 201.764 301.972 198.155 302.995C194.545 304.018 190.274 305.491 185.34 307.417C182.212 308.981 179.926 309.763 178.483 309.763C176.317 309.763 174.542 308.981 173.158 307.417C171.774 305.852 171.083 303.807 171.083 301.28C171.083 299.235 171.594 297.461 172.616 295.956C173.639 294.452 175.354 293.038 177.76 291.715C181.972 289.429 186.995 287.625 192.83 286.3C198.666 284.977 204.411 284.315 210.066 284.315ZM204.472 359.937C210.487 359.937 215.39 357.921 219.18 353.89C222.971 349.859 224.866 344.655 224.866 338.278V334.489H221.617C213.555 334.489 207.298 334.849 202.847 335.572C198.395 336.294 195.207 337.557 193.281 339.361C191.357 341.166 190.394 343.633 190.394 346.761C190.394 350.612 191.748 353.77 194.454 356.236C197.162 358.703 200.501 359.937 204.472 359.937Z" fill="white"/>
<path d="M308.408 376.18C299.624 376.18 291.894 374.315 285.216 370.584C278.538 366.855 273.395 361.561 269.785 354.703C266.175 347.844 264.37 339.843 264.37 330.698C264.37 321.554 266.266 313.462 270.056 306.424C273.846 299.385 279.17 293.94 286.028 290.091C292.887 286.24 300.767 284.315 309.671 284.315C314.364 284.315 319.086 284.977 323.838 286.3C328.592 287.625 332.773 289.429 336.382 291.715C340.233 294.242 342.157 297.431 342.157 301.28C342.157 303.928 341.526 306.063 340.263 307.687C338.999 309.312 337.345 310.124 335.299 310.124C333.976 310.124 332.592 309.823 331.148 309.222C329.705 308.62 328.26 307.898 326.817 307.056C324.17 305.491 321.643 304.258 319.236 303.356C316.83 302.453 314.062 302.002 310.934 302.002C303.475 302.002 297.729 304.439 293.698 309.312C289.668 314.185 287.653 321.194 287.653 330.338C287.653 339.361 289.668 346.31 293.698 351.183C297.729 356.056 303.475 358.492 310.934 358.492C313.942 358.492 316.62 358.042 318.966 357.139C321.312 356.236 323.929 355.003 326.817 353.44C328.622 352.357 330.185 351.544 331.509 351.002C332.833 350.461 334.156 350.191 335.48 350.191C337.405 350.191 339.029 351.032 340.353 352.717C341.676 354.401 342.338 356.507 342.338 359.034C342.338 361.08 341.887 362.854 340.984 364.358C340.082 365.862 338.608 367.215 336.562 368.418C332.833 370.826 328.501 372.72 323.568 374.104C318.635 375.488 313.582 376.18 308.408 376.18Z" fill="white"/>
<path d="M462.606 284.315C472.232 284.315 479.601 287.173 484.715 292.888C489.828 298.604 492.386 307.838 492.386 320.592V364.99C492.386 368.479 491.333 371.156 489.227 373.021C487.121 374.886 484.384 375.818 481.015 375.818C477.766 375.818 475.09 374.886 472.984 373.021C470.878 371.156 469.826 368.479 469.826 364.99V320.592C469.826 313.974 468.652 309.252 466.306 306.424C463.959 303.596 460.38 302.183 455.568 302.183C449.672 302.183 444.979 304.198 441.49 308.229C438 312.259 436.256 317.764 436.256 324.743V364.99C436.256 368.479 435.204 371.156 433.098 373.021C430.992 374.886 428.315 375.818 425.066 375.818C421.817 375.818 419.111 374.886 416.945 373.021C414.779 371.156 413.696 368.479 413.696 364.99V320.592C413.696 313.974 412.523 309.252 410.177 306.424C407.83 303.596 404.251 302.183 399.439 302.183C393.542 302.183 388.88 304.198 385.451 308.229C382.022 312.259 380.307 317.764 380.307 324.743V364.99C380.307 368.479 379.225 371.156 377.059 373.021C374.893 374.886 372.185 375.818 368.937 375.818C365.688 375.818 363.011 374.886 360.906 373.021C358.8 371.156 357.747 368.479 357.747 364.99V295.144C357.747 291.775 358.83 289.188 360.996 287.383C363.162 285.579 365.869 284.676 369.118 284.676C372.245 284.676 374.803 285.549 376.788 287.293C378.774 289.038 379.766 291.534 379.766 294.783V299.114C382.533 294.302 386.233 290.632 390.866 288.105C395.498 285.579 400.822 284.315 406.837 284.315C420.073 284.315 428.917 289.85 433.368 300.92C436.016 295.866 439.926 291.835 445.1 288.828C450.274 285.819 456.109 284.315 462.606 284.315Z" fill="white"/>
<path d="M330.911 28.9124C348.742 29.0708 366.392 36.3557 379.153 48.8734C456.964 126.189 534.28 203.999 611.843 281.562C631.804 301.645 637.76 334.406 625.307 360.422C621.997 367.337 617.507 373.671 612.124 379.159C534.805 456.965 456.998 534.286 379.435 611.849C359.341 631.817 326.593 637.766 300.576 625.312C293.658 622 287.333 617.518 281.838 612.127C204.039 534.802 126.712 457.003 49.149 379.44C29.1021 359.264 23.3005 326.455 35.6876 300.58C38.9996 293.661 43.4787 287.34 48.8706 281.843C126.193 204.041 203.995 126.717 281.558 49.155C294.161 36.6303 311.733 29.1832 329.668 28.9156C330.083 28.9124 330.497 28.9111 330.911 28.9124ZM330.445 89.8365C328.297 89.8561 326.181 90.7227 324.646 92.2282C246.957 169.437 169.747 247.127 92.2979 324.576C89.1822 327.692 89.1399 333.208 92.2253 336.354C169.427 414.049 247.124 491.253 324.572 568.701C327.706 571.835 333.205 571.857 336.349 568.774C414.041 491.569 491.246 413.876 568.696 336.427C571.789 333.333 571.852 327.792 568.771 324.652C491.559 246.966 413.872 169.753 336.423 92.3033C334.839 90.7196 332.637 89.8302 330.445 89.8365Z" fill="white"/>
</svg>

