<svg width="669" height="628" viewBox="0 0 669 628" fill="none" xmlns="http://www.w3.org/2000/svg">
<path d="M239.4 398.4L240.428 397.308L239.4 398.4ZM239.2 493L238.203 491.879L238.188 491.893L238.172 491.908L239.2 493ZM221.6 493.2L222.626 492.106L222.626 492.106L221.6 493.2ZM218.4 480H219.9V474.382L217.1 479.252L218.4 480ZM206 492.4L206.711 493.721L206.724 493.714L206.737 493.706L206 492.4ZM155.8 398.4L156.828 399.492L156.828 399.492L155.8 398.4ZM174 398.4L172.972 399.492L172.972 399.492L174 398.4ZM181.6 471.8L180.451 472.765L180.451 472.765L181.6 471.8ZM211.4 470L210.293 468.988L210.292 468.989L211.4 470ZM230.2 396.7C233.782 396.7 236.447 397.681 238.372 399.492L240.428 397.308C237.82 394.853 234.352 393.7 230.2 393.7V396.7ZM238.372 399.492C240.29 401.297 241.3 403.743 241.3 407H244.3C244.3 403.057 243.044 399.77 240.428 397.308L238.372 399.492ZM241.3 407V484.6H244.3V407H241.3ZM241.3 484.6C241.3 487.677 240.256 490.055 238.203 491.879L240.197 494.121C242.944 491.679 244.3 488.457 244.3 484.6H241.3ZM238.172 491.908C236.237 493.729 233.632 494.7 230.2 494.7V497.7C234.235 497.7 237.629 496.538 240.228 494.092L238.172 491.908ZM230.2 494.7C226.889 494.7 224.42 493.788 222.626 492.106L220.574 494.294C223.046 496.612 226.311 497.7 230.2 497.7V494.7ZM222.626 492.106C220.851 490.442 219.9 488.136 219.9 485H216.9C216.9 488.798 218.082 491.958 220.574 494.294L222.626 492.106ZM219.9 485V480H216.9V485H219.9ZM217.1 479.252C214.163 484.36 210.221 488.297 205.263 491.094L206.737 493.706C212.179 490.637 216.504 486.307 219.7 480.748L217.1 479.252ZM205.289 491.079C200.33 493.749 194.712 495.1 188.4 495.1V498.1C195.155 498.1 201.27 496.651 206.711 493.721L205.289 491.079ZM188.4 495.1C176.679 495.1 168.149 491.82 162.52 485.502C156.861 479.152 153.9 469.475 153.9 456.2H150.9C150.9 469.858 153.939 480.382 160.28 487.498C166.651 494.647 176.121 498.1 188.4 498.1V495.1ZM153.9 456.2V407H150.9V456.2H153.9ZM153.9 407C153.9 403.743 154.91 401.297 156.828 399.492L154.772 397.308C152.156 399.77 150.9 403.057 150.9 407H153.9ZM156.828 399.492C158.763 397.671 161.368 396.7 164.8 396.7V393.7C160.765 393.7 157.371 394.862 154.772 397.308L156.828 399.492ZM164.8 396.7C168.382 396.7 171.047 397.681 172.972 399.492L175.028 397.308C172.42 394.853 168.952 393.7 164.8 393.7V396.7ZM172.972 399.492C174.89 401.297 175.9 403.743 175.9 407H178.9C178.9 403.057 177.644 399.77 175.028 397.308L172.972 399.492ZM175.9 407V456.4H178.9V407H175.9ZM175.9 456.4C175.9 463.489 177.324 469.041 180.451 472.765L182.749 470.835C180.276 467.892 178.9 463.177 178.9 456.4H175.9ZM180.451 472.765C183.633 476.552 188.533 478.3 194.8 478.3V475.3C189.067 475.3 185.167 473.714 182.749 470.835L180.451 472.765ZM194.8 478.3C202.094 478.3 208.052 475.898 212.508 471.011L210.292 468.989C206.481 473.169 201.372 475.3 194.8 475.3V478.3ZM212.507 471.012C217.076 466.015 219.3 459.495 219.3 451.6H216.3C216.3 458.905 214.258 464.651 210.293 468.988L212.507 471.012ZM219.3 451.6V407H216.3V451.6H219.3ZM219.3 407C219.3 403.743 220.31 401.297 222.228 399.492L220.172 397.308C217.556 399.77 216.3 403.057 216.3 407H219.3ZM222.228 399.492C224.163 397.671 226.768 396.7 230.2 396.7V393.7C226.165 393.7 222.771 394.862 220.172 397.308L222.228 399.492ZM286.42 490.4L285.684 491.707L285.694 491.712L286.42 490.4ZM269.42 472.8L270.748 472.101L270.748 472.101L269.42 472.8ZM269.62 419.4L268.302 418.685L268.297 418.693L269.62 419.4ZM287.42 401.2L288.155 402.508L288.155 402.508L287.42 401.2ZM329.22 397L328.813 398.444L328.823 398.446L329.22 397ZM343.22 403L344.043 401.746L344.033 401.739L344.023 401.733L343.22 403ZM347.42 420.8L346.241 419.873L346.236 419.879L346.231 419.885L347.42 420.8ZM337.42 422.4L336.843 423.785L336.843 423.785L337.42 422.4ZM332.62 420L331.857 421.291L331.865 421.296L332.62 420ZM324.22 416L323.663 417.393L323.694 417.405L323.725 417.416L324.22 416ZM295.82 422.6L294.666 421.642L294.663 421.645L295.82 422.6ZM295.82 469L294.652 469.941L294.664 469.956L294.677 469.971L295.82 469ZM323.82 475.6L324.339 477.008L324.358 477L324.377 476.993L323.82 475.6ZM332.62 471.4L333.335 472.719L333.364 472.703L333.392 472.686L332.62 471.4ZM337.82 468.8L338.333 470.21L338.388 470.19L338.441 470.166L337.82 468.8ZM347.62 470.6L348.8 469.673L348.8 469.673L347.62 470.6ZM348.22 483.6L346.943 482.814L346.934 482.829L346.925 482.844L348.22 483.6ZM343.42 488L342.66 486.707L342.633 486.723L342.607 486.74L343.42 488ZM329.02 494.4L329.409 495.849L329.425 495.844L329.442 495.84L329.02 494.4ZM312.22 495.1C302.705 495.1 294.361 493.082 287.147 489.088L285.694 491.712C293.412 495.985 302.269 498.1 312.22 498.1V495.1ZM287.157 489.093C280.08 485.105 274.616 479.452 270.748 472.101L268.093 473.499C272.224 481.348 278.094 487.429 285.684 491.707L287.157 489.093ZM270.748 472.101C266.88 464.752 264.92 456.134 264.92 446.2H261.92C261.92 456.533 263.961 465.648 268.093 473.499L270.748 472.101ZM264.92 446.2C264.92 436.275 266.943 427.591 270.943 420.107L268.297 418.693C264.031 426.675 261.92 435.859 261.92 446.2H264.92ZM270.939 420.115C275.074 412.49 280.808 406.632 288.155 402.508L286.686 399.892C278.832 404.301 272.7 410.576 268.302 418.685L270.939 420.115ZM288.155 402.508C295.502 398.383 303.976 396.3 313.62 396.3V393.3C303.531 393.3 294.539 395.484 286.686 399.892L288.155 402.508ZM313.62 396.3C318.677 396.3 323.74 397.013 328.813 398.444L329.628 395.556C324.3 394.054 318.963 393.3 313.62 393.3V396.3ZM328.823 398.446C334.036 399.88 338.562 401.825 342.418 404.267L344.023 401.733C339.879 399.108 335.071 397.053 329.618 395.554L328.823 398.446ZM342.397 404.254C346.337 406.84 348.12 409.943 348.12 413.6H351.12C351.12 408.723 348.637 404.76 344.043 401.746L342.397 404.254ZM348.12 413.6C348.12 416.278 347.455 418.328 346.241 419.873L348.6 421.727C350.319 419.538 351.12 416.788 351.12 413.6H348.12ZM346.231 419.885C345.194 421.234 343.841 421.9 342.02 421.9V424.9C344.733 424.9 346.98 423.832 348.609 421.715L346.231 419.885ZM342.02 421.9C340.784 421.9 339.447 421.619 337.997 421.015L336.843 423.785C338.594 424.514 340.323 424.9 342.02 424.9V421.9ZM337.997 421.015C336.463 420.376 334.922 419.606 333.376 418.704L331.865 421.296C333.518 422.26 335.178 423.091 336.843 423.785L337.997 421.015ZM333.383 418.709C330.382 416.935 327.492 415.556 324.716 414.584L323.725 417.416C326.282 418.311 328.992 419.598 331.857 421.291L333.383 418.709ZM324.777 414.607C321.901 413.457 318.639 412.9 315.02 412.9V415.9C318.335 415.9 321.206 416.41 323.663 417.393L324.777 414.607ZM315.02 412.9C306.389 412.9 299.532 415.774 294.666 421.642L296.975 423.558C301.175 418.493 307.118 415.9 315.02 415.9V412.9ZM294.663 421.645C289.959 427.348 287.72 435.476 287.72 445.8H290.72C290.72 435.858 292.882 428.519 296.977 423.555L294.663 421.645ZM287.72 445.8C287.72 456 289.962 464.114 294.652 469.941L296.989 468.059C292.878 462.952 290.72 455.6 290.72 445.8H287.72ZM294.677 469.971C299.548 475.702 306.402 478.5 315.02 478.5V475.5C307.106 475.5 301.159 472.965 296.963 468.029L294.677 469.971ZM315.02 478.5C318.491 478.5 321.606 478.014 324.339 477.008L323.302 474.192C320.968 475.052 318.217 475.5 315.02 475.5V478.5ZM324.377 476.993C327.11 475.9 330.097 474.473 333.335 472.719L331.906 470.081C328.744 471.794 325.864 473.167 323.263 474.207L324.377 476.993ZM333.392 472.686C335.346 471.514 336.989 470.698 338.333 470.21L337.308 467.39C335.719 467.968 333.895 468.886 331.849 470.114L333.392 472.686ZM338.441 470.166C339.732 469.579 340.988 469.3 342.22 469.3V466.3C340.519 466.3 338.842 466.688 337.2 467.434L338.441 470.166ZM342.22 469.3C343.837 469.3 345.222 469.975 346.441 471.527L348.8 469.673C347.085 467.491 344.87 466.3 342.22 466.3V469.3ZM346.441 471.527C347.664 473.084 348.32 475.073 348.32 477.6H351.32C351.32 474.527 350.51 471.85 348.8 469.673L346.441 471.527ZM348.32 477.6C348.32 479.622 347.848 481.343 346.943 482.814L349.498 484.386C350.726 482.39 351.32 480.112 351.32 477.6H348.32ZM346.925 482.844C346.164 484.148 344.793 485.452 342.66 486.707L344.181 489.293C346.581 487.881 348.41 486.252 349.516 484.356L346.925 482.844ZM342.607 486.74C338.612 489.317 333.948 491.395 328.599 492.96L329.442 495.84C335.026 494.205 339.961 492.017 344.234 489.26L342.607 486.74ZM328.632 492.951C323.293 494.383 317.824 495.1 312.22 495.1V498.1C318.083 498.1 323.814 497.35 329.409 495.849L328.632 492.951ZM366.677 488L367.487 486.738L367.465 486.724L367.442 486.71L366.677 488ZM362.477 470.8L363.582 471.814L363.602 471.792L363.622 471.769L362.477 470.8ZM377.277 471.4L376.571 472.724L376.605 472.742L376.64 472.758L377.277 471.4ZM388.877 476L388.435 477.434L388.443 477.436L388.45 477.438L388.877 476ZM415.477 474.8L414.721 473.504L414.709 473.511L414.697 473.519L415.477 474.8ZM418.277 461.6L417.162 462.603L417.188 462.633L417.216 462.661L418.277 461.6ZM411.477 458L410.95 459.404L410.984 459.417L411.019 459.429L411.477 458ZM396.677 454L396.999 452.535L396.986 452.532L396.974 452.53L396.677 454ZM371.077 443.8L370.093 444.933L370.1 444.939L370.108 444.945L371.077 443.8ZM368.677 409.8L369.881 410.694L369.887 410.686L369.893 410.678L368.677 409.8ZM382.877 398.8L383.46 400.182L383.467 400.179L383.475 400.176L382.877 398.8ZM419.877 397L419.469 398.444L419.487 398.449L419.504 398.453L419.877 397ZM433.877 403L433.063 404.26L433.072 404.266L433.082 404.272L433.877 403ZM438.077 420.4L439.222 421.369L439.239 421.348L439.256 421.327L438.077 420.4ZM428.277 422.2L427.606 423.542L427.683 423.58L427.764 423.61L428.277 422.2ZM423.077 419.4L423.812 418.093L423.789 418.08L423.766 418.068L423.077 419.4ZM413.077 415L412.543 416.402L412.572 416.413L412.602 416.423L413.077 415ZM390.877 416.4L390.032 415.161L390.018 415.17L390.005 415.179L390.877 416.4ZM391.077 432.2L390.313 433.491L390.313 433.491L391.077 432.2ZM408.077 437.4L408.383 435.932L408.38 435.931L408.077 437.4ZM429.077 443.8L429.719 442.444L429.719 442.444L429.077 443.8ZM439.877 452.8L438.586 453.565L438.596 453.582L438.607 453.599L439.877 452.8ZM431.877 488.4L431.001 487.182L430.99 487.19L431.877 488.4ZM401.877 495.1C387.528 495.1 376.104 492.268 367.487 486.738L365.866 489.262C375.115 495.198 387.159 498.1 401.877 498.1V495.1ZM367.442 486.71C363.596 484.426 361.777 481.298 361.777 477.2H358.777C358.777 482.436 361.224 486.507 365.911 489.29L367.442 486.71ZM361.777 477.2C361.777 474.819 362.424 473.077 363.582 471.814L361.371 469.786C359.596 471.723 358.777 474.248 358.777 477.2H361.777ZM363.622 471.769C364.824 470.348 366.216 469.7 367.877 469.7V466.7C365.271 466.7 363.062 467.786 361.331 469.831L363.622 471.769ZM367.877 469.7C369.754 469.7 372.612 470.612 376.571 472.724L377.982 470.076C373.941 467.921 370.532 466.7 367.877 466.7V469.7ZM376.64 472.758C380.952 474.78 384.886 476.341 388.435 477.434L389.318 474.566C385.934 473.525 382.134 472.02 377.913 470.042L376.64 472.758ZM388.45 477.438C392.236 478.56 396.925 479.1 402.477 479.1V476.1C397.095 476.1 392.717 475.573 389.303 474.562L388.45 477.438ZM402.477 479.1C408.211 479.1 412.858 478.15 416.256 476.081L414.697 473.519C411.962 475.183 407.942 476.1 402.477 476.1V479.1ZM416.232 476.096C419.831 473.996 421.777 470.935 421.777 467H418.777C418.777 469.732 417.522 471.87 414.721 473.504L416.232 476.096ZM421.777 467C421.777 464.422 421.007 462.209 419.337 460.539L417.216 462.661C418.212 463.657 418.777 465.045 418.777 467H421.777ZM419.392 460.597C417.913 458.954 415.321 457.655 411.934 456.571L411.019 459.429C414.299 460.478 416.24 461.58 417.162 462.603L419.392 460.597ZM412.003 456.596C408.7 455.357 403.681 454.005 396.999 452.535L396.354 455.465C403.006 456.928 407.854 458.243 410.95 459.404L412.003 456.596ZM396.974 452.53C385.19 450.146 376.955 446.809 372.045 442.655L370.108 444.945C375.598 449.591 384.43 453.054 396.379 455.47L396.974 452.53ZM372.06 442.667C367.373 438.597 364.977 432.972 364.977 425.6H361.977C361.977 433.694 364.647 440.203 370.093 444.933L372.06 442.667ZM364.977 425.6C364.977 420.052 366.608 415.1 369.881 410.694L367.472 408.906C363.812 413.833 361.977 419.414 361.977 425.6H364.977ZM369.893 410.678C373.183 406.123 377.687 402.619 383.46 400.182L382.293 397.418C376.066 400.047 371.104 403.877 367.461 408.922L369.893 410.678ZM383.475 400.176C389.392 397.603 396.117 396.3 403.677 396.3V393.3C395.769 393.3 388.628 394.664 382.278 397.424L383.475 400.176ZM403.677 396.3C409.144 396.3 414.407 397.016 419.469 398.444L420.284 395.556C414.946 394.051 409.409 393.3 403.677 393.3V396.3ZM419.504 398.453C424.562 399.75 429.077 401.689 433.063 404.26L434.69 401.74C430.409 398.978 425.591 396.917 420.249 395.547L419.504 398.453ZM433.082 404.272C436.984 406.711 438.777 409.799 438.777 413.6H441.777C441.777 408.601 439.302 404.622 434.672 401.728L433.082 404.272ZM438.777 413.6C438.777 415.974 438.131 417.903 436.897 419.473L439.256 421.327C440.956 419.163 441.777 416.559 441.777 413.6H438.777ZM436.931 419.431C435.729 420.852 434.337 421.5 432.677 421.5V424.5C435.282 424.5 437.491 423.414 439.222 421.369L436.931 419.431ZM432.677 421.5C431.396 421.5 430.102 421.268 428.789 420.79L427.764 423.61C429.384 424.199 431.024 424.5 432.677 424.5V421.5ZM428.947 420.858C427.645 420.207 425.936 419.287 423.812 418.093L422.341 420.707C424.484 421.913 426.241 422.859 427.606 423.542L428.947 420.858ZM423.766 418.068C419.859 416.047 416.45 414.543 413.551 413.577L412.602 416.423C415.303 417.323 418.561 418.753 422.387 420.732L423.766 418.068ZM413.611 413.598C410.589 412.447 406.928 411.9 402.677 411.9V414.9C406.692 414.9 409.964 415.42 412.543 416.402L413.611 413.598ZM402.677 411.9C397.555 411.9 393.294 412.936 390.032 415.161L391.722 417.639C394.326 415.864 397.931 414.9 402.677 414.9V411.9ZM390.005 415.179C386.807 417.463 385.177 420.653 385.177 424.6H388.177C388.177 421.613 389.346 419.337 391.748 417.621L390.005 415.179ZM385.177 424.6C385.177 428.478 386.936 431.496 390.313 433.491L391.84 430.909C389.351 429.438 388.177 427.389 388.177 424.6H385.177ZM390.313 433.491C393.487 435.367 399.384 437.138 407.773 438.869L408.38 435.931C399.969 434.195 394.532 432.5 391.84 430.909L390.313 433.491ZM407.77 438.868C416.65 440.724 423.52 442.828 428.434 445.156L429.719 442.444C424.5 439.972 417.37 437.809 408.383 435.932L407.77 438.868ZM428.434 445.156C433.321 447.47 436.649 450.296 438.586 453.565L441.167 452.035C438.837 448.104 434.966 444.93 429.719 442.444L428.434 445.156ZM438.607 453.599C440.682 456.895 441.777 461.195 441.777 466.6H444.777C444.777 460.805 443.604 455.905 441.146 452.001L438.607 453.599ZM441.777 466.6C441.777 475.166 438.224 481.987 431.001 487.182L432.752 489.618C440.729 483.88 444.777 476.168 444.777 466.6H441.777ZM430.99 487.19C423.858 492.412 414.202 495.1 401.877 495.1V498.1C414.617 498.1 424.962 495.322 432.763 489.61L430.99 487.19ZM554.347 356.2L553.35 357.321L553.35 357.321L554.347 356.2ZM554.547 492.8L555.575 493.892L555.575 493.892L554.547 492.8ZM536.547 492.8L535.519 493.892L535.519 493.892L536.547 492.8ZM533.147 479.2H534.647L531.825 478.491L533.147 479.2ZM520.347 492L519.626 490.684L519.62 490.688L519.613 490.692L520.347 492ZM478.947 490.2L478.127 491.456L478.138 491.463L478.947 490.2ZM463.547 472.2L462.183 472.824L462.189 472.838L462.196 472.852L463.547 472.2ZM463.547 418.6L462.201 417.939L462.196 417.948L462.191 417.958L463.547 418.6ZM478.947 401L478.145 399.732L478.145 399.732L478.947 401ZM520.347 399.2L519.638 400.522L519.638 400.522L520.347 399.2ZM532.947 411.6L531.633 412.323L534.447 411.6H532.947ZM536.147 356.2L537.173 357.294L537.175 357.292L536.147 356.2ZM526.547 469L525.378 468.059L525.371 468.068L525.364 468.077L526.547 469ZM526.547 422.4L525.364 423.323L525.377 423.339L525.39 423.355L526.547 422.4ZM489.747 422.2L488.59 421.245L488.59 421.245L489.747 422.2ZM489.747 468.8L490.926 467.873L490.926 467.873L489.747 468.8ZM545.147 354.5C548.576 354.5 551.269 355.471 553.35 357.321L555.343 355.079C552.625 352.662 549.184 351.5 545.147 351.5V354.5ZM553.35 357.321C555.402 359.145 556.447 361.523 556.447 364.6H559.447C559.447 360.743 558.091 357.521 555.343 355.079L553.35 357.321ZM556.447 364.6V484.2H559.447V364.6H556.447ZM556.447 484.2C556.447 487.457 555.436 489.903 553.519 491.708L555.575 493.892C558.191 491.43 559.447 488.143 559.447 484.2H556.447ZM553.519 491.708C551.584 493.529 548.979 494.5 545.547 494.5V497.5C549.582 497.5 552.976 496.338 555.575 493.892L553.519 491.708ZM545.547 494.5C542.115 494.5 539.51 493.529 537.575 491.708L535.519 493.892C538.117 496.338 541.512 497.5 545.547 497.5V494.5ZM537.575 491.708C535.657 489.903 534.647 487.457 534.647 484.2H531.647C531.647 488.143 532.903 491.43 535.519 493.892L537.575 491.708ZM534.647 484.2V479.2H531.647V484.2H534.647ZM531.825 478.491C529.033 483.694 524.979 487.753 519.626 490.684L521.067 493.316C526.914 490.114 531.394 485.64 534.469 479.909L531.825 478.491ZM519.613 490.692C514.398 493.617 508.39 495.1 501.547 495.1V498.1C508.837 498.1 515.363 496.516 521.081 493.308L519.613 490.692ZM501.547 495.1C493.415 495.1 486.166 493.039 479.755 488.937L478.138 491.463C485.061 495.894 492.879 498.1 501.547 498.1V495.1ZM479.767 488.944C473.485 484.841 468.525 479.061 464.898 471.548L462.196 472.852C466.036 480.806 471.342 487.025 478.127 491.456L479.767 488.944ZM464.911 471.576C461.415 463.936 459.647 455.154 459.647 445.2H456.647C456.647 455.512 458.479 464.731 462.183 472.824L464.911 471.576ZM459.647 445.2C459.647 435.244 461.415 426.604 464.902 419.242L462.191 417.958C458.479 425.796 456.647 434.889 456.647 445.2H459.647ZM464.893 419.261C468.517 411.885 473.471 406.239 479.749 402.268L478.145 399.732C471.356 404.028 466.044 410.115 462.201 417.939L464.893 419.261ZM479.749 402.268C486.018 398.302 493.267 396.3 501.547 396.3V393.3C492.76 393.3 484.943 395.432 478.145 399.732L479.749 402.268ZM501.547 396.3C508.401 396.3 514.418 397.721 519.638 400.522L521.056 397.878C515.343 394.812 508.826 393.3 501.547 393.3V396.3ZM519.638 400.522C524.854 403.321 528.842 407.249 531.633 412.323L534.261 410.877C531.185 405.285 526.773 400.946 521.056 397.878L519.638 400.522ZM534.447 411.6V364.2H531.447V411.6H534.447ZM534.447 364.2C534.447 361.218 535.385 358.97 537.173 357.294L535.121 355.106C532.642 357.43 531.447 360.516 531.447 364.2H534.447ZM537.175 357.292C539.11 355.471 541.715 354.5 545.147 354.5V351.5C541.112 351.5 537.717 352.662 535.119 355.108L537.175 357.292ZM508.147 478.7C516.529 478.7 523.132 475.813 527.729 469.923L525.364 468.077C521.428 473.121 515.765 475.7 508.147 475.7V478.7ZM527.715 469.941C532.407 464.111 534.647 455.928 534.647 445.6H531.647C531.647 455.539 529.487 462.955 525.378 468.059L527.715 469.941ZM534.647 445.6C534.647 435.276 532.409 427.148 527.704 421.445L525.39 423.355C529.485 428.319 531.647 435.658 531.647 445.6H534.647ZM527.729 421.477C523.138 415.594 516.605 412.7 508.347 412.7V415.7C515.822 415.7 521.423 418.273 525.364 423.323L527.729 421.477ZM508.347 412.7C499.978 412.7 493.321 415.51 488.59 421.245L490.904 423.155C494.972 418.223 500.716 415.7 508.347 415.7V412.7ZM488.59 421.245C483.888 426.945 481.647 435.003 481.647 445.2H484.647C484.647 435.397 486.806 428.122 490.904 423.155L488.59 421.245ZM481.647 445.2C481.647 455.531 483.888 463.771 488.567 469.727L490.926 467.873C486.806 462.629 484.647 455.136 484.647 445.2H481.647ZM488.567 469.727C493.284 475.73 499.875 478.7 508.147 478.7V475.7C500.685 475.7 495.01 473.07 490.926 467.873L488.567 469.727Z" fill="white"/>
<path d="M88.1 152.7C108.5 152.7 123.6 157.8 133.4 168C143.4 178 148.4 193.3 148.4 213.9V287.1C148.4 292.5 146.8 296.8 143.6 300C140.4 303 136 304.5 130.4 304.5C125.2 304.5 120.9 302.9 117.5 299.7C114.3 296.5 112.7 292.3 112.7 287.1V280.5C109.3 288.3 103.9 294.4 96.5 298.8C89.3 303.2 80.9 305.4 71.3 305.4C61.5 305.4 52.6 303.4 44.6 299.4C36.6 295.4 30.3 289.9 25.7 282.9C21.1 275.9 18.8 268.1 18.8 259.5C18.8 248.7 21.5 240.2 26.9 234C32.5 227.8 41.5 223.3 53.9 220.5C66.3 217.7 83.4 216.3 105.2 216.3H112.7V209.4C112.7 199.6 110.6 192.5 106.4 188.1C102.2 183.5 95.4 181.2 86 181.2C80.2 181.2 74.3 182.1 68.3 183.9C62.3 185.5 55.2 187.9 47 191.1C41.8 193.7 38 195 35.6 195C32 195 29 193.7 26.6 191.1C24.4 188.5 23.3 185.1 23.3 180.9C23.3 177.5 24.1 174.6 25.7 172.2C27.5 169.6 30.4 167.2 34.4 165C41.4 161.2 49.7 158.2 59.3 156C69.1 153.8 78.7 152.7 88.1 152.7ZM78.8 278.4C88.8 278.4 96.9 275.1 103.1 268.5C109.5 261.7 112.7 253 112.7 242.4V236.1H107.3C93.9 236.1 83.5 236.7 76.1 237.9C68.7 239.1 63.4 241.2 60.2 244.2C57 247.2 55.4 251.3 55.4 256.5C55.4 262.9 57.6 268.2 62 272.4C66.6 276.4 72.2 278.4 78.8 278.4ZM251.612 305.4C237.012 305.4 224.112 302.3 212.912 296.1C201.912 289.9 193.412 281.1 187.412 269.7C181.412 258.3 178.412 245 178.412 229.8C178.412 214.6 181.512 201.2 187.712 189.6C194.112 177.8 203.012 168.7 214.412 162.3C225.812 155.9 238.912 152.7 253.712 152.7C261.512 152.7 269.312 153.8 277.112 156C285.112 158.2 292.112 161.2 298.112 165C304.512 169.2 307.712 174.5 307.712 180.9C307.712 185.3 306.612 188.9 304.412 191.7C302.412 194.3 299.712 195.6 296.312 195.6C294.112 195.6 291.812 195.1 289.412 194.1C287.012 193.1 284.612 191.9 282.212 190.5C277.812 187.9 273.612 185.9 269.612 184.5C265.612 182.9 261.012 182.1 255.812 182.1C243.412 182.1 233.812 186.2 227.012 194.4C220.412 202.4 217.112 214 217.112 229.2C217.112 244.2 220.412 255.8 227.012 264C233.812 272 243.412 276 255.812 276C260.812 276 265.212 275.3 269.012 273.9C273.012 272.3 277.412 270.2 282.212 267.6C285.212 265.8 287.812 264.5 290.012 263.7C292.212 262.7 294.412 262.2 296.612 262.2C299.812 262.2 302.512 263.6 304.712 266.4C306.912 269.2 308.012 272.7 308.012 276.9C308.012 280.3 307.212 283.3 305.612 285.9C304.212 288.3 301.812 290.5 298.412 292.5C292.212 296.5 285.012 299.7 276.812 302.1C268.612 304.3 260.212 305.4 251.612 305.4ZM507.296 152.7C523.296 152.7 535.496 157.5 543.896 167.1C552.496 176.5 556.796 191.8 556.796 213V286.8C556.796 292.6 554.996 297.1 551.396 300.3C547.996 303.3 543.496 304.8 537.896 304.8C532.496 304.8 527.996 303.3 524.396 300.3C520.996 297.1 519.296 292.6 519.296 286.8V213C519.296 202 517.296 194.2 513.296 189.6C509.496 184.8 503.596 182.4 495.596 182.4C485.796 182.4 477.996 185.8 472.196 192.6C466.396 199.2 463.496 208.3 463.496 219.9V286.8C463.496 292.6 461.696 297.1 458.096 300.3C454.696 303.3 450.296 304.8 444.896 304.8C439.496 304.8 434.996 303.3 431.396 300.3C427.796 297.1 425.996 292.6 425.996 286.8V213C425.996 202 423.996 194.2 419.996 189.6C416.196 184.8 410.296 182.4 402.296 182.4C392.496 182.4 384.696 185.8 378.896 192.6C373.296 199.2 370.496 208.3 370.496 219.9V286.8C370.496 292.6 368.696 297.1 365.096 300.3C361.496 303.3 356.996 304.8 351.596 304.8C346.196 304.8 341.696 303.3 338.096 300.3C334.696 297.1 332.996 292.6 332.996 286.8V170.7C332.996 165.1 334.796 160.8 338.396 157.8C341.996 154.8 346.496 153.3 351.896 153.3C357.096 153.3 361.296 154.8 364.496 157.8C367.896 160.6 369.596 164.7 369.596 170.1V177.3C374.196 169.3 380.296 163.2 387.896 159C395.696 154.8 404.596 152.7 414.596 152.7C436.596 152.7 451.296 161.9 458.696 180.3C463.096 171.9 469.596 165.2 478.196 160.2C486.796 155.2 496.496 152.7 507.296 152.7Z" fill="white" fill-opacity="0.5"/>
<path d="M128.4 168L127.318 169.039L127.329 169.05L127.339 169.061L128.4 168ZM138.6 300L139.626 301.094L139.644 301.078L139.661 301.061L138.6 300ZM112.5 299.7L111.439 300.761L111.455 300.777L111.472 300.792L112.5 299.7ZM107.7 280.5H109.2L106.325 279.901L107.7 280.5ZM91.5 298.8L90.7334 297.511L90.7256 297.515L90.7178 297.52L91.5 298.8ZM39.6 299.4L38.9292 300.742L38.9292 300.742L39.6 299.4ZM20.7 282.9L19.4464 283.724L19.4464 283.724L20.7 282.9ZM21.9 234L20.7868 232.995L20.7778 233.005L20.7689 233.015L21.9 234ZM48.9 220.5L48.5696 219.037L48.5696 219.037L48.9 220.5ZM107.7 216.3V217.8H109.2V216.3H107.7ZM101.4 188.1L100.292 189.111L100.303 189.124L100.315 189.136L101.4 188.1ZM63.3 183.9L63.6865 185.349L63.7089 185.343L63.731 185.337L63.3 183.9ZM42 191.1L41.4547 189.703L41.3907 189.728L41.3292 189.758L42 191.1ZM21.6 191.1L20.4549 192.069L20.4758 192.094L20.4978 192.117L21.6 191.1ZM20.7 172.2L19.4667 171.346L19.4592 171.357L19.4519 171.368L20.7 172.2ZM29.4 165L28.6844 163.682L28.6771 163.686L29.4 165ZM54.3 156L53.9714 154.536L53.9649 154.538L54.3 156ZM98.1 268.5L97.0077 267.472L97.0067 267.473L98.1 268.5ZM107.7 236.1H109.2V234.6H107.7V236.1ZM71.1 237.9L71.3401 239.381L71.3401 239.381L71.1 237.9ZM55.2 244.2L56.2259 245.294L56.2259 245.294L55.2 244.2ZM57 272.4L55.9643 273.485L55.9895 273.509L56.0157 273.532L57 272.4ZM83.1 154.2C103.274 154.2 117.907 159.243 127.318 169.039L129.482 166.961C119.293 156.357 103.726 151.2 83.1 151.2V154.2ZM127.339 169.061C136.951 178.673 141.9 193.516 141.9 213.9H144.9C144.9 193.084 139.849 177.327 129.461 166.939L127.339 169.061ZM141.9 213.9V287.1H144.9V213.9H141.9ZM141.9 287.1C141.9 292.185 140.405 296.074 137.539 298.939L139.661 301.061C143.195 297.526 144.9 292.815 144.9 287.1H141.9ZM137.574 298.906C134.723 301.579 130.728 303 125.4 303V306C131.272 306 136.077 304.421 139.626 301.094L137.574 298.906ZM125.4 303C120.535 303 116.617 301.515 113.528 298.608L111.472 300.792C115.183 304.285 119.865 306 125.4 306V303ZM113.561 298.639C110.684 295.763 109.2 291.966 109.2 287.1H106.2C106.2 292.634 107.916 297.237 111.439 300.761L113.561 298.639ZM109.2 287.1V280.5H106.2V287.1H109.2ZM106.325 279.901C103.052 287.409 97.8668 293.269 90.7334 297.511L92.2666 300.089C99.9333 295.531 105.548 289.191 109.075 281.099L106.325 279.901ZM90.7178 297.52C83.7844 301.757 75.6629 303.9 66.3 303.9V306.9C76.1371 306.9 84.8156 304.643 92.2822 300.08L90.7178 297.52ZM66.3 303.9C56.7102 303.9 48.0432 301.945 40.2708 298.058L38.9292 300.742C47.1568 304.855 56.2898 306.9 66.3 306.9V303.9ZM40.2708 298.058C32.4907 294.168 26.3985 288.84 21.9536 282.076L19.4464 283.724C24.2015 290.96 30.7093 296.632 38.9292 300.742L40.2708 298.058ZM21.9536 282.076C17.5188 275.328 15.3 267.816 15.3 259.5H12.3C12.3 268.384 14.6812 276.472 19.4464 283.724L21.9536 282.076ZM15.3 259.5C15.3 248.947 17.9353 240.836 23.0311 234.985L20.7689 233.015C15.0648 239.564 12.3 248.453 12.3 259.5H15.3ZM23.0132 235.005C28.3232 229.126 36.9845 224.728 49.2304 221.963L48.5696 219.037C36.0155 221.872 26.6768 226.474 20.7868 232.995L23.0132 235.005ZM49.2304 221.963C61.4719 219.199 78.4443 217.8 100.2 217.8V214.8C78.3557 214.8 61.1281 216.201 48.5696 219.037L49.2304 221.963ZM100.2 217.8H107.7V214.8H100.2V217.8ZM109.2 216.3V209.4H106.2V216.3H109.2ZM109.2 209.4C109.2 199.439 107.074 191.872 102.485 187.064L100.315 189.136C104.126 193.128 106.2 199.761 106.2 209.4H109.2ZM102.508 187.089C97.9055 182.048 90.6069 179.7 81 179.7V182.7C90.1931 182.7 96.4945 184.952 100.292 189.111L102.508 187.089ZM81 179.7C75.0428 179.7 68.9977 180.625 62.869 182.463L63.731 185.337C69.6023 183.575 75.3572 182.7 81 182.7V179.7ZM62.9135 182.451C56.8426 184.07 49.6871 186.49 41.4547 189.703L42.5453 192.497C50.7129 189.31 57.7574 186.93 63.6865 185.349L62.9135 182.451ZM41.3292 189.758C38.7651 191.04 36.5799 191.985 34.7645 192.606C32.9304 193.233 31.5606 193.5 30.6 193.5V196.5C32.0394 196.5 33.7696 196.117 35.7355 195.444C37.7201 194.765 40.0349 193.76 42.6708 192.442L41.3292 189.758ZM30.6 193.5C27.4104 193.5 24.8127 192.369 22.7022 190.083L20.4978 192.117C23.1873 195.031 26.5896 196.5 30.6 196.5V193.5ZM22.7451 190.131C20.8241 187.861 19.8 184.831 19.8 180.9H16.8C16.8 185.369 17.9759 189.139 20.4549 192.069L22.7451 190.131ZM19.8 180.9C19.8 177.742 20.5399 175.144 21.9481 173.032L19.4519 171.368C17.6601 174.056 16.8 177.258 16.8 180.9H19.8ZM21.9333 173.054C23.5557 170.71 26.2425 168.449 30.1229 166.314L28.6771 163.686C24.5575 165.951 21.4443 168.49 19.4667 171.346L21.9333 173.054ZM30.1156 166.318C36.9716 162.596 45.1379 159.639 54.6351 157.462L53.9649 154.538C44.2621 156.761 35.8284 159.804 28.6844 163.682L30.1156 166.318ZM54.6286 157.464C64.328 155.286 73.8178 154.2 83.1 154.2V151.2C73.5822 151.2 63.872 152.314 53.9714 154.536L54.6286 157.464ZM73.8 279.9C84.1662 279.9 92.6786 276.462 99.1933 269.527L97.0067 267.473C91.1214 273.738 83.4338 276.9 73.8 276.9V279.9ZM99.1923 269.528C105.89 262.412 109.2 253.326 109.2 242.4H106.2C106.2 252.674 103.11 260.988 97.0077 267.472L99.1923 269.528ZM109.2 242.4V236.1H106.2V242.4H109.2ZM107.7 234.6H102.3V237.6H107.7V234.6ZM102.3 234.6C88.8717 234.6 78.378 235.2 70.8599 236.419L71.3401 239.381C78.622 238.2 88.9283 237.6 102.3 237.6V234.6ZM70.8599 236.419C63.3512 237.637 57.6974 239.803 54.1741 243.106L56.2259 245.294C59.1026 242.597 64.0488 240.563 71.3401 239.381L70.8599 236.419ZM54.1741 243.106C50.6157 246.442 48.9 250.969 48.9 256.5H51.9C51.9 251.631 53.3843 247.958 56.2259 245.294L54.1741 243.106ZM48.9 256.5C48.9 263.286 51.2509 268.986 55.9643 273.485L58.0357 271.315C53.9491 267.414 51.9 262.514 51.9 256.5H48.9ZM56.0157 273.532C60.9122 277.79 66.8706 279.9 73.8 279.9V276.9C67.5294 276.9 62.2879 275.01 57.9843 271.268L56.0157 273.532ZM207.912 296.1L207.175 297.407L207.185 297.412L207.912 296.1ZM182.412 269.7L183.739 269.001L183.739 269.001L182.412 269.7ZM182.712 189.6L181.393 188.885L181.389 188.893L182.712 189.6ZM209.412 162.3L210.146 163.608L210.146 163.608L209.412 162.3ZM272.112 156L271.705 157.444L271.714 157.446L272.112 156ZM293.112 165L293.935 163.746L293.925 163.739L293.914 163.733L293.112 165ZM299.412 191.7L298.232 190.773L298.227 190.779L298.223 190.785L299.412 191.7ZM284.412 194.1L283.835 195.485L283.835 195.485L284.412 194.1ZM277.212 190.5L276.449 191.791L276.456 191.796L277.212 190.5ZM264.612 184.5L264.055 185.893L264.085 185.905L264.116 185.916L264.612 184.5ZM222.012 194.4L220.857 193.442L220.855 193.445L222.012 194.4ZM222.012 264L220.843 264.941L220.856 264.956L220.869 264.971L222.012 264ZM264.012 273.9L264.53 275.308L264.55 275.3L264.569 275.293L264.012 273.9ZM277.212 267.6L277.926 268.919L277.955 268.903L277.983 268.886L277.212 267.6ZM285.012 263.7L285.524 265.11L285.579 265.09L285.632 265.066L285.012 263.7ZM299.712 266.4L300.891 265.473L300.891 265.473L299.712 266.4ZM300.612 285.9L299.334 285.114L299.325 285.129L299.316 285.144L300.612 285.9ZM293.412 292.5L292.651 291.207L292.625 291.223L292.599 291.24L293.412 292.5ZM271.812 302.1L272.2 303.549L272.217 303.544L272.233 303.54L271.812 302.1ZM246.612 303.9C232.23 303.9 219.586 300.848 208.638 294.788L207.185 297.412C218.637 303.752 231.794 306.9 246.612 306.9V303.9ZM208.648 294.793C197.905 288.738 189.608 280.152 183.739 269.001L181.084 270.399C187.216 282.048 195.919 291.062 207.175 297.407L208.648 294.793ZM183.739 269.001C177.871 257.852 174.912 244.8 174.912 229.8H171.912C171.912 245.2 174.952 258.748 181.084 270.399L183.739 269.001ZM174.912 229.8C174.912 214.808 177.968 201.658 184.035 190.307L181.389 188.893C175.056 200.742 171.912 214.392 171.912 229.8H174.912ZM184.03 190.315C190.299 178.757 199 169.866 210.146 163.608L208.677 160.992C197.024 167.534 187.924 176.843 181.393 188.885L184.03 190.315ZM210.146 163.608C221.293 157.35 234.134 154.2 248.712 154.2V151.2C233.689 151.2 220.33 154.45 208.677 160.992L210.146 163.608ZM248.712 154.2C256.369 154.2 264.032 155.28 271.705 157.444L272.519 154.556C264.592 152.32 256.655 151.2 248.712 151.2V154.2ZM271.714 157.446C279.594 159.613 286.453 162.559 292.309 166.267L293.914 163.733C287.77 159.841 280.629 156.787 272.509 154.554L271.714 157.446ZM292.289 166.254C298.362 170.24 301.212 175.11 301.212 180.9H304.212C304.212 173.89 300.662 168.16 293.935 163.746L292.289 166.254ZM301.212 180.9C301.212 185.045 300.179 188.295 298.232 190.773L300.591 192.627C303.044 189.505 304.212 185.555 304.212 180.9H301.212ZM298.223 190.785C296.519 193.001 294.266 194.1 291.312 194.1V197.1C295.158 197.1 298.305 195.599 300.601 192.615L298.223 190.785ZM291.312 194.1C289.342 194.1 287.239 193.653 284.989 192.715L283.835 195.485C286.385 196.547 288.881 197.1 291.312 197.1V194.1ZM284.989 192.715C282.654 191.743 280.314 190.573 277.968 189.204L276.456 191.796C278.91 193.227 281.369 194.457 283.835 195.485L284.989 192.715ZM277.975 189.209C273.507 186.568 269.217 184.523 265.107 183.084L264.116 185.916C268.006 187.277 272.117 189.232 276.449 191.791L277.975 189.209ZM265.169 183.107C260.959 181.423 256.164 180.6 250.812 180.6V183.6C255.859 183.6 260.264 184.377 264.055 185.893L265.169 183.107ZM250.812 180.6C238.047 180.6 227.99 184.841 220.857 193.442L223.166 195.357C229.633 187.559 238.777 183.6 250.812 183.6V180.6ZM220.855 193.445C213.95 201.815 210.612 213.809 210.612 229.2H213.612C213.612 214.191 216.873 202.985 223.169 195.355L220.855 193.445ZM210.612 229.2C210.612 244.4 213.954 256.381 220.843 264.941L223.18 263.059C216.87 255.219 213.612 244 213.612 229.2H210.612ZM220.869 264.971C228.006 273.368 238.06 277.5 250.812 277.5V274.5C238.764 274.5 229.617 270.632 223.155 263.029L220.869 264.971ZM250.812 277.5C255.949 277.5 260.53 276.781 264.53 275.308L263.493 272.492C259.893 273.819 255.675 274.5 250.812 274.5V277.5ZM264.569 275.293C268.635 273.666 273.088 271.54 277.926 268.919L276.497 266.281C271.736 268.86 267.389 270.934 263.455 272.507L264.569 275.293ZM277.983 268.886C280.937 267.114 283.447 265.865 285.524 265.11L284.499 262.29C282.177 263.135 279.486 264.486 276.44 266.314L277.983 268.886ZM285.632 265.066C287.657 264.145 289.646 263.7 291.612 263.7V260.7C289.177 260.7 286.767 261.255 284.391 262.334L285.632 265.066ZM291.612 263.7C294.295 263.7 296.58 264.842 298.532 267.327L300.891 265.473C298.443 262.358 295.328 260.7 291.612 260.7V263.7ZM298.532 267.327C300.489 269.817 301.512 272.973 301.512 276.9H304.512C304.512 272.427 303.335 268.583 300.891 265.473L298.532 267.327ZM301.512 276.9C301.512 280.055 300.773 282.776 299.334 285.114L301.889 286.686C303.651 283.824 304.512 280.545 304.512 276.9H301.512ZM299.316 285.144C298.089 287.248 295.917 289.286 292.651 291.207L294.172 293.793C297.706 291.714 300.335 289.352 301.907 286.656L299.316 285.144ZM292.599 291.24C286.537 295.15 279.473 298.295 271.39 300.66L272.233 303.54C280.55 301.105 287.886 297.85 294.225 293.76L292.599 291.24ZM271.423 300.651C263.351 302.817 255.082 303.9 246.612 303.9V306.9C255.341 306.9 263.872 305.783 272.2 303.549L271.423 300.651ZM538.896 167.1L537.767 168.088L537.778 168.1L537.789 168.113L538.896 167.1ZM546.396 300.3L547.389 301.425L547.393 301.421L546.396 300.3ZM519.396 300.3L518.368 301.392L518.401 301.423L518.436 301.452L519.396 300.3ZM508.296 189.6L507.12 190.531L507.141 190.558L507.164 190.584L508.296 189.6ZM467.196 192.6L468.323 193.59L468.33 193.582L468.337 193.573L467.196 192.6ZM453.096 300.3L454.089 301.425L454.093 301.421L453.096 300.3ZM426.396 300.3L425.4 301.421L425.417 301.437L425.436 301.452L426.396 300.3ZM414.996 189.6L413.82 190.531L413.841 190.558L413.864 190.584L414.996 189.6ZM373.896 192.6L372.755 191.627L372.752 191.63L373.896 192.6ZM360.096 300.3L361.056 301.452L361.075 301.437L361.093 301.421L360.096 300.3ZM333.096 300.3L332.068 301.392L332.101 301.423L332.136 301.452L333.096 300.3ZM333.396 157.8L332.436 156.648L332.436 156.648L333.396 157.8ZM359.496 157.8L358.47 158.894L358.505 158.927L358.543 158.958L359.496 157.8ZM364.596 177.3H363.096V182.918L365.896 178.048L364.596 177.3ZM382.896 159L382.185 157.679L382.178 157.683L382.171 157.687L382.896 159ZM453.696 180.3L452.304 180.86L453.517 183.875L455.025 180.996L453.696 180.3ZM473.196 160.2L473.95 161.497L473.95 161.497L473.196 160.2ZM502.296 154.2C517.982 154.2 529.722 158.893 537.767 168.088L540.025 166.112C531.27 156.107 518.61 151.2 502.296 151.2V154.2ZM537.789 168.113C546.014 177.102 550.296 191.942 550.296 213H553.296C553.296 191.658 548.978 175.898 540.003 166.087L537.789 168.113ZM550.296 213V286.8H553.296V213H550.296ZM550.296 286.8C550.296 292.267 548.614 296.321 545.4 299.179L547.393 301.421C551.378 297.879 553.296 292.933 553.296 286.8H550.296ZM545.404 299.175C542.338 301.88 538.22 303.3 532.896 303.3V306.3C538.772 306.3 543.654 304.72 547.389 301.425L545.404 299.175ZM532.896 303.3C527.791 303.3 523.646 301.889 520.356 299.148L518.436 301.452C522.346 304.711 527.202 306.3 532.896 306.3V303.3ZM520.424 299.208C517.395 296.357 515.796 292.293 515.796 286.8H512.796C512.796 292.907 514.597 297.843 518.368 301.392L520.424 299.208ZM515.796 286.8V213H512.796V286.8H515.796ZM515.796 213C515.796 201.899 513.793 193.636 509.428 188.616L507.164 190.584C510.799 194.764 512.796 202.101 512.796 213H515.796ZM509.472 188.669C505.305 183.405 498.902 180.9 490.596 180.9V183.9C498.29 183.9 503.687 186.195 507.12 190.531L509.472 188.669ZM490.596 180.9C480.405 180.9 472.169 184.458 466.055 191.627L468.337 193.573C473.823 187.142 481.187 183.9 490.596 183.9V180.9ZM466.069 191.61C459.961 198.561 456.996 208.054 456.996 219.9H459.996C459.996 208.546 462.832 199.839 468.323 193.59L466.069 191.61ZM456.996 219.9V286.8H459.996V219.9H456.996ZM456.996 286.8C456.996 292.267 455.314 296.321 452.1 299.179L454.093 301.421C458.078 297.879 459.996 292.933 459.996 286.8H456.996ZM452.104 299.175C449.028 301.889 445.004 303.3 439.896 303.3V306.3C445.588 306.3 450.364 304.711 454.089 301.425L452.104 299.175ZM439.896 303.3C434.791 303.3 430.646 301.889 427.356 299.148L425.436 301.452C429.346 304.711 434.202 306.3 439.896 306.3V303.3ZM427.393 299.179C424.178 296.321 422.496 292.267 422.496 286.8H419.496C419.496 292.933 421.414 297.879 425.4 301.421L427.393 299.179ZM422.496 286.8V213H419.496V286.8H422.496ZM422.496 213C422.496 201.899 420.493 193.636 416.128 188.616L413.864 190.584C417.499 194.764 419.496 202.101 419.496 213H422.496ZM416.172 188.669C412.005 183.405 405.602 180.9 397.296 180.9V183.9C404.99 183.9 410.387 186.195 413.82 190.531L416.172 188.669ZM397.296 180.9C387.105 180.9 378.869 184.458 372.755 191.627L375.037 193.573C380.523 187.142 387.887 183.9 397.296 183.9V180.9ZM372.752 191.63C366.854 198.581 363.996 208.066 363.996 219.9H366.996C366.996 208.534 369.738 199.819 375.04 193.57L372.752 191.63ZM363.996 219.9V286.8H366.996V219.9H363.996ZM363.996 286.8C363.996 292.267 362.314 296.321 359.1 299.179L361.093 301.421C365.078 297.879 366.996 292.933 366.996 286.8H363.996ZM359.136 299.148C355.846 301.889 351.702 303.3 346.596 303.3V306.3C352.291 306.3 357.146 304.711 361.056 301.452L359.136 299.148ZM346.596 303.3C341.491 303.3 337.346 301.889 334.056 299.148L332.136 301.452C336.046 304.711 340.902 306.3 346.596 306.3V303.3ZM334.124 299.208C331.095 296.357 329.496 292.293 329.496 286.8H326.496C326.496 292.907 328.297 297.843 332.068 301.392L334.124 299.208ZM329.496 286.8V170.7H326.496V286.8H329.496ZM329.496 170.7C329.496 165.449 331.166 161.611 334.356 158.952L332.436 156.648C328.426 159.989 326.496 164.751 326.496 170.7H329.496ZM334.356 158.952C337.646 156.211 341.791 154.8 346.896 154.8V151.8C341.202 151.8 336.346 153.389 332.436 156.648L334.356 158.952ZM346.896 154.8C351.79 154.8 355.599 156.202 358.47 158.894L360.522 156.706C356.994 153.398 352.402 151.8 346.896 151.8V154.8ZM358.543 158.958C361.519 161.409 363.096 165.037 363.096 170.1H366.096C366.096 164.363 364.273 159.791 360.45 156.642L358.543 158.958ZM363.096 170.1V177.3H366.096V170.1H363.096ZM365.896 178.048C370.369 170.269 376.276 164.372 383.622 160.313L382.171 157.687C374.316 162.028 368.023 168.33 363.296 176.552L365.896 178.048ZM383.607 160.321C391.162 156.253 399.812 154.2 409.596 154.2V151.2C399.38 151.2 390.23 153.347 382.185 157.679L383.607 160.321ZM409.596 154.2C420.39 154.2 429.27 156.456 436.325 160.871C443.369 165.28 448.705 171.91 452.304 180.86L455.088 179.74C451.287 170.29 445.573 163.12 437.917 158.328C430.272 153.544 420.803 151.2 409.596 151.2V154.2ZM455.025 180.996C459.287 172.859 465.582 166.362 473.95 161.497L472.442 158.903C463.61 164.038 456.905 170.941 452.367 179.604L455.025 180.996ZM473.95 161.497C482.302 156.641 491.738 154.2 502.296 154.2V151.2C491.255 151.2 481.291 153.759 472.442 158.903L473.95 161.497Z" fill="white"/>
</svg>
