<svg xmlns="http://www.w3.org/2000/svg" width="576" height="652" fill="none" viewBox="0 0 576 652"><path fill="#fff" d="M234.4 405.4L235.428 404.308L234.4 405.4ZM234.2 500L233.203 498.879L233.188 498.893L233.172 498.908L234.2 500ZM216.6 500.2L217.626 499.106L216.6 500.2ZM213.4 487H214.9V481.382L212.1 486.252L213.4 487ZM201 499.4L201.711 500.721L201.724 500.714L201.737 500.706L201 499.4ZM150.8 405.4L151.828 406.492L150.8 405.4ZM169 405.4L167.972 406.492L169 405.4ZM176.6 478.8L175.451 479.765L176.6 478.8ZM206.4 477L205.293 475.988L205.292 475.989L206.4 477ZM225.2 403.7C228.782 403.7 231.447 404.681 233.372 406.492L235.428 404.308C232.82 401.853 229.352 400.7 225.2 400.7V403.7ZM233.372 406.492C235.29 408.297 236.3 410.743 236.3 414H239.3C239.3 410.057 238.044 406.77 235.428 404.308L233.372 406.492ZM236.3 414V491.6H239.3V414H236.3ZM236.3 491.6C236.3 494.677 235.256 497.055 233.203 498.879L235.197 501.121C237.944 498.679 239.3 495.457 239.3 491.6H236.3ZM233.172 498.908C231.237 500.729 228.632 501.7 225.2 501.7V504.7C229.235 504.7 232.629 503.538 235.228 501.092L233.172 498.908ZM225.2 501.7C221.889 501.7 219.42 500.788 217.626 499.106L215.574 501.294C218.046 503.612 221.311 504.7 225.2 504.7V501.7ZM217.626 499.106C215.851 497.442 214.9 495.136 214.9 492H211.9C211.9 495.798 213.082 498.958 215.574 501.294L217.626 499.106ZM214.9 492V487H211.9V492H214.9ZM212.1 486.252C209.163 491.36 205.221 495.297 200.263 498.094L201.737 500.706C207.179 497.637 211.504 493.307 214.7 487.748L212.1 486.252ZM200.289 498.079C195.33 500.749 189.712 502.1 183.4 502.1V505.1C190.155 505.1 196.27 503.651 201.711 500.721L200.289 498.079ZM183.4 502.1C171.679 502.1 163.149 498.82 157.52 492.502C151.861 486.152 148.9 476.475 148.9 463.2H145.9C145.9 476.858 148.939 487.382 155.28 494.498C161.651 501.647 171.121 505.1 183.4 505.1V502.1ZM148.9 463.2V414H145.9V463.2H148.9ZM148.9 414C148.9 410.743 149.91 408.297 151.828 406.492L149.772 404.308C147.156 406.77 145.9 410.057 145.9 414H148.9ZM151.828 406.492C153.763 404.671 156.368 403.7 159.8 403.7V400.7C155.765 400.7 152.371 401.862 149.772 404.308L151.828 406.492ZM159.8 403.7C163.382 403.7 166.047 404.681 167.972 406.492L170.028 404.308C167.42 401.853 163.952 400.7 159.8 400.7V403.7ZM167.972 406.492C169.89 408.297 170.9 410.743 170.9 414H173.9C173.9 410.057 172.644 406.77 170.028 404.308L167.972 406.492ZM170.9 414V463.4H173.9V414H170.9ZM170.9 463.4C170.9 470.489 172.324 476.041 175.451 479.765L177.749 477.835C175.276 474.892 173.9 470.177 173.9 463.4H170.9ZM175.451 479.765C178.633 483.552 183.533 485.3 189.8 485.3V482.3C184.067 482.3 180.167 480.714 177.749 477.835L175.451 479.765ZM189.8 485.3C197.094 485.3 203.052 482.898 207.508 478.011L205.292 475.989C201.481 480.169 196.372 482.3 189.8 482.3V485.3ZM207.507 478.012C212.076 473.015 214.3 466.495 214.3 458.6H211.3C211.3 465.905 209.258 471.651 205.293 475.988L207.507 478.012ZM214.3 458.6V414H211.3V458.6H214.3ZM214.3 414C214.3 410.743 215.311 408.297 217.228 406.492L215.172 404.308C212.556 406.77 211.3 410.057 211.3 414H214.3ZM217.228 406.492C219.163 404.671 221.768 403.7 225.2 403.7V400.7C221.165 400.7 217.771 401.862 215.172 404.308L217.228 406.492ZM281.42 497.4L280.684 498.707L280.694 498.712L281.42 497.4ZM264.42 479.8L265.748 479.101L264.42 479.8ZM264.62 426.4L263.302 425.685L263.297 425.693L264.62 426.4ZM282.42 408.2L283.155 409.508L282.42 408.2ZM324.22 404L323.813 405.444L323.823 405.446L324.22 404ZM338.22 410L339.043 408.746L339.033 408.739L339.023 408.733L338.22 410ZM342.42 427.8L341.241 426.873L341.236 426.879L341.231 426.885L342.42 427.8ZM332.42 429.4L331.843 430.785H331.843L332.42 429.4ZM327.62 427L326.857 428.291L326.865 428.296L327.62 427ZM319.22 423L318.663 424.393L318.694 424.405L318.725 424.416L319.22 423ZM290.82 429.6L289.666 428.642L289.663 428.645L290.82 429.6ZM290.82 476L289.652 476.941L289.664 476.956L289.677 476.971L290.82 476ZM318.82 482.6L319.339 484.008L319.358 484L319.377 483.993L318.82 482.6ZM327.62 478.4L328.335 479.719L328.364 479.703L328.392 479.686L327.62 478.4ZM332.82 475.8L333.333 477.21L333.388 477.19L333.441 477.166L332.82 475.8ZM342.62 477.6L343.8 476.673L342.62 477.6ZM343.22 490.6L341.943 489.814L341.934 489.829L341.925 489.844L343.22 490.6ZM338.42 495L337.66 493.707L337.633 493.723L337.607 493.74L338.42 495ZM324.02 501.4L324.409 502.849L324.425 502.844L324.442 502.84L324.02 501.4ZM307.22 502.1C297.705 502.1 289.361 500.081 282.147 496.088L280.694 498.712C288.412 502.985 297.269 505.1 307.22 505.1V502.1ZM282.157 496.093C275.08 492.105 269.616 486.452 265.748 479.101L263.093 480.499C267.224 488.348 273.094 494.429 280.684 498.707L282.157 496.093ZM265.748 479.101C261.88 471.752 259.92 463.134 259.92 453.2H256.92C256.92 463.533 258.961 472.648 263.093 480.499L265.748 479.101ZM259.92 453.2C259.92 443.275 261.943 434.591 265.943 427.107L263.297 425.693C259.031 433.675 256.92 442.859 256.92 453.2H259.92ZM265.939 427.115C270.074 419.49 275.808 413.632 283.155 409.508L281.686 406.892C273.832 411.301 267.7 417.576 263.302 425.685L265.939 427.115ZM283.155 409.508C290.502 405.383 298.976 403.3 308.62 403.3V400.3C298.531 400.3 289.539 402.484 281.686 406.892L283.155 409.508ZM308.62 403.3C313.677 403.3 318.74 404.013 323.813 405.444L324.628 402.556C319.3 401.054 313.963 400.3 308.62 400.3V403.3ZM323.823 405.446C329.036 406.88 333.562 408.825 337.418 411.267L339.023 408.733C334.879 406.108 330.071 404.053 324.618 402.554L323.823 405.446ZM337.397 411.254C341.337 413.84 343.12 416.943 343.12 420.6H346.12C346.12 415.723 343.637 411.76 339.043 408.746L337.397 411.254ZM343.12 420.6C343.12 423.278 342.455 425.328 341.241 426.873L343.6 428.727C345.319 426.538 346.12 423.788 346.12 420.6H343.12ZM341.231 426.885C340.194 428.234 338.841 428.9 337.02 428.9V431.9C339.733 431.9 341.98 430.832 343.609 428.715L341.231 426.885ZM337.02 428.9C335.784 428.9 334.447 428.619 332.997 428.015L331.843 430.785C333.594 431.514 335.323 431.9 337.02 431.9V428.9ZM332.997 428.015C331.463 427.376 329.922 426.606 328.376 425.704L326.865 428.296C328.518 429.26 330.178 430.091 331.843 430.785L332.997 428.015ZM328.383 425.709C325.382 423.935 322.492 422.556 319.716 421.584L318.725 424.416C321.282 425.311 323.992 426.598 326.857 428.291L328.383 425.709ZM319.777 421.607C316.901 420.457 313.639 419.9 310.02 419.9V422.9C313.335 422.9 316.206 423.41 318.663 424.393L319.777 421.607ZM310.02 419.9C301.389 419.9 294.532 422.774 289.666 428.642L291.975 430.557C296.175 425.493 302.118 422.9 310.02 422.9V419.9ZM289.663 428.645C284.959 434.348 282.72 442.476 282.72 452.8H285.72C285.72 442.858 287.882 435.519 291.977 430.555L289.663 428.645ZM282.72 452.8C282.72 463 284.962 471.114 289.652 476.941L291.989 475.059C287.878 469.952 285.72 462.6 285.72 452.8H282.72ZM289.677 476.971C294.548 482.702 301.402 485.5 310.02 485.5V482.5C302.106 482.5 296.159 479.965 291.963 475.029L289.677 476.971ZM310.02 485.5C313.491 485.5 316.606 485.014 319.339 484.008L318.302 481.192C315.968 482.052 313.217 482.5 310.02 482.5V485.5ZM319.377 483.993C322.11 482.9 325.097 481.473 328.335 479.719L326.906 477.081C323.744 478.794 320.864 480.167 318.263 481.207L319.377 483.993ZM328.392 479.686C330.346 478.514 331.989 477.698 333.333 477.21L332.308 474.39C330.719 474.968 328.895 475.886 326.849 477.114L328.392 479.686ZM333.441 477.166C334.732 476.579 335.988 476.3 337.22 476.3V473.3C335.519 473.3 333.842 473.688 332.2 474.434L333.441 477.166ZM337.22 476.3C338.837 476.3 340.222 476.975 341.441 478.527L343.8 476.673C342.085 474.491 339.87 473.3 337.22 473.3V476.3ZM341.441 478.527C342.664 480.084 343.32 482.073 343.32 484.6H346.32C346.32 481.527 345.51 478.85 343.8 476.673L341.441 478.527ZM343.32 484.6C343.32 486.622 342.848 488.343 341.943 489.814L344.498 491.386C345.726 489.39 346.32 487.112 346.32 484.6H343.32ZM341.925 489.844C341.164 491.148 339.793 492.452 337.66 493.707L339.181 496.293C341.581 494.881 343.41 493.252 344.516 491.356L341.925 489.844ZM337.607 493.74C333.612 496.317 328.948 498.395 323.599 499.96L324.442 502.84C330.026 501.205 334.961 499.017 339.234 496.26L337.607 493.74ZM323.632 499.951C318.293 501.383 312.824 502.1 307.22 502.1V505.1C313.083 505.1 318.814 504.35 324.409 502.849L323.632 499.951ZM361.677 495L362.487 493.738L362.465 493.724L362.442 493.71L361.677 495ZM357.477 477.8L358.582 478.814L358.602 478.792L358.622 478.769L357.477 477.8ZM372.277 478.4L371.571 479.724L371.605 479.742L371.64 479.758L372.277 478.4ZM383.877 483L383.435 484.434L383.443 484.436L383.45 484.438L383.877 483ZM410.477 481.8L409.721 480.504L409.709 480.511L409.697 480.519L410.477 481.8ZM413.277 468.6L412.162 469.603L412.188 469.633L412.216 469.661L413.277 468.6ZM406.477 465L405.95 466.404L405.984 466.417L406.019 466.429L406.477 465ZM391.677 461L391.999 459.535L391.986 459.532L391.974 459.53L391.677 461ZM366.077 450.8L365.093 451.933L365.1 451.939L365.108 451.945L366.077 450.8ZM363.677 416.8L364.881 417.694L364.887 417.686L364.893 417.678L363.677 416.8ZM377.877 405.8L378.46 407.182L378.467 407.179L378.475 407.176L377.877 405.8ZM414.877 404L414.469 405.444L414.487 405.449L414.504 405.453L414.877 404ZM428.877 410L428.063 411.26L428.072 411.266L428.082 411.272L428.877 410ZM433.077 427.4L434.222 428.369L434.239 428.348L434.256 428.327L433.077 427.4ZM423.277 429.2L422.606 430.542L422.683 430.58L422.764 430.61L423.277 429.2ZM418.077 426.4L418.812 425.093L418.789 425.08L418.766 425.068L418.077 426.4ZM408.077 422L407.543 423.402L407.572 423.413L407.602 423.423L408.077 422ZM385.877 423.4L385.032 422.161L385.018 422.17L385.005 422.179L385.877 423.4ZM386.077 439.2L385.313 440.491L386.077 439.2ZM403.077 444.4L403.383 442.932L403.38 442.931L403.077 444.4ZM424.077 450.8L424.719 449.444L424.077 450.8ZM434.877 459.8L433.586 460.565L433.596 460.582L433.607 460.599L434.877 459.8ZM426.877 495.4L426.001 494.182L425.99 494.19L426.877 495.4ZM396.877 502.1C382.528 502.1 371.104 499.268 362.487 493.738L360.866 496.262C370.115 502.198 382.159 505.1 396.877 505.1V502.1ZM362.442 493.71C358.596 491.426 356.777 488.298 356.777 484.2H353.777C353.777 489.436 356.224 493.507 360.911 496.29L362.442 493.71ZM356.777 484.2C356.777 481.819 357.424 480.077 358.582 478.814L356.371 476.786C354.596 478.723 353.777 481.248 353.777 484.2H356.777ZM358.622 478.769C359.824 477.348 361.216 476.7 362.877 476.7V473.7C360.271 473.7 358.062 474.786 356.331 476.831L358.622 478.769ZM362.877 476.7C364.754 476.7 367.612 477.612 371.571 479.724L372.982 477.076C368.941 474.921 365.532 473.7 362.877 473.7V476.7ZM371.64 479.758C375.952 481.78 379.886 483.341 383.435 484.434L384.318 481.566C380.934 480.525 377.134 479.02 372.913 477.042L371.64 479.758ZM383.45 484.438C387.236 485.56 391.925 486.1 397.477 486.1V483.1C392.095 483.1 387.717 482.573 384.303 481.562L383.45 484.438ZM397.477 486.1C403.211 486.1 407.858 485.15 411.256 483.081L409.697 480.519C406.962 482.183 402.943 483.1 397.477 483.1V486.1ZM411.232 483.096C414.831 480.996 416.777 477.935 416.777 474H413.777C413.777 476.732 412.522 478.87 409.721 480.504L411.232 483.096ZM416.777 474C416.777 471.422 416.007 469.209 414.337 467.539L412.216 469.661C413.212 470.657 413.777 472.045 413.777 474H416.777ZM414.392 467.597C412.913 465.954 410.321 464.655 406.934 463.571L406.019 466.429C409.299 467.478 411.24 468.58 412.162 469.603L414.392 467.597ZM407.003 463.596C403.7 462.357 398.681 461.005 391.999 459.535L391.354 462.465C398.006 463.928 402.854 465.243 405.95 466.404L407.003 463.596ZM391.974 459.53C380.19 457.146 371.955 453.809 367.045 449.655L365.108 451.945C370.598 456.591 379.43 460.054 391.379 462.47L391.974 459.53ZM367.06 449.667C362.373 445.597 359.977 439.972 359.977 432.6H356.977C356.977 440.694 359.647 447.203 365.093 451.933L367.06 449.667ZM359.977 432.6C359.977 427.052 361.608 422.1 364.881 417.694L362.472 415.906C358.812 420.833 356.977 426.414 356.977 432.6H359.977ZM364.893 417.678C368.183 413.123 372.687 409.619 378.46 407.182L377.293 404.418C371.066 407.047 366.104 410.877 362.461 415.922L364.893 417.678ZM378.475 407.176C384.392 404.603 391.117 403.3 398.677 403.3V400.3C390.769 400.3 383.628 401.664 377.278 404.424L378.475 407.176ZM398.677 403.3C404.144 403.3 409.407 404.016 414.469 405.444L415.284 402.556C409.946 401.051 404.409 400.3 398.677 400.3V403.3ZM414.504 405.453C419.562 406.75 424.077 408.689 428.063 411.26L429.69 408.74C425.409 405.978 420.591 403.917 415.249 402.547L414.504 405.453ZM428.082 411.272C431.984 413.711 433.777 416.799 433.777 420.6H436.777C436.777 415.601 434.302 411.622 429.672 408.728L428.082 411.272ZM433.777 420.6C433.777 422.974 433.131 424.903 431.897 426.473L434.256 428.327C435.956 426.163 436.777 423.559 436.777 420.6H433.777ZM431.931 426.431C430.729 427.852 429.337 428.5 427.677 428.5V431.5C430.283 431.5 432.491 430.414 434.222 428.369L431.931 426.431ZM427.677 428.5C426.396 428.5 425.102 428.268 423.789 427.79L422.764 430.61C424.384 431.199 426.024 431.5 427.677 431.5V428.5ZM423.947 427.858C422.645 427.207 420.936 426.287 418.812 425.093L417.341 427.707C419.484 428.913 421.241 429.859 422.606 430.542L423.947 427.858ZM418.766 425.068C414.859 423.047 411.45 421.544 408.551 420.577L407.602 423.423C410.303 424.323 413.561 425.753 417.387 427.732L418.766 425.068ZM408.611 420.598C405.589 419.447 401.928 418.9 397.677 418.9V421.9C401.692 421.9 404.964 422.42 407.543 423.402L408.611 420.598ZM397.677 418.9C392.555 418.9 388.294 419.936 385.032 422.161L386.722 424.639C389.326 422.864 392.931 421.9 397.677 421.9V418.9ZM385.005 422.179C381.807 424.463 380.177 427.653 380.177 431.6H383.177C383.177 428.613 384.346 426.337 386.748 424.621L385.005 422.179ZM380.177 431.6C380.177 435.478 381.936 438.496 385.313 440.491L386.84 437.909C384.351 436.438 383.177 434.389 383.177 431.6H380.177ZM385.313 440.491C388.487 442.367 394.384 444.138 402.773 445.869L403.38 442.931C394.969 441.195 389.532 439.5 386.84 437.909L385.313 440.491ZM402.77 445.868C411.65 447.724 418.52 449.828 423.434 452.156L424.719 449.444C419.5 446.972 412.37 444.809 403.383 442.932L402.77 445.868ZM423.434 452.156C428.321 454.47 431.649 457.296 433.586 460.565L436.167 459.035C433.837 455.104 429.966 451.93 424.719 449.444L423.434 452.156ZM433.607 460.599C435.682 463.895 436.777 468.195 436.777 473.6H439.777C439.777 467.805 438.604 462.905 436.146 459.001L433.607 460.599ZM436.777 473.6C436.777 482.166 433.224 488.987 426.001 494.182L427.752 496.618C435.729 490.88 439.777 483.168 439.777 473.6H436.777ZM425.99 494.19C418.858 499.412 409.202 502.1 396.877 502.1V505.1C409.617 505.1 419.962 502.322 427.763 496.61L425.99 494.19ZM549.347 363.2L548.35 364.321L549.347 363.2ZM549.547 499.8L550.575 500.892L549.547 499.8ZM531.547 499.8L530.519 500.892L531.547 499.8ZM528.147 486.2H529.647L526.825 485.491L528.147 486.2ZM515.347 499L514.626 497.684L514.62 497.688L514.613 497.692L515.347 499ZM473.947 497.2L473.127 498.456L473.138 498.463L473.947 497.2ZM458.547 479.2L457.183 479.824L457.189 479.838L457.196 479.852L458.547 479.2ZM458.547 425.6L457.201 424.939L457.196 424.948L457.191 424.958L458.547 425.6ZM473.947 408L473.145 406.732L473.947 408ZM515.347 406.2L514.638 407.522H514.638L515.347 406.2ZM527.947 418.6L526.633 419.323L529.447 418.6H527.947ZM531.147 363.2L532.173 364.294L532.175 364.292L531.147 363.2ZM521.547 476L520.378 475.059L520.371 475.068L520.364 475.077L521.547 476ZM521.547 429.4L520.364 430.323L520.377 430.339L520.39 430.355L521.547 429.4ZM484.747 429.2L483.59 428.245L484.747 429.2ZM484.747 475.8L485.926 474.873L484.747 475.8ZM540.147 361.5C543.576 361.5 546.269 362.471 548.35 364.321L550.343 362.079C547.625 359.662 544.184 358.5 540.147 358.5V361.5ZM548.35 364.321C550.402 366.145 551.447 368.523 551.447 371.6H554.447C554.447 367.743 553.091 364.521 550.343 362.079L548.35 364.321ZM551.447 371.6V491.2H554.447V371.6H551.447ZM551.447 491.2C551.447 494.457 550.436 496.903 548.519 498.708L550.575 500.892C553.191 498.43 554.447 495.143 554.447 491.2H551.447ZM548.519 498.708C546.584 500.529 543.979 501.5 540.547 501.5V504.5C544.582 504.5 547.976 503.338 550.575 500.892L548.519 498.708ZM540.547 501.5C537.115 501.5 534.51 500.529 532.575 498.708L530.519 500.892C533.117 503.338 536.512 504.5 540.547 504.5V501.5ZM532.575 498.708C530.657 496.903 529.647 494.457 529.647 491.2H526.647C526.647 495.143 527.903 498.43 530.519 500.892L532.575 498.708ZM529.647 491.2V486.2H526.647V491.2H529.647ZM526.825 485.491C524.033 490.694 519.979 494.753 514.626 497.684L516.067 500.316C521.914 497.114 526.394 492.64 529.469 486.909L526.825 485.491ZM514.613 497.692C509.398 500.617 503.39 502.1 496.547 502.1V505.1C503.837 505.1 510.363 503.516 516.081 500.308L514.613 497.692ZM496.547 502.1C488.415 502.1 481.166 500.039 474.755 495.937L473.138 498.463C480.061 502.894 487.879 505.1 496.547 505.1V502.1ZM474.767 495.944C468.485 491.841 463.525 486.061 459.898 478.548L457.196 479.852C461.036 487.806 466.342 494.025 473.127 498.456L474.767 495.944ZM459.911 478.576C456.415 470.936 454.647 462.154 454.647 452.2H451.647C451.647 462.512 453.479 471.731 457.183 479.824L459.911 478.576ZM454.647 452.2C454.647 442.244 456.415 433.604 459.902 426.242L457.191 424.958C453.479 432.796 451.647 441.889 451.647 452.2H454.647ZM459.893 426.261C463.517 418.885 468.471 413.239 474.749 409.268L473.145 406.732C466.356 411.028 461.044 417.115 457.201 424.939L459.893 426.261ZM474.749 409.268C481.018 405.302 488.267 403.3 496.547 403.3V400.3C487.76 400.3 479.943 402.432 473.145 406.732L474.749 409.268ZM496.547 403.3C503.401 403.3 509.418 404.721 514.638 407.522L516.056 404.878C510.343 401.812 503.826 400.3 496.547 400.3V403.3ZM514.638 407.522C519.854 410.321 523.842 414.249 526.633 419.323L529.261 417.877C526.185 412.285 521.773 407.946 516.056 404.878L514.638 407.522ZM529.447 418.6V371.2H526.447V418.6H529.447ZM529.447 371.2C529.447 368.218 530.385 365.97 532.173 364.294L530.121 362.106C527.642 364.43 526.447 367.516 526.447 371.2H529.447ZM532.175 364.292C534.11 362.471 536.715 361.5 540.147 361.5V358.5C536.112 358.5 532.717 359.662 530.119 362.108L532.175 364.292ZM503.147 485.7C511.529 485.7 518.132 482.813 522.729 476.923L520.364 475.077C516.428 480.121 510.765 482.7 503.147 482.7V485.7ZM522.715 476.941C527.407 471.111 529.647 462.928 529.647 452.6H526.647C526.647 462.539 524.487 469.955 520.378 475.059L522.715 476.941ZM529.647 452.6C529.647 442.276 527.409 434.148 522.704 428.445L520.39 430.355C524.485 435.319 526.647 442.658 526.647 452.6H529.647ZM522.729 428.477C518.138 422.594 511.605 419.7 503.347 419.7V422.7C510.822 422.7 516.423 425.273 520.364 430.323L522.729 428.477ZM503.347 419.7C494.978 419.7 488.321 422.51 483.59 428.245L485.904 430.155C489.972 425.223 495.716 422.7 503.347 422.7V419.7ZM483.59 428.245C478.888 433.945 476.647 442.003 476.647 452.2H479.647C479.647 442.397 481.806 435.122 485.904 430.155L483.59 428.245ZM476.647 452.2C476.647 462.531 478.888 470.771 483.567 476.727L485.926 474.873C481.806 469.629 479.647 462.136 479.647 452.2H476.647ZM483.567 476.727C488.284 482.73 494.875 485.7 503.147 485.7V482.7C495.685 482.7 490.01 480.07 485.926 474.873L483.567 476.727Z"/><path fill="#fff" fill-opacity=".5" d="M88.1 153.7C108.5 153.7 123.6 158.8 133.4 169C143.4 179 148.4 194.3 148.4 214.9V288.1C148.4 293.5 146.8 297.8 143.6 301C140.4 304 136 305.5 130.4 305.5C125.2 305.5 120.9 303.9 117.5 300.7C114.3 297.5 112.7 293.3 112.7 288.1V281.5C109.3 289.3 103.9 295.4 96.5 299.8C89.3 304.2 80.9 306.4 71.3 306.4C61.5 306.4 52.6 304.4 44.6 300.4C36.6 296.4 30.3 290.9 25.7 283.9C21.1 276.9 18.8 269.1 18.8 260.5C18.8 249.7 21.5 241.2 26.9 235C32.5 228.8 41.5 224.3 53.9 221.5C66.3 218.7 83.4 217.3 105.2 217.3H112.7V210.4C112.7 200.6 110.6 193.5 106.4 189.1C102.2 184.5 95.4 182.2 86 182.2C80.2 182.2 74.3 183.1 68.3 184.9C62.3 186.5 55.2 188.9 47 192.1C41.8 194.7 38 196 35.6 196C32 196 29 194.7 26.6 192.1C24.4 189.5 23.3 186.1 23.3 181.9C23.3 178.5 24.1 175.6 25.7 173.2C27.5 170.6 30.4 168.2 34.4 166C41.4 162.2 49.7 159.2 59.3 157C69.1 154.8 78.7 153.7 88.1 153.7ZM78.8 279.4C88.8 279.4 96.9 276.1 103.1 269.5C109.5 262.7 112.7 254 112.7 243.4V237.1H107.3C93.9 237.1 83.5 237.7 76.1 238.9C68.7 240.1 63.4 242.2 60.2 245.2C57 248.2 55.4 252.3 55.4 257.5C55.4 263.9 57.6 269.2 62 273.4C66.6 277.4 72.2 279.4 78.8 279.4ZM251.612 306.4C237.012 306.4 224.112 303.3 212.912 297.1C201.912 290.9 193.412 282.1 187.412 270.7C181.412 259.3 178.412 246 178.412 230.8C178.412 215.6 181.512 202.2 187.712 190.6C194.112 178.8 203.012 169.7 214.412 163.3C225.812 156.9 238.912 153.7 253.712 153.7C261.512 153.7 269.312 154.8 277.112 157C285.112 159.2 292.112 162.2 298.112 166C304.512 170.2 307.712 175.5 307.712 181.9C307.712 186.3 306.612 189.9 304.412 192.7C302.412 195.3 299.712 196.6 296.312 196.6C294.112 196.6 291.812 196.1 289.412 195.1C287.012 194.1 284.612 192.9 282.212 191.5C277.812 188.9 273.612 186.9 269.612 185.5C265.612 183.9 261.012 183.1 255.812 183.1C243.412 183.1 233.812 187.2 227.012 195.4C220.412 203.4 217.112 215 217.112 230.2C217.112 245.2 220.412 256.8 227.012 265C233.812 273 243.412 277 255.812 277C260.812 277 265.212 276.3 269.012 274.9C273.012 273.3 277.412 271.2 282.212 268.6C285.212 266.8 287.812 265.5 290.012 264.7C292.212 263.7 294.412 263.2 296.612 263.2C299.812 263.2 302.512 264.6 304.712 267.4C306.912 270.2 308.012 273.7 308.012 277.9C308.012 281.3 307.212 284.3 305.612 286.9C304.212 289.3 301.812 291.5 298.412 293.5C292.212 297.5 285.012 300.7 276.812 303.1C268.612 305.3 260.212 306.4 251.612 306.4ZM507.296 153.7C523.296 153.7 535.496 158.5 543.896 168.1C552.496 177.5 556.796 192.8 556.796 214V287.8C556.796 293.6 554.996 298.1 551.396 301.3C547.996 304.3 543.496 305.8 537.896 305.8C532.496 305.8 527.996 304.3 524.396 301.3C520.996 298.1 519.296 293.6 519.296 287.8V214C519.296 203 517.296 195.2 513.296 190.6C509.496 185.8 503.596 183.4 495.596 183.4C485.796 183.4 477.996 186.8 472.196 193.6C466.396 200.2 463.496 209.3 463.496 220.9V287.8C463.496 293.6 461.696 298.1 458.096 301.3C454.696 304.3 450.296 305.8 444.896 305.8C439.496 305.8 434.996 304.3 431.396 301.3C427.796 298.1 425.996 293.6 425.996 287.8V214C425.996 203 423.996 195.2 419.996 190.6C416.196 185.8 410.296 183.4 402.296 183.4C392.496 183.4 384.696 186.8 378.896 193.6C373.296 200.2 370.496 209.3 370.496 220.9V287.8C370.496 293.6 368.696 298.1 365.096 301.3C361.496 304.3 356.996 305.8 351.596 305.8C346.196 305.8 341.696 304.3 338.096 301.3C334.696 298.1 332.996 293.6 332.996 287.8V171.7C332.996 166.1 334.796 161.8 338.396 158.8C341.996 155.8 346.496 154.3 351.896 154.3C357.096 154.3 361.296 155.8 364.496 158.8C367.896 161.6 369.596 165.7 369.596 171.1V178.3C374.196 170.3 380.296 164.2 387.896 160C395.696 155.8 404.596 153.7 414.596 153.7C436.596 153.7 451.296 162.9 458.696 181.3C463.096 172.9 469.596 166.2 478.196 161.2C486.796 156.2 496.496 153.7 507.296 153.7Z"/><path fill="#fff" d="M128.4 168L127.318 169.039L127.329 169.05L127.339 169.061L128.4 168ZM138.6 300L139.626 301.094L139.644 301.078L139.661 301.061L138.6 300ZM112.5 299.7L111.439 300.761L111.455 300.777L111.472 300.792L112.5 299.7ZM107.7 280.5H109.2L106.325 279.901L107.7 280.5ZM91.5 298.8L90.7334 297.511L90.7256 297.515L90.7178 297.52L91.5 298.8ZM39.6 299.4L38.9292 300.742L39.6 299.4ZM20.7 282.9L19.4464 283.724L20.7 282.9ZM21.9 234L20.7868 232.995L20.7778 233.005L20.7689 233.015L21.9 234ZM48.9 220.5L48.5696 219.037L48.9 220.5ZM107.7 216.3V217.8H109.2V216.3H107.7ZM101.4 188.1L100.292 189.111L100.303 189.124L100.315 189.136L101.4 188.1ZM63.3 183.9L63.6865 185.349L63.7089 185.343L63.731 185.337L63.3 183.9ZM42 191.1L41.4547 189.703L41.3907 189.728L41.3292 189.758L42 191.1ZM21.6 191.1L20.4549 192.069L20.4758 192.094L20.4978 192.117L21.6 191.1ZM20.7 172.2L19.4667 171.346L19.4592 171.357L19.4519 171.368L20.7 172.2ZM29.4 165L28.6844 163.682L28.6771 163.686L29.4 165ZM54.3 156L53.9714 154.536L53.9649 154.538L54.3 156ZM98.1 268.5L97.0077 267.472L97.0067 267.473L98.1 268.5ZM107.7 236.1H109.2V234.6H107.7V236.1ZM71.1 237.9L71.3401 239.381L71.1 237.9ZM55.2 244.2L56.2259 245.294L55.2 244.2ZM57 272.4L55.9643 273.485L55.9895 273.509L56.0157 273.532L57 272.4ZM83.1 154.2C103.274 154.2 117.907 159.243 127.318 169.039L129.482 166.961C119.293 156.357 103.726 151.2 83.1 151.2V154.2ZM127.339 169.061C136.951 178.673 141.9 193.516 141.9 213.9H144.9C144.9 193.084 139.849 177.327 129.461 166.939L127.339 169.061ZM141.9 213.9V287.1H144.9V213.9H141.9ZM141.9 287.1C141.9 292.185 140.405 296.074 137.539 298.939L139.661 301.061C143.195 297.526 144.9 292.815 144.9 287.1H141.9ZM137.574 298.906C134.723 301.579 130.728 303 125.4 303V306C131.272 306 136.077 304.421 139.626 301.094L137.574 298.906ZM125.4 303C120.535 303 116.617 301.515 113.528 298.608L111.472 300.792C115.183 304.285 119.865 306 125.4 306V303ZM113.561 298.639C110.684 295.763 109.2 291.966 109.2 287.1H106.2C106.2 292.634 107.916 297.237 111.439 300.761L113.561 298.639ZM109.2 287.1V280.5H106.2V287.1H109.2ZM106.325 279.901C103.052 287.409 97.8668 293.269 90.7334 297.511L92.2666 300.089C99.9333 295.531 105.548 289.191 109.075 281.099L106.325 279.901ZM90.7178 297.52C83.7844 301.757 75.6629 303.9 66.3 303.9V306.9C76.1371 306.9 84.8156 304.643 92.2822 300.08L90.7178 297.52ZM66.3 303.9C56.7102 303.9 48.0432 301.945 40.2708 298.058L38.9292 300.742C47.1568 304.855 56.2898 306.9 66.3 306.9V303.9ZM40.2708 298.058C32.4907 294.168 26.3985 288.84 21.9536 282.076L19.4464 283.724C24.2015 290.96 30.7093 296.632 38.9292 300.742L40.2708 298.058ZM21.9536 282.076C17.5188 275.328 15.3 267.816 15.3 259.5H12.3C12.3 268.384 14.6812 276.472 19.4464 283.724L21.9536 282.076ZM15.3 259.5C15.3 248.947 17.9353 240.836 23.0311 234.985L20.7689 233.015C15.0648 239.564 12.3 248.453 12.3 259.5H15.3ZM23.0132 235.005C28.3232 229.126 36.9845 224.728 49.2304 221.963L48.5696 219.037C36.0155 221.872 26.6768 226.474 20.7868 232.995L23.0132 235.005ZM49.2304 221.963C61.4719 219.199 78.4443 217.8 100.2 217.8V214.8C78.3557 214.8 61.1281 216.201 48.5696 219.037L49.2304 221.963ZM100.2 217.8H107.7V214.8H100.2V217.8ZM109.2 216.3V209.4H106.2V216.3H109.2ZM109.2 209.4C109.2 199.439 107.074 191.872 102.485 187.064L100.315 189.136C104.126 193.128 106.2 199.761 106.2 209.4H109.2ZM102.508 187.089C97.9055 182.048 90.6069 179.7 81 179.7V182.7C90.1931 182.7 96.4946 184.952 100.292 189.111L102.508 187.089ZM81 179.7C75.0428 179.7 68.9977 180.625 62.869 182.463L63.731 185.337C69.6023 183.575 75.3572 182.7 81 182.7V179.7ZM62.9135 182.451C56.8426 184.07 49.6871 186.49 41.4547 189.703L42.5453 192.497C50.7129 189.31 57.7574 186.93 63.6865 185.349L62.9135 182.451ZM41.3292 189.758C38.7651 191.04 36.5799 191.985 34.7645 192.606C32.9304 193.233 31.5606 193.5 30.6 193.5V196.5C32.0394 196.5 33.7696 196.117 35.7355 195.444C37.7201 194.765 40.0349 193.76 42.6708 192.442L41.3292 189.758ZM30.6 193.5C27.4104 193.5 24.8127 192.369 22.7022 190.083L20.4978 192.117C23.1873 195.031 26.5896 196.5 30.6 196.5V193.5ZM22.7451 190.131C20.8241 187.861 19.8 184.831 19.8 180.9H16.8C16.8 185.369 17.9759 189.139 20.4549 192.069L22.7451 190.131ZM19.8 180.9C19.8 177.742 20.5399 175.144 21.9481 173.032L19.4519 171.368C17.6601 174.056 16.8 177.258 16.8 180.9H19.8ZM21.9333 173.054C23.5557 170.71 26.2425 168.449 30.1229 166.314L28.6771 163.686C24.5575 165.951 21.4443 168.49 19.4667 171.346L21.9333 173.054ZM30.1156 166.318C36.9716 162.596 45.1379 159.639 54.6351 157.462L53.9649 154.538C44.2621 156.761 35.8284 159.804 28.6844 163.682L30.1156 166.318ZM54.6286 157.464C64.328 155.286 73.8178 154.2 83.1 154.2V151.2C73.5822 151.2 63.872 152.314 53.9714 154.536L54.6286 157.464ZM73.8 279.9C84.1662 279.9 92.6786 276.462 99.1933 269.527L97.0067 267.473C91.1214 273.738 83.4338 276.9 73.8 276.9V279.9ZM99.1923 269.528C105.89 262.412 109.2 253.326 109.2 242.4H106.2C106.2 252.674 103.11 260.988 97.0077 267.472L99.1923 269.528ZM109.2 242.4V236.1H106.2V242.4H109.2ZM107.7 234.6H102.3V237.6H107.7V234.6ZM102.3 234.6C88.8717 234.6 78.378 235.2 70.8599 236.419L71.3401 239.381C78.622 238.2 88.9283 237.6 102.3 237.6V234.6ZM70.8599 236.419C63.3512 237.637 57.6974 239.803 54.1741 243.106L56.2259 245.294C59.1026 242.597 64.0488 240.563 71.3401 239.381L70.8599 236.419ZM54.1741 243.106C50.6157 246.442 48.9 250.969 48.9 256.5H51.9C51.9 251.631 53.3843 247.958 56.2259 245.294L54.1741 243.106ZM48.9 256.5C48.9 263.286 51.2509 268.986 55.9643 273.485L58.0357 271.315C53.9491 267.414 51.9 262.514 51.9 256.5H48.9ZM56.0157 273.532C60.9122 277.79 66.8706 279.9 73.8 279.9V276.9C67.5294 276.9 62.2879 275.01 57.9843 271.268L56.0157 273.532ZM207.912 296.1L207.175 297.407L207.185 297.412L207.912 296.1ZM182.412 269.7L183.739 269.001L182.412 269.7ZM182.712 189.6L181.393 188.885L181.389 188.893L182.712 189.6ZM209.412 162.3L210.146 163.608L209.412 162.3ZM272.112 156L271.705 157.444L271.714 157.446L272.112 156ZM293.112 165L293.935 163.746L293.925 163.739L293.914 163.733L293.112 165ZM299.412 191.7L298.232 190.773L298.227 190.779L298.223 190.785L299.412 191.7ZM284.412 194.1L283.835 195.485L284.412 194.1ZM277.212 190.5L276.449 191.791L276.456 191.796L277.212 190.5ZM264.612 184.5L264.055 185.893L264.085 185.905L264.116 185.916L264.612 184.5ZM222.012 194.4L220.857 193.442L220.855 193.445L222.012 194.4ZM222.012 264L220.843 264.941L220.856 264.956L220.869 264.971L222.012 264ZM264.012 273.9L264.53 275.308L264.55 275.3L264.569 275.293L264.012 273.9ZM277.212 267.6L277.926 268.919L277.955 268.903L277.983 268.886L277.212 267.6ZM285.012 263.7L285.524 265.11L285.579 265.09L285.632 265.066L285.012 263.7ZM299.712 266.4L300.891 265.473L299.712 266.4ZM300.612 285.9L299.334 285.114L299.325 285.129L299.316 285.144L300.612 285.9ZM293.412 292.5L292.651 291.207L292.625 291.223L292.599 291.24L293.412 292.5ZM271.812 302.1L272.2 303.549L272.217 303.544L272.233 303.54L271.812 302.1ZM246.612 303.9C232.23 303.9 219.586 300.848 208.638 294.788L207.185 297.412C218.637 303.752 231.794 306.9 246.612 306.9V303.9ZM208.648 294.793C197.905 288.738 189.608 280.152 183.739 269.001L181.084 270.399C187.216 282.048 195.919 291.062 207.175 297.407L208.648 294.793ZM183.739 269.001C177.871 257.852 174.912 244.8 174.912 229.8H171.912C171.912 245.2 174.952 258.748 181.084 270.399L183.739 269.001ZM174.912 229.8C174.912 214.808 177.968 201.658 184.035 190.307L181.389 188.893C175.056 200.742 171.912 214.392 171.912 229.8H174.912ZM184.03 190.315C190.299 178.757 199 169.866 210.146 163.608L208.677 160.992C197.024 167.534 187.924 176.843 181.393 188.885L184.03 190.315ZM210.146 163.608C221.293 157.35 234.134 154.2 248.712 154.2V151.2C233.689 151.2 220.33 154.45 208.677 160.992L210.146 163.608ZM248.712 154.2C256.369 154.2 264.032 155.28 271.705 157.444L272.519 154.556C264.592 152.32 256.655 151.2 248.712 151.2V154.2ZM271.714 157.446C279.594 159.613 286.453 162.559 292.309 166.267L293.914 163.733C287.77 159.841 280.629 156.787 272.509 154.554L271.714 157.446ZM292.289 166.254C298.362 170.24 301.212 175.11 301.212 180.9H304.212C304.212 173.89 300.662 168.16 293.935 163.746L292.289 166.254ZM301.212 180.9C301.212 185.045 300.179 188.295 298.232 190.773L300.591 192.627C303.044 189.505 304.212 185.555 304.212 180.9H301.212ZM298.223 190.785C296.519 193.001 294.266 194.1 291.312 194.1V197.1C295.158 197.1 298.305 195.599 300.601 192.615L298.223 190.785ZM291.312 194.1C289.342 194.1 287.239 193.653 284.989 192.715L283.835 195.485C286.385 196.547 288.881 197.1 291.312 197.1V194.1ZM284.989 192.715C282.654 191.743 280.314 190.573 277.968 189.204L276.456 191.796C278.91 193.227 281.369 194.457 283.835 195.485L284.989 192.715ZM277.975 189.209C273.507 186.568 269.217 184.523 265.107 183.084L264.116 185.916C268.006 187.277 272.117 189.232 276.449 191.791L277.975 189.209ZM265.169 183.107C260.959 181.423 256.164 180.6 250.812 180.6V183.6C255.859 183.6 260.264 184.377 264.055 185.893L265.169 183.107ZM250.812 180.6C238.047 180.6 227.99 184.841 220.857 193.442L223.166 195.357C229.633 187.559 238.777 183.6 250.812 183.6V180.6ZM220.855 193.445C213.95 201.815 210.612 213.809 210.612 229.2H213.612C213.612 214.191 216.873 202.985 223.169 195.355L220.855 193.445ZM210.612 229.2C210.612 244.4 213.954 256.381 220.843 264.941L223.18 263.059C216.87 255.219 213.612 244 213.612 229.2H210.612ZM220.869 264.971C228.006 273.368 238.06 277.5 250.812 277.5V274.5C238.764 274.5 229.617 270.632 223.155 263.029L220.869 264.971ZM250.812 277.5C255.949 277.5 260.53 276.781 264.53 275.308L263.493 272.492C259.893 273.819 255.675 274.5 250.812 274.5V277.5ZM264.569 275.293C268.635 273.666 273.088 271.54 277.926 268.919L276.497 266.281C271.736 268.86 267.389 270.934 263.455 272.507L264.569 275.293ZM277.983 268.886C280.937 267.114 283.447 265.865 285.524 265.11L284.499 262.29C282.177 263.135 279.486 264.486 276.44 266.314L277.983 268.886ZM285.632 265.066C287.657 264.145 289.646 263.7 291.612 263.7V260.7C289.177 260.7 286.767 261.255 284.391 262.334L285.632 265.066ZM291.612 263.7C294.295 263.7 296.58 264.842 298.532 267.327L300.891 265.473C298.443 262.358 295.328 260.7 291.612 260.7V263.7ZM298.532 267.327C300.489 269.817 301.512 272.973 301.512 276.9H304.512C304.512 272.427 303.335 268.583 300.891 265.473L298.532 267.327ZM301.512 276.9C301.512 280.055 300.773 282.776 299.334 285.114L301.889 286.686C303.651 283.824 304.512 280.545 304.512 276.9H301.512ZM299.316 285.144C298.089 287.248 295.917 289.286 292.651 291.207L294.172 293.793C297.706 291.714 300.335 289.352 301.907 286.656L299.316 285.144ZM292.599 291.24C286.537 295.15 279.473 298.295 271.39 300.66L272.233 303.54C280.55 301.105 287.886 297.85 294.225 293.76L292.599 291.24ZM271.423 300.651C263.351 302.817 255.082 303.9 246.612 303.9V306.9C255.341 306.9 263.872 305.783 272.2 303.549L271.423 300.651ZM538.896 167.1L537.767 168.088L537.778 168.1L537.789 168.113L538.896 167.1ZM546.396 300.3L547.389 301.425L547.393 301.421L546.396 300.3ZM519.396 300.3L518.368 301.392L518.401 301.423L518.436 301.452L519.396 300.3ZM508.296 189.6L507.12 190.531L507.142 190.558L507.164 190.584L508.296 189.6ZM467.196 192.6L468.323 193.59L468.33 193.582L468.337 193.573L467.196 192.6ZM453.096 300.3L454.089 301.425L454.093 301.421L453.096 300.3ZM426.396 300.3L425.4 301.421L425.417 301.437L425.436 301.452L426.396 300.3ZM414.996 189.6L413.82 190.531L413.841 190.558L413.864 190.584L414.996 189.6ZM373.896 192.6L372.755 191.627L372.752 191.63L373.896 192.6ZM360.096 300.3L361.056 301.452L361.075 301.437L361.093 301.421L360.096 300.3ZM333.096 300.3L332.068 301.392L332.101 301.423L332.136 301.452L333.096 300.3ZM333.396 157.8L332.436 156.648L333.396 157.8ZM359.496 157.8L358.47 158.894L358.505 158.927L358.543 158.958L359.496 157.8ZM364.596 177.3H363.096V182.918L365.896 178.048L364.596 177.3ZM382.896 159L382.185 157.679L382.178 157.683L382.171 157.687L382.896 159ZM453.696 180.3L452.304 180.86L453.517 183.875L455.025 180.996L453.696 180.3ZM473.196 160.2L473.95 161.497V161.497L473.196 160.2ZM502.296 154.2C517.982 154.2 529.722 158.893 537.767 168.088L540.025 166.112C531.27 156.107 518.61 151.2 502.296 151.2V154.2ZM537.789 168.113C546.014 177.102 550.296 191.942 550.296 213H553.296C553.296 191.658 548.978 175.898 540.003 166.087L537.789 168.113ZM550.296 213V286.8H553.296V213H550.296ZM550.296 286.8C550.296 292.267 548.614 296.321 545.4 299.179L547.393 301.421C551.378 297.879 553.296 292.933 553.296 286.8H550.296ZM545.404 299.175C542.338 301.88 538.22 303.3 532.896 303.3V306.3C538.772 306.3 543.654 304.72 547.389 301.425L545.404 299.175ZM532.896 303.3C527.791 303.3 523.646 301.889 520.356 299.148L518.436 301.452C522.346 304.711 527.202 306.3 532.896 306.3V303.3ZM520.424 299.208C517.395 296.357 515.796 292.293 515.796 286.8H512.796C512.796 292.907 514.597 297.843 518.368 301.392L520.424 299.208ZM515.796 286.8V213H512.796V286.8H515.796ZM515.796 213C515.796 201.899 513.793 193.636 509.428 188.616L507.164 190.584C510.799 194.764 512.796 202.101 512.796 213H515.796ZM509.472 188.669C505.305 183.405 498.902 180.9 490.596 180.9V183.9C498.29 183.9 503.687 186.195 507.12 190.531L509.472 188.669ZM490.596 180.9C480.405 180.9 472.169 184.458 466.055 191.627L468.337 193.573C473.823 187.142 481.187 183.9 490.596 183.9V180.9ZM466.069 191.61C459.961 198.561 456.996 208.054 456.996 219.9H459.996C459.996 208.546 462.832 199.839 468.323 193.59L466.069 191.61ZM456.996 219.9V286.8H459.996V219.9H456.996ZM456.996 286.8C456.996 292.267 455.314 296.321 452.1 299.179L454.093 301.421C458.078 297.879 459.996 292.933 459.996 286.8H456.996ZM452.104 299.175C449.028 301.889 445.004 303.3 439.896 303.3V306.3C445.588 306.3 450.364 304.711 454.089 301.425L452.104 299.175ZM439.896 303.3C434.791 303.3 430.646 301.889 427.356 299.148L425.436 301.452C429.346 304.711 434.202 306.3 439.896 306.3V303.3ZM427.393 299.179C424.178 296.321 422.496 292.267 422.496 286.8H419.496C419.496 292.933 421.414 297.879 425.4 301.421L427.393 299.179ZM422.496 286.8V213H419.496V286.8H422.496ZM422.496 213C422.496 201.899 420.493 193.636 416.128 188.616L413.864 190.584C417.499 194.764 419.496 202.101 419.496 213H422.496ZM416.172 188.669C412.005 183.405 405.602 180.9 397.296 180.9V183.9C404.99 183.9 410.387 186.195 413.82 190.531L416.172 188.669ZM397.296 180.9C387.105 180.9 378.869 184.458 372.755 191.627L375.037 193.573C380.523 187.142 387.887 183.9 397.296 183.9V180.9ZM372.752 191.63C366.854 198.581 363.996 208.066 363.996 219.9H366.996C366.996 208.534 369.738 199.819 375.04 193.57L372.752 191.63ZM363.996 219.9V286.8H366.996V219.9H363.996ZM363.996 286.8C363.996 292.267 362.314 296.321 359.1 299.179L361.093 301.421C365.078 297.879 366.996 292.933 366.996 286.8H363.996ZM359.136 299.148C355.846 301.889 351.702 303.3 346.596 303.3V306.3C352.291 306.3 357.146 304.711 361.056 301.452L359.136 299.148ZM346.596 303.3C341.491 303.3 337.346 301.889 334.056 299.148L332.136 301.452C336.046 304.711 340.902 306.3 346.596 306.3V303.3ZM334.124 299.208C331.095 296.357 329.496 292.293 329.496 286.8H326.496C326.496 292.907 328.297 297.843 332.068 301.392L334.124 299.208ZM329.496 286.8V170.7H326.496V286.8H329.496ZM329.496 170.7C329.496 165.449 331.166 161.611 334.356 158.952L332.436 156.648C328.426 159.989 326.496 164.751 326.496 170.7H329.496ZM334.356 158.952C337.646 156.211 341.791 154.8 346.896 154.8V151.8C341.202 151.8 336.346 153.389 332.436 156.648L334.356 158.952ZM346.896 154.8C351.79 154.8 355.599 156.202 358.47 158.894L360.522 156.706C356.994 153.398 352.402 151.8 346.896 151.8V154.8ZM358.543 158.958C361.519 161.409 363.096 165.037 363.096 170.1H366.096C366.096 164.363 364.273 159.791 360.45 156.642L358.543 158.958ZM363.096 170.1V177.3H366.096V170.1H363.096ZM365.896 178.048C370.369 170.27 376.276 164.372 383.622 160.313L382.171 157.687C374.316 162.028 368.023 168.33 363.296 176.552L365.896 178.048ZM383.607 160.321C391.162 156.253 399.812 154.2 409.596 154.2V151.2C399.38 151.2 390.23 153.347 382.185 157.679L383.607 160.321ZM409.596 154.2C420.39 154.2 429.27 156.456 436.325 160.872C443.369 165.28 448.705 171.91 452.304 180.86L455.088 179.74C451.287 170.29 445.573 163.12 437.917 158.328C430.272 153.544 420.803 151.2 409.596 151.2V154.2ZM455.025 180.996C459.287 172.859 465.582 166.362 473.95 161.497L472.442 158.903C463.61 164.038 456.905 170.941 452.367 179.604L455.025 180.996ZM473.95 161.497C482.302 156.641 491.738 154.2 502.296 154.2V151.2C491.255 151.2 481.291 153.759 472.442 158.903L473.95 161.497Z"/></svg>