<svg viewBox="0 0 70 70" fill="none" xmlns="http://www.w3.org/2000/svg">
<path d="M4.36 39.36C1.95204 36.952 1.95204 33.048 4.36001 30.64L30.64 4.36001C33.048 1.95204 36.952 1.95204 39.36 4.36001L65.64 30.64C68.048 33.048 68.048 36.952 65.64 39.36L39.36 65.64C36.952 68.048 33.048 68.048 30.64 65.64L4.36 39.36Z" fill="#FF6F6F"/>
<path d="M32.0865 39.755C31.3499 39.755 30.7456 39.6399 30.2737 39.4097C29.8018 39.168 29.4507 38.8515 29.2205 38.4601C28.9903 38.0688 28.8752 37.6372 28.8752 37.1653C28.8752 36.3711 29.186 35.7265 29.8075 35.2316C30.4291 34.7367 31.3614 34.4892 32.6044 34.4892H34.7798V34.2821C34.7798 33.6951 34.6129 33.2634 34.2791 32.9872C33.9453 32.711 33.531 32.5728 33.036 32.5728C32.5872 32.5728 32.1958 32.6822 31.862 32.9009C31.5283 33.1081 31.3211 33.4188 31.2405 33.8332H29.0824C29.14 33.2116 29.3471 32.6707 29.704 32.2103C30.0723 31.7499 30.5442 31.3988 31.1197 31.1571C31.6952 30.9039 32.3397 30.7773 33.0533 30.7773C34.2734 30.7773 35.2344 31.0823 35.9365 31.6923C36.6386 32.3024 36.9897 33.1656 36.9897 34.2821V39.5478H35.1078L34.9006 38.1666C34.6474 38.627 34.2906 39.0068 33.8302 39.3061C33.3813 39.6053 32.8001 39.755 32.0865 39.755ZM32.5872 38.0285C33.2202 38.0285 33.7094 37.8213 34.0547 37.407C34.4115 36.9926 34.6359 36.4804 34.728 35.8704H32.8461C32.2591 35.8704 31.839 35.9798 31.5858 36.1984C31.3326 36.4056 31.206 36.6646 31.206 36.9754C31.206 37.3091 31.3326 37.5681 31.5858 37.7523C31.839 37.9364 32.1728 38.0285 32.5872 38.0285Z" fill="white"/>
<path d="M40.2898 29.6551C39.887 29.6551 39.5532 29.5343 39.2884 29.2925C39.0352 29.0508 38.9086 28.7458 38.9086 28.3775C38.9086 28.0092 39.0352 27.7099 39.2884 27.4797C39.5532 27.238 39.887 27.1172 40.2898 27.1172C40.6926 27.1172 41.0207 27.238 41.2739 27.4797C41.5386 27.7099 41.671 28.0092 41.671 28.3775C41.671 28.7458 41.5386 29.0508 41.2739 29.2925C41.0207 29.5343 40.6926 29.6551 40.2898 29.6551ZM39.1849 39.5478V30.9845H41.3947V39.5478H39.1849Z" fill="white"/>
</svg>
