<svg width="14" height="10" viewBox="0 0 14 10" fill="none" xmlns="http://www.w3.org/2000/svg">
<path d="M6.11682 9.712C6.17798 9.80082 6.25981 9.87344 6.35526 9.92362C6.45072 9.97379 6.55694 10 6.66478 10C6.77262 10 6.87884 9.97379 6.9743 9.92362C7.06976 9.87344 7.15159 9.80082 7.21274 9.712L13.2123 1.04593C13.2818 0.945973 13.3225 0.828898 13.3301 0.707422C13.3377 0.585946 13.3118 0.464717 13.2553 0.356905C13.1988 0.249093 13.1139 0.158821 13.0097 0.0958989C12.9055 0.0329764 12.7861 -0.000190883 12.6644 8.26379e-07H0.665195C0.543766 0.000502398 0.424771 0.0340962 0.321006 0.0971694C0.217241 0.160243 0.132634 0.250409 0.0762816 0.357972C0.0199294 0.465534 -0.00603503 0.586424 0.00118045 0.707639C0.00839593 0.828855 0.0485183 0.945811 0.117233 1.04593L6.11682 9.712Z" fill="black"/>
</svg>
