<svg viewBox="0 0 70 70" fill="none" xmlns="http://www.w3.org/2000/svg">
<path d="M4.36 39.36C1.95204 36.952 1.95204 33.048 4.36 30.64L30.64 4.36001C33.048 1.95204 36.952 1.95204 39.36 4.36001L65.64 30.64C68.048 33.048 68.048 36.952 65.64 39.36L39.36 65.64C36.952 68.048 33.048 68.048 30.64 65.64L4.36 39.36Z" fill="#51C0C0"/>
<path d="M21.2059 40.2047C20.3312 40.2047 19.56 40.0148 18.8925 39.6349C18.2249 39.2551 17.6954 38.7257 17.3041 38.0466C16.9243 37.3675 16.7344 36.5906 16.7344 35.7158C16.7344 34.8411 16.9243 34.0642 17.3041 33.3851C17.6954 32.706 18.2249 32.1766 18.8925 31.7968C19.56 31.4169 20.3312 31.227 21.2059 31.227C22.2994 31.227 23.2202 31.5148 23.9683 32.0903C24.7164 32.6542 25.1941 33.4369 25.4013 34.4383H23.0705C22.9554 34.0239 22.7252 33.7016 22.3799 33.4714C22.0462 33.2297 21.6491 33.1089 21.1887 33.1089C20.5787 33.1089 20.0607 33.3391 19.6349 33.7995C19.209 34.2599 18.9961 34.8987 18.9961 35.7158C18.9961 36.533 19.209 37.1718 19.6349 37.6322C20.0607 38.0926 20.5787 38.3228 21.1887 38.3228C21.6491 38.3228 22.0462 38.2077 22.3799 37.9775C22.7252 37.7473 22.9554 37.4193 23.0705 36.9934H25.4013C25.1941 37.9603 24.7164 38.7372 23.9683 39.3242C23.2202 39.9112 22.2994 40.2047 21.2059 40.2047Z" fill="white"/>
<path d="M28.4331 43.7957L30.4186 39.4278H29.9006L26.5685 31.4342H28.9683L31.3681 37.4596L33.8715 31.4342H36.2195L30.7811 43.7957H28.4331Z" fill="white"/>
<path d="M42.7401 40.2047C42.0955 40.2047 41.5315 40.0838 41.0481 39.8421C40.5647 39.6004 40.1734 39.2609 39.8741 38.8235L39.6324 39.9975H37.6642V27.5669H39.8741V32.66C40.1503 32.2802 40.5129 31.9464 40.9618 31.6586C41.4222 31.3709 42.0149 31.227 42.7401 31.227C43.5457 31.227 44.2651 31.4227 44.8982 31.814C45.5312 32.2054 46.0319 32.7406 46.4002 33.4196C46.7685 34.0987 46.9527 34.8699 46.9527 35.7331C46.9527 36.5964 46.7685 37.3675 46.4002 38.0466C46.0319 38.7142 45.5312 39.2436 44.8982 39.6349C44.2651 40.0148 43.5457 40.2047 42.7401 40.2047ZM42.2739 38.271C42.976 38.271 43.5573 38.0351 44.0177 37.5632C44.478 37.0913 44.7082 36.4813 44.7082 35.7331C44.7082 34.985 44.478 34.3692 44.0177 33.8858C43.5573 33.4024 42.976 33.1607 42.2739 33.1607C41.5603 33.1607 40.9733 33.4024 40.5129 33.8858C40.064 34.3577 39.8396 34.9677 39.8396 35.7158C39.8396 36.464 40.064 37.0798 40.5129 37.5632C40.9733 38.0351 41.5603 38.271 42.2739 38.271Z" fill="white"/>
<path d="M48.9268 39.9975V31.4342H50.895L51.1021 33.0398C51.4129 32.4873 51.833 32.05 52.3625 31.7277C52.9034 31.3939 53.5365 31.227 54.2616 31.227V33.5578H53.64C53.1566 33.5578 52.725 33.6326 52.3452 33.7822C51.9654 33.9318 51.6661 34.1908 51.4474 34.5591C51.2402 34.9274 51.1367 35.4396 51.1367 36.0957V39.9975H48.9268Z" fill="white"/>
</svg>
