<svg xmlns="http://www.w3.org/2000/svg" fill="none" viewBox="0 0 70 70"><path fill="#E981A0" d="M4.36 39.36C1.95204 36.952 1.95204 33.048 4.36 30.64L30.64 4.36001C33.048 1.95204 36.952 1.95204 39.36 4.36001L65.64 30.64C68.048 33.048 68.048 36.952 65.64 39.36L39.36 65.64C36.952 68.048 33.048 68.048 30.64 65.64L4.36 39.36Z"/><path fill="#fff" d="M20.0212 39.755C19.2155 39.755 18.4961 39.5593 17.8631 39.168C17.2301 38.7766 16.7294 38.2414 16.3611 37.5624C15.9928 36.8833 15.8086 36.1121 15.8086 35.2489C15.8086 34.3856 15.9928 33.6202 16.3611 32.9527C16.7294 32.2736 17.2301 31.7441 17.8631 31.3643C18.4961 30.973 19.2155 30.7773 20.0212 30.7773C20.6657 30.7773 21.2297 30.8982 21.7131 31.1399C22.1965 31.3816 22.5879 31.7211 22.8871 32.1585V27.1172H25.097V39.5478H23.1288L22.8871 38.322C22.6109 38.7018 22.2426 39.0356 21.7822 39.3234C21.3333 39.6111 20.7463 39.755 20.0212 39.755ZM20.4873 37.8213C21.2009 37.8213 21.7822 37.5854 22.2311 37.1135C22.6915 36.6301 22.9217 36.0143 22.9217 35.2661C22.9217 34.518 22.6915 33.908 22.2311 33.4361C21.7822 32.9527 21.2009 32.711 20.4873 32.711C19.7852 32.711 19.204 32.9469 18.7436 33.4188C18.2832 33.8907 18.053 34.5007 18.053 35.2489C18.053 35.997 18.2832 36.6128 18.7436 37.0962C19.204 37.5796 19.7852 37.8213 20.4873 37.8213Z"/><path fill="#fff" d="M30.8866 39.755C30.127 39.755 29.4594 39.6341 28.8839 39.3924C28.3084 39.1392 27.8481 38.7939 27.5028 38.3565C27.1575 37.9192 26.9503 37.4127 26.8812 36.8372H29.1084C29.1774 37.171 29.3616 37.4588 29.6608 37.7005C29.9716 37.9307 30.3687 38.0458 30.8521 38.0458C31.3355 38.0458 31.6866 37.9479 31.9053 37.7523C32.1355 37.5566 32.2506 37.3322 32.2506 37.0789C32.2506 36.7106 32.0894 36.4632 31.7671 36.3366C31.4449 36.1984 30.996 36.0661 30.4205 35.9395C30.0522 35.8589 29.6781 35.7611 29.2983 35.646C28.9185 35.5309 28.5674 35.387 28.2451 35.2143C27.9344 35.0302 27.6812 34.8 27.4855 34.5238C27.2898 34.236 27.192 33.885 27.192 33.4706C27.192 32.711 27.4912 32.0722 28.0898 31.5542C28.6998 31.0363 29.5515 30.7773 30.6449 30.7773C31.6578 30.7773 32.4635 31.0133 33.062 31.4852C33.672 31.9571 34.0346 32.6074 34.1497 33.4361H32.0606C31.934 32.803 31.4564 32.4865 30.6277 32.4865C30.2133 32.4865 29.891 32.5671 29.6608 32.7282C29.4422 32.8894 29.3328 33.0908 29.3328 33.3325C29.3328 33.5857 29.4997 33.7871 29.8335 33.9368C30.1673 34.0864 30.6104 34.2245 31.1629 34.3511C31.7614 34.4892 32.3081 34.6446 32.803 34.8173C33.3095 34.9784 33.7123 35.2259 34.0116 35.5596C34.3108 35.8819 34.4604 36.3481 34.4604 36.9581C34.472 37.4875 34.3338 37.9652 34.0461 38.3911C33.7583 38.8169 33.344 39.1507 32.803 39.3924C32.2621 39.6341 31.6233 39.755 30.8866 39.755Z"/><path fill="#fff" d="M40.0437 36.9926C39.6293 36.9926 39.2438 36.9466 38.887 36.8545L38.2482 37.4933C38.4438 37.5969 38.7086 37.6832 39.0423 37.7523C39.3761 37.8213 39.9171 37.8904 40.6652 37.9594C41.8047 38.063 42.6334 38.3335 43.1514 38.7709C43.6693 39.2083 43.9283 39.8125 43.9283 40.5837C43.9283 41.0901 43.7901 41.5678 43.5139 42.0167C43.2377 42.477 42.8118 42.8454 42.2363 43.1216C41.6608 43.4093 40.9242 43.5532 40.0264 43.5532C38.8064 43.5532 37.8223 43.323 37.0742 42.8626C36.326 42.4137 35.952 41.7347 35.952 40.8254C35.952 40.0542 36.326 39.3867 37.0742 38.8227C36.844 38.7191 36.6425 38.6097 36.4699 38.4946C36.3088 38.3796 36.1649 38.2587 36.0383 38.1321V37.735L37.5403 36.1466C36.8727 35.5596 36.539 34.8058 36.539 33.885C36.539 33.3095 36.6771 32.7858 36.9533 32.3139C37.2411 31.842 37.6439 31.4679 38.1618 31.1917C38.6798 30.9154 39.3071 30.7773 40.0437 30.7773C40.5271 30.7773 40.976 30.8464 41.3903 30.9845H44.6361V32.3311L43.1686 32.4347C43.3988 32.8721 43.5139 33.3555 43.5139 33.885C43.5139 34.4605 43.3758 34.9842 43.0996 35.4561C42.8233 35.928 42.4205 36.302 41.891 36.5783C41.3731 36.8545 40.7573 36.9926 40.0437 36.9926ZM40.0437 35.3007C40.4926 35.3007 40.8609 35.1798 41.1486 34.9381C41.4479 34.6964 41.5975 34.3511 41.5975 33.9022C41.5975 33.4533 41.4479 33.1081 41.1486 32.8663C40.8609 32.6246 40.4926 32.5038 40.0437 32.5038C39.5718 32.5038 39.192 32.6246 38.9042 32.8663C38.6165 33.1081 38.4726 33.4533 38.4726 33.9022C38.4726 34.3511 38.6165 34.6964 38.9042 34.9381C39.192 35.1798 39.5718 35.3007 40.0437 35.3007ZM37.9719 40.6009C37.9719 41.0268 38.1676 41.3433 38.5589 41.5505C38.9618 41.7692 39.4509 41.8785 40.0264 41.8785C40.5789 41.8785 41.0278 41.7634 41.3731 41.5332C41.7184 41.3146 41.891 41.0153 41.891 40.6355C41.891 40.3247 41.7759 40.0657 41.5457 39.8586C41.327 39.6514 40.8839 39.5248 40.2163 39.4787C39.7444 39.4442 39.3071 39.3924 38.9042 39.3234C38.5704 39.5075 38.3287 39.7089 38.1791 39.9276C38.041 40.1463 37.9719 40.3707 37.9719 40.6009Z"/><path fill="#fff" d="M46.2475 39.5478V30.9845H48.1985L48.3711 32.4347C48.6358 31.9283 49.0157 31.5255 49.5106 31.2262C50.017 30.9269 50.6098 30.7773 51.2888 30.7773C52.3478 30.7773 53.1707 31.1111 53.7577 31.7787C54.3447 32.4462 54.6382 33.4246 54.6382 34.7137V39.5478H52.4283V34.9208C52.4283 34.1842 52.2787 33.6202 51.9794 33.2289C51.6802 32.8376 51.214 32.6419 50.581 32.6419C49.9595 32.6419 49.4473 32.8606 49.0444 33.298C48.6531 33.7353 48.4574 34.3454 48.4574 35.128V39.5478H46.2475Z"/></svg>