<svg xmlns="http://www.w3.org/2000/svg" fill="none" viewBox="0 0 70 70"><path fill="#F9A857" d="M4.36 39.36C1.95204 36.952 1.95204 33.048 4.36 30.64L30.64 4.36001C33.048 1.95204 36.952 1.95204 39.36 4.36001L65.64 30.64C68.048 33.048 68.048 36.952 65.64 39.36L39.36 65.64C36.952 68.048 33.048 68.048 30.64 65.64L4.36 39.36Z"/><path fill="#fff" d="M16.1013 40.248V27.8174H18.3112V32.9968C18.599 32.5249 18.9845 32.1566 19.4679 31.8919C19.9629 31.6156 20.5268 31.4775 21.1599 31.4775C22.2188 31.4775 23.036 31.8113 23.6115 32.4789C24.1985 33.1464 24.492 34.1248 24.492 35.4139V40.248H22.2994V35.621C22.2994 34.8844 22.1497 34.3204 21.8505 33.9291C21.5627 33.5378 21.1023 33.3421 20.4693 33.3421C19.8478 33.3421 19.3298 33.5608 18.9155 33.9982C18.5126 34.4355 18.3112 35.0456 18.3112 35.8282V40.248H16.1013Z"/><path fill="#fff" d="M29.5574 40.4552C28.8208 40.4552 28.2165 40.3401 27.7446 40.1099C27.2727 39.8682 26.9217 39.5517 26.6915 39.1603C26.4613 38.769 26.3462 38.3374 26.3462 37.8655C26.3462 37.0713 26.657 36.4267 27.2785 35.9318C27.9 35.4369 28.8323 35.1894 30.0754 35.1894H32.2507V34.9822C32.2507 34.3952 32.0838 33.9636 31.75 33.6874C31.4163 33.4112 31.0019 33.273 30.507 33.273C30.0581 33.273 29.6668 33.3824 29.333 33.6011C28.9992 33.8082 28.792 34.119 28.7115 34.5334H26.5534C26.6109 33.9118 26.8181 33.3709 27.1749 32.9105C27.5432 32.4501 28.0151 32.099 28.5906 31.8573C29.1661 31.6041 29.8106 31.4775 30.5243 31.4775C31.7443 31.4775 32.7054 31.7825 33.4075 32.3925C34.1096 33.0026 34.4606 33.8658 34.4606 34.9822V40.248H32.5788L32.3716 38.8668C32.1184 39.3272 31.7616 39.707 31.3012 40.0063C30.8523 40.3055 30.271 40.4552 29.5574 40.4552ZM30.0581 38.7287C30.6911 38.7287 31.1803 38.5215 31.5256 38.1072C31.8824 37.6928 32.1069 37.1806 32.1989 36.5706H30.3171C29.7301 36.5706 29.31 36.6799 29.0568 36.8986C28.8035 37.1058 28.6769 37.3648 28.6769 37.6755C28.6769 38.0093 28.8035 38.2683 29.0568 38.4525C29.31 38.6366 29.6438 38.7287 30.0581 38.7287Z"/><path fill="#fff" d="M40.7648 40.4552C39.8901 40.4552 39.1189 40.2653 38.4513 39.8854C37.7838 39.5056 37.2543 38.9762 36.863 38.2971C36.4832 37.618 36.2932 36.8411 36.2932 35.9663C36.2932 35.0916 36.4832 34.3147 36.863 33.6356C37.2543 32.9565 37.7838 32.4271 38.4513 32.0472C39.1189 31.6674 39.8901 31.4775 40.7648 31.4775C41.8582 31.4775 42.779 31.7653 43.5272 32.3407C44.2753 32.9047 44.753 33.6874 44.9601 34.6887H42.6294C42.5143 34.2744 42.2841 33.9521 41.9388 33.7219C41.605 33.4802 41.2079 33.3594 40.7475 33.3594C40.1375 33.3594 39.6196 33.5896 39.1937 34.05C38.7679 34.5103 38.5549 35.1491 38.5549 35.9663C38.5549 36.7835 38.7679 37.4223 39.1937 37.8827C39.6196 38.3431 40.1375 38.5733 40.7475 38.5733C41.2079 38.5733 41.605 38.4582 41.9388 38.228C42.2841 37.9978 42.5143 37.6698 42.6294 37.2439H44.9601C44.753 38.2108 44.2753 38.9877 43.5272 39.5747C42.779 40.1617 41.8582 40.4552 40.7648 40.4552Z"/><path fill="#fff" d="M46.9216 40.248V27.8174H49.1315V35.1549L52.1701 31.6847H54.7943L51.2896 35.5865L55.364 40.248H52.6017L49.1315 35.9491V40.248H46.9216Z"/></svg>