<svg viewBox="0 0 70 70" fill="none" xmlns="http://www.w3.org/2000/svg">
<path d="M4.36 39.36C1.95204 36.952 1.95204 33.048 4.36001 30.64L30.64 4.36001C33.048 1.95204 36.952 1.95204 39.36 4.36001L65.64 30.64C68.048 33.048 68.048 36.952 65.64 39.36L39.36 65.64C36.952 68.048 33.048 68.048 30.64 65.64L4.36 39.36Z" fill="#816DFF"/>
<path d="M21.6004 30.3553C21.1976 30.3553 20.8638 30.2344 20.5991 29.9927C20.3458 29.751 20.2192 29.446 20.2192 29.0777C20.2192 28.7094 20.3458 28.4101 20.5991 28.1799C20.8638 27.9382 21.1976 27.8174 21.6004 27.8174C22.0033 27.8174 22.3313 27.9382 22.5845 28.1799C22.8492 28.4101 22.9816 28.7094 22.9816 29.0777C22.9816 29.446 22.8492 29.751 22.5845 29.9927C22.3313 30.2344 22.0033 30.3553 21.6004 30.3553ZM20.4955 40.248V31.6847H22.7054V40.248H20.4955Z" fill="white"/>
<path d="M25.012 40.248V31.6847H26.9629L27.1355 33.1349C27.4002 32.6285 27.7801 32.2256 28.275 31.9264C28.7814 31.6271 29.3742 31.4775 30.0533 31.4775C31.1122 31.4775 31.9351 31.8113 32.5221 32.4789C33.1091 33.1464 33.4026 34.1248 33.4026 35.4139V40.248H31.1927V35.621C31.1927 34.8844 31.0431 34.3204 30.7438 33.9291C30.4446 33.5378 29.9784 33.3421 29.3454 33.3421C28.7239 33.3421 28.2117 33.5608 27.8088 33.9982C27.4175 34.4355 27.2218 35.0456 27.2218 35.8282V40.248H25.012Z" fill="white"/>
<path d="M37.745 40.248L34.6028 31.6847H36.9163L39.0916 38.159L41.267 31.6847H43.5804L40.421 40.248H37.745Z" fill="white"/>
<path d="M48.9753 40.248C48.0775 40.248 47.3581 40.0293 46.8172 39.5919C46.2762 39.1546 46.0057 38.3776 46.0057 37.2612V33.532H44.5382V31.6847H46.0057L46.2647 29.3885H48.2156V31.6847H50.5291V33.532H48.2156V37.2785C48.2156 37.6928 48.3019 37.9806 48.4746 38.1417C48.6588 38.2913 48.9695 38.3661 49.4069 38.3661H50.4773V40.248H48.9753Z" fill="white"/>
</svg>
