<svg width="40" height="40" viewBox="0 0 40 40" fill="none" xmlns="http://www.w3.org/2000/svg">
<path d="M20.0045 9.7445C14.3291 9.7445 9.75125 14.3233 9.75125 20C9.75125 25.6767 14.3291 30.2555 20.0045 30.2555C25.6799 30.2555 30.2577 25.6767 30.2577 20C30.2577 14.3233 25.6799 9.7445 20.0045 9.7445ZM20.0045 26.6674C16.3369 26.6674 13.3385 23.6773 13.3385 20C13.3385 16.3227 16.3279 13.3326 20.0045 13.3326C23.681 13.3326 26.6704 16.3227 26.6704 20C26.6704 23.6773 23.6721 26.6674 20.0045 26.6674ZM33.0686 9.325C33.0686 10.6549 31.9978 11.7171 30.6771 11.7171C29.3475 11.7171 28.2856 10.646 28.2856 9.325C28.2856 8.00402 29.3564 6.93295 30.6771 6.93295C31.9978 6.93295 33.0686 8.00402 33.0686 9.325ZM39.8595 11.7528C39.7078 8.54848 38.976 5.71014 36.6291 3.37164C34.2911 1.03314 31.4534 0.301238 28.2499 0.140578C24.9481 -0.0468593 15.0519 -0.0468593 11.7501 0.140578C8.55549 0.292313 5.71779 1.02421 3.37089 3.36271C1.02398 5.70122 0.301171 8.53955 0.140547 11.7438C-0.0468489 15.0463 -0.0468489 24.9448 0.140547 28.2472C0.292248 31.4515 1.02398 34.2899 3.37089 36.6284C5.71779 38.9669 8.54657 39.6988 11.7501 39.8594C15.0519 40.0469 24.9481 40.0469 28.2499 39.8594C31.4534 39.7077 34.2911 38.9758 36.6291 36.6284C38.9671 34.2899 39.6988 31.4515 39.8595 28.2472C40.0468 24.9448 40.0468 15.0552 39.8595 11.7528ZM35.594 31.7907C34.8979 33.5401 33.5505 34.8879 31.7925 35.593C29.1601 36.6373 22.9136 36.3963 20.0045 36.3963C17.0954 36.3963 10.8399 36.6284 8.2164 35.593C6.46737 34.8968 5.11991 33.549 4.41495 31.7907C3.37089 29.1576 3.61182 22.9097 3.61182 20C3.61182 17.0903 3.37981 10.8334 4.41495 8.2093C5.11099 6.45989 6.45845 5.11213 8.2164 4.40701C10.8489 3.36271 17.0954 3.6037 20.0045 3.6037C22.9136 3.6037 29.169 3.37164 31.7925 4.40701C33.5416 5.1032 34.889 6.45096 35.594 8.2093C36.638 10.8424 36.3971 17.0903 36.3971 20C36.3971 22.9097 36.638 29.1666 35.594 31.7907Z" fill="white"/>
</svg>
