<svg xmlns="http://www.w3.org/2000/svg" width="55" height="55" fill="none" viewBox="0 0 55 55"><path fill="#fff" fill-rule="evenodd" d="M6.80149e-07 4.59501C6.80149e-07 3.37634 0.484115 2.20758 1.34584 1.34585C2.20757 0.484121 3.37633 6.12578e-06 4.595 6.12578e-06H50.4C51.0039 -0.000980253 51.6021 0.117163 52.1604 0.347673C52.7186 0.578182 53.2258 0.916531 53.6531 1.34335C54.0804 1.77016 54.4193 2.27706 54.6504 2.83503C54.8815 3.393 55.0003 3.99107 55 4.59501V50.4C55.0007 51.0041 54.8822 51.6023 54.6514 52.1605C54.4206 52.7188 54.0821 53.226 53.655 53.6533C53.228 54.0805 52.721 54.4194 52.1628 54.6505C51.6047 54.8816 51.0065 55.0003 50.4025 55H4.595C3.99137 55 3.39365 54.8811 2.83599 54.65C2.27834 54.4189 1.77168 54.0802 1.34496 53.6533C0.918243 53.2263 0.57983 52.7195 0.349057 52.1617C0.118283 51.6039 -0.000327739 51.0061 6.80149e-07 50.4025V4.59501ZM21.77 20.97H29.2175V24.71C30.2925 22.56 33.0425 20.625 37.175 20.625C45.0975 20.625 46.975 24.9075 46.975 32.765V47.32H38.9575V34.555C38.9575 30.08 37.8825 27.555 35.1525 27.555C31.365 27.555 29.79 30.2775 29.79 34.555V47.32H21.77V20.97ZM8.02 46.9775H16.04V20.625H8.02V46.975V46.9775ZM17.1875 12.03C17.2026 12.7167 17.0804 13.3995 16.8281 14.0383C16.5758 14.6771 16.1984 15.2591 15.7181 15.7501C15.2378 16.2411 14.6642 16.6312 14.0311 16.8975C13.398 17.1639 12.7181 17.301 12.0313 17.301C11.3444 17.301 10.6645 17.1639 10.0314 16.8975C9.39825 16.6312 8.82472 16.2411 8.34442 15.7501C7.86412 15.2591 7.48673 14.6771 7.2344 14.0383C6.98207 13.3995 6.85988 12.7167 6.875 12.03C6.90468 10.6821 7.46096 9.39948 8.42471 8.45672C9.38846 7.51396 10.6831 6.98605 12.0313 6.98605C13.3794 6.98605 14.674 7.51396 15.6378 8.45672C16.6015 9.39948 17.1578 10.6821 17.1875 12.03Z" clip-rule="evenodd"/></svg>