<svg xmlns="http://www.w3.org/2000/svg" width="131" height="131" fill="none" viewBox="0 0 131 131"><path fill="#fff" d="M65.5815 5.73C69.1153 5.76139 72.6132 7.20514 75.1423 9.68596C90.5632 25.0087 105.886 40.4294 121.258 55.8012C125.214 59.7815 126.394 66.2741 123.926 71.4301C123.27 72.8006 122.38 74.0559 121.314 75.1434C105.99 90.5635 90.57 105.887 75.1982 121.259C71.2159 125.216 64.7257 126.395 59.5695 123.927C58.1985 123.271 56.9451 122.383 55.856 121.314C40.4374 105.989 25.1124 90.5709 9.74057 75.1991C5.76759 71.2006 4.61781 64.6983 7.07273 59.5703C7.72912 58.1991 8.61682 56.9464 9.68541 55.857C25.0094 40.4377 40.4287 25.1134 55.8004 9.74176C58.2981 7.25957 61.7806 5.78366 65.3351 5.73062C65.4173 5.72999 65.4994 5.72974 65.5815 5.73ZM65.4891 17.8042C65.0634 17.8081 64.644 17.9798 64.3399 18.2782C48.9432 33.5798 33.6413 48.9768 18.292 64.326C17.6745 64.9435 17.6662 66.0368 18.2776 66.6602C33.5778 82.0582 48.9761 97.3587 64.3252 112.708C64.9463 113.329 66.0361 113.333 66.6592 112.722C82.0565 97.4215 97.3575 82.0239 112.707 66.6746C113.32 66.0615 113.332 64.9633 112.722 64.3409C97.4194 48.9449 82.0231 33.6424 66.6738 18.2931C66.3599 17.9792 65.9235 17.803 65.4891 17.8042Z"/><path fill="#fff" d="M41.6319 56.3469C44.0643 56.3469 45.8704 56.949 47.0509 58.1533C48.2312 59.3574 48.8213 61.1875 48.8213 63.6437V72.3711C48.8213 73.0148 48.6305 73.5217 48.2491 73.8912C47.8676 74.2608 47.3429 74.4457 46.6752 74.4457C46.0553 74.4457 45.5487 74.2548 45.1551 73.8734C44.7617 73.4919 44.565 72.991 44.565 72.3711V71.5842C44.1595 72.5142 43.5217 73.2414 42.6513 73.7661C41.7811 74.2907 40.7735 74.553 39.629 74.553C38.4606 74.553 37.3993 74.3145 36.4456 73.8377C35.4918 73.3608 34.7406 72.705 34.1921 71.8703C33.6436 71.0357 33.3695 70.1058 33.3695 69.0804C33.3695 67.7928 33.6974 66.7793 34.3532 66.0402C35.0088 65.3009 36.076 64.7643 37.5544 64.4304C39.0329 64.0968 41.0715 63.9298 43.6707 63.9298H44.565V63.1071C44.565 61.9387 44.3146 61.0861 43.8137 60.5498C43.3131 60.0132 42.5023 59.745 41.3815 59.745C40.69 59.745 39.9866 59.8461 39.2713 60.0489C38.5558 60.2516 37.7094 60.5436 36.7316 60.9253C36.1117 61.2353 35.6586 61.3902 35.3726 61.3902C34.9433 61.3902 34.5916 61.2353 34.3173 60.9253C34.0431 60.6152 33.906 60.2099 33.906 59.7091C33.906 59.3038 34.0074 58.9521 34.2099 58.6539C34.4127 58.3558 34.7525 58.0757 35.2294 57.8135C36.0641 57.3604 37.0595 57.0027 38.216 56.7403C39.3727 56.478 40.5111 56.3469 41.6319 56.3469ZM40.5232 71.3339C41.7154 71.3339 42.687 70.9343 43.4382 70.1355C44.1894 69.3367 44.565 68.3054 44.565 67.0416V66.2905H43.9211C42.3234 66.2905 41.0834 66.362 40.2013 66.5052C39.3189 66.6482 38.6871 66.8985 38.3055 67.2562C37.924 67.6139 37.7332 68.1028 37.7332 68.7227C37.7332 69.4859 38.0016 70.1117 38.5379 70.6005C39.0745 71.0895 39.7363 71.3339 40.5232 71.3339Z"/><path fill="#fff" d="M61.1216 74.553C59.3808 74.553 57.8488 74.1834 56.5253 73.4441C55.2019 72.705 54.1825 71.6558 53.4672 70.2966C52.7517 68.9374 52.394 67.3516 52.394 65.5393C52.394 63.727 52.7698 62.1234 53.5208 60.7285C54.272 59.3336 55.3271 58.2544 56.6863 57.4915C58.0455 56.7284 59.6073 56.3469 61.372 56.3469C62.3019 56.3469 63.2378 56.478 64.1797 56.7403C65.1217 57.0027 65.9503 57.3604 66.6656 57.8135C67.4288 58.3141 67.8102 58.9461 67.8102 59.7091C67.8102 60.2338 67.685 60.6569 67.4347 60.9788C67.1844 61.3008 66.8565 61.4619 66.451 61.4619C66.1888 61.4619 65.9146 61.4021 65.6284 61.2829C65.3423 61.1637 65.0561 61.0207 64.77 60.8537C64.2453 60.5436 63.7447 60.2992 63.2676 60.1205C62.7907 59.9416 62.2422 59.8521 61.6223 59.8521C60.1439 59.8521 59.0053 60.3351 58.2064 61.3008C57.4076 62.2666 57.0083 63.6556 57.0083 65.4679C57.0083 67.2562 57.4076 68.6333 58.2064 69.5991C59.0053 70.5648 60.1439 71.0476 61.6223 71.0476C62.2184 71.0476 62.7491 70.9584 63.214 70.7794C63.679 70.6005 64.1977 70.3561 64.77 70.0463C65.1277 69.8316 65.4375 69.6705 65.7 69.5632C65.9622 69.4559 66.2245 69.4024 66.4869 69.4024C66.8684 69.4024 67.1903 69.5692 67.4526 69.903C67.7148 70.2369 67.8459 70.6543 67.8459 71.1549C67.8459 71.5604 67.7567 71.9121 67.5777 72.2101C67.399 72.5082 67.1068 72.7764 66.7013 73.0148C65.9622 73.4919 65.1037 73.8674 64.1261 74.1416C63.1484 74.4159 62.147 74.553 61.1216 74.553Z"/><path fill="#fff" d="M91.6814 56.3469C93.5891 56.3469 95.0495 56.9133 96.0629 58.0459C97.0764 59.1786 97.5832 61.0088 97.5832 63.5364V72.3354C97.5832 73.0269 97.3745 73.5574 96.9572 73.9269C96.5398 74.2967 95.9975 74.4814 95.3298 74.4814C94.6859 74.4814 94.1554 74.2967 93.7381 73.9269C93.3207 73.5574 93.1122 73.0269 93.1122 72.3354V63.5364C93.1122 62.2248 92.8795 61.2889 92.4145 60.7285C91.9496 60.1681 91.2402 59.888 90.2864 59.888C89.1181 59.888 88.1879 60.2873 87.4964 61.0861C86.8049 61.885 86.4591 62.976 86.4591 64.359V72.3354C86.4591 73.0269 86.2507 73.5574 85.8333 73.9269C85.4159 74.2967 84.8855 74.4814 84.2416 74.4814C83.5977 74.4814 83.0613 74.2967 82.632 73.9269C82.2028 73.5574 81.9881 73.0269 81.9881 72.3354V63.5364C81.9881 62.2248 81.7556 61.2889 81.2906 60.7285C80.8257 60.1681 80.1163 59.888 79.1626 59.888C77.994 59.888 77.07 60.2873 76.3904 61.0861C75.7108 61.885 75.371 62.976 75.371 64.359V72.3354C75.371 73.0269 75.1565 73.5574 74.7272 73.9269C74.298 74.2967 73.7614 74.4814 73.1177 74.4814C72.4738 74.4814 71.9432 74.2967 71.526 73.9269C71.1086 73.5574 70.8999 73.0269 70.8999 72.3354V58.4931C70.8999 57.8254 71.1146 57.3126 71.5438 56.9549C71.9731 56.5973 72.5095 56.4183 73.1534 56.4183C73.7733 56.4183 74.2801 56.5913 74.6735 56.9371C75.0671 57.2828 75.2638 57.7776 75.2638 58.4215V59.2798C75.8121 58.326 76.5455 57.5988 77.4635 57.0979C78.3816 56.5973 79.4367 56.3469 80.6289 56.3469C83.2519 56.3469 85.0047 57.4437 85.8868 59.6377C86.4115 58.6361 87.1866 57.8373 88.2119 57.2412C89.2373 56.6449 90.3938 56.3469 91.6814 56.3469Z"/></svg>