<svg width="482" height="298" viewBox="0 0 482 298" fill="none" xmlns="http://www.w3.org/2000/svg">

<path d="M241 44.1111C304.391 44.1111 356.754 93.6005 360.32 156.884C363.886 220.167 317.414 275.224 254.424 282.344L241 163.606V44.1111Z" fill="#3D9DFF"/>
<path d="M180.365 60.6336C198.74 49.8158 219.676 44.1111 241 44.1111V163.606L180.365 60.6336Z" fill="#A896FF"/>
<path d="M149.669 86.5361C158.367 76.2322 168.745 67.4744 180.365 60.6335L241 163.606L149.669 86.5361Z" fill="#A6E4FF"/>
<path d="M127.646 125.75C132.439 111.403 139.912 98.0958 149.669 86.5359L241 163.605L127.646 125.75Z" fill="#88FF8D"/>
<path d="M121.68 170.327C120.829 155.225 122.853 140.098 127.646 125.75L241 163.605L121.68 170.327Z" fill="#F8FC3B"/>
<path d="M146.592 236.874C131.731 217.73 123.043 194.522 121.68 170.327L241 163.605L146.592 236.874Z" fill="#FDA44E"/>
<path d="M254.424 282.344C213.009 287.025 172.147 269.794 146.592 236.873L241 163.605L254.424 282.344Z" fill="#FC3B7D"/>
<path d="M20.5251 46.8973V51.5535C20.5167 52.1978 20.3117 52.7291 19.91 53.1474C19.5084 53.5574 18.9644 53.7875 18.2783 53.8377L18.0272 53.8503C17.2825 53.8503 16.6842 53.6495 16.2323 53.2478C15.7888 52.8379 15.567 52.2773 15.567 51.5661V46.8973H16.4582V51.541C16.4582 52.0346 16.5921 52.4195 16.8599 52.6956C17.136 52.9717 17.5251 53.1098 18.0272 53.1098C18.546 53.1098 18.9393 52.9717 19.2071 52.6956C19.4749 52.4195 19.6088 52.0346 19.6088 51.541V46.8973H20.5251ZM22.8096 48.6543L22.8347 49.2944C23.228 48.8091 23.7384 48.5665 24.366 48.5665C25.4455 48.5665 25.9894 49.1731 25.9978 50.3863V53.7499H25.1192V50.3738C25.1192 50.014 25.0355 49.7462 24.8681 49.5705C24.7091 49.3948 24.4539 49.307 24.1024 49.307C23.8179 49.307 23.5669 49.3823 23.3493 49.5329C23.1401 49.6835 22.9769 49.8801 22.8598 50.1228V53.7499H21.9937V48.6543H22.8096ZM27.4036 51.1644C27.4036 50.3779 27.5877 49.7504 27.9559 49.2819C28.3241 48.8049 28.8095 48.5665 29.412 48.5665C30.0061 48.5665 30.4789 48.7673 30.8303 49.1689V46.5208H31.6964V53.7499H30.8931L30.8555 53.1976C30.504 53.6327 30.0186 53.8503 29.3994 53.8503C28.8136 53.8503 28.3325 53.6076 27.9559 53.1223C27.5877 52.637 27.4036 52.0053 27.4036 51.2272V51.1644ZM28.2697 51.2649C28.2697 51.8422 28.3869 52.294 28.6212 52.6203C28.8639 52.9466 29.1944 53.1098 29.6128 53.1098C30.1651 53.1098 30.5709 52.8588 30.8303 52.3567V50.0224C30.5709 49.5454 30.1693 49.307 29.6253 49.307C29.1986 49.307 28.8639 49.4701 28.6212 49.7964C28.3869 50.1228 28.2697 50.6122 28.2697 51.2649ZM35.3491 53.8503C34.6546 53.8503 34.0897 53.6244 33.6546 53.1725C33.2278 52.7123 33.0144 52.1016 33.0144 51.3402V51.1895C33.0144 50.6792 33.1106 50.2273 33.3031 49.8341C33.4956 49.4325 33.7634 49.1229 34.1064 48.9054C34.4579 48.6794 34.8345 48.5665 35.2361 48.5665C35.8972 48.5665 36.4118 48.784 36.78 49.2191C37.1482 49.6542 37.3323 50.2775 37.3323 51.0891V51.4531H33.8805C33.8972 51.9551 34.0437 52.3609 34.3198 52.6705C34.6043 52.9801 34.9642 53.1349 35.3993 53.1349C35.7006 53.1349 35.9558 53.0721 36.165 52.9466C36.3826 52.8211 36.575 52.6538 36.7424 52.4446L37.2696 52.8588C36.8428 53.5198 36.2026 53.8503 35.3491 53.8503ZM35.2361 49.2819C34.8847 49.2819 34.5876 49.4116 34.3449 49.6709C34.1106 49.9219 33.9684 50.2775 33.9182 50.7377H36.4662V50.675C36.4411 50.2315 36.3198 49.8885 36.1022 49.6458C35.893 49.4032 35.6043 49.2819 35.2361 49.2819ZM40.0938 53.1349C40.4034 53.1349 40.6754 53.0428 40.9097 52.8588C41.144 52.6663 41.2737 52.4279 41.2988 52.1434H42.1272C42.1105 52.4362 42.0059 52.7165 41.8134 52.9843C41.6293 53.2437 41.3825 53.4528 41.0728 53.6118C40.7716 53.7708 40.4452 53.8503 40.0938 53.8503C39.3992 53.8503 38.8469 53.6202 38.4369 53.16C38.0352 52.6914 37.8344 52.0555 37.8344 51.2523V51.1017C37.8344 50.608 37.9223 50.1688 38.098 49.7839C38.2821 49.399 38.5415 49.102 38.8762 48.8928C39.2193 48.6753 39.6252 48.5665 40.0938 48.5665C40.6628 48.5665 41.1356 48.738 41.5122 49.0811C41.8971 49.4157 42.1021 49.8592 42.1272 50.4114H41.2988C41.2737 50.0767 41.1482 49.8048 40.9222 49.5956C40.6963 49.3865 40.4201 49.2819 40.0938 49.2819C39.6503 49.2819 39.3072 49.4408 39.0645 49.7588C38.8218 50.0767 38.7005 50.5369 38.7005 51.1393V51.3025C38.7005 51.8882 38.8218 52.34 39.0645 52.658C39.3072 52.9759 39.6503 53.1349 40.0938 53.1349ZM43.8218 53.7499H42.9557V46.5208H43.8218V53.7499ZM48.4284 53.7499C48.3782 53.6495 48.3363 53.4696 48.3028 53.2102C47.9012 53.6369 47.42 53.8503 46.8594 53.8503C46.3573 53.8503 45.9431 53.708 45.6167 53.4235C45.2987 53.1391 45.1397 52.7751 45.1397 52.3316C45.1397 51.8045 45.3406 51.3945 45.7422 51.1017C46.1439 50.8088 46.7129 50.6624 47.4493 50.6624H48.2903V50.2608C48.2903 49.9596 48.1982 49.7211 48.0142 49.5454C47.8384 49.3614 47.5706 49.2693 47.2108 49.2693C46.9012 49.2693 46.6418 49.3488 46.4326 49.5078C46.2234 49.6584 46.1188 49.8466 46.1188 50.0726H45.2401C45.2401 49.8132 45.328 49.5663 45.5037 49.3321C45.6878 49.0978 45.9347 48.9137 46.2443 48.7798C46.5539 48.6376 46.8928 48.5665 47.261 48.5665C47.8552 48.5665 48.3154 48.7129 48.6418 49.0058C48.9765 49.2986 49.1522 49.7002 49.1689 50.2106V52.5576C49.1689 53.0261 49.2275 53.3984 49.3447 53.6746V53.7499H48.4284ZM46.9849 53.0847C47.261 53.0847 47.5204 53.0136 47.7631 52.8713C48.0058 52.7291 48.1815 52.545 48.2903 52.3191V51.2774H47.6125C46.5414 51.2774 46.0058 51.5912 46.0058 52.2187C46.0058 52.4864 46.0979 52.6998 46.282 52.8588C46.4661 53.0094 46.7004 53.0847 46.9849 53.0847ZM53.3739 49.4325C53.24 49.4157 53.0977 49.4074 52.9471 49.4074C52.3697 49.4074 51.9806 49.65 51.7798 50.1353V53.7499H50.9137V48.6543H51.7547L51.7672 49.2442C52.0517 48.7924 52.4576 48.5665 52.9848 48.5665C53.1521 48.5665 53.2818 48.5874 53.3739 48.6292V49.4325ZM56.2358 53.8503C55.5412 53.8503 54.9764 53.6244 54.5412 53.1725C54.1145 52.7123 53.9011 52.1016 53.9011 51.3402V51.1895C53.9011 50.6792 53.9973 50.2273 54.1898 49.8341C54.3822 49.4325 54.65 49.1229 54.9931 48.9054C55.3446 48.6794 55.7211 48.5665 56.1228 48.5665C56.7839 48.5665 57.2985 48.784 57.6667 49.2191C58.0349 49.6542 58.219 50.2775 58.219 51.0891V51.4531H54.7672C54.7839 51.9551 54.9304 52.3609 55.2065 52.6705C55.491 52.9801 55.8508 53.1349 56.286 53.1349C56.5872 53.1349 56.8425 53.0721 57.0517 52.9466C57.2692 52.8211 57.4617 52.6538 57.6291 52.4446L58.1562 52.8588C57.7295 53.5198 57.0893 53.8503 56.2358 53.8503ZM56.1228 49.2819C55.7713 49.2819 55.4743 49.4116 55.2316 49.6709C54.9973 49.9219 54.855 50.2775 54.8048 50.7377H57.3529V50.675C57.3278 50.2315 57.2065 49.8885 56.9889 49.6458C56.7797 49.4032 56.491 49.2819 56.1228 49.2819ZM58.7336 51.1644C58.7336 50.3779 58.9177 49.7504 59.2859 49.2819C59.6541 48.8049 60.1395 48.5665 60.742 48.5665C61.3361 48.5665 61.8089 48.7673 62.1604 49.1689V46.5208H63.0264V53.7499H62.2231L62.1855 53.1976C61.834 53.6327 61.3487 53.8503 60.7294 53.8503C60.1437 53.8503 59.6625 53.6076 59.2859 53.1223C58.9177 52.637 58.7336 52.0053 58.7336 51.2272V51.1644ZM59.5997 51.2649C59.5997 51.8422 59.7169 52.294 59.9512 52.6203C60.1939 52.9466 60.5244 53.1098 60.9428 53.1098C61.4951 53.1098 61.9009 52.8588 62.1604 52.3567V50.0224C61.9009 49.5454 61.4993 49.307 60.9554 49.307C60.5286 49.307 60.1939 49.4701 59.9512 49.7964C59.7169 50.1228 59.5997 50.6122 59.5997 51.2649ZM67.1435 54.3397H66.403L69.2648 46.8973H70.0054L67.1435 54.3397ZM78.8044 50.5495C78.8044 51.2188 78.6914 51.8045 78.4655 52.3065C78.2396 52.8002 77.9174 53.1809 77.499 53.4486C77.089 53.7164 76.6078 53.8503 76.0555 53.8503C75.52 53.8503 75.043 53.7164 74.6246 53.4486C74.2062 53.1809 73.8798 52.8044 73.6455 52.3191C73.4196 51.8254 73.3024 51.2523 73.294 50.5997V50.1102C73.294 49.4492 73.407 48.8677 73.633 48.3657C73.8673 47.8637 74.1936 47.4788 74.612 47.211C75.0304 46.9349 75.5116 46.7969 76.0555 46.7969C76.5994 46.7969 77.0806 46.9307 77.499 47.1985C77.9174 47.4662 78.2396 47.8511 78.4655 48.3531C78.6914 48.8552 78.8044 49.4408 78.8044 50.1102V50.5495ZM77.9132 50.0977C77.9132 49.2861 77.75 48.6627 77.4237 48.2276C77.0973 47.7925 76.6413 47.575 76.0555 47.575C75.4781 47.575 75.0262 47.7925 74.6999 48.2276C74.3735 48.6627 74.2062 49.2651 74.1978 50.0349V50.5495C74.1978 51.336 74.361 51.9551 74.6873 52.407C75.0221 52.8504 75.4781 53.0721 76.0555 53.0721C76.6413 53.0721 77.0931 52.863 77.4111 52.4446C77.7375 52.0179 77.9049 51.4071 77.9132 50.6122V50.0977ZM81.0136 47.4244V48.6543H81.955V49.3321H81.0136V52.4823C81.0136 52.6914 81.0554 52.8462 81.1391 52.9466C81.2228 53.047 81.365 53.0972 81.5659 53.0972C81.6663 53.0972 81.8044 53.0805 81.9801 53.047V53.7499C81.7542 53.8168 81.5324 53.8503 81.3148 53.8503C80.9299 53.8503 80.637 53.7331 80.4362 53.4988C80.2354 53.2562 80.1349 52.9173 80.1349 52.4823V49.3321H79.2061V48.6543H80.1349V47.4244H81.0136ZM83.9131 49.2693C84.298 48.8008 84.8001 48.5665 85.4194 48.5665C86.4988 48.5665 87.0428 49.1731 87.0511 50.3863V53.7499H86.1725V50.3738C86.1725 50.014 86.0888 49.7462 85.9214 49.5705C85.7625 49.3948 85.5072 49.307 85.1558 49.307C84.8713 49.307 84.6202 49.3823 84.4026 49.5329C84.1934 49.6835 84.0303 49.8801 83.9131 50.1228V53.7499H83.047V46.5208H83.9131V49.2693ZM90.7791 53.8503C90.0845 53.8503 89.5197 53.6244 89.0846 53.1725C88.6578 52.7123 88.4444 52.1016 88.4444 51.3402V51.1895C88.4444 50.6792 88.5406 50.2273 88.7331 49.8341C88.9256 49.4325 89.1934 49.1229 89.5364 48.9054C89.8879 48.6794 90.2645 48.5665 90.6661 48.5665C91.3272 48.5665 91.8418 48.784 92.21 49.2191C92.5782 49.6542 92.7623 50.2775 92.7623 51.0891V51.4531H89.3105C89.3272 51.9551 89.4737 52.3609 89.7498 52.6705C90.0343 52.9801 90.3942 53.1349 90.8293 53.1349C91.1306 53.1349 91.3858 53.0721 91.595 52.9466C91.8126 52.8211 92.005 52.6538 92.1724 52.4446L92.6996 52.8588C92.2728 53.5198 91.6326 53.8503 90.7791 53.8503ZM90.6661 49.2819C90.3147 49.2819 90.0176 49.4116 89.7749 49.6709C89.5406 49.9219 89.3984 50.2775 89.3482 50.7377H91.8962V50.675C91.8711 50.2315 91.7498 49.8885 91.5322 49.6458C91.323 49.4032 91.0343 49.2819 90.6661 49.2819ZM95.9506 49.4325C95.8167 49.4157 95.6744 49.4074 95.5238 49.4074C94.9464 49.4074 94.5573 49.65 94.3564 50.1353V53.7499H93.4903V48.6543H94.3313L94.3439 49.2442C94.6284 48.7924 95.0343 48.5665 95.5614 48.5665C95.7288 48.5665 95.8585 48.5874 95.9506 48.6292V49.4325Z" fill="#757575"/>
<path d="M19.6339 63.1375C19.6339 63.4805 19.5419 63.7859 19.3578 64.0536C19.1737 64.3214 18.931 64.5306 18.6297 64.6812C18.9812 64.8318 19.2615 65.0577 19.4707 65.3589C19.6799 65.6517 19.7845 65.9864 19.7845 66.3629C19.7845 66.9486 19.5837 67.4214 19.182 67.7812C18.7887 68.1326 18.2657 68.3083 17.613 68.3083C16.9519 68.3083 16.4206 68.1326 16.0189 67.7812C15.6256 67.4214 15.429 66.9486 15.429 66.3629C15.429 65.9864 15.5294 65.6517 15.7302 65.3589C15.931 65.0577 16.2114 64.8318 16.5712 64.6812C16.2699 64.5306 16.0315 64.3214 15.8557 64.0536C15.68 63.7859 15.5921 63.4805 15.5921 63.1375C15.5921 62.5601 15.7762 62.1041 16.1444 61.7695C16.5126 61.4264 17.0021 61.2549 17.613 61.2549C18.2155 61.2549 18.7009 61.4264 19.0691 61.7695C19.4456 62.1041 19.6339 62.5601 19.6339 63.1375ZM18.9184 66.3378C18.9184 65.953 18.7971 65.6434 18.5544 65.4091C18.3118 65.1665 17.9938 65.0451 17.6005 65.0451C17.2072 65.0451 16.8892 65.1665 16.6465 65.4091C16.4122 65.6434 16.295 65.9571 16.295 66.3504C16.295 66.7353 16.4122 67.0407 16.6465 67.2666C16.8808 67.4841 17.203 67.5929 17.613 67.5929C18.0147 67.5929 18.3327 67.4799 18.567 67.254C18.8013 67.0281 18.9184 66.7227 18.9184 66.3378ZM17.613 61.9703C17.2699 61.9703 16.9896 62.079 16.772 62.2966C16.5628 62.5058 16.4582 62.7944 16.4582 63.1626C16.4582 63.5056 16.5628 63.7859 16.772 64.0034C16.9812 64.221 17.2574 64.3298 17.6005 64.3298C17.9519 64.3298 18.2323 64.221 18.4415 64.0034C18.6507 63.7859 18.7553 63.5056 18.7553 63.1626C18.7553 62.8111 18.6465 62.5267 18.4289 62.3091C18.2113 62.0832 17.9394 61.9703 17.613 61.9703ZM21.2029 67.7561C21.2029 67.6054 21.2448 67.4799 21.3284 67.3795C21.4205 67.2791 21.5544 67.2289 21.7301 67.2289C21.9142 67.2289 22.0523 67.2791 22.1443 67.3795C22.2364 67.4799 22.2824 67.6054 22.2824 67.7561C22.2824 67.8983 22.2364 68.0196 22.1443 68.12C22.0523 68.2121 21.9142 68.2581 21.7301 68.2581C21.5544 68.2581 21.4205 68.2121 21.3284 68.12C21.2448 68.0196 21.2029 67.8983 21.2029 67.7561ZM23.9016 64.769L24.2531 61.3553H27.7677V62.1585H24.9936L24.7803 64.0285C25.1233 63.8277 25.5083 63.7273 25.9351 63.7273C26.5543 63.7273 27.048 63.9365 27.4162 64.3549C27.7844 64.7648 27.9685 65.3213 27.9685 66.0241C27.9685 66.7269 27.776 67.2833 27.3911 67.6933C27.0145 68.1033 26.4832 68.3083 25.797 68.3083C25.1945 68.3083 24.7008 68.1409 24.3158 67.8063C23.9309 67.4632 23.7133 66.9947 23.6631 66.4006H24.479C24.5376 66.7938 24.6798 67.0909 24.9058 67.2917C25.1317 67.4925 25.4288 67.5929 25.797 67.5929C26.1986 67.5929 26.5166 67.4548 26.7509 67.1787C26.9852 66.9026 27.1024 66.5219 27.1024 66.0366C27.1024 65.5764 26.9769 65.2083 26.7258 64.9322C26.4748 64.6561 26.1401 64.518 25.7217 64.518C25.3451 64.518 25.048 64.5975 24.8305 64.7565L24.6045 64.9447L23.9016 64.769ZM29.048 62.6731C29.048 62.2631 29.1777 61.9242 29.4371 61.6565C29.7049 61.3888 30.0438 61.2549 30.4538 61.2549C30.8722 61.2549 31.2111 61.3888 31.4705 61.6565C31.7299 61.9242 31.8596 62.2715 31.8596 62.6982V63.0371C31.8596 63.447 31.7257 63.7859 31.458 64.0536C31.1986 64.313 30.868 64.4427 30.4664 64.4427C30.0563 64.4427 29.7174 64.313 29.4496 64.0536C29.1819 63.7859 29.048 63.4345 29.048 62.9994V62.6731ZM29.7007 63.0371C29.7007 63.2797 29.7676 63.4805 29.9015 63.6395C30.0438 63.7985 30.232 63.8779 30.4664 63.8779C30.6923 63.8779 30.8722 63.8026 31.0061 63.652C31.14 63.4931 31.2069 63.2797 31.2069 63.012V62.6731C31.2069 62.4304 31.14 62.2296 31.0061 62.0707C30.8722 61.9033 30.6881 61.8197 30.4538 61.8197C30.2195 61.8197 30.0354 61.9033 29.9015 62.0707C29.7676 62.2296 29.7007 62.4346 29.7007 62.6856V63.0371ZM32.3868 66.5261C32.3868 66.1161 32.5165 65.7814 32.7759 65.5221C33.0437 65.2543 33.3826 65.1204 33.7927 65.1204C34.2027 65.1204 34.5374 65.2543 34.7968 65.5221C35.0646 65.7814 35.1985 66.1287 35.1985 66.5638V66.8901C35.1985 67.3 35.0688 67.6389 34.8094 67.9067C34.55 68.1744 34.2152 68.3083 33.8052 68.3083C33.3952 68.3083 33.0563 68.1786 32.7885 67.9192C32.5207 67.6515 32.3868 67.3 32.3868 66.865V66.5261ZM33.0395 66.8901C33.0395 67.1411 33.1065 67.3461 33.2404 67.505C33.3826 67.664 33.5709 67.7435 33.8052 67.7435C34.0311 67.7435 34.2111 67.6682 34.3449 67.5176C34.4788 67.3586 34.5458 67.1453 34.5458 66.8775V66.5261C34.5458 66.2751 34.4747 66.0743 34.3324 65.9237C34.1985 65.7647 34.0186 65.6852 33.7927 65.6852C33.5667 65.6852 33.3826 65.7647 33.2404 65.9237C33.1065 66.0743 33.0395 66.2835 33.0395 66.5512V66.8901ZM30.6672 67.6933L30.1651 67.3795L33.5165 62.0205L34.006 62.3342L30.6672 67.6933Z" fill="#9E9E9E"/>
<path d="M14.9019 57.3644H116.671L211.148 54.0801" stroke="#757575" stroke-miterlimit="10"/>
<path d="M212.755 54.0801C212.755 53.1929 212.035 52.4736 211.148 52.4736C210.261 52.4736 209.541 53.1929 209.541 54.0801C209.541 54.9673 210.261 55.6866 211.148 55.6866C212.035 55.6866 212.755 54.9673 212.755 54.0801Z" fill="#9E9E9E"/>
<path d="M19.5712 77.0937H16.5964V79.516H20.0482V80.2565H15.6926V73.4039H20.0105V74.1443H16.5964V76.3532H19.5712V77.0937ZM22.1318 80.2565H21.2658V73.0273H22.1318V80.2565ZM25.7092 80.3569C25.0146 80.3569 24.4498 80.1309 24.0147 79.6791C23.5879 79.2189 23.3745 78.6082 23.3745 77.8468V77.6961C23.3745 77.1858 23.4707 76.7339 23.6632 76.3407C23.8557 75.9391 24.1234 75.6295 24.4665 75.4119C24.818 75.186 25.1946 75.0731 25.5962 75.0731C26.2573 75.0731 26.7719 75.2906 27.1401 75.7257C27.5083 76.1608 27.6924 76.7841 27.6924 77.5957V77.9597H24.2406C24.2573 78.4617 24.4038 78.8675 24.6799 79.1771C24.9644 79.4867 25.3243 79.6415 25.7594 79.6415C26.0606 79.6415 26.3159 79.5787 26.5251 79.4532C26.7426 79.3277 26.9351 79.1604 27.1025 78.9512L27.6297 79.3654C27.2029 80.0264 26.5627 80.3569 25.7092 80.3569ZM25.5962 75.7885C25.2448 75.7885 24.9477 75.9182 24.705 76.1775C24.4707 76.4285 24.3285 76.7841 24.2783 77.2443H26.8263V77.1816C26.8012 76.7381 26.6799 76.3951 26.4623 76.1524C26.2531 75.9098 25.9644 75.7885 25.5962 75.7885ZM30.4539 79.6415C30.7635 79.6415 31.0355 79.5494 31.2698 79.3654C31.5041 79.1729 31.6338 78.9345 31.6589 78.65H32.4873C32.4706 78.9428 32.366 79.2231 32.1735 79.4909C31.9894 79.7502 31.7426 79.9594 31.4329 80.1184C31.1317 80.2774 30.8053 80.3569 30.4539 80.3569C29.7593 80.3569 29.207 80.1268 28.797 79.6666C28.3953 79.198 28.1945 78.5621 28.1945 77.7589V77.6083C28.1945 77.1146 28.2824 76.6754 28.4581 76.2905C28.6422 75.9056 28.9016 75.6086 29.2363 75.3994C29.5794 75.1819 29.9853 75.0731 30.4539 75.0731C31.0229 75.0731 31.4957 75.2446 31.8723 75.5877C32.2572 75.9223 32.4622 76.3658 32.4873 76.918H31.6589C31.6338 76.5833 31.5083 76.3114 31.2823 76.1022C31.0564 75.893 30.7802 75.7885 30.4539 75.7885C30.0104 75.7885 29.6673 75.9474 29.4246 76.2654C29.1819 76.5833 29.0606 77.0435 29.0606 77.6459V77.8091C29.0606 78.3948 29.1819 78.8466 29.4246 79.1646C29.6673 79.4825 30.0104 79.6415 30.4539 79.6415ZM34.4203 73.931V75.1609H35.3617V75.8387H34.4203V78.9889C34.4203 79.198 34.4622 79.3528 34.5459 79.4532C34.6295 79.5536 34.7718 79.6038 34.9726 79.6038C35.073 79.6038 35.2111 79.5871 35.3868 79.5536V80.2565C35.1609 80.3234 34.9392 80.3569 34.7216 80.3569C34.3367 80.3569 34.0438 80.2397 33.8429 80.0054C33.6421 79.7628 33.5417 79.4239 33.5417 78.9889V75.8387H32.6128V75.1609H33.5417V73.931H34.4203ZM38.914 75.9391C38.7801 75.9223 38.6378 75.914 38.4872 75.914C37.9098 75.914 37.5207 76.1566 37.3199 76.6419V80.2565H36.4538V75.1609H37.2948L37.3073 75.7508C37.5918 75.299 37.9977 75.0731 38.5249 75.0731C38.6922 75.0731 38.8219 75.094 38.914 75.1358V75.9391ZM40.6085 80.2565H39.7424V75.1609H40.6085V80.2565ZM39.6671 73.818C39.6671 73.6758 39.7089 73.5545 39.7926 73.4541C39.8847 73.3537 40.0144 73.3035 40.1817 73.3035C40.3491 73.3035 40.4746 73.3537 40.5583 73.4541C40.6504 73.5545 40.6964 73.6758 40.6964 73.818C40.6964 73.9519 40.6504 74.069 40.5583 74.1694C40.4746 74.2615 40.3491 74.3075 40.1817 74.3075C40.0144 74.3075 39.8847 74.2615 39.7926 74.1694C39.7089 74.069 39.6671 73.9519 39.6671 73.818ZM44.1105 79.6415C44.4202 79.6415 44.6921 79.5494 44.9264 79.3654C45.1607 79.1729 45.2904 78.9345 45.3155 78.65H46.144C46.1272 78.9428 46.0226 79.2231 45.8302 79.4909C45.6461 79.7502 45.3992 79.9594 45.0896 80.1184C44.7884 80.2774 44.462 80.3569 44.1105 80.3569C43.416 80.3569 42.8637 80.1268 42.4537 79.6666C42.052 79.198 41.8512 78.5621 41.8512 77.7589V77.6083C41.8512 77.1146 41.939 76.6754 42.1148 76.2905C42.2989 75.9056 42.5583 75.6086 42.893 75.3994C43.2361 75.1819 43.6419 75.0731 44.1105 75.0731C44.6796 75.0731 45.1524 75.2446 45.5289 75.5877C45.9139 75.9223 46.1189 76.3658 46.144 76.918H45.3155C45.2904 76.5833 45.1649 76.3114 44.939 76.1022C44.713 75.893 44.4369 75.7885 44.1105 75.7885C43.667 75.7885 43.3239 75.9474 43.0813 76.2654C42.8386 76.5833 42.7173 77.0435 42.7173 77.6459V77.8091C42.7173 78.3948 42.8386 78.8466 43.0813 79.1646C43.3239 79.4825 43.667 79.6415 44.1105 79.6415ZM50.0351 80.2565C49.9849 80.1561 49.9431 79.9762 49.9096 79.7168C49.5079 80.1435 49.0268 80.3569 48.4661 80.3569C47.964 80.3569 47.5498 80.2146 47.2235 79.9301C46.9055 79.6457 46.7465 79.2817 46.7465 78.8382C46.7465 78.3111 46.9473 77.9011 47.349 77.6083C47.7506 77.3154 48.3197 77.169 49.0561 77.169H49.8971V76.7674C49.8971 76.4662 49.805 76.2277 49.6209 76.052C49.4452 75.8679 49.1774 75.7759 48.8176 75.7759C48.508 75.7759 48.2485 75.8554 48.0393 76.0144C47.8301 76.165 47.7255 76.3532 47.7255 76.5791H46.8469C46.8469 76.3198 46.9348 76.0729 47.1105 75.8387C47.2946 75.6044 47.5414 75.4203 47.8511 75.2864C48.1607 75.1442 48.4996 75.0731 48.8678 75.0731C49.4619 75.0731 49.9222 75.2195 50.2485 75.5124C50.5832 75.8052 50.759 76.2068 50.7757 76.7172V79.0642C50.7757 79.5327 50.8343 79.905 50.9514 80.1812V80.2565H50.0351ZM48.5916 79.5913C48.8678 79.5913 49.1272 79.5202 49.3699 79.3779C49.6125 79.2357 49.7883 79.0516 49.8971 78.8257V77.784H49.2192C48.1481 77.784 47.6126 78.0978 47.6126 78.7253C47.6126 78.993 47.7046 79.2064 47.8887 79.3654C48.0728 79.516 48.3071 79.5913 48.5916 79.5913ZM53.4618 80.2565H52.5958V73.0273H53.4618V80.2565ZM61.3446 77.0937H58.3697V79.516H61.8215V80.2565H57.466V73.4039H61.7839V74.1443H58.3697V76.3532H61.3446V77.0937ZM63.7797 75.1609L63.8048 75.801C64.1981 75.3157 64.7085 75.0731 65.3361 75.0731C66.4156 75.0731 66.9595 75.6797 66.9679 76.8929V80.2565H66.0892V76.8804C66.0892 76.5206 66.0056 76.2528 65.8382 76.0771C65.6792 75.9014 65.424 75.8136 65.0725 75.8136C64.788 75.8136 64.537 75.8889 64.3194 76.0395C64.1102 76.1901 63.947 76.3867 63.8299 76.6293V80.2565H62.9638V75.1609H63.7797ZM68.3737 77.671C68.3737 76.8762 68.5578 76.2445 68.926 75.7759C69.2942 75.3074 69.7796 75.0731 70.3821 75.0731C71.0013 75.0731 71.4866 75.2906 71.8381 75.7257L71.8758 75.1609H72.6791V80.1309C72.6791 80.7919 72.4824 81.3107 72.0891 81.6872C71.6958 82.0721 71.1728 82.2645 70.5201 82.2645C70.1519 82.2645 69.7921 82.1851 69.4406 82.0261C69.0892 81.8671 68.8214 81.6537 68.6373 81.386L69.0892 80.8589C69.4574 81.3191 69.9134 81.5492 70.4574 81.5492C70.8758 81.5492 71.2021 81.4278 71.4364 81.1852C71.6791 80.9509 71.8004 80.6162 71.8004 80.1812V79.7419C71.449 80.1519 70.972 80.3569 70.3695 80.3569C69.7754 80.3569 69.2942 80.1184 68.926 79.6415C68.5578 79.1562 68.3737 78.4994 68.3737 77.671ZM69.2524 77.7714C69.2524 78.3404 69.3695 78.7922 69.6038 79.1269C69.8381 79.4532 70.1687 79.6164 70.5954 79.6164C71.1394 79.6164 71.541 79.3654 71.8004 78.8633V76.5415C71.5327 76.0562 71.131 75.8136 70.5954 75.8136C70.177 75.8136 69.8465 75.9767 69.6038 76.303C69.3695 76.6293 69.2524 77.1188 69.2524 77.7714ZM75.1518 80.2565H74.2858V75.1609H75.1518V80.2565ZM74.2104 73.818C74.2104 73.6758 74.2523 73.5545 74.336 73.4541C74.428 73.3537 74.5577 73.3035 74.7251 73.3035C74.8924 73.3035 75.018 73.3537 75.1016 73.4541C75.1937 73.5545 75.2397 73.6758 75.2397 73.818C75.2397 73.9519 75.1937 74.069 75.1016 74.1694C75.018 74.2615 74.8924 74.3075 74.7251 74.3075C74.5577 74.3075 74.428 74.2615 74.336 74.1694C74.2523 74.069 74.2104 73.9519 74.2104 73.818ZM77.4363 75.1609L77.4614 75.801C77.8547 75.3157 78.3652 75.0731 78.9928 75.0731C80.0723 75.0731 80.6162 75.6797 80.6246 76.8929V80.2565H79.7459V76.8804C79.7459 76.5206 79.6622 76.2528 79.4949 76.0771C79.3359 75.9014 79.0807 75.8136 78.7292 75.8136C78.4447 75.8136 78.1936 75.8889 77.9761 76.0395C77.7669 76.1901 77.6037 76.3867 77.4865 76.6293V80.2565H76.6204V75.1609H77.4363ZM84.3525 80.3569C83.658 80.3569 83.0931 80.1309 82.658 79.6791C82.2312 79.2189 82.0178 78.6082 82.0178 77.8468V77.6961C82.0178 77.1858 82.1141 76.7339 82.3065 76.3407C82.499 75.9391 82.7668 75.6295 83.1099 75.4119C83.4613 75.186 83.8379 75.0731 84.2396 75.0731C84.9006 75.0731 85.4153 75.2906 85.7835 75.7257C86.1517 76.1608 86.3358 76.7841 86.3358 77.5957V77.9597H82.8839C82.9007 78.4617 83.0471 78.8675 83.3232 79.1771C83.6078 79.4867 83.9676 79.6415 84.4027 79.6415C84.704 79.6415 84.9592 79.5787 85.1684 79.4532C85.386 79.3277 85.5784 79.1604 85.7458 78.9512L86.273 79.3654C85.8462 80.0264 85.2061 80.3569 84.3525 80.3569ZM84.2396 75.7885C83.8881 75.7885 83.591 75.9182 83.3484 76.1775C83.1141 76.4285 82.9718 76.7841 82.9216 77.2443H85.4697V77.1816C85.4446 76.7381 85.3232 76.3951 85.1057 76.1524C84.8964 75.9098 84.6077 75.7885 84.2396 75.7885ZM89.1725 80.3569C88.478 80.3569 87.9131 80.1309 87.478 79.6791C87.0512 79.2189 86.8378 78.6082 86.8378 77.8468V77.6961C86.8378 77.1858 86.9341 76.7339 87.1265 76.3407C87.319 75.9391 87.5868 75.6295 87.9299 75.4119C88.2813 75.186 88.6579 75.0731 89.0596 75.0731C89.7206 75.0731 90.2353 75.2906 90.6035 75.7257C90.9717 76.1608 91.1558 76.7841 91.1558 77.5957V77.9597H87.7039C87.7207 78.4617 87.8671 78.8675 88.1432 79.1771C88.4278 79.4867 88.7876 79.6415 89.2227 79.6415C89.524 79.6415 89.7792 79.5787 89.9884 79.4532C90.206 79.3277 90.3984 79.1604 90.5658 78.9512L91.093 79.3654C90.6662 80.0264 90.0261 80.3569 89.1725 80.3569ZM89.0596 75.7885C88.7081 75.7885 88.411 75.9182 88.1684 76.1775C87.9341 76.4285 87.7918 76.7841 87.7416 77.2443H90.2897V77.1816C90.2646 76.7381 90.1432 76.3951 89.9257 76.1524C89.7164 75.9098 89.4277 75.7885 89.0596 75.7885ZM94.344 75.9391C94.2101 75.9223 94.0678 75.914 93.9172 75.914C93.3398 75.914 92.9507 76.1566 92.7499 76.6419V80.2565H91.8838V75.1609H92.7248L92.7373 75.7508C93.0218 75.299 93.4277 75.0731 93.9549 75.0731C94.1222 75.0731 94.2519 75.094 94.344 75.1358V75.9391ZM96.0385 80.2565H95.1724V75.1609H96.0385V80.2565ZM95.0971 73.818C95.0971 73.6758 95.1389 73.5545 95.2226 73.4541C95.3147 73.3537 95.4444 73.3035 95.6117 73.3035C95.7791 73.3035 95.9046 73.3537 95.9883 73.4541C96.0804 73.5545 96.1264 73.6758 96.1264 73.818C96.1264 73.9519 96.0804 74.069 95.9883 74.1694C95.9046 74.2615 95.7791 74.3075 95.6117 74.3075C95.4444 74.3075 95.3147 74.2615 95.2226 74.1694C95.1389 74.069 95.0971 73.9519 95.0971 73.818ZM98.323 75.1609L98.3481 75.801C98.7414 75.3157 99.2518 75.0731 99.8794 75.0731C100.959 75.0731 101.503 75.6797 101.511 76.8929V80.2565H100.633V76.8804C100.633 76.5206 100.549 76.2528 100.382 76.0771C100.223 75.9014 99.9673 75.8136 99.6159 75.8136C99.3313 75.8136 99.0803 75.8889 98.8627 76.0395C98.6535 76.1901 98.4904 76.3867 98.3732 76.6293V80.2565H97.5071V75.1609H98.323ZM102.917 77.671C102.917 76.8762 103.101 76.2445 103.469 75.7759C103.838 75.3074 104.323 75.0731 104.925 75.0731C105.545 75.0731 106.03 75.2906 106.381 75.7257L106.419 75.1609H107.222V80.1309C107.222 80.7919 107.026 81.3107 106.632 81.6872C106.239 82.0721 105.716 82.2645 105.063 82.2645C104.695 82.2645 104.335 82.1851 103.984 82.0261C103.633 81.8671 103.365 81.6537 103.181 81.386L103.633 80.8589C104.001 81.3191 104.457 81.5492 105.001 81.5492C105.419 81.5492 105.745 81.4278 105.98 81.1852C106.222 80.9509 106.344 80.6162 106.344 80.1812V79.7419C105.992 80.1519 105.515 80.3569 104.913 80.3569C104.319 80.3569 103.838 80.1184 103.469 79.6415C103.101 79.1562 102.917 78.4994 102.917 77.671ZM103.796 77.7714C103.796 78.3404 103.913 78.7922 104.147 79.1269C104.381 79.4532 104.712 79.6164 105.139 79.6164C105.683 79.6164 106.084 79.3654 106.344 78.8633V76.5415C106.076 76.0562 105.674 75.8136 105.139 75.8136C104.72 75.8136 104.39 75.9767 104.147 76.303C103.913 76.6293 103.796 77.1188 103.796 77.7714Z" fill="#757575"/>
<path d="M15.8684 91.2759L16.2198 87.8621H19.7344V88.6654H16.9604L16.747 90.5354C17.0901 90.3346 17.475 90.2342 17.9018 90.2342C18.521 90.2342 19.0148 90.4434 19.383 90.8617C19.7511 91.2717 19.9352 91.8281 19.9352 92.5309C19.9352 93.2338 19.7428 93.7902 19.3579 94.2001C18.9813 94.6101 18.4499 94.8151 17.7637 94.8151C17.1612 94.8151 16.6675 94.6478 16.2826 94.3131C15.8977 93.9701 15.6801 93.5015 15.6299 92.9074H16.4458C16.5043 93.3007 16.6466 93.5977 16.8725 93.7985C17.0985 93.9993 17.3955 94.0997 17.7637 94.0997C18.1654 94.0997 18.4834 93.9617 18.7177 93.6856C18.952 93.4095 19.0692 93.0288 19.0692 92.5435C19.0692 92.0833 18.9436 91.7151 18.6926 91.439C18.4415 91.1629 18.1068 91.0249 17.6884 91.0249C17.3119 91.0249 17.0148 91.1043 16.7972 91.2633L16.5713 91.4516L15.8684 91.2759ZM21.203 94.2629C21.203 94.1123 21.2448 93.9868 21.3285 93.8864C21.4206 93.786 21.5545 93.7358 21.7302 93.7358C21.9143 93.7358 22.0524 93.786 22.1444 93.8864C22.2365 93.9868 22.2825 94.1123 22.2825 94.2629C22.2825 94.4051 22.2365 94.5265 22.1444 94.6269C22.0524 94.7189 21.9143 94.7649 21.7302 94.7649C21.5545 94.7649 21.4206 94.7189 21.3285 94.6269C21.2448 94.5265 21.203 94.4051 21.203 94.2629ZM27.1778 92.418H28.1318V93.1208H27.1778V94.7147H26.3117V93.1208H23.1862V92.6062L26.2489 87.8621H27.1778V92.418ZM24.1779 92.418H26.3117V89.0544L26.1987 89.2427L24.1779 92.418ZM29.0481 89.1799C29.0481 88.7699 29.1778 88.4311 29.4372 88.1633C29.705 87.8956 30.0439 87.7617 30.4539 87.7617C30.8723 87.7617 31.2112 87.8956 31.4706 88.1633C31.73 88.4311 31.8597 88.7783 31.8597 89.205V89.5439C31.8597 89.9539 31.7258 90.2927 31.4581 90.5605C31.1986 90.8199 30.8681 90.9496 30.4664 90.9496C30.0564 90.9496 29.7175 90.8199 29.4497 90.5605C29.1819 90.2927 29.0481 89.9413 29.0481 89.5062V89.1799ZM29.7008 89.5439C29.7008 89.7865 29.7677 89.9873 29.9016 90.1463C30.0439 90.3053 30.2321 90.3848 30.4664 90.3848C30.6924 90.3848 30.8723 90.3095 31.0062 90.1589C31.1401 89.9999 31.207 89.7865 31.207 89.5188V89.1799C31.207 88.9373 31.1401 88.7365 31.0062 88.5775C30.8723 88.4102 30.6882 88.3265 30.4539 88.3265C30.2196 88.3265 30.0355 88.4102 29.9016 88.5775C29.7677 88.7365 29.7008 88.9415 29.7008 89.1925V89.5439ZM32.3869 93.0329C32.3869 92.623 32.5166 92.2883 32.776 92.0289C33.0438 91.7612 33.3827 91.6273 33.7927 91.6273C34.2028 91.6273 34.5375 91.7612 34.7969 92.0289C35.0647 92.2883 35.1986 92.6355 35.1986 93.0706V93.3969C35.1986 93.8069 35.0689 94.1458 34.8095 94.4135C34.5501 94.6813 34.2153 94.8151 33.8053 94.8151C33.3953 94.8151 33.0564 94.6854 32.7886 94.4261C32.5208 94.1583 32.3869 93.8069 32.3869 93.3718V93.0329ZM33.0396 93.3969C33.0396 93.6479 33.1066 93.8529 33.2405 94.0119C33.3827 94.1709 33.571 94.2503 33.8053 94.2503C34.0312 94.2503 34.2111 94.175 34.345 94.0244C34.4789 93.8655 34.5459 93.6521 34.5459 93.3844V93.0329C34.5459 92.7819 34.4747 92.5811 34.3325 92.4305C34.1986 92.2715 34.0187 92.1921 33.7927 92.1921C33.5668 92.1921 33.3827 92.2715 33.2405 92.4305C33.1066 92.5811 33.0396 92.7903 33.0396 93.058V93.3969ZM30.6673 94.2001L30.1652 93.8864L33.5166 88.5273L34.0061 88.8411L30.6673 94.2001Z" fill="#9E9E9E"/>
<path d="M14.9019 83.8711H116.671L167.775 76.8521" stroke="#757575" stroke-miterlimit="10"/>
<path d="M169.382 76.8521C169.382 75.9648 168.662 75.2456 167.775 75.2456C166.888 75.2456 166.168 75.9648 166.168 76.8521C166.168 77.7393 166.888 78.4585 167.775 78.4585C168.662 78.4585 169.382 77.7393 169.382 76.8521Z" fill="#9E9E9E"/>
<path d="M20.7385 104.592C20.6549 105.312 20.3871 105.872 19.9352 106.274C19.4833 106.667 18.885 106.864 18.1403 106.864C17.3286 106.864 16.68 106.575 16.1947 105.998C15.7093 105.412 15.4667 104.63 15.4667 103.651V102.998C15.4667 102.362 15.5796 101.802 15.8056 101.316C16.0315 100.831 16.3537 100.459 16.7721 100.199C17.1905 99.94 17.6717 99.8103 18.2156 99.8103C18.9436 99.8103 19.5252 100.015 19.9603 100.425C20.4038 100.835 20.6632 101.396 20.7385 102.107H19.8348C19.7511 101.563 19.5796 101.17 19.3202 100.927C19.0608 100.685 18.6926 100.563 18.2156 100.563C17.6382 100.563 17.1863 100.777 16.86 101.203C16.5336 101.63 16.3704 102.237 16.3704 103.023V103.688C16.3704 104.433 16.5252 105.027 16.8349 105.471C17.1445 105.906 17.5796 106.123 18.1403 106.123C18.6424 106.123 19.0273 106.01 19.2951 105.784C19.5628 105.55 19.7428 105.153 19.8348 104.592H20.7385ZM21.7553 104.165C21.7553 103.672 21.8515 103.224 22.044 102.822C22.2448 102.421 22.5209 102.115 22.8724 101.906C23.2239 101.689 23.6213 101.58 24.0649 101.58C24.7594 101.58 25.3201 101.818 25.7468 102.295C26.182 102.772 26.3995 103.412 26.3995 104.216V104.278C26.3995 104.772 26.3033 105.215 26.1108 105.609C25.9184 106.002 25.6464 106.311 25.295 106.537C24.9435 106.755 24.5376 106.864 24.0774 106.864C23.3912 106.864 22.8306 106.625 22.3954 106.148C21.9687 105.663 21.7553 105.023 21.7553 104.228V104.165ZM22.6339 104.278C22.6339 104.839 22.7636 105.291 23.023 105.634C23.2908 105.977 23.6423 106.148 24.0774 106.148C24.5209 106.148 24.8724 105.977 25.1318 105.634C25.3912 105.282 25.5209 104.793 25.5209 104.165C25.5209 103.613 25.387 103.165 25.1192 102.822C24.8598 102.471 24.5084 102.295 24.0649 102.295C23.6381 102.295 23.2908 102.467 23.023 102.81C22.7636 103.145 22.6339 103.634 22.6339 104.278ZM27.4037 104.178C27.4037 103.383 27.5878 102.751 27.956 102.283C28.3242 101.814 28.8095 101.58 29.412 101.58C30.0313 101.58 30.5166 101.797 30.8681 102.233L30.9057 101.668H31.7091V106.638C31.7091 107.299 31.5124 107.818 31.1191 108.194C30.7258 108.579 30.2028 108.771 29.5501 108.771C29.1819 108.771 28.8221 108.692 28.4706 108.533C28.1192 108.374 27.8514 108.161 27.6673 107.893L28.1192 107.366C28.4874 107.826 28.9434 108.056 29.4874 108.056C29.9058 108.056 30.2321 107.935 30.4664 107.692C30.7091 107.458 30.8304 107.123 30.8304 106.688V106.249C30.479 106.659 30.002 106.864 29.3995 106.864C28.8054 106.864 28.3242 106.625 27.956 106.148C27.5878 105.663 27.4037 105.006 27.4037 104.178ZM28.2824 104.278C28.2824 104.847 28.3995 105.299 28.6338 105.634C28.8681 105.96 29.1987 106.123 29.6254 106.123C30.1693 106.123 30.571 105.872 30.8304 105.37V103.048C30.5626 102.563 30.161 102.32 29.6254 102.32C29.207 102.32 28.8765 102.484 28.6338 102.81C28.3995 103.136 28.2824 103.626 28.2824 104.278ZM34.0563 101.668L34.0814 102.308C34.4747 101.823 34.9852 101.58 35.6128 101.58C36.6922 101.58 37.2362 102.187 37.2445 103.4V106.763H36.3659V103.387C36.3659 103.027 36.2822 102.76 36.1149 102.584C35.9559 102.408 35.7006 102.32 35.3492 102.32C35.0647 102.32 34.8136 102.396 34.596 102.546C34.3868 102.697 34.2237 102.894 34.1065 103.136V106.763H33.2404V101.668H34.0563ZM39.8052 106.763H38.9391V101.668H39.8052V106.763ZM38.8638 100.325C38.8638 100.183 38.9056 100.061 38.9893 99.9609C39.0813 99.8605 39.211 99.8103 39.3784 99.8103C39.5458 99.8103 39.6713 99.8605 39.755 99.9609C39.847 100.061 39.893 100.183 39.893 100.325C39.893 100.459 39.847 100.576 39.755 100.676C39.6713 100.768 39.5458 100.814 39.3784 100.814C39.211 100.814 39.0813 100.768 38.9893 100.676C38.9056 100.576 38.8638 100.459 38.8638 100.325ZM42.4537 100.438V101.668H43.3951V102.346H42.4537V105.496C42.4537 105.705 42.4955 105.86 42.5792 105.96C42.6629 106.06 42.8051 106.111 43.0059 106.111C43.1064 106.111 43.2444 106.094 43.4202 106.06V106.763C43.1942 106.83 42.9725 106.864 42.7549 106.864C42.37 106.864 42.0771 106.747 41.8763 106.512C41.6754 106.27 41.575 105.931 41.575 105.496V102.346H40.6462V101.668H41.575V100.438H42.4537ZM45.4285 106.763H44.5624V101.668H45.4285V106.763ZM44.4871 100.325C44.4871 100.183 44.5289 100.061 44.6126 99.9609C44.7047 99.8605 44.8344 99.8103 45.0017 99.8103C45.1691 99.8103 45.2946 99.8605 45.3783 99.9609C45.4703 100.061 45.5164 100.183 45.5164 100.325C45.5164 100.459 45.4703 100.576 45.3783 100.676C45.2946 100.768 45.1691 100.814 45.0017 100.814C44.8344 100.814 44.7047 100.768 44.6126 100.676C44.5289 100.576 44.4871 100.459 44.4871 100.325ZM48.5665 105.584L49.8343 101.668H50.7255L48.8929 106.763H48.2276L46.3825 101.668H47.2737L48.5665 105.584ZM53.8258 106.864C53.1313 106.864 52.5664 106.638 52.1313 106.186C51.7045 105.726 51.4912 105.115 51.4912 104.354V104.203C51.4912 103.693 51.5874 103.241 51.7799 102.848C51.9723 102.446 52.2401 102.136 52.5832 101.919C52.9346 101.693 53.3112 101.58 53.7129 101.58C54.374 101.58 54.8886 101.797 55.2568 102.233C55.625 102.668 55.8091 103.291 55.8091 104.103V104.467H52.3573C52.374 104.969 52.5204 105.374 52.7966 105.684C53.0811 105.994 53.4409 106.148 53.876 106.148C54.1773 106.148 54.4325 106.086 54.6417 105.96C54.8593 105.835 55.0518 105.667 55.2191 105.458L55.7463 105.872C55.3195 106.533 54.6794 106.864 53.8258 106.864ZM53.7129 102.295C53.3614 102.295 53.0643 102.425 52.8217 102.684C52.5874 102.935 52.4451 103.291 52.3949 103.751H54.943V103.688C54.9179 103.245 54.7965 102.902 54.579 102.659C54.3698 102.417 54.0811 102.295 53.7129 102.295ZM61.0935 103.714C60.3236 103.488 59.7588 103.211 59.399 102.885C59.0475 102.559 58.8718 102.157 58.8718 101.68C58.8718 101.145 59.0852 100.701 59.5119 100.35C59.9471 99.9902 60.5119 99.8103 61.2065 99.8103C61.6751 99.8103 62.0935 99.9023 62.4617 100.086C62.8299 100.27 63.1144 100.522 63.3152 100.839C63.5244 101.157 63.629 101.509 63.629 101.894H62.7127C62.7127 101.475 62.5788 101.149 62.3111 100.915C62.0516 100.68 61.6834 100.563 61.2065 100.563C60.763 100.563 60.4157 100.664 60.1646 100.865C59.9136 101.057 59.7881 101.325 59.7881 101.668C59.7881 101.952 59.9052 102.191 60.1395 102.383C60.3822 102.576 60.7881 102.751 61.3571 102.91C61.9261 103.069 62.3696 103.245 62.6876 103.437C63.014 103.63 63.2525 103.856 63.4031 104.115C63.5621 104.375 63.6416 104.676 63.6416 105.019C63.6416 105.579 63.424 106.027 62.9889 106.362C62.5537 106.696 61.9763 106.864 61.2567 106.864C60.7797 106.864 60.3362 106.772 59.9262 106.588C59.5245 106.404 59.2107 106.157 58.9847 105.847C58.7672 105.529 58.6584 105.174 58.6584 104.78H59.5621C59.5621 105.19 59.7169 105.517 60.0266 105.759C60.3362 106.002 60.7462 106.123 61.2567 106.123C61.7337 106.123 62.0977 106.027 62.3487 105.835C62.5997 105.634 62.7253 105.366 62.7253 105.031C62.7253 104.697 62.6081 104.437 62.3738 104.253C62.1395 104.069 61.7127 103.889 61.0935 103.714ZM66.6039 106.148C66.9135 106.148 67.1854 106.056 67.4197 105.872C67.654 105.68 67.7838 105.441 67.8089 105.157H68.6373C68.6206 105.45 68.516 105.73 68.3235 105.998C68.1394 106.257 67.8925 106.466 67.5829 106.625C67.2817 106.784 66.9553 106.864 66.6039 106.864C65.9093 106.864 65.357 106.634 64.947 106.173C64.5453 105.705 64.3445 105.069 64.3445 104.266V104.115C64.3445 103.621 64.4324 103.182 64.6081 102.797C64.7922 102.412 65.0516 102.115 65.3863 101.906C65.7294 101.689 66.1353 101.58 66.6039 101.58C67.1729 101.58 67.6457 101.751 68.0222 102.095C68.4072 102.429 68.6122 102.873 68.6373 103.425H67.8089C67.7838 103.09 67.6582 102.818 67.4323 102.609C67.2064 102.4 66.9302 102.295 66.6039 102.295C66.1604 102.295 65.8173 102.454 65.5746 102.772C65.3319 103.09 65.2106 103.55 65.2106 104.153V104.316C65.2106 104.902 65.3319 105.353 65.5746 105.671C65.8173 105.989 66.1604 106.148 66.6039 106.148ZM70.3318 106.763H69.4657V101.668H70.3318V106.763ZM69.3904 100.325C69.3904 100.183 69.4323 100.061 69.5159 99.9609C69.608 99.8605 69.7377 99.8103 69.9051 99.8103C70.0724 99.8103 70.1979 99.8605 70.2816 99.9609C70.3737 100.061 70.4197 100.183 70.4197 100.325C70.4197 100.459 70.3737 100.576 70.2816 100.676C70.1979 100.768 70.0724 100.814 69.9051 100.814C69.7377 100.814 69.608 100.768 69.5159 100.676C69.4323 100.576 69.3904 100.459 69.3904 100.325ZM73.9092 106.864C73.2146 106.864 72.6498 106.638 72.2146 106.186C71.7879 105.726 71.5745 105.115 71.5745 104.354V104.203C71.5745 103.693 71.6707 103.241 71.8632 102.848C72.0556 102.446 72.3234 102.136 72.6665 101.919C73.018 101.693 73.3945 101.58 73.7962 101.58C74.4573 101.58 74.9719 101.797 75.3401 102.233C75.7083 102.668 75.8924 103.291 75.8924 104.103V104.467H72.4406C72.4573 104.969 72.6038 105.374 72.8799 105.684C73.1644 105.994 73.5242 106.148 73.9594 106.148C74.2606 106.148 74.5159 106.086 74.7251 105.96C74.9426 105.835 75.1351 105.667 75.3025 105.458L75.8296 105.872C75.4029 106.533 74.7627 106.864 73.9092 106.864ZM73.7962 102.295C73.4447 102.295 73.1477 102.425 72.905 102.684C72.6707 102.935 72.5284 103.291 72.4782 103.751H75.0263V103.688C75.0012 103.245 74.8799 102.902 74.6623 102.659C74.4531 102.417 74.1644 102.295 73.7962 102.295ZM77.4363 101.668L77.4614 102.308C77.8547 101.823 78.3652 101.58 78.9928 101.58C80.0722 101.58 80.6162 102.187 80.6245 103.4V106.763H79.7459V103.387C79.7459 103.027 79.6622 102.76 79.4949 102.584C79.3359 102.408 79.0806 102.32 78.7292 102.32C78.4447 102.32 78.1936 102.396 77.976 102.546C77.7668 102.697 77.6037 102.894 77.4865 103.136V106.763H76.6204V101.668H77.4363ZM84.2772 106.148C84.5868 106.148 84.8588 106.056 85.0931 105.872C85.3274 105.68 85.4571 105.441 85.4822 105.157H86.3106C86.2939 105.45 86.1893 105.73 85.9968 105.998C85.8127 106.257 85.5659 106.466 85.2563 106.625C84.955 106.784 84.6286 106.864 84.2772 106.864C83.5826 106.864 83.0303 106.634 82.6203 106.173C82.2187 105.705 82.0178 105.069 82.0178 104.266V104.115C82.0178 103.621 82.1057 103.182 82.2814 102.797C82.4655 102.412 82.7249 102.115 83.0596 101.906C83.4027 101.689 83.8086 101.58 84.2772 101.58C84.8462 101.58 85.319 101.751 85.6956 102.095C86.0805 102.429 86.2855 102.873 86.3106 103.425H85.4822C85.4571 103.09 85.3316 102.818 85.1056 102.609C84.8797 102.4 84.6035 102.295 84.2772 102.295C83.8337 102.295 83.4906 102.454 83.2479 102.772C83.0052 103.09 82.8839 103.55 82.8839 104.153V104.316C82.8839 104.902 83.0052 105.353 83.2479 105.671C83.4906 105.989 83.8337 106.148 84.2772 106.148ZM89.1725 106.864C88.478 106.864 87.9131 106.638 87.478 106.186C87.0512 105.726 86.8378 105.115 86.8378 104.354V104.203C86.8378 103.693 86.9341 103.241 87.1265 102.848C87.319 102.446 87.5868 102.136 87.9298 101.919C88.2813 101.693 88.6579 101.58 89.0595 101.58C89.7206 101.58 90.2352 101.797 90.6034 102.233C90.9716 102.668 91.1557 103.291 91.1557 104.103V104.467H87.7039C87.7206 104.969 87.8671 105.374 88.1432 105.684C88.4277 105.994 88.7876 106.148 89.2227 106.148C89.524 106.148 89.7792 106.086 89.9884 105.96C90.206 105.835 90.3984 105.667 90.5658 105.458L91.093 105.872C90.6662 106.533 90.026 106.864 89.1725 106.864ZM89.0595 102.295C88.7081 102.295 88.411 102.425 88.1683 102.684C87.934 102.935 87.7918 103.291 87.7416 103.751H90.2896V103.688C90.2645 103.245 90.1432 102.902 89.9256 102.659C89.7164 102.417 89.4277 102.295 89.0595 102.295Z" fill="#757575"/>
<path d="M18.8934 114.369V115.097H18.7302C18.0524 115.114 17.5126 115.319 17.111 115.712C16.7093 116.097 16.475 116.641 16.4081 117.343C16.7763 116.933 17.27 116.728 17.8892 116.728C18.4833 116.728 18.9603 116.938 19.3201 117.356C19.68 117.774 19.8599 118.318 19.8599 118.988C19.8599 119.69 19.6674 120.255 19.2825 120.682C18.8976 121.109 18.3787 121.322 17.726 121.322C17.0733 121.322 16.542 121.071 16.1319 120.569C15.7303 120.059 15.5294 119.406 15.5294 118.611V118.285C15.5294 117.021 15.7972 116.055 16.3328 115.386C16.8683 114.716 17.6675 114.377 18.7302 114.369H18.8934ZM17.7511 117.456C17.4499 117.456 17.1737 117.544 16.9227 117.72C16.6717 117.896 16.4959 118.122 16.3955 118.398V118.711C16.3955 119.28 16.521 119.736 16.7721 120.079C17.0315 120.422 17.3495 120.594 17.726 120.594C18.1193 120.594 18.429 120.452 18.6549 120.167C18.8808 119.874 18.9938 119.494 18.9938 119.025C18.9938 118.557 18.8808 118.18 18.6549 117.896C18.429 117.603 18.1277 117.456 17.7511 117.456ZM21.203 120.77C21.203 120.619 21.2448 120.494 21.3285 120.393C21.4205 120.293 21.5544 120.243 21.7301 120.243C21.9142 120.243 22.0523 120.293 22.1444 120.393C22.2364 120.494 22.2824 120.619 22.2824 120.77C22.2824 120.912 22.2364 121.033 22.1444 121.134C22.0523 121.226 21.9142 121.272 21.7301 121.272C21.5544 121.272 21.4205 121.226 21.3285 121.134C21.2448 121.033 21.203 120.912 21.203 120.77ZM27.8054 118.297C27.8054 119.318 27.6296 120.079 27.2782 120.581C26.9351 121.075 26.3912 121.322 25.6464 121.322C24.9184 121.322 24.3786 121.079 24.0272 120.594C23.6757 120.109 23.4916 119.381 23.4749 118.41V117.256C23.4749 116.243 23.6464 115.494 23.9895 115.009C24.341 114.515 24.8891 114.269 25.6338 114.269C26.3702 114.269 26.9142 114.507 27.2656 114.984C27.6171 115.452 27.797 116.18 27.8054 117.168V118.297ZM26.9267 117.105C26.9267 116.369 26.8221 115.833 26.6129 115.499C26.4121 115.155 26.0857 114.984 25.6338 114.984C25.1903 114.984 24.864 115.155 24.6548 115.499C24.454 115.833 24.3535 116.348 24.3535 117.042V118.435C24.3535 119.172 24.4581 119.72 24.6673 120.079C24.8849 120.431 25.2113 120.607 25.6464 120.607C26.0732 120.607 26.3912 120.439 26.6004 120.105C26.8096 119.77 26.9183 119.247 26.9267 118.536V117.105ZM29.048 115.687C29.048 115.277 29.1777 114.938 29.4371 114.67C29.7049 114.402 30.0438 114.269 30.4538 114.269C30.8723 114.269 31.2112 114.402 31.4706 114.67C31.73 114.938 31.8597 115.285 31.8597 115.712V116.051C31.8597 116.461 31.7258 116.8 31.458 117.067C31.1986 117.327 30.8681 117.456 30.4664 117.456C30.0564 117.456 29.7175 117.327 29.4497 117.067C29.1819 116.8 29.048 116.448 29.048 116.013V115.687ZM29.7007 116.051C29.7007 116.293 29.7677 116.494 29.9016 116.653C30.0438 116.812 30.2321 116.892 30.4664 116.892C30.6923 116.892 30.8723 116.816 31.0061 116.666C31.14 116.507 31.207 116.293 31.207 116.026V115.687C31.207 115.444 31.14 115.243 31.0061 115.084C30.8723 114.917 30.6882 114.833 30.4538 114.833C30.2195 114.833 30.0354 114.917 29.9016 115.084C29.7677 115.243 29.7007 115.448 29.7007 115.699V116.051ZM32.3869 119.54C32.3869 119.13 32.5166 118.795 32.776 118.536C33.0438 118.268 33.3827 118.134 33.7927 118.134C34.2027 118.134 34.5375 118.268 34.7969 118.536C35.0646 118.795 35.1985 119.142 35.1985 119.577V119.904C35.1985 120.314 35.0688 120.653 34.8094 120.92C34.55 121.188 34.2153 121.322 33.8053 121.322C33.3952 121.322 33.0563 121.192 32.7885 120.933C32.5208 120.665 32.3869 120.314 32.3869 119.879V119.54ZM33.0396 119.904C33.0396 120.155 33.1065 120.36 33.2404 120.519C33.3827 120.678 33.5709 120.757 33.8053 120.757C34.0312 120.757 34.2111 120.682 34.345 120.531C34.4789 120.372 34.5458 120.159 34.5458 119.891V119.54C34.5458 119.289 34.4747 119.088 34.3324 118.937C34.1986 118.778 34.0186 118.699 33.7927 118.699C33.5668 118.699 33.3827 118.778 33.2404 118.937C33.1065 119.088 33.0396 119.297 33.0396 119.565V119.904ZM30.6672 120.707L30.1651 120.393L33.5166 115.034L34.0061 115.348L30.6672 120.707Z" fill="#9E9E9E"/>
<path d="M14.9019 110.378H116.671L142.006 108.023" stroke="#757575" stroke-miterlimit="10"/>
<path d="M143.613 108.023C143.613 107.136 142.894 106.417 142.006 106.417C141.119 106.417 140.4 107.136 140.4 108.023C140.4 108.91 141.119 109.63 142.006 109.63C142.894 109.63 143.613 108.91 143.613 108.023Z" fill="#9E9E9E"/>
<path d="M16.86 138.081L19.1068 143.666L21.3411 138.081H22.521V144.934H21.6172V142.26L21.7051 139.386L19.4457 144.934H18.7553L16.5085 139.399L16.5964 142.26V144.934H15.6926V138.081H16.86ZM26.7385 144.934C26.6883 144.833 26.6464 144.653 26.6129 144.394C26.2113 144.821 25.7301 145.034 25.1695 145.034C24.6674 145.034 24.2531 144.892 23.9268 144.607C23.6088 144.323 23.4498 143.959 23.4498 143.516C23.4498 142.988 23.6506 142.578 24.0523 142.286C24.454 141.993 25.023 141.846 25.7594 141.846H26.6004V141.445C26.6004 141.143 26.5083 140.905 26.3242 140.729C26.1485 140.545 25.8807 140.453 25.5209 140.453C25.2113 140.453 24.9519 140.533 24.7427 140.692C24.5335 140.842 24.4289 141.03 24.4289 141.256H23.5502C23.5502 140.997 23.6381 140.75 23.8138 140.516C23.9979 140.282 24.2448 140.098 24.5544 139.964C24.864 139.821 25.2029 139.75 25.5711 139.75C26.1652 139.75 26.6255 139.897 26.9518 140.19C27.2866 140.482 27.4623 140.884 27.479 141.394V143.741C27.479 144.21 27.5376 144.582 27.6548 144.858V144.934H26.7385ZM25.295 144.269C25.5711 144.269 25.8305 144.197 26.0732 144.055C26.3159 143.913 26.4916 143.729 26.6004 143.503V142.461H25.9226C24.8515 142.461 24.3159 142.775 24.3159 143.403C24.3159 143.67 24.408 143.884 24.5921 144.043C24.7762 144.193 25.0105 144.269 25.295 144.269ZM30.4037 138.608V139.838H31.3451V140.516H30.4037V143.666C30.4037 143.875 30.4455 144.03 30.5292 144.13C30.6129 144.231 30.7551 144.281 30.956 144.281C31.0564 144.281 31.1945 144.264 31.3702 144.231V144.934C31.1442 145.001 30.9225 145.034 30.7049 145.034C30.32 145.034 30.0271 144.917 29.8263 144.683C29.6254 144.44 29.525 144.101 29.525 143.666V140.516H28.5962V139.838H29.525V138.608H30.4037ZM33.3032 140.453C33.6881 139.985 34.1902 139.75 34.8095 139.75C35.8889 139.75 36.4329 140.357 36.4412 141.57V144.934H35.5626V141.558C35.5626 141.198 35.4789 140.93 35.3115 140.754C35.1525 140.579 34.8973 140.491 34.5459 140.491C34.2613 140.491 34.0103 140.566 33.7927 140.717C33.5835 140.867 33.4204 141.064 33.3032 141.307V144.934H32.4371V137.705H33.3032V140.453ZM39.8679 142.373H37.5709V141.671H39.8679V142.373ZM45.6419 142.762C45.5582 143.482 45.2904 144.043 44.8386 144.444C44.3867 144.837 43.7884 145.034 43.0436 145.034C42.2319 145.034 41.5834 144.745 41.098 144.168C40.6127 143.582 40.37 142.8 40.37 141.821V141.169C40.37 140.533 40.483 139.972 40.7089 139.487C40.9349 139.001 41.257 138.629 41.6754 138.37C42.0938 138.11 42.575 137.981 43.1189 137.981C43.847 137.981 44.4285 138.186 44.8637 138.596C45.3072 139.006 45.5666 139.566 45.6419 140.277H44.7382C44.6545 139.734 44.4829 139.34 44.2235 139.098C43.9641 138.855 43.5959 138.734 43.1189 138.734C42.5415 138.734 42.0897 138.947 41.7633 139.374C41.437 139.801 41.2738 140.407 41.2738 141.194V141.859C41.2738 142.603 41.4286 143.198 41.7382 143.641C42.0478 144.076 42.483 144.294 43.0436 144.294C43.5457 144.294 43.9306 144.181 44.1984 143.955C44.4662 143.72 44.6461 143.323 44.7382 142.762H45.6419ZM49.0435 141.884C48.2737 141.658 47.7088 141.382 47.349 141.056C46.9975 140.729 46.8218 140.328 46.8218 139.851C46.8218 139.315 47.0352 138.872 47.462 138.52C47.8971 138.161 48.4619 137.981 49.1565 137.981C49.6251 137.981 50.0435 138.073 50.4117 138.257C50.7799 138.441 51.0644 138.692 51.2652 139.01C51.4744 139.328 51.579 139.679 51.579 140.064H50.6627C50.6627 139.646 50.5288 139.319 50.2611 139.085C50.0017 138.851 49.6335 138.734 49.1565 138.734C48.713 138.734 48.3657 138.834 48.1147 139.035C47.8636 139.227 47.7381 139.495 47.7381 139.838C47.7381 140.123 47.8553 140.361 48.0896 140.554C48.3322 140.746 48.7381 140.922 49.3071 141.081C49.8761 141.24 50.3196 141.415 50.6376 141.608C50.964 141.8 51.2025 142.026 51.3531 142.286C51.5121 142.545 51.5916 142.846 51.5916 143.189C51.5916 143.75 51.374 144.197 50.9389 144.532C50.5037 144.867 49.9263 145.034 49.2067 145.034C48.7297 145.034 48.2862 144.942 47.8762 144.758C47.4745 144.574 47.1607 144.327 46.9348 144.018C46.7172 143.7 46.6084 143.344 46.6084 142.951H47.5122C47.5122 143.361 47.667 143.687 47.9766 143.93C48.2862 144.172 48.6962 144.294 49.2067 144.294C49.6837 144.294 50.0477 144.197 50.2987 144.005C50.5498 143.804 50.6753 143.536 50.6753 143.202C50.6753 142.867 50.5581 142.608 50.3238 142.424C50.0895 142.24 49.6628 142.06 49.0435 141.884Z" fill="#757575"/>
<path d="M18.8934 152.539V153.267H18.7302C18.0524 153.284 17.5126 153.489 17.111 153.882C16.7093 154.267 16.475 154.811 16.4081 155.514C16.7763 155.104 17.27 154.899 17.8892 154.899C18.4833 154.899 18.9603 155.108 19.3201 155.526C19.68 155.945 19.8599 156.489 19.8599 157.158C19.8599 157.861 19.6674 158.426 19.2825 158.852C18.8976 159.279 18.3787 159.492 17.726 159.492C17.0733 159.492 16.542 159.241 16.1319 158.739C15.7303 158.229 15.5294 157.576 15.5294 156.781V156.455C15.5294 155.192 15.7972 154.225 16.3328 153.556C16.8683 152.887 17.6675 152.548 18.7302 152.539H18.8934ZM17.7511 155.627C17.4499 155.627 17.1737 155.715 16.9227 155.89C16.6717 156.066 16.4959 156.292 16.3955 156.568V156.882C16.3955 157.451 16.521 157.907 16.7721 158.25C17.0315 158.593 17.3495 158.764 17.726 158.764C18.1193 158.764 18.429 158.622 18.6549 158.338C18.8808 158.045 18.9938 157.664 18.9938 157.196C18.9938 156.727 18.8808 156.351 18.6549 156.066C18.429 155.773 18.1277 155.627 17.7511 155.627ZM21.203 158.94C21.203 158.79 21.2448 158.664 21.3285 158.564C21.4205 158.463 21.5544 158.413 21.7301 158.413C21.9142 158.413 22.0523 158.463 22.1444 158.564C22.2364 158.664 22.2824 158.79 22.2824 158.94C22.2824 159.082 22.2364 159.204 22.1444 159.304C22.0523 159.396 21.9142 159.442 21.7301 159.442C21.5544 159.442 21.4205 159.396 21.3285 159.304C21.2448 159.204 21.203 159.082 21.203 158.94ZM27.8054 156.468C27.8054 157.488 27.6296 158.25 27.2782 158.752C26.9351 159.246 26.3912 159.492 25.6464 159.492C24.9184 159.492 24.3786 159.25 24.0272 158.764C23.6757 158.279 23.4916 157.551 23.4749 156.581V155.426C23.4749 154.414 23.6464 153.665 23.9895 153.179C24.341 152.686 24.8891 152.439 25.6338 152.439C26.3702 152.439 26.9142 152.677 27.2656 153.154C27.6171 153.623 27.797 154.351 27.8054 155.338V156.468ZM26.9267 155.275C26.9267 154.539 26.8221 154.004 26.6129 153.669C26.4121 153.326 26.0857 153.154 25.6338 153.154C25.1903 153.154 24.864 153.326 24.6548 153.669C24.454 154.004 24.3535 154.518 24.3535 155.213V156.606C24.3535 157.342 24.4581 157.89 24.6673 158.25C24.8849 158.601 25.2113 158.777 25.6464 158.777C26.0732 158.777 26.3912 158.61 26.6004 158.275C26.8096 157.94 26.9183 157.417 26.9267 156.706V155.275ZM29.048 153.857C29.048 153.447 29.1777 153.108 29.4371 152.841C29.7049 152.573 30.0438 152.439 30.4538 152.439C30.8723 152.439 31.2112 152.573 31.4706 152.841C31.73 153.108 31.8597 153.456 31.8597 153.882V154.221C31.8597 154.631 31.7258 154.97 31.458 155.238C31.1986 155.497 30.8681 155.627 30.4664 155.627C30.0564 155.627 29.7175 155.497 29.4497 155.238C29.1819 154.97 29.048 154.619 29.048 154.183V153.857ZM29.7007 154.221C29.7007 154.464 29.7677 154.665 29.9016 154.824C30.0438 154.983 30.2321 155.062 30.4664 155.062C30.6923 155.062 30.8723 154.987 31.0061 154.836C31.14 154.677 31.207 154.464 31.207 154.196V153.857C31.207 153.615 31.14 153.414 31.0061 153.255C30.8723 153.087 30.6882 153.004 30.4538 153.004C30.2195 153.004 30.0354 153.087 29.9016 153.255C29.7677 153.414 29.7007 153.619 29.7007 153.87V154.221ZM32.3869 157.71C32.3869 157.3 32.5166 156.966 32.776 156.706C33.0438 156.438 33.3827 156.305 33.7927 156.305C34.2027 156.305 34.5375 156.438 34.7969 156.706C35.0646 156.966 35.1985 157.313 35.1985 157.748V158.074C35.1985 158.484 35.0688 158.823 34.8094 159.091C34.55 159.358 34.2153 159.492 33.8053 159.492C33.3952 159.492 33.0563 159.363 32.7885 159.103C32.5208 158.836 32.3869 158.484 32.3869 158.049V157.71ZM33.0396 158.074C33.0396 158.325 33.1065 158.53 33.2404 158.689C33.3827 158.848 33.5709 158.928 33.8053 158.928C34.0312 158.928 34.2111 158.852 34.345 158.702C34.4789 158.543 34.5458 158.329 34.5458 158.062V157.71C34.5458 157.459 34.4747 157.258 34.3324 157.108C34.1986 156.949 34.0186 156.869 33.7927 156.869C33.5668 156.869 33.3827 156.949 33.2404 157.108C33.1065 157.258 33.0396 157.468 33.0396 157.735V158.074ZM30.6672 158.877L30.1651 158.564L33.5166 153.205L34.0061 153.518L30.6672 158.877Z" fill="#9E9E9E"/>
<path d="M14.9019 148.548H116.671H128.469" stroke="#757575" stroke-miterlimit="10"/>
<path d="M130.076 148.548C130.076 147.661 129.357 146.942 128.469 146.942C127.582 146.942 126.863 147.661 126.863 148.548C126.863 149.436 127.582 150.155 128.469 150.155C129.357 150.155 130.076 149.436 130.076 148.548Z" fill="#9E9E9E"/>
<path d="M15.6926 199.786V192.933H17.6382C18.2323 192.933 18.7553 193.067 19.2072 193.335C19.6675 193.594 20.0231 193.966 20.2741 194.452C20.5252 194.937 20.6507 195.498 20.6507 196.134V196.56C20.6507 197.213 20.5252 197.782 20.2741 198.267C20.0315 198.752 19.6758 199.125 19.2072 199.384C18.747 199.644 18.2114 199.777 17.6005 199.786H15.6926ZM16.5964 193.674V199.045H17.5503C18.2449 199.045 18.7846 198.832 19.1696 198.405C19.5629 197.97 19.7595 197.351 19.7595 196.548V196.146C19.7595 195.368 19.5754 194.766 19.2072 194.339C18.8474 193.904 18.3286 193.682 17.6508 193.674H16.5964ZM25.1318 199.786C25.0816 199.685 25.0397 199.505 25.0063 199.246C24.6046 199.673 24.1234 199.886 23.5628 199.886C23.0607 199.886 22.6465 199.744 22.3201 199.459C22.0021 199.175 21.8431 198.811 21.8431 198.368C21.8431 197.84 22.044 197.43 22.4456 197.138C22.8473 196.845 23.4163 196.698 24.1527 196.698H24.9937V196.297C24.9937 195.996 24.9017 195.757 24.7176 195.581C24.5418 195.397 24.2741 195.305 23.9142 195.305C23.6046 195.305 23.3452 195.385 23.136 195.544C22.9268 195.694 22.8222 195.883 22.8222 196.108H21.9436C21.9436 195.849 22.0314 195.602 22.2072 195.368C22.3913 195.134 22.6381 194.95 22.9477 194.816C23.2573 194.674 23.5963 194.602 23.9644 194.602C24.5586 194.602 25.0188 194.749 25.3452 195.042C25.6799 195.335 25.8556 195.736 25.8724 196.247V198.593C25.8724 199.062 25.9309 199.434 26.0481 199.71V199.786H25.1318ZM23.6883 199.121C23.9644 199.121 24.2239 199.049 24.4665 198.907C24.7092 198.765 24.8849 198.581 24.9937 198.355V197.313H24.3159C23.2448 197.313 22.7092 197.627 22.7092 198.255C22.7092 198.522 22.8013 198.736 22.9854 198.895C23.1695 199.045 23.4038 199.121 23.6883 199.121ZM28.797 193.46V194.69H29.7384V195.368H28.797V198.518C28.797 198.727 28.8388 198.882 28.9225 198.983C29.0062 199.083 29.1485 199.133 29.3493 199.133C29.4497 199.133 29.5878 199.116 29.7635 199.083V199.786C29.5376 199.853 29.3158 199.886 29.0983 199.886C28.7133 199.886 28.4204 199.769 28.2196 199.535C28.0188 199.292 27.9184 198.953 27.9184 198.518V195.368H26.9895V194.69H27.9184V193.46H28.797ZM33.9685 199.786C33.9183 199.685 33.8764 199.505 33.8429 199.246C33.4413 199.673 32.9601 199.886 32.3994 199.886C31.8974 199.886 31.4831 199.744 31.1568 199.459C30.8388 199.175 30.6798 198.811 30.6798 198.368C30.6798 197.84 30.8806 197.43 31.2823 197.138C31.684 196.845 32.253 196.698 32.9894 196.698H33.8304V196.297C33.8304 195.996 33.7383 195.757 33.5542 195.581C33.3785 195.397 33.1107 195.305 32.7509 195.305C32.4413 195.305 32.1819 195.385 31.9727 195.544C31.7635 195.694 31.6589 195.883 31.6589 196.108H30.7802C30.7802 195.849 30.8681 195.602 31.0438 195.368C31.2279 195.134 31.4748 194.95 31.7844 194.816C32.094 194.674 32.4329 194.602 32.8011 194.602C33.3952 194.602 33.8555 194.749 34.1818 195.042C34.5166 195.335 34.6923 195.736 34.709 196.247V198.593C34.709 199.062 34.7676 199.434 34.8848 199.71V199.786H33.9685ZM32.525 199.121C32.8011 199.121 33.0605 199.049 33.3032 198.907C33.5459 198.765 33.7216 198.581 33.8304 198.355V197.313H33.1526C32.0815 197.313 31.5459 197.627 31.5459 198.255C31.5459 198.522 31.638 198.736 31.8221 198.895C32.0061 199.045 32.2405 199.121 32.525 199.121ZM41.0102 196.736C40.2403 196.51 39.6755 196.234 39.3156 195.908C38.9642 195.581 38.7885 195.18 38.7885 194.703C38.7885 194.167 39.0018 193.724 39.4286 193.372C39.8638 193.013 40.4286 192.833 41.1231 192.833C41.5918 192.833 42.0102 192.925 42.3784 193.109C42.7465 193.293 43.0311 193.544 43.2319 193.862C43.4411 194.18 43.5457 194.531 43.5457 194.916H42.6294C42.6294 194.498 42.4955 194.171 42.2277 193.937C41.9683 193.703 41.6001 193.586 41.1231 193.586C40.6796 193.586 40.3324 193.686 40.0813 193.887C39.8303 194.079 39.7048 194.347 39.7048 194.69C39.7048 194.975 39.8219 195.213 40.0562 195.406C40.2989 195.598 40.7047 195.774 41.2738 195.933C41.8428 196.092 42.2863 196.267 42.6043 196.46C42.9306 196.652 43.1691 196.878 43.3198 197.138C43.4788 197.397 43.5583 197.698 43.5583 198.041C43.5583 198.602 43.3407 199.049 42.9055 199.384C42.4704 199.719 41.893 199.886 41.1734 199.886C40.6964 199.886 40.2529 199.794 39.8428 199.61C39.4412 199.426 39.1274 199.179 38.9014 198.87C38.6839 198.552 38.5751 198.196 38.5751 197.803H39.4788C39.4788 198.213 39.6336 198.539 39.9433 198.782C40.2529 199.024 40.6629 199.146 41.1734 199.146C41.6503 199.146 42.0143 199.049 42.2654 198.857C42.5164 198.656 42.6419 198.388 42.6419 198.054C42.6419 197.719 42.5248 197.46 42.2905 197.276C42.0562 197.092 41.6294 196.912 41.0102 196.736ZM46.5205 199.171C46.8302 199.171 47.1021 199.079 47.3364 198.895C47.5707 198.702 47.7004 198.464 47.7255 198.179H48.554C48.5372 198.472 48.4326 198.752 48.2402 199.02C48.0561 199.28 47.8092 199.489 47.4996 199.648C47.1984 199.807 46.872 199.886 46.5205 199.886C45.826 199.886 45.2737 199.656 44.8637 199.196C44.462 198.727 44.2612 198.091 44.2612 197.288V197.138C44.2612 196.644 44.349 196.205 44.5248 195.82C44.7089 195.435 44.9683 195.138 45.303 194.929C45.6461 194.711 46.0519 194.602 46.5205 194.602C47.0896 194.602 47.5624 194.774 47.9389 195.117C48.3239 195.452 48.5289 195.895 48.554 196.447H47.7255C47.7004 196.113 47.5749 195.841 47.349 195.632C47.123 195.422 46.8469 195.318 46.5205 195.318C46.077 195.318 45.7339 195.477 45.4913 195.795C45.2486 196.113 45.1273 196.573 45.1273 197.175V197.338C45.1273 197.924 45.2486 198.376 45.4913 198.694C45.7339 199.012 46.077 199.171 46.5205 199.171ZM50.2485 199.786H49.3824V194.69H50.2485V199.786ZM49.3071 193.347C49.3071 193.205 49.3489 193.084 49.4326 192.983C49.5247 192.883 49.6544 192.833 49.8217 192.833C49.9891 192.833 50.1146 192.883 50.1983 192.983C50.2903 193.084 50.3364 193.205 50.3364 193.347C50.3364 193.481 50.2903 193.598 50.1983 193.699C50.1146 193.791 49.9891 193.837 49.8217 193.837C49.6544 193.837 49.5247 193.791 49.4326 193.699C49.3489 193.598 49.3071 193.481 49.3071 193.347ZM53.8259 199.886C53.1313 199.886 52.5665 199.66 52.1313 199.208C51.7046 198.748 51.4912 198.137 51.4912 197.376V197.225C51.4912 196.715 51.5874 196.263 51.7799 195.87C51.9723 195.468 52.2401 195.159 52.5832 194.941C52.9347 194.715 53.3112 194.602 53.7129 194.602C54.374 194.602 54.8886 194.82 55.2568 195.255C55.625 195.69 55.8091 196.313 55.8091 197.125V197.489H52.3573C52.374 197.991 52.5204 198.397 52.7966 198.706C53.0811 199.016 53.4409 199.171 53.8761 199.171C54.1773 199.171 54.4325 199.108 54.6417 198.983C54.8593 198.857 55.0518 198.69 55.2191 198.481L55.7463 198.895C55.3196 199.556 54.6794 199.886 53.8259 199.886ZM53.7129 195.318C53.3614 195.318 53.0644 195.447 52.8217 195.707C52.5874 195.958 52.4451 196.313 52.3949 196.774H54.943V196.711C54.9179 196.267 54.7966 195.924 54.579 195.682C54.3698 195.439 54.0811 195.318 53.7129 195.318ZM57.353 194.69L57.3781 195.33C57.7714 194.845 58.2818 194.602 58.9095 194.602C59.9889 194.602 60.5329 195.209 60.5412 196.422V199.786H59.6626V196.41C59.6626 196.05 59.5789 195.782 59.4115 195.606C59.2525 195.431 58.9973 195.343 58.6459 195.343C58.3613 195.343 58.1103 195.418 57.8927 195.569C57.6835 195.719 57.5204 195.916 57.4032 196.159V199.786H56.5371V194.69H57.353ZM64.1939 199.171C64.5035 199.171 64.7755 199.079 65.0098 198.895C65.2441 198.702 65.3738 198.464 65.3989 198.179H66.2273C66.2106 198.472 66.106 198.752 65.9135 199.02C65.7294 199.28 65.4826 199.489 65.1729 199.648C64.8717 199.807 64.5453 199.886 64.1939 199.886C63.4993 199.886 62.947 199.656 62.537 199.196C62.1353 198.727 61.9345 198.091 61.9345 197.288V197.138C61.9345 196.644 62.0224 196.205 62.1981 195.82C62.3822 195.435 62.6416 195.138 62.9763 194.929C63.3194 194.711 63.7253 194.602 64.1939 194.602C64.7629 194.602 65.2357 194.774 65.6123 195.117C65.9972 195.452 66.2022 195.895 66.2273 196.447H65.3989C65.3738 196.113 65.2482 195.841 65.0223 195.632C64.7964 195.422 64.5202 195.318 64.1939 195.318C63.7504 195.318 63.4073 195.477 63.1646 195.795C62.9219 196.113 62.8006 196.573 62.8006 197.175V197.338C62.8006 197.924 62.9219 198.376 63.1646 198.694C63.4073 199.012 63.7504 199.171 64.1939 199.171ZM69.0892 199.886C68.3946 199.886 67.8298 199.66 67.3947 199.208C66.9679 198.748 66.7545 198.137 66.7545 197.376V197.225C66.7545 196.715 66.8507 196.263 67.0432 195.87C67.2357 195.468 67.5034 195.159 67.8465 194.941C68.198 194.715 68.5746 194.602 68.9762 194.602C69.6373 194.602 70.1519 194.82 70.5201 195.255C70.8883 195.69 71.0724 196.313 71.0724 197.125V197.489H67.6206C67.6373 197.991 67.7838 198.397 68.0599 198.706C68.3444 199.016 68.7043 199.171 69.1394 199.171C69.4406 199.171 69.6959 199.108 69.9051 198.983C70.1226 198.857 70.3151 198.69 70.4825 198.481L71.0097 198.895C70.5829 199.556 69.9427 199.886 69.0892 199.886ZM68.9762 195.318C68.6248 195.318 68.3277 195.447 68.085 195.707C67.8507 195.958 67.7085 196.313 67.6582 196.774H70.2063V196.711C70.1812 196.267 70.0599 195.924 69.8423 195.682C69.6331 195.439 69.3444 195.318 68.9762 195.318Z" fill="#757575"/>
<path d="M18.8055 211.232C18.6298 211.449 18.4122 211.625 18.1528 211.759C17.9018 211.885 17.6256 211.947 17.3244 211.947C16.9311 211.947 16.588 211.851 16.2951 211.659C16.0022 211.466 15.7763 211.194 15.6173 210.843C15.4583 210.483 15.3788 210.09 15.3788 209.663C15.3788 209.211 15.4625 208.801 15.6298 208.433C15.8056 208.065 16.0524 207.785 16.3704 207.592C16.6968 207.391 17.0733 207.291 17.5001 207.291C18.1779 207.291 18.7093 207.546 19.0942 208.057C19.4875 208.567 19.6841 209.257 19.6841 210.127V210.378C19.6841 211.717 19.4206 212.692 18.8934 213.303C18.3662 213.914 17.5712 214.227 16.5085 214.244H16.3327V213.516H16.521C17.2407 213.499 17.793 213.311 18.1779 212.951C18.5628 212.592 18.772 212.018 18.8055 211.232ZM17.4624 211.232C17.7553 211.232 18.0231 211.144 18.2658 210.968C18.5168 210.784 18.7009 210.563 18.8181 210.303V209.952C18.8181 209.383 18.6925 208.918 18.4415 208.559C18.1905 208.199 17.8766 208.019 17.5001 208.019C17.1152 208.019 16.8055 208.165 16.5712 208.458C16.3453 208.751 16.2323 209.14 16.2323 209.625C16.2323 210.094 16.3411 210.479 16.5587 210.78C16.7846 211.081 17.0859 211.232 17.4624 211.232ZM21.203 213.792C21.203 213.642 21.2448 213.516 21.3285 213.416C21.4205 213.315 21.5544 213.265 21.7301 213.265C21.9142 213.265 22.0523 213.315 22.1444 213.416C22.2364 213.516 22.2824 213.642 22.2824 213.792C22.2824 213.934 22.2364 214.056 22.1444 214.156C22.0523 214.248 21.9142 214.294 21.7301 214.294C21.5544 214.294 21.4205 214.248 21.3285 214.156C21.2448 214.056 21.203 213.934 21.203 213.792ZM26.9267 207.391V208.119H26.7635C26.0857 208.136 25.546 208.341 25.1443 208.734C24.7426 209.119 24.5083 209.663 24.4414 210.366C24.8096 209.956 25.3033 209.751 25.9225 209.751C26.5167 209.751 26.9936 209.96 27.3535 210.378C27.7133 210.797 27.8932 211.341 27.8932 212.01C27.8932 212.713 27.7007 213.278 27.3158 213.704C26.9309 214.131 26.4121 214.344 25.7594 214.344C25.1067 214.344 24.5753 214.093 24.1652 213.591C23.7636 213.081 23.5627 212.428 23.5627 211.634V211.307C23.5627 210.044 23.8305 209.077 24.3661 208.408C24.9016 207.739 25.7008 207.4 26.7635 207.391H26.9267ZM25.7845 210.479C25.4832 210.479 25.2071 210.567 24.956 210.742C24.705 210.918 24.5293 211.144 24.4288 211.42V211.734C24.4288 212.303 24.5544 212.759 24.8054 213.102C25.0648 213.445 25.3828 213.617 25.7594 213.617C26.1527 213.617 26.4623 213.474 26.6882 213.19C26.9142 212.897 27.0271 212.516 27.0271 212.048C27.0271 211.579 26.9142 211.203 26.6882 210.918C26.4623 210.625 26.161 210.479 25.7845 210.479ZM29.048 208.709C29.048 208.299 29.1777 207.96 29.4371 207.693C29.7049 207.425 30.0438 207.291 30.4538 207.291C30.8722 207.291 31.2111 207.425 31.4706 207.693C31.73 207.96 31.8597 208.308 31.8597 208.734V209.073C31.8597 209.483 31.7258 209.822 31.458 210.09C31.1986 210.349 30.8681 210.479 30.4664 210.479C30.0564 210.479 29.7175 210.349 29.4497 210.09C29.1819 209.822 29.048 209.471 29.048 209.036V208.709ZM29.7007 209.073C29.7007 209.316 29.7677 209.517 29.9015 209.676C30.0438 209.835 30.2321 209.914 30.4664 209.914C30.6923 209.914 30.8722 209.839 31.0061 209.688C31.14 209.529 31.207 209.316 31.207 209.048V208.709C31.207 208.467 31.14 208.266 31.0061 208.107C30.8722 207.939 30.6881 207.856 30.4538 207.856C30.2195 207.856 30.0354 207.939 29.9015 208.107C29.7677 208.266 29.7007 208.471 29.7007 208.722V209.073ZM32.3869 212.562C32.3869 212.152 32.5166 211.818 32.776 211.558C33.0438 211.29 33.3827 211.157 33.7927 211.157C34.2027 211.157 34.5375 211.29 34.7969 211.558C35.0646 211.818 35.1985 212.165 35.1985 212.6V212.926C35.1985 213.336 35.0688 213.675 34.8094 213.943C34.55 214.211 34.2153 214.344 33.8052 214.344C33.3952 214.344 33.0563 214.215 32.7885 213.955C32.5207 213.688 32.3869 213.336 32.3869 212.901V212.562ZM33.0396 212.926C33.0396 213.177 33.1065 213.382 33.2404 213.541C33.3827 213.7 33.5709 213.78 33.8052 213.78C34.0312 213.78 34.2111 213.704 34.345 213.554C34.4789 213.395 34.5458 213.181 34.5458 212.914V212.562C34.5458 212.311 34.4747 212.11 34.3324 211.96C34.1985 211.801 34.0186 211.721 33.7927 211.721C33.5668 211.721 33.3827 211.801 33.2404 211.96C33.1065 212.11 33.0396 212.32 33.0396 212.587V212.926ZM30.6672 213.729L30.1651 213.416L33.5165 208.057L34.0061 208.37L30.6672 213.729Z" fill="#9E9E9E"/>
<path d="M14.9019 203.4H116.671H134.671" stroke="#757575" stroke-miterlimit="10"/>
<path d="M136.277 203.4C136.277 202.513 135.558 201.794 134.671 201.794C133.783 201.794 133.064 202.513 133.064 203.4C133.064 204.287 133.783 205.007 134.671 205.007C135.558 205.007 136.277 204.287 136.277 203.4Z" fill="#9E9E9E"/>
<path d="M20.7385 262.418C20.6549 263.138 20.3871 263.698 19.9352 264.1C19.4833 264.493 18.885 264.69 18.1403 264.69C17.3286 264.69 16.68 264.401 16.1947 263.824C15.7093 263.238 15.4667 262.456 15.4667 261.477V260.824C15.4667 260.188 15.5796 259.628 15.8056 259.143C16.0315 258.657 16.3537 258.285 16.7721 258.026C17.1905 257.766 17.6717 257.636 18.2156 257.636C18.9436 257.636 19.5252 257.841 19.9603 258.251C20.4038 258.661 20.6632 259.222 20.7385 259.933H19.8348C19.7511 259.389 19.5796 258.996 19.3202 258.753C19.0608 258.511 18.6926 258.39 18.2156 258.39C17.6382 258.39 17.1863 258.603 16.86 259.03C16.5336 259.456 16.3704 260.063 16.3704 260.849V261.515C16.3704 262.259 16.5252 262.853 16.8349 263.297C17.1445 263.732 17.5796 263.949 18.1403 263.949C18.6424 263.949 19.0273 263.836 19.2951 263.611C19.5628 263.376 19.7428 262.979 19.8348 262.418H20.7385ZM21.7553 261.992C21.7553 261.498 21.8515 261.05 22.044 260.649C22.2448 260.247 22.5209 259.942 22.8724 259.732C23.2239 259.515 23.6213 259.406 24.0649 259.406C24.7594 259.406 25.3201 259.645 25.7468 260.121C26.182 260.598 26.3995 261.238 26.3995 262.042V262.104C26.3995 262.598 26.3033 263.042 26.1108 263.435C25.9184 263.828 25.6464 264.138 25.295 264.364C24.9435 264.581 24.5376 264.69 24.0774 264.69C23.3912 264.69 22.8306 264.451 22.3954 263.975C21.9687 263.489 21.7553 262.849 21.7553 262.054V261.992ZM22.6339 262.104C22.6339 262.665 22.7636 263.117 23.023 263.46C23.2908 263.803 23.6423 263.975 24.0774 263.975C24.5209 263.975 24.8724 263.803 25.1318 263.46C25.3912 263.109 25.5209 262.619 25.5209 261.992C25.5209 261.439 25.387 260.992 25.1192 260.649C24.8598 260.297 24.5084 260.121 24.0649 260.121C23.6381 260.121 23.2908 260.293 23.023 260.636C22.7636 260.971 22.6339 261.46 22.6339 262.104ZM28.433 259.494L28.4581 260.059C28.8263 259.624 29.3284 259.406 29.9643 259.406C30.6756 259.406 31.161 259.678 31.4204 260.222C31.5877 259.979 31.8053 259.783 32.0731 259.632C32.3492 259.481 32.6714 259.406 33.0396 259.406C34.1609 259.406 34.7299 259.996 34.7467 261.176V264.59H33.8806V261.226C33.8806 260.866 33.7969 260.598 33.6295 260.423C33.4622 260.239 33.1818 260.147 32.7885 260.147C32.4622 260.147 32.1902 260.243 31.9727 260.435C31.7635 260.628 31.6421 260.887 31.6087 261.213V264.59H30.7426V261.251C30.7426 260.515 30.3785 260.147 29.6505 260.147C29.0815 260.147 28.6924 260.389 28.4832 260.875V264.59H27.6045V259.494H28.433ZM40.7466 262.104C40.7466 262.874 40.5708 263.498 40.2194 263.975C39.8679 264.451 39.3868 264.69 38.7759 264.69C38.1567 264.69 37.6713 264.493 37.3199 264.1V266.547H36.4538V259.494H37.2445L37.2822 260.059C37.642 259.624 38.1357 259.406 38.7633 259.406C39.3742 259.406 39.8554 259.636 40.2068 260.096C40.5667 260.557 40.7466 261.197 40.7466 262.017V262.104ZM39.8805 262.004C39.8805 261.427 39.755 260.975 39.5039 260.649C39.2612 260.314 38.9265 260.147 38.4997 260.147C37.9726 260.147 37.5793 260.377 37.3199 260.837V263.272C37.5793 263.74 37.9767 263.975 38.5123 263.975C38.9307 263.975 39.2612 263.811 39.5039 263.485C39.755 263.15 39.8805 262.657 39.8805 262.004ZM45.2151 264.087C44.8804 264.489 44.3825 264.69 43.7214 264.69C43.1775 264.69 42.7633 264.531 42.4788 264.213C42.1942 263.895 42.052 263.426 42.052 262.807V259.494H42.9181V262.782C42.9181 263.56 43.2319 263.949 43.8595 263.949C44.5289 263.949 44.9724 263.698 45.19 263.196V259.494H46.0687V264.59H45.2402L45.2151 264.087ZM48.8803 258.264V259.494H49.8217V260.172H48.8803V263.322C48.8803 263.531 48.9222 263.686 49.0058 263.786C49.0895 263.887 49.2318 263.937 49.4326 263.937C49.533 263.937 49.6711 263.92 49.8468 263.887V264.59C49.6209 264.656 49.3991 264.69 49.1816 264.69C48.7966 264.69 48.5038 264.573 48.3029 264.338C48.1021 264.096 48.0017 263.757 48.0017 263.322V260.172H47.0728V259.494H48.0017V258.264H48.8803ZM53.0225 264.69C52.328 264.69 51.7631 264.464 51.328 264.012C50.9012 263.552 50.6878 262.941 50.6878 262.18V262.029C50.6878 261.519 50.784 261.067 50.9765 260.674C51.169 260.272 51.4368 259.963 51.7799 259.745C52.1313 259.519 52.5079 259.406 52.9095 259.406C53.5706 259.406 54.0853 259.624 54.4534 260.059C54.8216 260.494 55.0057 261.117 55.0057 261.929V262.293H51.5539C51.5707 262.795 51.7171 263.201 51.9932 263.51C52.2778 263.82 52.6376 263.975 53.0727 263.975C53.374 263.975 53.6292 263.912 53.8384 263.786C54.056 263.661 54.2484 263.493 54.4158 263.284L54.943 263.698C54.5162 264.359 53.876 264.69 53.0225 264.69ZM52.9095 260.121C52.5581 260.121 52.261 260.251 52.0183 260.511C51.784 260.762 51.6418 261.117 51.5916 261.577H54.1396V261.515C54.1145 261.071 53.9932 260.728 53.7756 260.485C53.5664 260.243 53.2777 260.121 52.9095 260.121ZM58.194 260.272C58.0601 260.255 57.9178 260.247 57.7672 260.247C57.1898 260.247 56.8007 260.49 56.5999 260.975V264.59H55.7338V259.494H56.5747L56.5873 260.084C56.8718 259.632 57.2777 259.406 57.8049 259.406C57.9722 259.406 58.1019 259.427 58.194 259.469V260.272ZM65.3612 261.427H62.3864V263.849H65.8382V264.59H61.4826V257.737H65.8005V258.477H62.3864V260.686H65.3612V261.427ZM67.7963 259.494L67.8214 260.134C68.2147 259.649 68.7252 259.406 69.3528 259.406C70.4322 259.406 70.9762 260.013 70.9845 261.226V264.59H70.1059V261.213C70.1059 260.854 70.0222 260.586 69.8548 260.41C69.6959 260.234 69.4406 260.147 69.0892 260.147C68.8047 260.147 68.5536 260.222 68.336 260.373C68.1268 260.523 67.9637 260.72 67.8465 260.962V264.59H66.9804V259.494H67.7963ZM72.3904 262.004C72.3904 261.209 72.5745 260.577 72.9427 260.109C73.3109 259.64 73.7962 259.406 74.3987 259.406C75.0179 259.406 75.5033 259.624 75.8547 260.059L75.8924 259.494H76.6957V264.464C76.6957 265.125 76.4991 265.644 76.1058 266.02C75.7125 266.405 75.1895 266.598 74.5368 266.598C74.1686 266.598 73.8088 266.518 73.4573 266.359C73.1058 266.2 72.8381 265.987 72.654 265.719L73.1058 265.192C73.474 265.652 73.9301 265.882 74.474 265.882C74.8924 265.882 75.2188 265.761 75.4531 265.518C75.6958 265.284 75.8171 264.949 75.8171 264.514V264.075C75.4656 264.485 74.9887 264.69 74.3862 264.69C73.792 264.69 73.3109 264.451 72.9427 263.975C72.5745 263.489 72.3904 262.832 72.3904 262.004ZM73.269 262.104C73.269 262.673 73.3862 263.125 73.6205 263.46C73.8548 263.786 74.1853 263.949 74.6121 263.949C75.156 263.949 75.5577 263.698 75.8171 263.196V260.875C75.5493 260.389 75.1476 260.147 74.6121 260.147C74.1937 260.147 73.8631 260.31 73.6205 260.636C73.3862 260.962 73.269 261.452 73.269 262.104ZM79.1685 264.59H78.3024V259.494H79.1685V264.59ZM78.2271 258.151C78.2271 258.009 78.2689 257.887 78.3526 257.787C78.4447 257.687 78.5744 257.636 78.7417 257.636C78.9091 257.636 79.0346 257.687 79.1183 257.787C79.2103 257.887 79.2564 258.009 79.2564 258.151C79.2564 258.285 79.2103 258.402 79.1183 258.502C79.0346 258.595 78.9091 258.641 78.7417 258.641C78.5744 258.641 78.4447 258.595 78.3526 258.502C78.2689 258.402 78.2271 258.285 78.2271 258.151ZM81.453 259.494L81.4781 260.134C81.8714 259.649 82.3818 259.406 83.0094 259.406C84.0889 259.406 84.6328 260.013 84.6412 261.226V264.59H83.7626V261.213C83.7626 260.854 83.6789 260.586 83.5115 260.41C83.3525 260.234 83.0973 260.147 82.7458 260.147C82.4613 260.147 82.2103 260.222 81.9927 260.373C81.7835 260.523 81.6203 260.72 81.5032 260.962V264.59H80.6371V259.494H81.453ZM88.3692 264.69C87.6746 264.69 87.1098 264.464 86.6746 264.012C86.2479 263.552 86.0345 262.941 86.0345 262.18V262.029C86.0345 261.519 86.1307 261.067 86.3232 260.674C86.5156 260.272 86.7834 259.963 87.1265 259.745C87.478 259.519 87.8545 259.406 88.2562 259.406C88.9173 259.406 89.4319 259.624 89.8001 260.059C90.1683 260.494 90.3524 261.117 90.3524 261.929V262.293H86.9006C86.9173 262.795 87.0638 263.201 87.3399 263.51C87.6244 263.82 87.9842 263.975 88.4194 263.975C88.7206 263.975 88.9759 263.912 89.1851 263.786C89.4026 263.661 89.5951 263.493 89.7625 263.284L90.2896 263.698C89.8629 264.359 89.2227 264.69 88.3692 264.69ZM88.2562 260.121C87.9047 260.121 87.6077 260.251 87.365 260.511C87.1307 260.762 86.9884 261.117 86.9382 261.577H89.4863V261.515C89.4612 261.071 89.3399 260.728 89.1223 260.485C88.9131 260.243 88.6244 260.121 88.2562 260.121ZM93.1892 264.69C92.4946 264.69 91.9298 264.464 91.4946 264.012C91.0679 263.552 90.8545 262.941 90.8545 262.18V262.029C90.8545 261.519 90.9507 261.067 91.1432 260.674C91.3356 260.272 91.6034 259.963 91.9465 259.745C92.298 259.519 92.6745 259.406 93.0762 259.406C93.7373 259.406 94.2519 259.624 94.6201 260.059C94.9883 260.494 95.1724 261.117 95.1724 261.929V262.293H91.7206C91.7373 262.795 91.8838 263.201 92.1599 263.51C92.4444 263.82 92.8042 263.975 93.2394 263.975C93.5406 263.975 93.7959 263.912 94.0051 263.786C94.2226 263.661 94.4151 263.493 94.5825 263.284L95.1096 263.698C94.6829 264.359 94.0427 264.69 93.1892 264.69ZM93.0762 260.121C92.7247 260.121 92.4277 260.251 92.185 260.511C91.9507 260.762 91.8084 261.117 91.7582 261.577H94.3063V261.515C94.2812 261.071 94.1599 260.728 93.9423 260.485C93.7331 260.243 93.4444 260.121 93.0762 260.121ZM98.3606 260.272C98.2267 260.255 98.0845 260.247 97.9339 260.247C97.3565 260.247 96.9673 260.49 96.7665 260.975V264.59H95.9004V259.494H96.7414L96.754 260.084C97.0385 259.632 97.4443 259.406 97.9715 259.406C98.1389 259.406 98.2686 259.427 98.3606 259.469V260.272ZM100.055 264.59H99.1891V259.494H100.055V264.59ZM99.1138 258.151C99.1138 258.009 99.1556 257.887 99.2393 257.787C99.3313 257.687 99.461 257.636 99.6284 257.636C99.7957 257.636 99.9213 257.687 100.005 257.787C100.097 257.887 100.143 258.009 100.143 258.151C100.143 258.285 100.097 258.402 100.005 258.502C99.9213 258.595 99.7957 258.641 99.6284 258.641C99.461 258.641 99.3313 258.595 99.2393 258.502C99.1556 258.402 99.1138 258.285 99.1138 258.151ZM102.34 259.494L102.365 260.134C102.758 259.649 103.268 259.406 103.896 259.406C104.976 259.406 105.52 260.013 105.528 261.226V264.59H104.649V261.213C104.649 260.854 104.566 260.586 104.398 260.41C104.239 260.234 103.984 260.147 103.632 260.147C103.348 260.147 103.097 260.222 102.879 260.373C102.67 260.523 102.507 260.72 102.39 260.962V264.59H101.524V259.494H102.34ZM106.934 262.004C106.934 261.209 107.118 260.577 107.486 260.109C107.854 259.64 108.34 259.406 108.942 259.406C109.561 259.406 110.047 259.624 110.398 260.059L110.436 259.494H111.239V264.464C111.239 265.125 111.042 265.644 110.649 266.02C110.256 266.405 109.733 266.598 109.08 266.598C108.712 266.598 108.352 266.518 108.001 266.359C107.649 266.2 107.381 265.987 107.197 265.719L107.649 265.192C108.017 265.652 108.473 265.882 109.017 265.882C109.436 265.882 109.762 265.761 109.996 265.518C110.239 265.284 110.36 264.949 110.36 264.514V264.075C110.009 264.485 109.532 264.69 108.929 264.69C108.335 264.69 107.854 264.451 107.486 263.975C107.118 263.489 106.934 262.832 106.934 262.004ZM107.812 262.104C107.812 262.673 107.929 263.125 108.164 263.46C108.398 263.786 108.729 263.949 109.155 263.949C109.699 263.949 110.101 263.698 110.36 263.196V260.875C110.093 260.389 109.691 260.147 109.155 260.147C108.737 260.147 108.406 260.31 108.164 260.636C107.929 260.962 107.812 261.452 107.812 262.104Z" fill="#757575"/>
<path d="M18.3286 279.048H17.4625V273.249L15.7052 273.889V273.099L18.2031 272.157H18.3286V279.048ZM24.5168 272.195V272.923H24.3536C23.6758 272.94 23.136 273.145 22.7344 273.538C22.3327 273.923 22.0984 274.467 22.0315 275.17C22.3996 274.76 22.8934 274.555 23.5126 274.555C24.1067 274.555 24.5837 274.764 24.9435 275.182C25.3034 275.6 25.4833 276.144 25.4833 276.814C25.4833 277.517 25.2908 278.081 24.9059 278.508C24.5209 278.935 24.0021 279.148 23.3494 279.148C22.6967 279.148 22.1653 278.897 21.7553 278.395C21.3536 277.885 21.1528 277.232 21.1528 276.437V276.111C21.1528 274.847 21.4206 273.881 21.9561 273.212C22.4917 272.542 23.2908 272.204 24.3536 272.195H24.5168ZM23.3745 275.283C23.0733 275.283 22.7971 275.37 22.5461 275.546C22.295 275.722 22.1193 275.948 22.0189 276.224V276.538C22.0189 277.107 22.1444 277.563 22.3955 277.906C22.6549 278.249 22.9729 278.42 23.3494 278.42C23.7427 278.42 24.0523 278.278 24.2783 277.993C24.5042 277.701 24.6172 277.32 24.6172 276.851C24.6172 276.383 24.5042 276.006 24.2783 275.722C24.0523 275.429 23.7511 275.283 23.3745 275.283ZM26.8263 278.596C26.8263 278.445 26.8682 278.32 26.9519 278.219C27.0439 278.119 27.1778 278.069 27.3535 278.069C27.5376 278.069 27.6757 278.119 27.7678 278.219C27.8598 278.32 27.9058 278.445 27.9058 278.596C27.9058 278.738 27.8598 278.859 27.7678 278.96C27.6757 279.052 27.5376 279.098 27.3535 279.098C27.1778 279.098 27.0439 279.052 26.9519 278.96C26.8682 278.859 26.8263 278.738 26.8263 278.596ZM30.3911 275.195H31.0438C31.4622 275.186 31.7886 275.078 32.0229 274.868C32.2572 274.659 32.3744 274.375 32.3744 274.015C32.3744 273.212 31.9727 272.81 31.1694 272.81C30.7928 272.81 30.4916 272.919 30.2656 273.136C30.048 273.354 29.9393 273.638 29.9393 273.99H29.0606C29.0606 273.446 29.2573 272.994 29.6506 272.634C30.0522 272.275 30.5585 272.095 31.1694 272.095C31.8137 272.095 32.32 272.266 32.6882 272.609C33.0564 272.952 33.2405 273.429 33.2405 274.04C33.2405 274.341 33.1442 274.63 32.9518 274.906C32.7593 275.182 32.4957 275.391 32.161 275.534C32.5375 275.651 32.8262 275.847 33.0271 276.123C33.2363 276.4 33.3409 276.738 33.3409 277.14C33.3409 277.751 33.14 278.24 32.7384 278.608C32.3367 278.968 31.8137 279.148 31.1694 279.148C30.5334 279.148 30.0104 278.972 29.6004 278.621C29.1987 278.27 28.9979 277.809 28.9979 277.24H29.8765C29.8765 277.6 29.9937 277.889 30.228 278.106C30.4623 278.324 30.7803 278.433 31.1819 278.433C31.6003 278.433 31.9183 278.324 32.1359 278.106C32.3618 277.88 32.4748 277.563 32.4748 277.153C32.4748 276.759 32.3534 276.458 32.1108 276.249C31.8681 276.031 31.5125 275.918 31.0438 275.91H30.3911V275.195ZM34.6714 273.513C34.6714 273.103 34.8011 272.764 35.0605 272.496C35.3283 272.229 35.6672 272.095 36.0772 272.095C36.4956 272.095 36.8345 272.229 37.094 272.496C37.3534 272.764 37.4831 273.111 37.4831 273.538V273.877C37.4831 274.287 37.3492 274.626 37.0814 274.893C36.822 275.153 36.4915 275.283 36.0898 275.283C35.6797 275.283 35.3408 275.153 35.0731 274.893C34.8053 274.626 34.6714 274.274 34.6714 273.839V273.513ZM35.3241 273.877C35.3241 274.12 35.3911 274.32 35.5249 274.479C35.6672 274.638 35.8555 274.718 36.0898 274.718C36.3157 274.718 36.4956 274.642 36.6295 274.492C36.7634 274.333 36.8304 274.12 36.8304 273.852V273.513C36.8304 273.27 36.7634 273.069 36.6295 272.911C36.4956 272.743 36.3115 272.659 36.0772 272.659C35.8429 272.659 35.6588 272.743 35.5249 272.911C35.3911 273.069 35.3241 273.274 35.3241 273.525V273.877ZM38.0103 277.366C38.0103 276.956 38.14 276.621 38.3994 276.362C38.6671 276.094 39.0061 275.96 39.4161 275.96C39.8261 275.96 40.1608 276.094 40.4203 276.362C40.688 276.621 40.8219 276.969 40.8219 277.404V277.73C40.8219 278.14 40.6922 278.479 40.4328 278.746C40.1734 279.014 39.8387 279.148 39.4286 279.148C39.0186 279.148 38.6797 279.018 38.4119 278.759C38.1441 278.491 38.0103 278.14 38.0103 277.705V277.366ZM38.663 277.73C38.663 277.981 38.7299 278.186 38.8638 278.345C39.0061 278.504 39.1943 278.583 39.4286 278.583C39.6546 278.583 39.8345 278.508 39.9684 278.357C40.1023 278.198 40.1692 277.985 40.1692 277.717V277.366C40.1692 277.115 40.0981 276.914 39.9558 276.764C39.8219 276.605 39.642 276.525 39.4161 276.525C39.1901 276.525 39.0061 276.605 38.8638 276.764C38.7299 276.914 38.663 277.123 38.663 277.391V277.73ZM36.2906 278.533L35.7885 278.219L39.1399 272.86L39.6295 273.174L36.2906 278.533Z" fill="#9E9E9E"/>
<path d="M14.9019 268.204H116.671H196.883" stroke="#757575" stroke-miterlimit="10"/>
<path d="M198.489 268.204C198.489 267.317 197.77 266.598 196.883 266.598C195.995 266.598 195.276 267.317 195.276 268.204C195.276 269.091 195.995 269.811 196.883 269.811C197.77 269.811 198.489 269.091 198.489 268.204Z" fill="#9E9E9E"/>
<path d="M394.208 151.434C394.125 152.153 393.857 152.714 393.405 153.116C392.953 153.509 392.355 153.706 391.61 153.706C390.798 153.706 390.15 153.417 389.665 152.84C389.179 152.254 388.937 151.472 388.937 150.493V149.84C388.937 149.204 389.05 148.643 389.275 148.158C389.501 147.673 389.824 147.301 390.242 147.041C390.66 146.782 391.142 146.652 391.685 146.652C392.413 146.652 392.995 146.857 393.43 147.267C393.874 147.677 394.133 148.238 394.208 148.949H393.305C393.221 148.405 393.049 148.012 392.79 147.769C392.531 147.526 392.162 147.405 391.685 147.405C391.108 147.405 390.656 147.618 390.33 148.045C390.003 148.472 389.84 149.079 389.84 149.865V150.53C389.84 151.275 389.995 151.869 390.305 152.312C390.614 152.747 391.049 152.965 391.61 152.965C392.112 152.965 392.497 152.852 392.765 152.626C393.033 152.392 393.213 151.994 393.305 151.434H394.208ZM395.225 151.007C395.225 150.513 395.321 150.066 395.514 149.664C395.715 149.263 395.991 148.957 396.342 148.748C396.694 148.53 397.091 148.422 397.535 148.422C398.229 148.422 398.79 148.66 399.217 149.137C399.652 149.614 399.869 150.254 399.869 151.057V151.12C399.869 151.614 399.773 152.057 399.581 152.45C399.388 152.844 399.116 153.153 398.765 153.379C398.413 153.597 398.007 153.706 397.547 153.706C396.861 153.706 396.3 153.467 395.865 152.99C395.438 152.505 395.225 151.865 395.225 151.07V151.007ZM396.104 151.12C396.104 151.681 396.233 152.133 396.493 152.476C396.761 152.819 397.112 152.99 397.547 152.99C397.991 152.99 398.342 152.819 398.602 152.476C398.861 152.124 398.991 151.635 398.991 151.007C398.991 150.455 398.857 150.007 398.589 149.664C398.33 149.313 397.978 149.137 397.535 149.137C397.108 149.137 396.761 149.309 396.493 149.652C396.233 149.986 396.104 150.476 396.104 151.12ZM401.903 148.51L401.928 149.074C402.296 148.639 402.798 148.422 403.434 148.422C404.145 148.422 404.631 148.694 404.89 149.238C405.058 148.995 405.275 148.798 405.543 148.648C405.819 148.497 406.141 148.422 406.509 148.422C407.631 148.422 408.2 149.012 408.217 150.191V153.605H407.35V150.242C407.35 149.882 407.267 149.614 407.099 149.438C406.932 149.254 406.652 149.162 406.258 149.162C405.932 149.162 405.66 149.258 405.443 149.451C405.233 149.643 405.112 149.903 405.079 150.229V153.605H404.212V150.267C404.212 149.53 403.848 149.162 403.12 149.162C402.551 149.162 402.162 149.405 401.953 149.89V153.605H401.074V148.51H401.903ZM414.216 151.12C414.216 151.89 414.041 152.513 413.689 152.99C413.338 153.467 412.857 153.706 412.246 153.706C411.626 153.706 411.141 153.509 410.79 153.116V155.563H409.924V148.51H410.714L410.752 149.074C411.112 148.639 411.606 148.422 412.233 148.422C412.844 148.422 413.325 148.652 413.677 149.112C414.037 149.572 414.216 150.212 414.216 151.032V151.12ZM413.35 151.02C413.35 150.442 413.225 149.991 412.974 149.664C412.731 149.33 412.396 149.162 411.97 149.162C411.442 149.162 411.049 149.392 410.79 149.852V152.287C411.049 152.756 411.447 152.99 411.982 152.99C412.401 152.99 412.731 152.827 412.974 152.501C413.225 152.166 413.35 151.672 413.35 151.02ZM418.685 153.103C418.35 153.505 417.852 153.706 417.191 153.706C416.647 153.706 416.233 153.547 415.949 153.229C415.664 152.911 415.522 152.442 415.522 151.823V148.51H416.388V151.798C416.388 152.576 416.702 152.965 417.329 152.965C417.999 152.965 418.442 152.714 418.66 152.212V148.51H419.538V153.605H418.71L418.685 153.103ZM422.35 147.28V148.51H423.292V149.187H422.35V152.337C422.35 152.547 422.392 152.701 422.476 152.802C422.559 152.902 422.702 152.952 422.902 152.952C423.003 152.952 423.141 152.936 423.317 152.902V153.605C423.091 153.672 422.869 153.706 422.651 153.706C422.266 153.706 421.974 153.588 421.773 153.354C421.572 153.111 421.472 152.773 421.472 152.337V149.187H420.543V148.51H421.472V147.28H422.35ZM426.492 153.706C425.798 153.706 425.233 153.48 424.798 153.028C424.371 152.568 424.158 151.957 424.158 151.195V151.045C424.158 150.534 424.254 150.083 424.446 149.689C424.639 149.288 424.907 148.978 425.25 148.761C425.601 148.535 425.978 148.422 426.379 148.422C427.04 148.422 427.555 148.639 427.923 149.074C428.291 149.509 428.476 150.133 428.476 150.944V151.308H425.024C425.041 151.81 425.187 152.216 425.463 152.526C425.748 152.835 426.107 152.99 426.543 152.99C426.844 152.99 427.099 152.927 427.308 152.802C427.526 152.676 427.718 152.509 427.886 152.3L428.413 152.714C427.986 153.375 427.346 153.706 426.492 153.706ZM426.379 149.137C426.028 149.137 425.731 149.267 425.488 149.526C425.254 149.777 425.112 150.133 425.061 150.593H427.609V150.53C427.584 150.087 427.463 149.744 427.245 149.501C427.036 149.258 426.748 149.137 426.379 149.137ZM431.664 149.288C431.53 149.271 431.388 149.263 431.237 149.263C430.66 149.263 430.271 149.505 430.07 149.991V153.605H429.204V148.51H430.045L430.057 149.099C430.342 148.648 430.748 148.422 431.275 148.422C431.442 148.422 431.572 148.443 431.664 148.484V149.288ZM436.973 150.555C436.203 150.329 435.639 150.053 435.279 149.727C434.927 149.401 434.752 148.999 434.752 148.522C434.752 147.987 434.965 147.543 435.392 147.192C435.827 146.832 436.392 146.652 437.086 146.652C437.555 146.652 437.973 146.744 438.342 146.928C438.71 147.112 438.994 147.363 439.195 147.681C439.404 147.999 439.509 148.351 439.509 148.735H438.593C438.593 148.317 438.459 147.991 438.191 147.757C437.931 147.522 437.563 147.405 437.086 147.405C436.643 147.405 436.296 147.506 436.044 147.706C435.793 147.899 435.668 148.167 435.668 148.51C435.668 148.794 435.785 149.033 436.019 149.225C436.262 149.417 436.668 149.593 437.237 149.752C437.806 149.911 438.249 150.087 438.567 150.279C438.894 150.472 439.132 150.698 439.283 150.957C439.442 151.216 439.521 151.518 439.521 151.861C439.521 152.421 439.304 152.869 438.869 153.203C438.434 153.538 437.856 153.706 437.137 153.706C436.66 153.706 436.216 153.613 435.806 153.429C435.404 153.245 435.091 152.998 434.865 152.689C434.647 152.371 434.538 152.015 434.538 151.622H435.442C435.442 152.032 435.597 152.358 435.906 152.601C436.216 152.844 436.626 152.965 437.137 152.965C437.613 152.965 437.978 152.869 438.229 152.676C438.48 152.476 438.605 152.208 438.605 151.873C438.605 151.538 438.488 151.279 438.254 151.095C438.019 150.911 437.593 150.731 436.973 150.555ZM442.484 152.99C442.793 152.99 443.065 152.898 443.3 152.714C443.534 152.522 443.664 152.283 443.689 151.999H444.517C444.5 152.291 444.396 152.572 444.203 152.84C444.019 153.099 443.772 153.308 443.463 153.467C443.162 153.626 442.835 153.706 442.484 153.706C441.789 153.706 441.237 153.475 440.827 153.015C440.425 152.547 440.224 151.911 440.224 151.108V150.957C440.224 150.463 440.312 150.024 440.488 149.639C440.672 149.254 440.931 148.957 441.266 148.748C441.609 148.53 442.015 148.422 442.484 148.422C443.053 148.422 443.526 148.593 443.902 148.936C444.287 149.271 444.492 149.714 444.517 150.267H443.689C443.664 149.932 443.538 149.66 443.312 149.451C443.086 149.242 442.81 149.137 442.484 149.137C442.04 149.137 441.697 149.296 441.454 149.614C441.212 149.932 441.09 150.392 441.09 150.995V151.158C441.09 151.743 441.212 152.195 441.454 152.513C441.697 152.831 442.04 152.99 442.484 152.99ZM446.212 153.605H445.346V148.51H446.212V153.605ZM445.27 147.167C445.27 147.024 445.312 146.903 445.396 146.803C445.488 146.702 445.618 146.652 445.785 146.652C445.952 146.652 446.078 146.702 446.161 146.803C446.254 146.903 446.3 147.024 446.3 147.167C446.3 147.301 446.254 147.418 446.161 147.518C446.078 147.61 445.952 147.656 445.785 147.656C445.618 147.656 445.488 147.61 445.396 147.518C445.312 147.418 445.27 147.301 445.27 147.167ZM449.789 153.706C449.094 153.706 448.53 153.48 448.094 153.028C447.668 152.568 447.454 151.957 447.454 151.195V151.045C447.454 150.534 447.551 150.083 447.743 149.689C447.935 149.288 448.203 148.978 448.546 148.761C448.898 148.535 449.274 148.422 449.676 148.422C450.337 148.422 450.852 148.639 451.22 149.074C451.588 149.509 451.772 150.133 451.772 150.944V151.308H448.32C448.337 151.81 448.484 152.216 448.76 152.526C449.044 152.835 449.404 152.99 449.839 152.99C450.14 152.99 450.396 152.927 450.605 152.802C450.822 152.676 451.015 152.509 451.182 152.3L451.709 152.714C451.283 153.375 450.643 153.706 449.789 153.706ZM449.676 149.137C449.325 149.137 449.028 149.267 448.785 149.526C448.551 149.777 448.408 150.133 448.358 150.593H450.906V150.53C450.881 150.087 450.76 149.744 450.542 149.501C450.333 149.258 450.044 149.137 449.676 149.137ZM453.316 148.51L453.341 149.15C453.735 148.664 454.245 148.422 454.873 148.422C455.952 148.422 456.496 149.028 456.504 150.242V153.605H455.626V150.229C455.626 149.869 455.542 149.601 455.375 149.426C455.216 149.25 454.96 149.162 454.609 149.162C454.325 149.162 454.073 149.238 453.856 149.388C453.647 149.539 453.484 149.735 453.366 149.978V153.605H452.5V148.51H453.316ZM460.157 152.99C460.467 152.99 460.739 152.898 460.973 152.714C461.207 152.522 461.337 152.283 461.362 151.999H462.19C462.174 152.291 462.069 152.572 461.877 152.84C461.693 153.099 461.446 153.308 461.136 153.467C460.835 153.626 460.508 153.706 460.157 153.706C459.462 153.706 458.91 153.475 458.5 153.015C458.098 152.547 457.898 151.911 457.898 151.108V150.957C457.898 150.463 457.986 150.024 458.161 149.639C458.345 149.254 458.605 148.957 458.939 148.748C459.283 148.53 459.688 148.422 460.157 148.422C460.726 148.422 461.199 148.593 461.575 148.936C461.96 149.271 462.165 149.714 462.19 150.267H461.362C461.337 149.932 461.211 149.66 460.985 149.451C460.76 149.242 460.483 149.137 460.157 149.137C459.714 149.137 459.37 149.296 459.128 149.614C458.885 149.932 458.764 150.392 458.764 150.995V151.158C458.764 151.743 458.885 152.195 459.128 152.513C459.37 152.831 459.714 152.99 460.157 152.99ZM465.052 153.706C464.358 153.706 463.793 153.48 463.358 153.028C462.931 152.568 462.718 151.957 462.718 151.195V151.045C462.718 150.534 462.814 150.083 463.006 149.689C463.199 149.288 463.467 148.978 463.81 148.761C464.161 148.535 464.538 148.422 464.939 148.422C465.6 148.422 466.115 148.639 466.483 149.074C466.851 149.509 467.036 150.133 467.036 150.944V151.308H463.584C463.601 151.81 463.747 152.216 464.023 152.526C464.308 152.835 464.667 152.99 465.103 152.99C465.404 152.99 465.659 152.927 465.868 152.802C466.086 152.676 466.278 152.509 466.446 152.3L466.973 152.714C466.546 153.375 465.906 153.706 465.052 153.706ZM464.939 149.137C464.588 149.137 464.291 149.267 464.048 149.526C463.814 149.777 463.672 150.133 463.621 150.593H466.169V150.53C466.144 150.087 466.023 149.744 465.805 149.501C465.596 149.258 465.308 149.137 464.939 149.137Z" fill="#757575"/>
<path d="M444.831 165.767H445.785V166.469H444.831V168.063H443.965V166.469H440.839V165.955L443.902 161.211H444.831V165.767ZM441.831 165.767H443.965V162.403L443.852 162.591L441.831 165.767ZM450.944 162.993C450.944 163.336 450.851 163.641 450.667 163.909C450.483 164.177 450.241 164.386 449.939 164.537C450.291 164.687 450.571 164.913 450.78 165.214C450.99 165.507 451.094 165.842 451.094 166.218C451.094 166.804 450.893 167.277 450.492 167.637C450.098 167.988 449.575 168.164 448.923 168.164C448.262 168.164 447.73 167.988 447.329 167.637C446.935 167.277 446.739 166.804 446.739 166.218C446.739 165.842 446.839 165.507 447.04 165.214C447.241 164.913 447.521 164.687 447.881 164.537C447.58 164.386 447.341 164.177 447.165 163.909C446.99 163.641 446.902 163.336 446.902 162.993C446.902 162.416 447.086 161.96 447.454 161.625C447.822 161.282 448.312 161.11 448.923 161.11C449.525 161.11 450.01 161.282 450.379 161.625C450.755 161.96 450.944 162.416 450.944 162.993ZM450.228 166.193C450.228 165.808 450.107 165.499 449.864 165.265C449.621 165.022 449.303 164.901 448.91 164.901C448.517 164.901 448.199 165.022 447.956 165.265C447.722 165.499 447.605 165.813 447.605 166.206C447.605 166.591 447.722 166.896 447.956 167.122C448.19 167.34 448.513 167.448 448.923 167.448C449.324 167.448 449.642 167.335 449.877 167.11C450.111 166.884 450.228 166.578 450.228 166.193ZM448.923 161.826C448.58 161.826 448.299 161.935 448.082 162.152C447.872 162.361 447.768 162.65 447.768 163.018C447.768 163.361 447.872 163.641 448.082 163.859C448.291 164.076 448.567 164.185 448.91 164.185C449.262 164.185 449.542 164.076 449.751 163.859C449.96 163.641 450.065 163.361 450.065 163.018C450.065 162.667 449.956 162.382 449.739 162.165C449.521 161.939 449.249 161.826 448.923 161.826ZM452.513 167.612C452.513 167.461 452.554 167.335 452.638 167.235C452.73 167.135 452.864 167.084 453.04 167.084C453.224 167.084 453.362 167.135 453.454 167.235C453.546 167.335 453.592 167.461 453.592 167.612C453.592 167.754 453.546 167.875 453.454 167.975C453.362 168.068 453.224 168.114 453.04 168.114C452.864 168.114 452.73 168.068 452.638 167.975C452.554 167.875 452.513 167.754 452.513 167.612ZM459.303 168.063H454.81V167.436L457.182 164.8C457.533 164.399 457.776 164.076 457.91 163.834C458.044 163.583 458.111 163.323 458.111 163.056C458.111 162.696 458.002 162.403 457.784 162.177C457.575 161.943 457.287 161.826 456.918 161.826C456.492 161.826 456.157 161.951 455.914 162.202C455.671 162.445 455.55 162.788 455.55 163.231H454.684C454.684 162.595 454.885 162.085 455.287 161.7C455.697 161.307 456.241 161.11 456.918 161.11C457.563 161.11 458.069 161.278 458.437 161.612C458.805 161.947 458.989 162.395 458.989 162.955C458.989 163.625 458.558 164.428 457.697 165.365L455.864 167.348H459.303V168.063ZM460.358 162.529C460.358 162.119 460.487 161.78 460.747 161.512C461.014 161.244 461.353 161.11 461.763 161.11C462.182 161.11 462.521 161.244 462.78 161.512C463.04 161.78 463.169 162.127 463.169 162.554V162.893C463.169 163.303 463.035 163.641 462.768 163.909C462.508 164.168 462.178 164.298 461.776 164.298C461.366 164.298 461.027 164.168 460.759 163.909C460.491 163.641 460.358 163.29 460.358 162.855V162.529ZM461.01 162.893C461.01 163.135 461.077 163.336 461.211 163.495C461.353 163.654 461.542 163.733 461.776 163.733C462.002 163.733 462.182 163.658 462.316 163.508C462.45 163.349 462.517 163.135 462.517 162.867V162.529C462.517 162.286 462.45 162.085 462.316 161.926C462.182 161.759 461.998 161.675 461.763 161.675C461.529 161.675 461.345 161.759 461.211 161.926C461.077 162.085 461.01 162.29 461.01 162.541V162.893ZM463.696 166.382C463.696 165.972 463.826 165.637 464.086 165.378C464.353 165.11 464.692 164.976 465.102 164.976C465.512 164.976 465.847 165.11 466.106 165.378C466.374 165.637 466.508 165.984 466.508 166.419V166.746C466.508 167.156 466.378 167.494 466.119 167.762C465.86 168.03 465.525 168.164 465.115 168.164C464.705 168.164 464.366 168.034 464.098 167.775C463.83 167.507 463.696 167.156 463.696 166.72V166.382ZM464.349 166.746C464.349 166.997 464.416 167.202 464.55 167.361C464.692 167.519 464.881 167.599 465.115 167.599C465.341 167.599 465.521 167.524 465.655 167.373C465.788 167.214 465.855 167.001 465.855 166.733V166.382C465.855 166.131 465.784 165.93 465.642 165.779C465.508 165.62 465.328 165.541 465.102 165.541C464.876 165.541 464.692 165.62 464.55 165.779C464.416 165.93 464.349 166.139 464.349 166.407V166.746ZM461.977 167.549L461.475 167.235L464.826 161.876L465.316 162.19L461.977 167.549Z" fill="#9E9E9E"/>
<path d="M467.098 157.22H365.329H354.354" stroke="#757575" stroke-miterlimit="10"/>
<path d="M355.961 157.22C355.961 156.333 355.241 155.613 354.354 155.613C353.467 155.613 352.747 156.333 352.747 157.22C352.747 158.107 353.467 158.826 354.354 158.826C355.241 158.826 355.961 158.107 355.961 157.22Z" fill="#9E9E9E"/>
</svg>
